<svg width="107" height="20" viewBox="0 0 107 20" fill="none" xmlns="http://www.w3.org/2000/svg">
<path d="M1.0498 9.71515C0.773662 9.71515 0.549805 9.93901 0.549805 10.2151C0.549805 10.4913 0.773662 10.7151 1.0498 10.7151V9.71515ZM106.403 10.5687C106.599 10.3734 106.599 10.0569 106.403 9.8616L103.221 6.67962C103.026 6.48435 102.71 6.48435 102.514 6.67962C102.319 6.87488 102.319 7.19146 102.514 7.38672L105.343 10.2151L102.514 13.0436C102.319 13.2388 102.319 13.5554 102.514 13.7507C102.71 13.9459 103.026 13.9459 103.221 13.7507L106.403 10.5687ZM1.0498 10.7151H106.05V9.71515H1.0498V10.7151Z" fill="#A0B5C6"/>
<path d="M62.81 10C62.81 9.28828 62.2243 8.71742 61.5126 8.73225L57.6352 8.8138L54.5214 2.63074L52.579 2.63074L54.0692 8.88053L50.0658 8.96949L49.0204 7.50898L47.256 7.50898L48.457 10L47.256 12.491L49.0204 12.491L50.0658 11.0305L54.0618 11.1121L52.5716 17.3619L54.514 17.3619L57.6352 11.1862L61.52 11.2603C62.2243 11.2826 62.81 10.7117 62.81 10Z" fill="#D9DDFF"/>
</svg>
