<svg width="1312" height="214" viewBox="0 0 1312 214" fill="none" xmlns="http://www.w3.org/2000/svg">
<rect width="1312" height="214" rx="32" fill="url(#paint0_linear_19_6376)"/>
<path d="M78.184 66.024H78.22C78.904 63.288 79.696 60.372 80.236 58.788L83.08 50.4H90.604V72H85.42V62.964C85.42 60.336 85.528 57.204 85.636 54.612H85.564C84.808 57.528 83.764 61.092 82.648 64.548L80.056 72H75.376L72.856 64.368C71.74 60.732 70.84 57.492 70.012 54.612H69.976C70.012 57.24 70.012 60.264 70.012 62.964V72H65.08V50.4H73.324L76.204 58.968C76.672 60.444 77.5 63.288 78.184 66.024ZM98.04 72.36C95.124 72.36 92.856 70.74 92.856 67.392C92.856 64.26 94.692 62.172 99.192 62.172H103.62V61.452C103.62 59.58 102.828 58.608 100.956 58.608C99.336 58.608 98.292 59.292 97.968 61.308L93.36 60.66C93.792 57.132 95.844 54.54 101.172 54.54C106.356 54.54 108.516 57.06 108.516 61.416V72H103.62V67.824H103.548C102.792 70.74 100.956 72.36 98.04 72.36ZM103.62 65.448V64.944H99.948C98.508 64.944 97.644 65.556 97.644 66.528C97.644 67.572 98.292 68.4 100.164 68.4C102.288 68.4 103.62 67.176 103.62 65.448ZM111.131 49.932H116.063V61.596H116.351L121.679 54.936H127.367V55.008L120.239 63.288L127.691 71.928V72H121.895L116.243 65.16H116.063V72H111.131V49.932ZM135.666 72.468C130.554 72.468 126.918 69.516 126.918 63.828C126.918 57.924 130.23 54.468 135.738 54.468C140.994 54.468 143.55 57.78 143.55 62.46V62.82C143.55 63.396 143.586 63.972 143.478 64.728H131.814C132.138 67.176 133.434 68.256 135.738 68.256C138.006 68.256 138.762 67.14 139.158 65.808L143.406 66.996C142.542 70.092 140.382 72.468 135.666 72.468ZM131.814 61.956H139.05C138.906 59.688 137.754 58.536 135.594 58.536C133.434 58.536 132.138 59.544 131.814 61.956ZM156.937 71.712L150.493 54.936H155.857L157.873 61.2C158.341 62.784 158.917 64.656 159.457 66.42H159.745C160.285 64.656 160.789 62.892 161.221 61.308L162.949 54.936H168.241L161.617 71.892C159.997 76.068 157.765 77.796 153.481 77.796C152.329 77.796 151.645 77.688 150.781 77.58L151.357 73.44C152.113 73.584 152.833 73.692 153.553 73.692C155.317 73.692 156.181 73.44 156.937 71.712ZM176.535 72.504C171.027 72.504 167.679 69.084 167.679 63.468C167.679 57.816 171.099 54.468 176.535 54.468C181.899 54.468 185.355 57.816 185.355 63.468C185.355 69.084 182.007 72.504 176.535 72.504ZM176.535 58.932C174.051 58.932 172.611 60.696 172.611 63.432C172.611 66.204 173.943 68.004 176.499 68.004C179.055 68.004 180.459 66.204 180.459 63.432C180.459 60.696 179.019 58.932 176.535 58.932ZM198.164 72V67.248H198.092C197.336 71.136 195.284 72.504 192.548 72.504C188.84 72.504 187.256 70.056 187.256 66.348V54.936H192.188V64.944C192.188 66.708 192.98 68.076 195.032 68.076C197.012 68.076 198.164 66.924 198.164 64.944V54.936H203.06V72H198.164ZM210.699 54.936V61.02H210.807C211.599 55.836 213.003 54.936 215.379 54.936H216.207V60.552H214.335C211.563 60.552 210.699 61.308 210.699 63.864V72H205.767V54.936H210.699ZM223.218 59.04V54.936H225.198V50.652H230.094V54.936H234.594V59.04H230.094V65.7C230.094 67.032 230.598 67.716 232.074 67.716C232.83 67.716 233.694 67.464 234.306 67.32L234.846 71.856C233.55 72.252 232.686 72.504 230.814 72.504C226.854 72.504 225.198 69.876 225.198 66.636V59.04H223.218ZM241.582 54.936V61.02H241.69C242.482 55.836 243.886 54.936 246.262 54.936H247.09V60.552H245.218C242.446 60.552 241.582 61.308 241.582 63.864V72H236.65V54.936H241.582ZM253.871 54.936V72H248.975V54.936H253.871ZM253.979 49.932V53.136H248.867V49.932H253.979ZM273.643 63.36C273.643 69.12 271.447 72.504 267.307 72.504C264.391 72.504 262.519 70.992 261.691 67.392H261.619V76.896H256.687V54.936H261.619V59.544H261.691C262.555 55.944 264.499 54.468 267.415 54.468C271.483 54.468 273.643 57.852 273.643 63.36ZM261.619 63.252V63.576C261.619 66.348 262.951 68.076 265.219 68.076C267.667 68.076 268.783 66.312 268.783 63.396C268.783 60.552 267.703 58.896 265.219 58.896C262.951 58.896 261.619 60.48 261.619 63.252ZM282.854 72.504C277.094 72.504 275.33 69.876 274.826 66.744L279.398 65.844C279.866 67.752 280.838 68.868 282.962 68.868C284.546 68.868 285.338 68.328 285.374 67.248C285.374 66.276 284.726 65.772 281.666 65.16C276.878 64.152 275.258 62.496 275.258 59.724C275.258 56.448 277.634 54.468 282.386 54.468C287.282 54.468 289.262 56.484 289.946 59.652L285.266 60.696C284.834 58.86 284.042 57.996 282.35 57.996C280.874 57.996 280.118 58.5 280.118 59.508C280.118 60.408 280.55 61.128 283.898 61.704C288.794 62.712 290.198 64.512 290.198 67.068C290.198 70.416 287.93 72.504 282.854 72.504ZM303.26 54.936V59.724H303.296C304.124 55.8 306.14 54.468 308.876 54.468C312.296 54.468 313.88 56.556 314.132 59.832H314.168C314.924 55.8 316.868 54.468 319.748 54.468C323.456 54.468 325.04 56.88 325.04 60.588V72H320.144V61.992C320.144 60.264 319.316 58.896 317.264 58.896C315.284 58.896 314.132 60.012 314.132 61.992V72H309.236V61.992C309.236 60.264 308.408 58.896 306.392 58.896C304.376 58.896 303.26 60.012 303.26 61.992V72H298.328V54.936H303.26ZM335.803 72.504C330.295 72.504 326.947 69.084 326.947 63.468C326.947 57.816 330.367 54.468 335.803 54.468C341.167 54.468 344.623 57.816 344.623 63.468C344.623 69.084 341.275 72.504 335.803 72.504ZM335.803 58.932C333.319 58.932 331.879 60.696 331.879 63.432C331.879 66.204 333.211 68.004 335.767 68.004C338.323 68.004 339.727 66.204 339.727 63.432C339.727 60.696 338.287 58.932 335.803 58.932ZM351.563 54.936V61.02H351.671C352.463 55.836 353.867 54.936 356.243 54.936H357.071V60.552H355.199C352.427 60.552 351.563 61.308 351.563 63.864V72H346.631V54.936H351.563ZM366.772 72.468C361.66 72.468 358.024 69.516 358.024 63.828C358.024 57.924 361.336 54.468 366.844 54.468C372.1 54.468 374.656 57.78 374.656 62.46V62.82C374.656 63.396 374.692 63.972 374.584 64.728H362.92C363.244 67.176 364.54 68.256 366.844 68.256C369.112 68.256 369.868 67.14 370.264 65.808L374.512 66.996C373.648 70.092 371.488 72.468 366.772 72.468ZM362.92 61.956H370.156C370.012 59.688 368.86 58.536 366.7 58.536C364.54 58.536 363.244 59.544 362.92 61.956ZM387.754 54.936V59.724H387.79C388.618 55.8 390.634 54.468 393.37 54.468C396.79 54.468 398.374 56.556 398.626 59.832H398.662C399.418 55.8 401.362 54.468 404.242 54.468C407.95 54.468 409.534 56.88 409.534 60.588V72H404.638V61.992C404.638 60.264 403.81 58.896 401.758 58.896C399.778 58.896 398.626 60.012 398.626 61.992V72H393.73V61.992C393.73 60.264 392.902 58.896 390.886 58.896C388.87 58.896 387.754 60.012 387.754 61.992V72H382.822V54.936H387.754ZM420.189 72.468C415.077 72.468 411.441 69.516 411.441 63.828C411.441 57.924 414.753 54.468 420.261 54.468C425.517 54.468 428.073 57.78 428.073 62.46V62.82C428.073 63.396 428.109 63.972 428.001 64.728H416.337C416.661 67.176 417.957 68.256 420.261 68.256C422.529 68.256 423.285 67.14 423.681 65.808L427.929 66.996C427.065 70.092 424.905 72.468 420.189 72.468ZM416.337 61.956H423.573C423.429 59.688 422.277 58.536 420.117 58.536C417.957 58.536 416.661 59.544 416.337 61.956ZM435.038 54.936V59.724H435.074C435.902 55.8 437.918 54.468 440.654 54.468C444.074 54.468 445.658 56.556 445.91 59.832H445.946C446.702 55.8 448.646 54.468 451.526 54.468C455.234 54.468 456.818 56.88 456.818 60.588V72H451.922V61.992C451.922 60.264 451.094 58.896 449.042 58.896C447.062 58.896 445.91 60.012 445.91 61.992V72H441.014V61.992C441.014 60.264 440.186 58.896 438.17 58.896C436.154 58.896 435.038 60.012 435.038 61.992V72H430.106V54.936H435.038ZM467.581 72.504C462.073 72.504 458.725 69.084 458.725 63.468C458.725 57.816 462.145 54.468 467.581 54.468C472.945 54.468 476.401 57.816 476.401 63.468C476.401 69.084 473.053 72.504 467.581 72.504ZM467.581 58.932C465.097 58.932 463.657 60.696 463.657 63.432C463.657 66.204 464.989 68.004 467.545 68.004C470.101 68.004 471.505 66.204 471.505 63.432C471.505 60.696 470.065 58.932 467.581 58.932ZM483.342 54.936V61.02H483.45C484.242 55.836 485.646 54.936 488.021 54.936H488.85V60.552H486.978C484.206 60.552 483.342 61.308 483.342 63.864V72H478.41V54.936H483.342ZM495.024 72.36C492.108 72.36 489.84 70.74 489.84 67.392C489.84 64.26 491.676 62.172 496.176 62.172H500.604V61.452C500.604 59.58 499.812 58.608 497.94 58.608C496.32 58.608 495.276 59.292 494.952 61.308L490.344 60.66C490.776 57.132 492.828 54.54 498.156 54.54C503.34 54.54 505.5 57.06 505.5 61.416V72H500.604V67.824H500.532C499.776 70.74 497.94 72.36 495.024 72.36ZM500.604 65.448V64.944H496.932C495.492 64.944 494.628 65.556 494.628 66.528C494.628 67.572 495.276 68.4 497.148 68.4C499.272 68.4 500.604 67.176 500.604 65.448ZM525.071 63.36C525.071 69.12 522.875 72.504 518.735 72.504C515.819 72.504 513.947 70.992 513.119 67.392H513.047V72H508.115V49.932H513.047V59.544H513.119C513.983 55.944 515.927 54.468 518.843 54.468C522.911 54.468 525.071 57.852 525.071 63.36ZM513.047 63.252V63.576C513.047 66.348 514.379 68.076 516.647 68.076C519.095 68.076 520.211 66.312 520.211 63.396C520.211 60.552 519.131 58.896 516.647 58.896C514.379 58.896 513.047 60.48 513.047 63.252ZM527.116 49.932H532.048V72H527.116V49.932ZM542.827 72.468C537.715 72.468 534.079 69.516 534.079 63.828C534.079 57.924 537.391 54.468 542.899 54.468C548.155 54.468 550.711 57.78 550.711 62.46V62.82C550.711 63.396 550.747 63.972 550.639 64.728H538.975C539.299 67.176 540.595 68.256 542.899 68.256C545.167 68.256 545.923 67.14 546.319 65.808L550.567 66.996C549.703 70.092 547.543 72.468 542.827 72.468ZM538.975 61.956H546.211C546.067 59.688 544.915 58.536 542.755 58.536C540.595 58.536 539.299 59.544 538.975 61.956Z" fill="#071C2C"/>
<path d="M79.314 139.963L75.4575 138.235C75.2828 138.16 75.0922 138.13 74.9029 138.147C74.7136 138.165 74.5316 138.229 74.3734 138.334C74.3574 138.345 74.3421 138.356 74.3277 138.369L72.3121 140.083C72.2912 140.094 72.2679 140.101 72.2441 140.102C72.2203 140.103 72.1967 140.098 72.175 140.088C70.8794 139.463 69.5373 138.129 68.9096 136.851C68.8991 136.83 68.8937 136.806 68.8937 136.783C68.8937 136.759 68.8991 136.735 68.9096 136.714L70.6296 134.673C70.642 134.658 70.6534 134.642 70.6639 134.626C70.7679 134.467 70.8307 134.285 70.8467 134.096C70.8626 133.907 70.8312 133.716 70.7553 133.542L69.0394 129.692C68.9419 129.465 68.7734 129.276 68.5591 129.152C68.3448 129.029 68.0962 128.978 67.8508 129.008C66.784 129.149 65.8047 129.673 65.0961 130.482C64.3874 131.292 63.9978 132.332 64 133.408C64 139.8 69.2002 145 75.5922 145C76.6682 145.002 77.708 144.612 78.5176 143.904C79.3272 143.195 79.8512 142.216 79.9916 141.149C80.0214 140.905 79.9716 140.658 79.8495 140.444C79.7274 140.23 79.5396 140.061 79.314 139.963ZM75.5922 144.02C69.7406 144.02 64.9796 139.259 64.9796 133.408C64.9769 132.57 65.2792 131.76 65.8301 131.129C66.3811 130.498 67.1429 130.089 67.9732 129.979H67.992C68.0249 129.98 68.0568 129.99 68.0836 130.009C68.1104 130.028 68.1308 130.055 68.1422 130.086L69.8647 133.932C69.8745 133.953 69.8796 133.976 69.8796 134C69.8796 134.024 69.8745 134.047 69.8647 134.068L68.1414 136.114C68.1285 136.129 68.1168 136.144 68.1063 136.16C67.9984 136.325 67.9349 136.515 67.9219 136.711C67.9089 136.908 67.9468 137.104 68.032 137.281C68.7561 138.764 70.25 140.246 71.7488 140.97C71.9273 141.055 72.1247 141.092 72.3217 141.078C72.5187 141.064 72.7086 140.998 72.873 140.889C72.8885 140.878 72.904 140.867 72.9187 140.855L74.9334 139.14C74.9533 139.129 74.9753 139.123 74.9979 139.122C75.0204 139.12 75.043 139.124 75.0641 139.132L78.9213 140.86C78.9528 140.874 78.9793 140.897 78.9971 140.926C79.0148 140.955 79.0228 140.989 79.0201 141.024C78.9104 141.854 78.502 142.617 77.8711 143.168C77.2403 143.72 76.4302 144.023 75.5922 144.02Z" fill="black"/>
<path d="M94.096 140.792V134.008H95.104V140.792H94.096ZM91.12 137.88V136.936H98.08V137.88H91.12ZM107.711 131.704C108.703 131.704 109.54 131.928 110.223 132.376C110.905 132.813 111.423 133.448 111.775 134.28C112.127 135.112 112.303 136.12 112.303 137.304C112.303 138.563 112.084 139.624 111.647 140.488C111.22 141.352 110.623 142.003 109.855 142.44C109.087 142.877 108.196 143.096 107.183 143.096C106.681 143.096 106.201 143.048 105.743 142.952C105.295 142.856 104.889 142.701 104.527 142.488L104.991 141.56C105.279 141.752 105.609 141.891 105.983 141.976C106.367 142.051 106.761 142.088 107.167 142.088C108.372 142.088 109.332 141.704 110.047 140.936C110.772 140.168 111.135 139.021 111.135 137.496C111.135 137.251 111.119 136.957 111.087 136.616C111.065 136.275 111.007 135.933 110.911 135.592L111.311 135.896C111.204 136.451 110.975 136.925 110.623 137.32C110.281 137.704 109.855 137.997 109.343 138.2C108.841 138.403 108.281 138.504 107.663 138.504C106.927 138.504 106.271 138.365 105.695 138.088C105.129 137.811 104.687 137.421 104.367 136.92C104.047 136.419 103.887 135.827 103.887 135.144C103.887 134.44 104.052 133.832 104.383 133.32C104.713 132.808 105.167 132.413 105.743 132.136C106.329 131.848 106.985 131.704 107.711 131.704ZM107.759 132.68C107.225 132.68 106.751 132.781 106.335 132.984C105.929 133.176 105.609 133.453 105.375 133.816C105.14 134.179 105.023 134.611 105.023 135.112C105.023 135.848 105.273 136.435 105.775 136.872C106.287 137.309 106.975 137.528 107.839 137.528C108.415 137.528 108.916 137.421 109.343 137.208C109.78 136.995 110.116 136.701 110.351 136.328C110.596 135.955 110.719 135.539 110.719 135.08C110.719 134.664 110.607 134.275 110.383 133.912C110.159 133.549 109.828 133.256 109.391 133.032C108.953 132.797 108.409 132.68 107.759 132.68ZM115.925 143V132.28L116.437 132.824H113.285V131.8H117.077V143H115.925ZM127.429 131.704C128.421 131.704 129.259 131.928 129.941 132.376C130.624 132.813 131.141 133.448 131.493 134.28C131.845 135.112 132.021 136.12 132.021 137.304C132.021 138.563 131.803 139.624 131.365 140.488C130.939 141.352 130.341 142.003 129.573 142.44C128.805 142.877 127.915 143.096 126.901 143.096C126.4 143.096 125.92 143.048 125.461 142.952C125.013 142.856 124.608 142.701 124.245 142.488L124.709 141.56C124.997 141.752 125.328 141.891 125.701 141.976C126.085 142.051 126.48 142.088 126.885 142.088C128.091 142.088 129.051 141.704 129.765 140.936C130.491 140.168 130.853 139.021 130.853 137.496C130.853 137.251 130.837 136.957 130.805 136.616C130.784 136.275 130.725 135.933 130.629 135.592L131.029 135.896C130.923 136.451 130.693 136.925 130.341 137.32C130 137.704 129.573 137.997 129.061 138.2C128.56 138.403 128 138.504 127.381 138.504C126.645 138.504 125.989 138.365 125.413 138.088C124.848 137.811 124.405 137.421 124.085 136.92C123.765 136.419 123.605 135.827 123.605 135.144C123.605 134.44 123.771 133.832 124.101 133.32C124.432 132.808 124.885 132.413 125.461 132.136C126.048 131.848 126.704 131.704 127.429 131.704ZM127.477 132.68C126.944 132.68 126.469 132.781 126.053 132.984C125.648 133.176 125.328 133.453 125.093 133.816C124.859 134.179 124.741 134.611 124.741 135.112C124.741 135.848 124.992 136.435 125.493 136.872C126.005 137.309 126.693 137.528 127.557 137.528C128.133 137.528 128.635 137.421 129.061 137.208C129.499 136.995 129.835 136.701 130.069 136.328C130.315 135.955 130.437 135.539 130.437 135.08C130.437 134.664 130.325 134.275 130.101 133.912C129.877 133.549 129.547 133.256 129.109 133.032C128.672 132.797 128.128 132.68 127.477 132.68ZM133.483 143V142.184L138.139 137.624C138.566 137.208 138.886 136.845 139.099 136.536C139.313 136.216 139.457 135.917 139.531 135.64C139.606 135.363 139.643 135.101 139.643 134.856C139.643 134.205 139.419 133.693 138.971 133.32C138.534 132.947 137.883 132.76 137.019 132.76C136.358 132.76 135.771 132.861 135.259 133.064C134.758 133.267 134.326 133.581 133.963 134.008L133.147 133.304C133.585 132.792 134.145 132.397 134.827 132.12C135.51 131.843 136.273 131.704 137.115 131.704C137.873 131.704 138.529 131.827 139.083 132.072C139.638 132.307 140.065 132.653 140.363 133.112C140.673 133.571 140.827 134.109 140.827 134.728C140.827 135.091 140.774 135.448 140.667 135.8C140.571 136.152 140.39 136.525 140.123 136.92C139.867 137.304 139.489 137.741 138.987 138.232L134.715 142.424L134.395 141.976H141.339V143H133.483ZM147.218 143.096C146.354 143.096 145.586 142.872 144.914 142.424C144.242 141.965 143.714 141.315 143.33 140.472C142.946 139.619 142.754 138.595 142.754 137.4C142.754 136.205 142.946 135.187 143.33 134.344C143.714 133.491 144.242 132.84 144.914 132.392C145.586 131.933 146.354 131.704 147.218 131.704C148.082 131.704 148.85 131.933 149.522 132.392C150.194 132.84 150.722 133.491 151.106 134.344C151.501 135.187 151.698 136.205 151.698 137.4C151.698 138.595 151.501 139.619 151.106 140.472C150.722 141.315 150.194 141.965 149.522 142.424C148.85 142.872 148.082 143.096 147.218 143.096ZM147.218 142.04C147.879 142.04 148.455 141.864 148.946 141.512C149.437 141.149 149.821 140.627 150.098 139.944C150.375 139.251 150.514 138.403 150.514 137.4C150.514 136.397 150.375 135.555 150.098 134.872C149.821 134.179 149.437 133.656 148.946 133.304C148.455 132.941 147.879 132.76 147.218 132.76C146.578 132.76 146.007 132.941 145.506 133.304C145.005 133.656 144.615 134.179 144.338 134.872C144.061 135.555 143.922 136.397 143.922 137.4C143.922 138.403 144.061 139.251 144.338 139.944C144.615 140.627 145.005 141.149 145.506 141.512C146.007 141.864 146.578 142.04 147.218 142.04ZM156.836 131.704C157.828 131.704 158.665 131.928 159.348 132.376C160.03 132.813 160.548 133.448 160.9 134.28C161.252 135.112 161.428 136.12 161.428 137.304C161.428 138.563 161.209 139.624 160.772 140.488C160.345 141.352 159.748 142.003 158.98 142.44C158.212 142.877 157.321 143.096 156.308 143.096C155.806 143.096 155.326 143.048 154.868 142.952C154.42 142.856 154.014 142.701 153.652 142.488L154.116 141.56C154.404 141.752 154.734 141.891 155.108 141.976C155.492 142.051 155.886 142.088 156.292 142.088C157.497 142.088 158.457 141.704 159.172 140.936C159.897 140.168 160.26 139.021 160.26 137.496C160.26 137.251 160.244 136.957 160.212 136.616C160.19 136.275 160.132 135.933 160.036 135.592L160.436 135.896C160.329 136.451 160.1 136.925 159.748 137.32C159.406 137.704 158.98 137.997 158.468 138.2C157.966 138.403 157.406 138.504 156.788 138.504C156.052 138.504 155.396 138.365 154.82 138.088C154.254 137.811 153.812 137.421 153.492 136.92C153.172 136.419 153.012 135.827 153.012 135.144C153.012 134.44 153.177 133.832 153.508 133.32C153.838 132.808 154.292 132.413 154.868 132.136C155.454 131.848 156.11 131.704 156.836 131.704ZM156.884 132.68C156.35 132.68 155.876 132.781 155.46 132.984C155.054 133.176 154.734 133.453 154.5 133.816C154.265 134.179 154.148 134.611 154.148 135.112C154.148 135.848 154.398 136.435 154.9 136.872C155.412 137.309 156.1 137.528 156.964 137.528C157.54 137.528 158.041 137.421 158.468 137.208C158.905 136.995 159.241 136.701 159.476 136.328C159.721 135.955 159.844 135.539 159.844 135.08C159.844 134.664 159.732 134.275 159.508 133.912C159.284 133.549 158.953 133.256 158.516 133.032C158.078 132.797 157.534 132.68 156.884 132.68ZM164.941 143L169.773 132.312L170.125 132.824H163.197L163.789 132.264V134.92H162.653V131.8H170.877V132.616L166.189 143H164.941ZM175.883 131.704C176.875 131.704 177.712 131.928 178.395 132.376C179.077 132.813 179.595 133.448 179.947 134.28C180.299 135.112 180.475 136.12 180.475 137.304C180.475 138.563 180.256 139.624 179.819 140.488C179.392 141.352 178.795 142.003 178.027 142.44C177.259 142.877 176.368 143.096 175.355 143.096C174.853 143.096 174.373 143.048 173.914 142.952C173.467 142.856 173.061 142.701 172.699 142.488L173.163 141.56C173.451 141.752 173.781 141.891 174.155 141.976C174.539 142.051 174.933 142.088 175.339 142.088C176.544 142.088 177.504 141.704 178.219 140.936C178.944 140.168 179.307 139.021 179.307 137.496C179.307 137.251 179.291 136.957 179.259 136.616C179.237 136.275 179.179 135.933 179.083 135.592L179.483 135.896C179.376 136.451 179.147 136.925 178.795 137.32C178.453 137.704 178.027 137.997 177.515 138.2C177.013 138.403 176.453 138.504 175.835 138.504C175.099 138.504 174.443 138.365 173.867 138.088C173.301 137.811 172.859 137.421 172.539 136.92C172.219 136.419 172.059 135.827 172.059 135.144C172.059 134.44 172.224 133.832 172.555 133.32C172.885 132.808 173.339 132.413 173.914 132.136C174.501 131.848 175.157 131.704 175.883 131.704ZM175.931 132.68C175.397 132.68 174.923 132.781 174.507 132.984C174.101 133.176 173.781 133.453 173.547 133.816C173.312 134.179 173.195 134.611 173.195 135.112C173.195 135.848 173.445 136.435 173.947 136.872C174.459 137.309 175.147 137.528 176.011 137.528C176.587 137.528 177.088 137.421 177.515 137.208C177.952 136.995 178.288 136.701 178.523 136.328C178.768 135.955 178.891 135.539 178.891 135.08C178.891 134.664 178.779 134.275 178.555 133.912C178.331 133.549 178 133.256 177.563 133.032C177.125 132.797 176.581 132.68 175.931 132.68ZM185.332 143.096C184.522 143.096 183.754 142.968 183.028 142.712C182.314 142.445 181.738 142.093 181.3 141.656L181.86 140.744C182.223 141.117 182.708 141.427 183.316 141.672C183.935 141.917 184.607 142.04 185.332 142.04C186.26 142.04 186.97 141.837 187.46 141.432C187.962 141.027 188.212 140.483 188.212 139.8C188.212 139.117 187.967 138.573 187.476 138.168C186.996 137.763 186.234 137.56 185.188 137.56H184.388V136.712L187.844 132.376L188.004 132.824H181.764V131.8H188.964V132.616L185.508 136.952L184.948 136.584H185.38C186.724 136.584 187.727 136.883 188.388 137.48C189.06 138.077 189.396 138.845 189.396 139.784C189.396 140.413 189.247 140.979 188.948 141.48C188.65 141.981 188.196 142.376 187.588 142.664C186.991 142.952 186.239 143.096 185.332 143.096ZM195.484 143.096C194.62 143.096 193.852 142.872 193.18 142.424C192.508 141.965 191.98 141.315 191.596 140.472C191.212 139.619 191.02 138.595 191.02 137.4C191.02 136.205 191.212 135.187 191.596 134.344C191.98 133.491 192.508 132.84 193.18 132.392C193.852 131.933 194.62 131.704 195.484 131.704C196.348 131.704 197.116 131.933 197.788 132.392C198.46 132.84 198.988 133.491 199.372 134.344C199.766 135.187 199.964 136.205 199.964 137.4C199.964 138.595 199.766 139.619 199.372 140.472C198.988 141.315 198.46 141.965 197.788 142.424C197.116 142.872 196.348 143.096 195.484 143.096ZM195.484 142.04C196.145 142.04 196.721 141.864 197.212 141.512C197.702 141.149 198.086 140.627 198.364 139.944C198.641 139.251 198.78 138.403 198.78 137.4C198.78 136.397 198.641 135.555 198.364 134.872C198.086 134.179 197.702 133.656 197.212 133.304C196.721 132.941 196.145 132.76 195.484 132.76C194.844 132.76 194.273 132.941 193.772 133.304C193.27 133.656 192.881 134.179 192.604 134.872C192.326 135.555 192.188 136.397 192.188 137.4C192.188 138.403 192.326 139.251 192.604 139.944C192.881 140.627 193.27 141.149 193.772 141.512C194.273 141.864 194.844 142.04 195.484 142.04ZM205.101 131.704C206.093 131.704 206.931 131.928 207.613 132.376C208.296 132.813 208.813 133.448 209.165 134.28C209.517 135.112 209.693 136.12 209.693 137.304C209.693 138.563 209.475 139.624 209.037 140.488C208.611 141.352 208.013 142.003 207.245 142.44C206.477 142.877 205.587 143.096 204.573 143.096C204.072 143.096 203.592 143.048 203.133 142.952C202.685 142.856 202.28 142.701 201.917 142.488L202.381 141.56C202.669 141.752 203 141.891 203.373 141.976C203.757 142.051 204.152 142.088 204.557 142.088C205.763 142.088 206.723 141.704 207.437 140.936C208.163 140.168 208.525 139.021 208.525 137.496C208.525 137.251 208.509 136.957 208.477 136.616C208.456 136.275 208.397 135.933 208.301 135.592L208.701 135.896C208.595 136.451 208.365 136.925 208.013 137.32C207.672 137.704 207.245 137.997 206.733 138.2C206.232 138.403 205.672 138.504 205.053 138.504C204.317 138.504 203.661 138.365 203.085 138.088C202.52 137.811 202.077 137.421 201.757 136.92C201.437 136.419 201.277 135.827 201.277 135.144C201.277 134.44 201.443 133.832 201.773 133.32C202.104 132.808 202.557 132.413 203.133 132.136C203.72 131.848 204.376 131.704 205.101 131.704ZM205.149 132.68C204.616 132.68 204.141 132.781 203.725 132.984C203.32 133.176 203 133.453 202.765 133.816C202.531 134.179 202.413 134.611 202.413 135.112C202.413 135.848 202.664 136.435 203.165 136.872C203.677 137.309 204.365 137.528 205.229 137.528C205.805 137.528 206.307 137.421 206.733 137.208C207.171 136.995 207.507 136.701 207.741 136.328C207.987 135.955 208.109 135.539 208.109 135.08C208.109 134.664 207.997 134.275 207.773 133.912C207.549 133.549 207.219 133.256 206.781 133.032C206.344 132.797 205.8 132.68 205.149 132.68ZM213.206 143L218.038 132.312L218.39 132.824H211.462L212.054 132.264V134.92H210.918V131.8H219.142V132.616L214.454 143H213.206Z" fill="#071C2C"/>
<path fill-rule="evenodd" clip-rule="evenodd" d="M66.4667 163.675L71.5067 166.864C71.5528 166.894 71.609 166.909 71.6667 166.909C71.7244 166.909 71.7805 166.894 71.8267 166.864L76.8667 163.675H66.4667ZM77.5333 164.097L72.3067 167.404C72.122 167.521 71.8975 167.584 71.6667 167.584C71.4359 167.584 71.2113 167.521 71.0267 167.404L65.8 164.097V171.325H77.5333V164.097ZM65.6667 163H77.6667C77.8435 163 78.013 163.059 78.1381 163.165C78.2631 163.27 78.3333 163.413 78.3333 163.562V171.438C78.3333 171.587 78.2631 171.73 78.1381 171.835C78.013 171.941 77.8435 172 77.6667 172H65.6667C65.4899 172 65.3203 171.941 65.1953 171.835C65.0702 171.73 65 171.587 65 171.438V163.562C65 163.413 65.0702 163.27 65.1953 163.165C65.3203 163.059 65.4899 163 65.6667 163Z" fill="black"/>
<path d="M93.872 164.52C94.5547 164.52 95.152 164.653 95.664 164.92C96.1867 165.176 96.592 165.571 96.88 166.104C97.1787 166.637 97.328 167.309 97.328 168.12V173H96.192V168.232C96.192 167.347 95.968 166.68 95.52 166.232C95.0827 165.773 94.464 165.544 93.664 165.544C93.0667 165.544 92.544 165.667 92.096 165.912C91.6587 166.147 91.3173 166.493 91.072 166.952C90.8373 167.4 90.72 167.944 90.72 168.584V173H89.584V161.128H90.72V166.904L90.496 166.472C90.7627 165.864 91.1893 165.389 91.776 165.048C92.3627 164.696 93.0613 164.52 93.872 164.52ZM103.821 173.08C103.01 173.08 102.279 172.899 101.629 172.536C100.989 172.163 100.482 171.656 100.109 171.016C99.7352 170.365 99.5485 169.624 99.5485 168.792C99.5485 167.949 99.7352 167.208 100.109 166.568C100.482 165.928 100.989 165.427 101.629 165.064C102.269 164.701 102.999 164.52 103.821 164.52C104.653 164.52 105.389 164.701 106.029 165.064C106.679 165.427 107.186 165.928 107.549 166.568C107.922 167.208 108.109 167.949 108.109 168.792C108.109 169.624 107.922 170.365 107.549 171.016C107.186 171.656 106.679 172.163 106.029 172.536C105.378 172.899 104.642 173.08 103.821 173.08ZM103.821 172.072C104.429 172.072 104.967 171.939 105.437 171.672C105.906 171.395 106.274 171.011 106.541 170.52C106.818 170.019 106.957 169.443 106.957 168.792C106.957 168.131 106.818 167.555 106.541 167.064C106.274 166.573 105.906 166.195 105.437 165.928C104.967 165.651 104.434 165.512 103.837 165.512C103.239 165.512 102.706 165.651 102.237 165.928C101.767 166.195 101.394 166.573 101.117 167.064C100.839 167.555 100.701 168.131 100.701 168.792C100.701 169.443 100.839 170.019 101.117 170.52C101.394 171.011 101.767 171.395 102.237 171.672C102.706 171.939 103.234 172.072 103.821 172.072ZM110.428 173V161.128H111.564V173H110.428ZM114.725 173V164.6H115.861V173H114.725ZM115.301 162.744C115.066 162.744 114.869 162.664 114.709 162.504C114.549 162.344 114.469 162.152 114.469 161.928C114.469 161.704 114.549 161.517 114.709 161.368C114.869 161.208 115.066 161.128 115.301 161.128C115.535 161.128 115.733 161.203 115.893 161.352C116.053 161.501 116.133 161.688 116.133 161.912C116.133 162.147 116.053 162.344 115.893 162.504C115.743 162.664 115.546 162.744 115.301 162.744ZM122.366 173.08C121.566 173.08 120.846 172.899 120.206 172.536C119.576 172.173 119.08 171.672 118.718 171.032C118.355 170.381 118.174 169.635 118.174 168.792C118.174 167.939 118.355 167.192 118.718 166.552C119.08 165.912 119.576 165.416 120.206 165.064C120.846 164.701 121.566 164.52 122.366 164.52C123.102 164.52 123.758 164.685 124.334 165.016C124.92 165.347 125.384 165.832 125.726 166.472C126.078 167.101 126.253 167.875 126.253 168.792C126.253 169.699 126.083 170.472 125.742 171.112C125.4 171.752 124.936 172.243 124.35 172.584C123.774 172.915 123.112 173.08 122.366 173.08ZM122.446 172.072C123.043 172.072 123.576 171.939 124.046 171.672C124.526 171.395 124.899 171.011 125.166 170.52C125.443 170.019 125.582 169.443 125.582 168.792C125.582 168.131 125.443 167.555 125.166 167.064C124.899 166.573 124.526 166.195 124.046 165.928C123.576 165.651 123.043 165.512 122.446 165.512C121.859 165.512 121.331 165.651 120.862 165.928C120.392 166.195 120.019 166.573 119.742 167.064C119.464 167.555 119.326 168.131 119.326 168.792C119.326 169.443 119.464 170.019 119.742 170.52C120.019 171.011 120.392 171.395 120.862 171.672C121.331 171.939 121.859 172.072 122.446 172.072ZM125.614 173V170.472L125.726 168.776L125.566 167.08V161.128H126.702V173H125.614ZM135.129 173V171.144L135.081 170.84V167.736C135.081 167.021 134.879 166.472 134.473 166.088C134.079 165.704 133.487 165.512 132.697 165.512C132.153 165.512 131.636 165.603 131.145 165.784C130.655 165.965 130.239 166.205 129.897 166.504L129.385 165.656C129.812 165.293 130.324 165.016 130.921 164.824C131.519 164.621 132.148 164.52 132.809 164.52C133.897 164.52 134.735 164.792 135.321 165.336C135.919 165.869 136.217 166.685 136.217 167.784V173H135.129ZM132.233 173.08C131.604 173.08 131.055 172.979 130.585 172.776C130.127 172.563 129.775 172.275 129.529 171.912C129.284 171.539 129.161 171.112 129.161 170.632C129.161 170.195 129.263 169.8 129.465 169.448C129.679 169.085 130.02 168.797 130.489 168.584C130.969 168.36 131.609 168.248 132.409 168.248H135.305V169.096H132.441C131.631 169.096 131.065 169.24 130.745 169.528C130.436 169.816 130.281 170.173 130.281 170.6C130.281 171.08 130.468 171.464 130.841 171.752C131.215 172.04 131.737 172.184 132.409 172.184C133.049 172.184 133.599 172.04 134.057 171.752C134.527 171.453 134.868 171.027 135.081 170.472L135.337 171.256C135.124 171.811 134.751 172.253 134.217 172.584C133.695 172.915 133.033 173.08 132.233 173.08ZM139.211 176.184C138.816 176.184 138.437 176.12 138.075 175.992C137.723 175.864 137.418 175.672 137.162 175.416L137.691 174.568C137.904 174.771 138.133 174.925 138.379 175.032C138.635 175.149 138.917 175.208 139.227 175.208C139.6 175.208 139.92 175.101 140.187 174.888C140.464 174.685 140.725 174.323 140.971 173.8L141.515 172.568L141.643 172.392L145.099 164.6H146.219L142.011 174.008C141.776 174.552 141.515 174.984 141.227 175.304C140.949 175.624 140.645 175.848 140.315 175.976C139.984 176.115 139.616 176.184 139.211 176.184ZM141.451 173.24L137.579 164.6H138.763L142.187 172.312L141.451 173.24ZM149.981 173.08C149.287 173.08 148.631 172.984 148.013 172.792C147.394 172.589 146.909 172.339 146.557 172.04L147.069 171.144C147.41 171.4 147.847 171.624 148.381 171.816C148.914 171.997 149.474 172.088 150.061 172.088C150.861 172.088 151.437 171.965 151.789 171.72C152.141 171.464 152.317 171.128 152.317 170.712C152.317 170.403 152.215 170.163 152.013 169.992C151.821 169.811 151.565 169.677 151.245 169.592C150.925 169.496 150.567 169.416 150.173 169.352C149.778 169.288 149.383 169.213 148.989 169.128C148.605 169.043 148.253 168.92 147.933 168.76C147.613 168.589 147.351 168.36 147.149 168.072C146.957 167.784 146.861 167.4 146.861 166.92C146.861 166.461 146.989 166.051 147.245 165.688C147.501 165.325 147.874 165.043 148.365 164.84C148.866 164.627 149.474 164.52 150.189 164.52C150.733 164.52 151.277 164.595 151.821 164.744C152.365 164.883 152.813 165.069 153.165 165.304L152.669 166.216C152.295 165.96 151.895 165.779 151.469 165.672C151.042 165.555 150.615 165.496 150.189 165.496C149.431 165.496 148.871 165.629 148.509 165.896C148.157 166.152 147.981 166.483 147.981 166.888C147.981 167.208 148.077 167.459 148.269 167.64C148.471 167.821 148.733 167.965 149.053 168.072C149.383 168.168 149.741 168.248 150.125 168.312C150.519 168.376 150.909 168.456 151.293 168.552C151.687 168.637 152.045 168.76 152.365 168.92C152.695 169.069 152.957 169.288 153.149 169.576C153.351 169.853 153.453 170.221 153.453 170.68C153.453 171.171 153.314 171.597 153.037 171.96C152.77 172.312 152.375 172.589 151.853 172.792C151.341 172.984 150.717 173.08 149.981 173.08ZM162.193 176.2C161.094 176.2 160.092 176.019 159.185 175.656C158.278 175.304 157.494 174.803 156.833 174.152C156.182 173.512 155.676 172.749 155.313 171.864C154.961 170.968 154.785 169.992 154.785 168.936C154.785 167.869 154.961 166.899 155.313 166.024C155.676 165.139 156.188 164.376 156.849 163.736C157.521 163.085 158.316 162.584 159.233 162.232C160.15 161.88 161.158 161.704 162.257 161.704C163.345 161.704 164.337 161.875 165.233 162.216C166.14 162.557 166.924 163.043 167.585 163.672C168.246 164.291 168.753 165.032 169.105 165.896C169.468 166.76 169.649 167.715 169.649 168.76C169.649 169.656 169.542 170.429 169.329 171.08C169.126 171.72 168.828 172.216 168.433 172.568C168.038 172.909 167.564 173.08 167.009 173.08C166.465 173.08 166.028 172.915 165.697 172.584C165.366 172.253 165.201 171.789 165.201 171.192V169.928L165.329 168.904L165.169 167.304V164.888H166.209V170.952C166.209 171.4 166.305 171.715 166.497 171.896C166.689 172.077 166.924 172.168 167.201 172.168C167.532 172.168 167.82 172.035 168.065 171.768C168.31 171.501 168.497 171.117 168.625 170.616C168.764 170.104 168.833 169.491 168.833 168.776C168.833 167.837 168.673 166.984 168.353 166.216C168.033 165.448 167.58 164.787 166.993 164.232C166.406 163.677 165.713 163.256 164.913 162.968C164.113 162.669 163.228 162.52 162.257 162.52C161.286 162.52 160.396 162.675 159.585 162.984C158.774 163.293 158.076 163.736 157.489 164.312C156.913 164.877 156.465 165.555 156.145 166.344C155.825 167.123 155.665 167.987 155.665 168.936C155.665 169.885 155.82 170.755 156.129 171.544C156.449 172.333 156.897 173.011 157.473 173.576C158.049 174.152 158.737 174.595 159.537 174.904C160.337 175.224 161.222 175.384 162.193 175.384C162.673 175.384 163.185 175.325 163.729 175.208C164.284 175.091 164.796 174.915 165.265 174.68L165.537 175.464C165.057 175.709 164.513 175.891 163.905 176.008C163.297 176.136 162.726 176.2 162.193 176.2ZM162.001 173.08C161.244 173.08 160.566 172.904 159.969 172.552C159.372 172.189 158.897 171.699 158.545 171.08C158.204 170.451 158.033 169.736 158.033 168.936C158.033 168.136 158.204 167.427 158.545 166.808C158.897 166.189 159.372 165.704 159.969 165.352C160.566 165 161.244 164.824 162.001 164.824C162.737 164.824 163.388 164.989 163.953 165.32C164.529 165.651 164.977 166.125 165.297 166.744C165.628 167.352 165.793 168.083 165.793 168.936C165.793 169.789 165.628 170.525 165.297 171.144C164.977 171.763 164.534 172.243 163.969 172.584C163.404 172.915 162.748 173.08 162.001 173.08ZM162.145 172.152C162.721 172.152 163.238 172.019 163.697 171.752C164.166 171.485 164.529 171.112 164.785 170.632C165.052 170.141 165.185 169.576 165.185 168.936C165.185 168.285 165.052 167.725 164.785 167.256C164.529 166.776 164.166 166.408 163.697 166.152C163.238 165.885 162.721 165.752 162.145 165.752C161.548 165.752 161.02 165.885 160.561 166.152C160.102 166.408 159.74 166.776 159.473 167.256C159.217 167.736 159.089 168.296 159.089 168.936C159.089 169.576 159.217 170.136 159.473 170.616C159.74 171.096 160.102 171.475 160.561 171.752C161.02 172.019 161.548 172.152 162.145 172.152ZM174.803 173.08C174.013 173.08 173.405 172.867 172.979 172.44C172.552 172.013 172.339 171.411 172.339 170.632V162.744H173.475V170.568C173.475 171.059 173.597 171.437 173.843 171.704C174.099 171.971 174.461 172.104 174.931 172.104C175.432 172.104 175.848 171.96 176.179 171.672L176.579 172.488C176.355 172.691 176.083 172.84 175.763 172.936C175.453 173.032 175.133 173.08 174.803 173.08ZM170.835 165.544V164.6H176.035V165.544H170.835ZM182.935 164.52C183.617 164.52 184.215 164.653 184.727 164.92C185.249 165.176 185.655 165.571 185.943 166.104C186.241 166.637 186.391 167.309 186.391 168.12V173H185.255V168.232C185.255 167.347 185.031 166.68 184.583 166.232C184.145 165.773 183.527 165.544 182.727 165.544C182.129 165.544 181.607 165.667 181.159 165.912C180.721 166.147 180.38 166.493 180.135 166.952C179.9 167.4 179.783 167.944 179.783 168.584V173H178.647V161.128H179.783V166.904L179.559 166.472C179.825 165.864 180.252 165.389 180.839 165.048C181.425 164.696 182.124 164.52 182.935 164.52ZM193.027 173.08C192.152 173.08 191.384 172.899 190.723 172.536C190.062 172.163 189.544 171.656 189.171 171.016C188.798 170.365 188.611 169.624 188.611 168.792C188.611 167.96 188.787 167.224 189.139 166.584C189.502 165.944 189.992 165.443 190.611 165.08C191.24 164.707 191.944 164.52 192.723 164.52C193.512 164.52 194.211 164.701 194.819 165.064C195.438 165.416 195.923 165.917 196.275 166.568C196.627 167.208 196.803 167.949 196.803 168.792C196.803 168.845 196.798 168.904 196.787 168.968C196.787 169.021 196.787 169.08 196.787 169.144H189.475V168.296H196.179L195.731 168.632C195.731 168.024 195.598 167.485 195.331 167.016C195.075 166.536 194.723 166.163 194.275 165.896C193.827 165.629 193.31 165.496 192.723 165.496C192.147 165.496 191.63 165.629 191.171 165.896C190.712 166.163 190.355 166.536 190.099 167.016C189.843 167.496 189.715 168.045 189.715 168.664V168.84C189.715 169.48 189.854 170.045 190.131 170.536C190.419 171.016 190.814 171.395 191.315 171.672C191.827 171.939 192.408 172.072 193.059 172.072C193.571 172.072 194.046 171.981 194.483 171.8C194.931 171.619 195.315 171.341 195.635 170.968L196.275 171.704C195.902 172.152 195.432 172.493 194.867 172.728C194.312 172.963 193.699 173.08 193.027 173.08ZM201.371 173.08C200.678 173.08 200.022 172.984 199.403 172.792C198.785 172.589 198.299 172.339 197.947 172.04L198.459 171.144C198.801 171.4 199.238 171.624 199.771 171.816C200.305 171.997 200.865 172.088 201.451 172.088C202.251 172.088 202.827 171.965 203.179 171.72C203.531 171.464 203.707 171.128 203.707 170.712C203.707 170.403 203.606 170.163 203.403 169.992C203.211 169.811 202.955 169.677 202.635 169.592C202.315 169.496 201.958 169.416 201.563 169.352C201.169 169.288 200.774 169.213 200.379 169.128C199.995 169.043 199.643 168.92 199.323 168.76C199.003 168.589 198.742 168.36 198.539 168.072C198.347 167.784 198.251 167.4 198.251 166.92C198.251 166.461 198.379 166.051 198.635 165.688C198.891 165.325 199.265 165.043 199.755 164.84C200.257 164.627 200.865 164.52 201.579 164.52C202.123 164.52 202.667 164.595 203.211 164.744C203.755 164.883 204.203 165.069 204.555 165.304L204.059 166.216C203.686 165.96 203.286 165.779 202.859 165.672C202.433 165.555 202.006 165.496 201.579 165.496C200.822 165.496 200.262 165.629 199.899 165.896C199.547 166.152 199.371 166.483 199.371 166.888C199.371 167.208 199.467 167.459 199.659 167.64C199.862 167.821 200.123 167.965 200.443 168.072C200.774 168.168 201.131 168.248 201.515 168.312C201.91 168.376 202.299 168.456 202.683 168.552C203.078 168.637 203.435 168.76 203.755 168.92C204.086 169.069 204.347 169.288 204.539 169.576C204.742 169.853 204.843 170.221 204.843 170.68C204.843 171.171 204.705 171.597 204.427 171.96C204.161 172.312 203.766 172.589 203.243 172.792C202.731 172.984 202.107 173.08 201.371 173.08ZM207.824 170.824L207.856 169.368L213.088 164.6H214.48L210.784 168.136L210.144 168.68L207.824 170.824ZM206.928 173V161.128H208.064V173H206.928ZM213.44 173L209.936 168.632L210.672 167.752L214.832 173H213.44ZM216.164 176.184C215.769 176.184 215.39 176.12 215.028 175.992C214.676 175.864 214.372 175.672 214.116 175.416L214.644 174.568C214.857 174.771 215.086 174.925 215.332 175.032C215.588 175.149 215.87 175.208 216.18 175.208C216.553 175.208 216.873 175.101 217.14 174.888C217.417 174.685 217.678 174.323 217.924 173.8L218.468 172.568L218.596 172.392L222.052 164.6H223.172L218.964 174.008C218.729 174.552 218.468 174.984 218.18 175.304C217.902 175.624 217.598 175.848 217.268 175.976C216.937 176.115 216.569 176.184 216.164 176.184ZM218.404 173.24L214.532 164.6H215.716L219.14 172.312L218.404 173.24ZM227.662 173.08C226.873 173.08 226.265 172.867 225.838 172.44C225.411 172.013 225.198 171.411 225.198 170.632V162.744H226.334V170.568C226.334 171.059 226.457 171.437 226.702 171.704C226.958 171.971 227.321 172.104 227.79 172.104C228.291 172.104 228.707 171.96 229.038 171.672L229.438 172.488C229.214 172.691 228.942 172.84 228.622 172.936C228.313 173.032 227.993 173.08 227.662 173.08ZM223.694 165.544V164.6H228.894V165.544H223.694ZM231.506 173V164.6H232.594V166.888L232.482 166.488C232.717 165.848 233.111 165.363 233.666 165.032C234.221 164.691 234.909 164.52 235.73 164.52V165.624C235.687 165.624 235.645 165.624 235.602 165.624C235.559 165.613 235.517 165.608 235.474 165.608C234.589 165.608 233.895 165.88 233.394 166.424C232.893 166.957 232.642 167.72 232.642 168.712V173H231.506ZM242.442 173V171.144L242.394 170.84V167.736C242.394 167.021 242.191 166.472 241.786 166.088C241.391 165.704 240.799 165.512 240.01 165.512C239.466 165.512 238.948 165.603 238.458 165.784C237.967 165.965 237.551 166.205 237.21 166.504L236.698 165.656C237.124 165.293 237.636 165.016 238.234 164.824C238.831 164.621 239.46 164.52 240.122 164.52C241.21 164.52 242.047 164.792 242.634 165.336C243.231 165.869 243.53 166.685 243.53 167.784V173H242.442ZM239.546 173.08C238.916 173.08 238.367 172.979 237.898 172.776C237.439 172.563 237.087 172.275 236.842 171.912C236.596 171.539 236.474 171.112 236.474 170.632C236.474 170.195 236.575 169.8 236.778 169.448C236.991 169.085 237.332 168.797 237.802 168.584C238.282 168.36 238.922 168.248 239.722 168.248H242.618V169.096H239.754C238.943 169.096 238.378 169.24 238.058 169.528C237.748 169.816 237.594 170.173 237.594 170.6C237.594 171.08 237.78 171.464 238.154 171.752C238.527 172.04 239.05 172.184 239.722 172.184C240.362 172.184 240.911 172.04 241.37 171.752C241.839 171.453 242.18 171.027 242.394 170.472L242.65 171.256C242.436 171.811 242.063 172.253 241.53 172.584C241.007 172.915 240.346 173.08 239.546 173.08ZM246.615 173V164.6H247.751V173H246.615ZM247.191 162.744C246.957 162.744 246.759 162.664 246.599 162.504C246.439 162.344 246.359 162.152 246.359 161.928C246.359 161.704 246.439 161.517 246.599 161.368C246.759 161.208 246.957 161.128 247.191 161.128C247.426 161.128 247.623 161.203 247.783 161.352C247.943 161.501 248.023 161.688 248.023 161.912C248.023 162.147 247.943 162.344 247.783 162.504C247.634 162.664 247.437 162.744 247.191 162.744ZM250.912 173V161.128H252.048V173H250.912ZM257.465 173.08C256.772 173.08 256.116 172.984 255.497 172.792C254.878 172.589 254.393 172.339 254.041 172.04L254.553 171.144C254.894 171.4 255.332 171.624 255.865 171.816C256.398 171.997 256.958 172.088 257.545 172.088C258.345 172.088 258.921 171.965 259.273 171.72C259.625 171.464 259.801 171.128 259.801 170.712C259.801 170.403 259.7 170.163 259.497 169.992C259.305 169.811 259.049 169.677 258.729 169.592C258.409 169.496 258.052 169.416 257.657 169.352C257.262 169.288 256.868 169.213 256.473 169.128C256.089 169.043 255.737 168.92 255.417 168.76C255.097 168.589 254.836 168.36 254.633 168.072C254.441 167.784 254.345 167.4 254.345 166.92C254.345 166.461 254.473 166.051 254.729 165.688C254.985 165.325 255.358 165.043 255.849 164.84C256.35 164.627 256.958 164.52 257.673 164.52C258.217 164.52 258.761 164.595 259.305 164.744C259.849 164.883 260.297 165.069 260.649 165.304L260.153 166.216C259.78 165.96 259.38 165.779 258.953 165.672C258.526 165.555 258.1 165.496 257.673 165.496C256.916 165.496 256.356 165.629 255.993 165.896C255.641 166.152 255.465 166.483 255.465 166.888C255.465 167.208 255.561 167.459 255.753 167.64C255.956 167.821 256.217 167.965 256.537 168.072C256.868 168.168 257.225 168.248 257.609 168.312C258.004 168.376 258.393 168.456 258.777 168.552C259.172 168.637 259.529 168.76 259.849 168.92C260.18 169.069 260.441 169.288 260.633 169.576C260.836 169.853 260.937 170.221 260.937 170.68C260.937 171.171 260.798 171.597 260.521 171.96C260.254 172.312 259.86 172.589 259.337 172.792C258.825 172.984 258.201 173.08 257.465 173.08ZM263.134 173.08C262.899 173.08 262.696 172.995 262.526 172.824C262.366 172.653 262.286 172.445 262.286 172.2C262.286 171.944 262.366 171.736 262.526 171.576C262.696 171.416 262.899 171.336 263.134 171.336C263.368 171.336 263.566 171.416 263.726 171.576C263.896 171.736 263.982 171.944 263.982 172.2C263.982 172.445 263.896 172.653 263.726 172.824C263.566 172.995 263.368 173.08 263.134 173.08ZM269.666 173.08C268.834 173.08 268.087 172.899 267.426 172.536C266.775 172.163 266.263 171.656 265.89 171.016C265.516 170.365 265.33 169.624 265.33 168.792C265.33 167.949 265.516 167.208 265.89 166.568C266.263 165.928 266.775 165.427 267.426 165.064C268.087 164.701 268.834 164.52 269.666 164.52C270.38 164.52 271.026 164.659 271.602 164.936C272.178 165.213 272.631 165.629 272.962 166.184L272.114 166.76C271.826 166.333 271.468 166.019 271.042 165.816C270.615 165.613 270.151 165.512 269.65 165.512C269.052 165.512 268.514 165.651 268.034 165.928C267.554 166.195 267.175 166.573 266.898 167.064C266.62 167.555 266.482 168.131 266.482 168.792C266.482 169.453 266.62 170.029 266.898 170.52C267.175 171.011 267.554 171.395 268.034 171.672C268.514 171.939 269.052 172.072 269.65 172.072C270.151 172.072 270.615 171.971 271.042 171.768C271.468 171.565 271.826 171.256 272.114 170.84L272.962 171.416C272.631 171.96 272.178 172.376 271.602 172.664C271.026 172.941 270.38 173.08 269.666 173.08ZM278.477 173.08C277.666 173.08 276.935 172.899 276.285 172.536C275.645 172.163 275.138 171.656 274.765 171.016C274.391 170.365 274.205 169.624 274.205 168.792C274.205 167.949 274.391 167.208 274.765 166.568C275.138 165.928 275.645 165.427 276.285 165.064C276.925 164.701 277.655 164.52 278.477 164.52C279.309 164.52 280.045 164.701 280.685 165.064C281.335 165.427 281.842 165.928 282.205 166.568C282.578 167.208 282.765 167.949 282.765 168.792C282.765 169.624 282.578 170.365 282.205 171.016C281.842 171.656 281.335 172.163 280.685 172.536C280.034 172.899 279.298 173.08 278.477 173.08ZM278.477 172.072C279.085 172.072 279.623 171.939 280.093 171.672C280.562 171.395 280.93 171.011 281.197 170.52C281.474 170.019 281.613 169.443 281.613 168.792C281.613 168.131 281.474 167.555 281.197 167.064C280.93 166.573 280.562 166.195 280.093 165.928C279.623 165.651 279.09 165.512 278.493 165.512C277.895 165.512 277.362 165.651 276.893 165.928C276.423 166.195 276.05 166.573 275.773 167.064C275.495 167.555 275.357 168.131 275.357 168.792C275.357 169.443 275.495 170.019 275.773 170.52C276.05 171.011 276.423 171.395 276.893 171.672C277.362 171.939 277.89 172.072 278.477 172.072ZM295.58 164.52C296.263 164.52 296.855 164.653 297.356 164.92C297.868 165.176 298.263 165.571 298.54 166.104C298.828 166.637 298.972 167.309 298.972 168.12V173H297.836V168.232C297.836 167.347 297.623 166.68 297.196 166.232C296.78 165.773 296.188 165.544 295.42 165.544C294.844 165.544 294.343 165.667 293.916 165.912C293.5 166.147 293.175 166.493 292.94 166.952C292.716 167.4 292.604 167.944 292.604 168.584V173H291.468V168.232C291.468 167.347 291.255 166.68 290.828 166.232C290.401 165.773 289.804 165.544 289.036 165.544C288.471 165.544 287.975 165.667 287.548 165.912C287.121 166.147 286.791 166.493 286.556 166.952C286.332 167.4 286.22 167.944 286.22 168.584V173H285.084V164.6H286.172V166.872L285.996 166.472C286.252 165.864 286.663 165.389 287.228 165.048C287.804 164.696 288.481 164.52 289.26 164.52C290.081 164.52 290.78 164.728 291.356 165.144C291.932 165.549 292.305 166.163 292.476 166.984L292.028 166.808C292.273 166.125 292.705 165.576 293.324 165.16C293.953 164.733 294.705 164.52 295.58 164.52Z" fill="#071C2C"/>
<path d="M965.387 173.572C966.496 178.443 967.242 183.315 967.168 188.233C967.114 191.848 966.677 196.471 965.858 201.518H1257.58C1263.17 184.827 1260.36 165.575 1248.44 151.894C1241.26 143.656 1232.48 136.89 1228.19 126.576C1223.55 115.374 1223.59 102.5 1223.08 90.5794C1223.08 90.539 1223.07 90.492 1223.07 90.445C1221.96 65.1462 1220.26 37.9928 1192.19 28.8275C1189.67 27.7994 1187.05 26.9729 1184.33 26.3681C1178.87 25.1653 1173.01 24.8495 1166.72 25.6021C1154.41 27.0871 1143.22 33.2153 1131.7 37.8315C1120.18 42.4612 1107.07 45.6127 1095.52 41.0569C1086.1 37.341 1079.34 29.1433 1071.85 22.3028C1061.28 12.647 1048.1 5.16148 1033.8 4.11325C1011.52 2.50729 993.696 18.1502 992.561 40.3177C992.164 47.9309 993.038 55.5508 992.756 63.1639C991.855 89.1212 965.858 101.27 958.513 124.439C953.427 140.471 961.584 156.894 965.387 173.572Z" fill="#EDFAFA"/>
<path d="M1216.22 176.528C1216.22 185.216 1214.93 193.609 1212.55 201.524H1046.39C1044.01 193.609 1042.73 185.216 1042.73 176.528C1042.73 128.618 1081.56 89.7861 1129.47 89.7861C1177.38 89.7861 1216.22 128.618 1216.22 176.528Z" fill="#D7E2F4"/>
<path d="M1269 200.63H950V205.092H1269V200.63Z" fill="#7481B2"/>
<path d="M1261.43 205.092H956.195V213.746H1261.43V205.092Z" fill="#545C8C"/>
<path d="M1261.43 205.092H1171.79V213.746H1261.43V205.092Z" fill="#262A41"/>
<path d="M1269 200.63H1166.14V205.092H1269V200.63Z" fill="#444A7C"/>
<path d="M1137.18 58.5613C1137.18 58.5613 1136 57.9834 1131.88 58.9174C1128.83 59.6095 1135.88 62.3107 1135.95 62.2032C1136.02 62.0957 1137.18 58.5613 1137.18 58.5613Z" fill="#8391FC"/>
<path d="M1136.37 60.0665C1136.37 60.0665 1155.01 58.2119 1161.19 70.1054C1167.37 81.9989 1165.67 105.638 1173.7 113.822C1181.73 122.007 1205.99 148.582 1183.12 160.012C1160.25 171.442 1158.56 157.23 1156.71 149.664C1154.85 142.091 1157.17 135.143 1153.46 131.434C1149.75 127.725 1144.5 123.707 1146.51 112.895C1148.52 102.083 1133.07 102.392 1133.07 102.392L1129.67 142.709L1109.81 146.365C1109.81 146.365 1111.83 131.508 1111.59 116.833C1111.36 102.157 1105.1 86.7831 1111.13 73.0351C1117.16 59.2871 1127.91 56.8882 1136.37 60.0665Z" fill="#262A41"/>
<path d="M1112.53 141.62C1104.73 144.832 1105.47 190.565 1111.26 189.335C1120.57 191.761 1126.09 138.979 1112.53 141.62Z" fill="#E8A398"/>
<path d="M1104.97 170.406C1104.97 170.406 1103.45 187.024 1103.27 187.292C1102.55 188.374 1087.19 188.63 1087.19 188.63L1083.52 199.354C1083.52 199.354 1111.76 202.572 1115.69 195.604C1119.62 188.636 1121.5 169.781 1121.5 169.781L1104.97 170.406Z" fill="#E8A398"/>
<path d="M1125.09 120.186L1116.2 168.983L1115.77 171.926L1109.01 171.334L1103.44 170.851C1103.44 170.851 1105.84 144.329 1108.93 136.145C1112.28 127.302 1125.09 120.186 1125.09 120.186Z" fill="#85D2F9"/>
<path d="M1116.22 168.983L1115.78 171.926L1109.02 171.334C1108.68 168.922 1108.17 164.339 1108.21 158.93C1108.28 150.887 1110.28 144.389 1110.28 144.389L1116.22 168.983Z" fill="#C3D3EA"/>
<path d="M1152.87 117.726C1152.87 117.726 1135.05 140.236 1134.78 139.833C1134.51 139.43 1122.19 132.193 1122.31 131.125C1122.43 130.144 1127.13 120.891 1128.98 118.338C1129.16 118.082 1129.32 117.887 1129.44 117.787C1130.54 116.792 1131.81 114.944 1132.02 112.935C1132.06 112.505 1132.06 112.062 1131.98 111.625L1134.85 110.435L1146.94 105.389L1147.03 105.349C1147.03 105.349 1147.82 112.828 1148.72 114.373C1149.44 115.623 1152.87 117.726 1152.87 117.726Z" fill="#E8A398"/>
<path opacity="0.5" d="M1146.94 105.537C1143.87 110.388 1132.42 116.752 1128.96 118.338C1129.14 118.082 1129.3 117.887 1129.42 117.787C1130.52 116.792 1131.8 114.944 1132 112.935L1134.83 110.435L1144.97 101.438C1144.97 101.438 1145.61 101.357 1146.45 101.344L1146.92 105.389L1146.94 105.537Z" fill="#E8A398"/>
<path d="M1109.65 200.611C1112.1 197.11 1115.2 191.291 1114.42 185.062C1113.17 175.057 1110.49 165.582 1109.77 157.902C1108.64 145.827 1111.5 132.435 1120.51 123.78C1121.57 122.772 1122.73 121.906 1123.86 120.992C1125.87 119.366 1129.21 118.102 1129.41 117.82C1129.34 118.069 1129.6 120.111 1130 122.322C1130.51 125.144 1131.24 128.249 1131.77 128.215C1132.7 128.161 1134.32 127.442 1136.25 126.381C1142.23 123.068 1151.13 116.443 1151.13 116.443C1151.13 116.443 1168.29 119.93 1168.82 136.279C1169.36 152.62 1166.42 165.051 1167.67 174.519C1168.69 182.354 1171.45 193.999 1175.72 200.611H1109.65Z" fill="#85D2F9"/>
<path d="M1137.03 126.952C1137.03 126.952 1132.39 130.231 1130.26 134.384C1130.01 134.888 1129.79 135.405 1129.62 135.93C1129.71 135.54 1131.09 129.486 1128.33 123.814C1127.21 121.523 1128.3 121.51 1130.04 122.329C1130.55 125.151 1131.27 128.256 1131.81 128.222C1132.74 128.169 1134.36 127.45 1136.28 126.388C1136.75 126.731 1137.03 126.952 1137.03 126.952Z" fill="#C3D3EA"/>
<path d="M1155.26 139.497C1155.26 139.497 1154.94 173.861 1152.76 177.288C1148.83 183.449 1108.62 198.286 1108.62 198.286L1150.26 197.211C1150.26 197.211 1170.45 184.881 1170.45 184.343C1170.44 183.812 1155.26 139.497 1155.26 139.497Z" fill="#C3D3EA"/>
<path d="M1136.1 200.611H1086.7V197.533H1133.02C1134.72 197.533 1136.1 198.911 1136.1 200.611Z" fill="#262A41"/>
<path d="M1047.39 200.611H1110.79L1104.7 161.645C1104.53 160.516 1103.56 159.683 1102.41 159.683H1043.72C1042.29 159.683 1041.21 160.953 1041.43 162.357L1047.39 200.611Z" fill="#262A41"/>
<path d="M1165.59 141.62C1157.79 144.832 1158.53 190.565 1164.33 189.335C1173.63 191.761 1179.15 138.979 1165.59 141.62Z" fill="#E8A398"/>
<path d="M1156.92 171.522C1156.92 171.522 1156.92 179.162 1156.51 179.7C1156.11 180.238 1126.59 191.943 1126.59 191.943L1128.64 201.592C1128.64 201.592 1145.35 199.65 1153.93 197.124C1163.04 194.442 1171.59 192.769 1173.67 187.474C1175.75 182.179 1176.42 171.193 1176.42 171.193L1156.92 171.522Z" fill="#E8A398"/>
<path d="M1155.26 139.497L1156.07 172.06L1177.29 172.329C1177.29 172.329 1180.24 142.978 1177.02 132.395C1173.8 121.805 1151.16 116.449 1151.16 116.449L1155.26 139.497Z" fill="#85D2F9"/>
<path d="M1149.04 113.211C1149.04 113.211 1154.6 117.041 1153.56 119.036C1151.67 122.678 1141.99 128.437 1136.08 130.043C1133.68 130.695 1131.91 128.222 1131.91 128.222L1149.04 113.211Z" fill="white"/>
<path d="M1130.03 115.744C1130.03 115.744 1125.68 118.485 1126.58 120.918C1127.56 123.559 1128.46 127.409 1129.44 128.753C1130.42 130.097 1132.11 128.323 1132.11 128.323L1130.03 115.744Z" fill="white"/>
<path d="M1169.58 187.69C1169.7 189.43 1168.77 191.097 1167.33 192.091C1156.12 199.872 1104.04 205.161 1105.19 201.371C1104.88 198.576 1168.65 174.594 1169.58 187.69Z" fill="#E8A398"/>
<path d="M1089.38 201.256C1089.51 201.014 1094.95 193.314 1099.72 193.273C1104.49 193.233 1110.5 196.559 1111.36 196.694C1112.22 196.828 1114.22 196.969 1114.22 196.969L1114.74 202.694C1114.74 202.694 1111.09 202.076 1110.48 202.593C1109.86 203.117 1109.51 203.944 1107.58 203.635C1105.64 203.326 1103.95 201.209 1101.58 200.839C1099.21 200.47 1097.06 202.949 1094.95 202.62C1092.84 202.284 1089.38 201.256 1089.38 201.256Z" fill="#E8A398"/>
<path d="M1146.84 106.014C1146.84 106.014 1144.44 108.843 1137 112.471C1133.5 114.178 1129.55 116.483 1125.51 115.69C1121.95 114.991 1120.06 111.443 1118.54 108.507C1117.05 105.644 1115.93 102.19 1115.41 99.0188C1114.8 95.3567 1114.35 82.8787 1115.96 80.3656C1118.05 77.1067 1134.35 73.0481 1134.35 73.0481L1143.95 78.3363L1151.2 83.134L1146.84 106.014Z" fill="#E8A398"/>
<path d="M1148.62 113.601C1145.59 110.174 1146.41 100.968 1143.88 95.2565C1143.11 93.5229 1141.62 94.6518 1141.24 93.8992C1139.96 91.366 1139.1 82.9801 1139.1 82.9801C1139.1 82.9801 1133.32 84.1963 1125.6 84.0485C1121.89 83.9813 1112.41 80.3931 1112.41 80.3931L1118.31 73.8281L1135.62 64.7166C1135.62 64.7166 1159.05 84.8212 1158.24 85.8896C1157.43 86.958 1154.22 108.937 1154.22 108.937L1148.62 113.601Z" fill="#262A41"/>
<path d="M1147.95 88.7783L1144.92 88.6775C1145.14 82.0454 1144.22 62.8546 1136.33 60.0324L1137.13 58.5339C1148.71 62.6731 1147.98 87.7099 1147.95 88.7783Z" fill="#6875F5"/>
<path d="M1147.21 99.5369C1147.21 99.5369 1140.92 109.126 1127.81 110.57" stroke="#262A41" stroke-width="0.789672" stroke-miterlimit="10"/>
<path d="M1126.9 112.492C1128.4 112.492 1129.62 111.662 1129.62 110.637C1129.62 109.613 1128.4 108.783 1126.9 108.783C1125.4 108.783 1124.18 109.613 1124.18 110.637C1124.18 111.662 1125.4 112.492 1126.9 112.492Z" fill="#262A41"/>
<path d="M1146.22 102.103C1150.06 102.103 1153.18 98.701 1153.18 94.5038C1153.18 90.3066 1150.06 86.9041 1146.22 86.9041C1142.37 86.9041 1139.26 90.3066 1139.26 94.5038C1139.26 98.701 1142.37 102.103 1146.22 102.103Z" fill="white"/>
<path d="M1147.98 102.103C1151.83 102.103 1154.95 98.701 1154.95 94.5038C1154.95 90.3066 1151.83 86.9041 1147.98 86.9041C1144.14 86.9041 1141.02 90.3066 1141.02 94.5038C1141.02 98.701 1144.14 102.103 1147.98 102.103Z" fill="#6875F5"/>
<path d="M1149.68 99.7584C1152.19 99.7584 1154.23 97.4299 1154.23 94.5576C1154.23 91.6852 1152.19 89.3567 1149.68 89.3567C1147.17 89.3567 1145.13 91.6852 1145.13 94.5576C1145.13 97.4299 1147.17 99.7584 1149.68 99.7584Z" fill="#8391FC"/>
<path d="M1029.6 122.113C1053.17 122.113 1072.28 103.001 1072.28 79.4246C1072.28 55.8483 1053.17 36.7358 1029.6 36.7358C1006.02 36.7358 986.906 55.8483 986.906 79.4246C986.906 103.001 1006.02 122.113 1029.6 122.113Z" fill="#16BDCA"/>
<path d="M1062.77 95.9749C1063 96.667 1067.15 118.324 1067.15 118.324L1045.03 113.022L1062.77 95.9749Z" fill="#16BDCA"/>
<path d="M1010.11 64.924C1010.12 64.9105 1010.14 64.8971 1010.16 64.8769C1010.79 64.3394 1011.36 63.7615 1011.9 63.1903L1012.1 62.982C1012.42 62.6528 1012.72 62.337 1013.06 62.0212C1014.61 60.5362 1016.51 60.5496 1018 62.0682L1023.07 67.1414C1023.8 67.8201 1024.2 68.6667 1024.2 69.5335C1024.2 70.3936 1023.81 71.2335 1023.08 71.9727L1019.93 75.1241C1019.83 75.2316 1019.73 75.3459 1019.73 75.487C1019.73 75.5139 1019.73 75.5743 1019.79 75.7087C1019.8 75.7289 1019.82 75.749 1019.82 75.7692C1020 76.0783 1020.18 76.4143 1020.35 76.7704C1020.51 77.0862 1020.69 77.4491 1020.9 77.7716C1022.68 80.5938 1025.01 83.1606 1028.03 85.5998C1028.03 85.6065 1028.04 85.6199 1028.05 85.6267C1029.7 86.9168 1031.07 87.7634 1032.48 88.348L1032.5 88.3548C1032.81 88.4555 1032.88 88.4555 1033.1 88.2405C1033.11 88.2338 1033.11 88.2271 1033.12 88.2204C1033.83 87.4275 1034.54 86.7085 1035.4 85.8753C1035.57 85.6938 1035.75 85.5124 1035.94 85.331L1036.2 85.0891C1037.74 83.5436 1039.59 83.5436 1041.14 85.0891L1043.64 87.5887C1043.79 87.7433 1043.95 87.8844 1044.09 88.0457C1044.24 88.1868 1044.38 88.3212 1044.53 88.4623C1045.17 89.0872 1045.69 89.6046 1046.22 90.1623L1046.22 90.169C1046.93 90.8746 1047.3 91.7011 1047.3 92.5544C1047.3 93.3944 1046.94 94.2276 1046.24 94.96C1046.23 94.9734 1046.22 94.9802 1046.21 94.9936L1043.06 98.1383C1042.06 99.1395 1040.83 99.7107 1039.4 99.8383C1037.47 99.9996 1035.49 99.6502 1033 98.7162C1029.08 97.2648 1025.43 95.0809 1021.51 91.8287C1016.8 87.8844 1013.09 83.1472 1010.47 77.7246C1009.49 75.6953 1008.36 72.9873 1008.17 69.9837C1008.16 69.8225 1008.16 69.641 1008.16 69.473C1008.18 67.6319 1008.81 66.1469 1010.11 64.924Z" fill="white"/>
<path d="M1026.6 62.9692C1027.53 62.7945 1028.48 62.7004 1029.46 62.7004C1038.13 62.7004 1045.15 69.9978 1045.15 79.0019C1045.15 80.0165 1045.07 81.011 1044.89 81.9786" stroke="white" stroke-width="1.44032" stroke-miterlimit="10" stroke-linecap="round"/>
<path d="M1023.63 59.8982C1025.47 59.2935 1027.42 58.9709 1029.45 58.9709C1040.1 58.9709 1048.74 67.9414 1048.74 79.0017C1048.74 81.1116 1048.43 83.1409 1047.84 85.0492" stroke="white" stroke-width="1.44032" stroke-miterlimit="10" stroke-linecap="round"/>
<path d="M1203.6 113.524C1210.22 113.524 1215.59 108.154 1215.59 101.53C1215.59 94.9059 1210.22 89.5359 1203.6 89.5359C1196.97 89.5359 1191.6 94.9059 1191.6 101.53C1191.6 108.154 1196.97 113.524 1203.6 113.524Z" stroke="#C3D3EA" stroke-width="1.51692" stroke-miterlimit="10" stroke-linecap="round"/>
<path d="M1199.12 103.304L1203.61 101.53V93.0098" stroke="#C3D3EA" stroke-width="1.51692" stroke-miterlimit="10" stroke-linecap="round"/>
<path d="M1181.13 51.3762C1181.04 51.6652 1179.3 60.7499 1179.3 60.7499L1188.58 58.5257L1181.13 51.3762Z" fill="#16BDCA"/>
<path d="M1200.8 62.0062C1213.65 62.0062 1224.08 53.9918 1224.08 44.1055C1224.08 34.2192 1213.65 26.2048 1200.8 26.2048C1187.94 26.2048 1177.52 34.2192 1177.52 44.1055C1177.52 53.9918 1187.94 62.0062 1200.8 62.0062Z" fill="#16BDCA"/>
<path d="M1210.89 46.9684C1212.47 46.9684 1213.75 45.6868 1213.75 44.1059C1213.75 42.525 1212.47 41.2434 1210.89 41.2434C1209.31 41.2434 1208.02 42.525 1208.02 44.1059C1208.02 45.6868 1209.31 46.9684 1210.89 46.9684Z" fill="white"/>
<path d="M1200.8 46.9684C1202.38 46.9684 1203.66 45.6868 1203.66 44.1059C1203.66 42.525 1202.38 41.2434 1200.8 41.2434C1199.22 41.2434 1197.94 42.525 1197.94 44.1059C1197.94 45.6868 1199.22 46.9684 1200.8 46.9684Z" fill="white"/>
<path d="M1190.72 46.9684C1192.3 46.9684 1193.58 45.6868 1193.58 44.1059C1193.58 42.525 1192.3 41.2434 1190.72 41.2434C1189.14 41.2434 1187.86 42.525 1187.86 44.1059C1187.86 45.6868 1189.14 46.9684 1190.72 46.9684Z" fill="white"/>
<defs>
<linearGradient id="paint0_linear_19_6376" x1="0" y1="0" x2="1094.41" y2="618.484" gradientUnits="userSpaceOnUse">
<stop stop-color="#BCF0DA"/>
<stop offset="1" stop-color="#DEF7EC"/>
</linearGradient>
</defs>
</svg>
