<svg width="328" height="140" viewBox="0 0 328 140" fill="none" xmlns="http://www.w3.org/2000/svg">
<rect width="328" height="140" rx="12" fill="url(#paint0_linear_0_2710)"/>
<path d="M9.89 35V22.4H11.366L17.018 31.922H16.226L21.806 22.4H23.282L23.3 35H21.572L21.554 25.118H21.968L17 33.47H16.172L11.168 25.118H11.618V35H9.89ZM32.7514 35V32.984L32.6614 32.606V29.168C32.6614 28.436 32.4454 27.872 32.0134 27.476C31.5934 27.068 30.9574 26.864 30.1054 26.864C29.5414 26.864 28.9894 26.96 28.4494 27.152C27.9094 27.332 27.4534 27.578 27.0814 27.89L26.3614 26.594C26.8534 26.198 27.4414 25.898 28.1254 25.694C28.8214 25.478 29.5474 25.37 30.3034 25.37C31.6114 25.37 32.6194 25.688 33.3274 26.324C34.0354 26.96 34.3894 27.932 34.3894 29.24V35H32.7514ZM29.6194 35.108C28.9114 35.108 28.2874 34.988 27.7474 34.748C27.2194 34.508 26.8114 34.178 26.5234 33.758C26.2354 33.326 26.0914 32.84 26.0914 32.3C26.0914 31.784 26.2114 31.316 26.4514 30.896C26.7034 30.476 27.1054 30.14 27.6574 29.888C28.2214 29.636 28.9774 29.51 29.9254 29.51H32.9494V30.752H29.9974C29.1334 30.752 28.5514 30.896 28.2514 31.184C27.9514 31.472 27.8014 31.82 27.8014 32.228C27.8014 32.696 27.9874 33.074 28.3594 33.362C28.7314 33.638 29.2474 33.776 29.9074 33.776C30.5554 33.776 31.1194 33.632 31.5994 33.344C32.0914 33.056 32.4454 32.636 32.6614 32.084L33.0034 33.272C32.7754 33.836 32.3734 34.286 31.7974 34.622C31.2214 34.946 30.4954 35.108 29.6194 35.108ZM38.9912 32.696L39.0272 30.482L44.5172 25.46H46.6052L42.3932 29.6L41.4572 30.392L38.9912 32.696ZM37.5872 35V21.644H39.3152V35H37.5872ZM44.8772 35L41.1332 30.356L42.2492 28.97L47.0012 35H44.8772ZM52.5227 35.108C51.5027 35.108 50.6027 34.898 49.8227 34.478C49.0547 34.058 48.4547 33.482 48.0227 32.75C47.6027 32.018 47.3927 31.178 47.3927 30.23C47.3927 29.282 47.5967 28.442 48.0047 27.71C48.4247 26.978 48.9947 26.408 49.7147 26C50.4467 25.58 51.2687 25.37 52.1807 25.37C53.1047 25.37 53.9207 25.574 54.6287 25.982C55.3367 26.39 55.8887 26.966 56.2847 27.71C56.6927 28.442 56.8967 29.3 56.8967 30.284C56.8967 30.356 56.8907 30.44 56.8787 30.536C56.8787 30.632 56.8727 30.722 56.8607 30.806H48.7427V29.564H55.9607L55.2587 29.996C55.2707 29.384 55.1447 28.838 54.8807 28.358C54.6167 27.878 54.2507 27.506 53.7827 27.242C53.3267 26.966 52.7927 26.828 52.1807 26.828C51.5807 26.828 51.0467 26.966 50.5787 27.242C50.1107 27.506 49.7447 27.884 49.4807 28.376C49.2167 28.856 49.0847 29.408 49.0847 30.032V30.32C49.0847 30.956 49.2287 31.526 49.5167 32.03C49.8167 32.522 50.2307 32.906 50.7587 33.182C51.2867 33.458 51.8927 33.596 52.5767 33.596C53.1407 33.596 53.6507 33.5 54.1067 33.308C54.5747 33.116 54.9827 32.828 55.3307 32.444L56.2847 33.56C55.8527 34.064 55.3127 34.448 54.6647 34.712C54.0287 34.976 53.3147 35.108 52.5227 35.108ZM76.0642 25.37C76.8322 25.37 77.5102 25.52 78.0982 25.82C78.6862 26.12 79.1422 26.576 79.4662 27.188C79.8022 27.8 79.9702 28.574 79.9702 29.51V35H78.2422V29.708C78.2422 28.784 78.0262 28.088 77.5942 27.62C77.1622 27.152 76.5562 26.918 75.7762 26.918C75.2002 26.918 74.6962 27.038 74.2642 27.278C73.8322 27.518 73.4962 27.872 73.2562 28.34C73.0282 28.808 72.9142 29.39 72.9142 30.086V35H71.1862V29.708C71.1862 28.784 70.9702 28.088 70.5382 27.62C70.1182 27.152 69.5122 26.918 68.7202 26.918C68.1562 26.918 67.6582 27.038 67.2262 27.278C66.7942 27.518 66.4582 27.872 66.2182 28.34C65.9782 28.808 65.8582 29.39 65.8582 30.086V35H64.1302V25.46H65.7862V27.998L65.5162 27.35C65.8162 26.726 66.2782 26.24 66.9022 25.892C67.5262 25.544 68.2522 25.37 69.0802 25.37C69.9922 25.37 70.7782 25.598 71.4382 26.054C72.0982 26.498 72.5302 27.176 72.7342 28.088L72.0322 27.8C72.3202 27.068 72.8242 26.48 73.5442 26.036C74.2642 25.592 75.1042 25.37 76.0642 25.37ZM87.2357 35.108C86.2757 35.108 85.4237 34.898 84.6797 34.478C83.9357 34.058 83.3477 33.482 82.9157 32.75C82.4837 32.006 82.2677 31.166 82.2677 30.23C82.2677 29.282 82.4837 28.442 82.9157 27.71C83.3477 26.978 83.9357 26.408 84.6797 26C85.4237 25.58 86.2757 25.37 87.2357 25.37C88.1837 25.37 89.0297 25.58 89.7737 26C90.5297 26.408 91.1177 26.978 91.5377 27.71C91.9697 28.43 92.1857 29.27 92.1857 30.23C92.1857 31.178 91.9697 32.018 91.5377 32.75C91.1177 33.482 90.5297 34.058 89.7737 34.478C89.0297 34.898 88.1837 35.108 87.2357 35.108ZM87.2357 33.596C87.8477 33.596 88.3937 33.458 88.8737 33.182C89.3657 32.906 89.7497 32.516 90.0257 32.012C90.3017 31.496 90.4397 30.902 90.4397 30.23C90.4397 29.546 90.3017 28.958 90.0257 28.466C89.7497 27.962 89.3657 27.572 88.8737 27.296C88.3937 27.02 87.8477 26.882 87.2357 26.882C86.6237 26.882 86.0777 27.02 85.5977 27.296C85.1177 27.572 84.7337 27.962 84.4457 28.466C84.1577 28.958 84.0137 29.546 84.0137 30.23C84.0137 30.902 84.1577 31.496 84.4457 32.012C84.7337 32.516 85.1177 32.906 85.5977 33.182C86.0777 33.458 86.6237 33.596 87.2357 33.596ZM94.5755 35V25.46H96.2315V28.052L96.0695 27.404C96.3335 26.744 96.7775 26.24 97.4015 25.892C98.0255 25.544 98.7935 25.37 99.7055 25.37V27.044C99.6335 27.032 99.5615 27.026 99.4895 27.026C99.4295 27.026 99.3695 27.026 99.3095 27.026C98.3855 27.026 97.6535 27.302 97.1135 27.854C96.5735 28.406 96.3035 29.204 96.3035 30.248V35H94.5755ZM105.995 35.108C104.975 35.108 104.075 34.898 103.295 34.478C102.527 34.058 101.927 33.482 101.495 32.75C101.075 32.018 100.865 31.178 100.865 30.23C100.865 29.282 101.069 28.442 101.477 27.71C101.897 26.978 102.467 26.408 103.187 26C103.919 25.58 104.741 25.37 105.653 25.37C106.577 25.37 107.393 25.574 108.101 25.982C108.809 26.39 109.361 26.966 109.757 27.71C110.165 28.442 110.369 29.3 110.369 30.284C110.369 30.356 110.363 30.44 110.351 30.536C110.351 30.632 110.345 30.722 110.333 30.806H102.215V29.564H109.433L108.731 29.996C108.743 29.384 108.617 28.838 108.353 28.358C108.089 27.878 107.723 27.506 107.255 27.242C106.799 26.966 106.265 26.828 105.653 26.828C105.053 26.828 104.519 26.966 104.051 27.242C103.583 27.506 103.217 27.884 102.953 28.376C102.689 28.856 102.557 29.408 102.557 30.032V30.32C102.557 30.956 102.701 31.526 102.989 32.03C103.289 32.522 103.703 32.906 104.231 33.182C104.759 33.458 105.365 33.596 106.049 33.596C106.613 33.596 107.123 33.5 107.579 33.308C108.047 33.116 108.455 32.828 108.803 32.444L109.757 33.56C109.325 34.064 108.785 34.448 108.137 34.712C107.501 34.976 106.787 35.108 105.995 35.108ZM21.572 50.37C22.34 50.37 23.018 50.52 23.606 50.82C24.194 51.12 24.65 51.576 24.974 52.188C25.31 52.8 25.478 53.574 25.478 54.51V60H23.75V54.708C23.75 53.784 23.534 53.088 23.102 52.62C22.67 52.152 22.064 51.918 21.284 51.918C20.708 51.918 20.204 52.038 19.772 52.278C19.34 52.518 19.004 52.872 18.764 53.34C18.536 53.808 18.422 54.39 18.422 55.086V60H16.694V54.708C16.694 53.784 16.478 53.088 16.046 52.62C15.626 52.152 15.02 51.918 14.228 51.918C13.664 51.918 13.166 52.038 12.734 52.278C12.302 52.518 11.966 52.872 11.726 53.34C11.486 53.808 11.366 54.39 11.366 55.086V60H9.638V50.46H11.294V52.998L11.024 52.35C11.324 51.726 11.786 51.24 12.41 50.892C13.034 50.544 13.76 50.37 14.588 50.37C15.5 50.37 16.286 50.598 16.946 51.054C17.606 51.498 18.038 52.176 18.242 53.088L17.54 52.8C17.828 52.068 18.332 51.48 19.052 51.036C19.772 50.592 20.612 50.37 21.572 50.37ZM32.9055 60.108C31.8855 60.108 30.9855 59.898 30.2055 59.478C29.4375 59.058 28.8375 58.482 28.4055 57.75C27.9855 57.018 27.7755 56.178 27.7755 55.23C27.7755 54.282 27.9795 53.442 28.3875 52.71C28.8075 51.978 29.3775 51.408 30.0975 51C30.8295 50.58 31.6515 50.37 32.5635 50.37C33.4875 50.37 34.3035 50.574 35.0115 50.982C35.7195 51.39 36.2715 51.966 36.6675 52.71C37.0755 53.442 37.2795 54.3 37.2795 55.284C37.2795 55.356 37.2735 55.44 37.2615 55.536C37.2615 55.632 37.2555 55.722 37.2435 55.806H29.1255V54.564H36.3435L35.6415 54.996C35.6535 54.384 35.5275 53.838 35.2635 53.358C34.9995 52.878 34.6335 52.506 34.1655 52.242C33.7095 51.966 33.1755 51.828 32.5635 51.828C31.9635 51.828 31.4295 51.966 30.9615 52.242C30.4935 52.506 30.1275 52.884 29.8635 53.376C29.5995 53.856 29.4675 54.408 29.4675 55.032V55.32C29.4675 55.956 29.6115 56.526 29.8995 57.03C30.1995 57.522 30.6135 57.906 31.1415 58.182C31.6695 58.458 32.2755 58.596 32.9595 58.596C33.5235 58.596 34.0335 58.5 34.4895 58.308C34.9575 58.116 35.3655 57.828 35.7135 57.444L36.6675 58.56C36.2355 59.064 35.6955 59.448 35.0475 59.712C34.4115 59.976 33.6975 60.108 32.9055 60.108ZM51.613 50.37C52.381 50.37 53.059 50.52 53.647 50.82C54.235 51.12 54.691 51.576 55.015 52.188C55.351 52.8 55.519 53.574 55.519 54.51V60H53.791V54.708C53.791 53.784 53.575 53.088 53.143 52.62C52.711 52.152 52.105 51.918 51.325 51.918C50.749 51.918 50.245 52.038 49.813 52.278C49.381 52.518 49.045 52.872 48.805 53.34C48.577 53.808 48.463 54.39 48.463 55.086V60H46.735V54.708C46.735 53.784 46.519 53.088 46.087 52.62C45.667 52.152 45.061 51.918 44.269 51.918C43.705 51.918 43.207 52.038 42.775 52.278C42.343 52.518 42.007 52.872 41.767 53.34C41.527 53.808 41.407 54.39 41.407 55.086V60H39.679V50.46H41.335V52.998L41.065 52.35C41.365 51.726 41.827 51.24 42.451 50.892C43.075 50.544 43.801 50.37 44.629 50.37C45.541 50.37 46.327 50.598 46.987 51.054C47.647 51.498 48.079 52.176 48.283 53.088L47.581 52.8C47.869 52.068 48.373 51.48 49.093 51.036C49.813 50.592 50.653 50.37 51.613 50.37ZM62.7845 60.108C61.8245 60.108 60.9725 59.898 60.2285 59.478C59.4845 59.058 58.8965 58.482 58.4645 57.75C58.0325 57.006 57.8165 56.166 57.8165 55.23C57.8165 54.282 58.0325 53.442 58.4645 52.71C58.8965 51.978 59.4845 51.408 60.2285 51C60.9725 50.58 61.8245 50.37 62.7845 50.37C63.7325 50.37 64.5785 50.58 65.3225 51C66.0785 51.408 66.6665 51.978 67.0865 52.71C67.5185 53.43 67.7345 54.27 67.7345 55.23C67.7345 56.178 67.5185 57.018 67.0865 57.75C66.6665 58.482 66.0785 59.058 65.3225 59.478C64.5785 59.898 63.7325 60.108 62.7845 60.108ZM62.7845 58.596C63.3965 58.596 63.9425 58.458 64.4225 58.182C64.9145 57.906 65.2985 57.516 65.5745 57.012C65.8505 56.496 65.9885 55.902 65.9885 55.23C65.9885 54.546 65.8505 53.958 65.5745 53.466C65.2985 52.962 64.9145 52.572 64.4225 52.296C63.9425 52.02 63.3965 51.882 62.7845 51.882C62.1725 51.882 61.6265 52.02 61.1465 52.296C60.6665 52.572 60.2825 52.962 59.9945 53.466C59.7065 53.958 59.5625 54.546 59.5625 55.23C59.5625 55.902 59.7065 56.496 59.9945 57.012C60.2825 57.516 60.6665 57.906 61.1465 58.182C61.6265 58.458 62.1725 58.596 62.7845 58.596ZM70.1243 60V50.46H71.7803V53.052L71.6183 52.404C71.8823 51.744 72.3263 51.24 72.9503 50.892C73.5743 50.544 74.3423 50.37 75.2543 50.37V52.044C75.1823 52.032 75.1103 52.026 75.0383 52.026C74.9783 52.026 74.9183 52.026 74.8583 52.026C73.9343 52.026 73.2023 52.302 72.6623 52.854C72.1223 53.406 71.8523 54.204 71.8523 55.248V60H70.1243ZM82.603 60V57.984L82.513 57.606V54.168C82.513 53.436 82.297 52.872 81.865 52.476C81.445 52.068 80.809 51.864 79.957 51.864C79.393 51.864 78.841 51.96 78.301 52.152C77.761 52.332 77.305 52.578 76.933 52.89L76.213 51.594C76.705 51.198 77.293 50.898 77.977 50.694C78.673 50.478 79.399 50.37 80.155 50.37C81.463 50.37 82.471 50.688 83.179 51.324C83.887 51.96 84.241 52.932 84.241 54.24V60H82.603ZM79.471 60.108C78.763 60.108 78.139 59.988 77.599 59.748C77.071 59.508 76.663 59.178 76.375 58.758C76.087 58.326 75.943 57.84 75.943 57.3C75.943 56.784 76.063 56.316 76.303 55.896C76.555 55.476 76.957 55.14 77.509 54.888C78.073 54.636 78.829 54.51 79.777 54.51H82.801V55.752H79.849C78.985 55.752 78.403 55.896 78.103 56.184C77.803 56.472 77.653 56.82 77.653 57.228C77.653 57.696 77.839 58.074 78.211 58.362C78.583 58.638 79.099 58.776 79.759 58.776C80.407 58.776 80.971 58.632 81.451 58.344C81.943 58.056 82.297 57.636 82.513 57.084L82.855 58.272C82.627 58.836 82.225 59.286 81.649 59.622C81.073 59.946 80.347 60.108 79.471 60.108ZM92.4968 60.108C91.6808 60.108 90.9428 59.928 90.2828 59.568C89.6348 59.196 89.1188 58.65 88.7348 57.93C88.3628 57.21 88.1768 56.31 88.1768 55.23C88.1768 54.15 88.3688 53.25 88.7528 52.53C89.1488 51.81 89.6708 51.27 90.3188 50.91C90.9788 50.55 91.7048 50.37 92.4968 50.37C93.4328 50.37 94.2608 50.574 94.9808 50.982C95.7008 51.39 96.2708 51.96 96.6908 52.692C97.1108 53.412 97.3208 54.258 97.3208 55.23C97.3208 56.202 97.1108 57.054 96.6908 57.786C96.2708 58.518 95.7008 59.088 94.9808 59.496C94.2608 59.904 93.4328 60.108 92.4968 60.108ZM87.4388 60V46.644H89.1668V52.998L88.9868 55.212L89.0948 57.426V60H87.4388ZM92.3528 58.596C92.9648 58.596 93.5108 58.458 93.9908 58.182C94.4828 57.906 94.8668 57.516 95.1428 57.012C95.4308 56.496 95.5748 55.902 95.5748 55.23C95.5748 54.546 95.4308 53.958 95.1428 53.466C94.8668 52.962 94.4828 52.572 93.9908 52.296C93.5108 52.02 92.9648 51.882 92.3528 51.882C91.7528 51.882 91.2068 52.02 90.7148 52.296C90.2348 52.572 89.8508 52.962 89.5628 53.466C89.2868 53.958 89.1488 54.546 89.1488 55.23C89.1488 55.902 89.2868 56.496 89.5628 57.012C89.8508 57.516 90.2348 57.906 90.7148 58.182C91.2068 58.458 91.7528 58.596 92.3528 58.596ZM99.7083 60V46.644H101.436V60H99.7083ZM108.984 60.108C107.964 60.108 107.064 59.898 106.284 59.478C105.516 59.058 104.916 58.482 104.484 57.75C104.064 57.018 103.854 56.178 103.854 55.23C103.854 54.282 104.058 53.442 104.466 52.71C104.886 51.978 105.456 51.408 106.176 51C106.908 50.58 107.73 50.37 108.642 50.37C109.566 50.37 110.382 50.574 111.09 50.982C111.798 51.39 112.35 51.966 112.746 52.71C113.154 53.442 113.358 54.3 113.358 55.284C113.358 55.356 113.352 55.44 113.34 55.536C113.34 55.632 113.334 55.722 113.322 55.806H105.204V54.564H112.422L111.72 54.996C111.732 54.384 111.606 53.838 111.342 53.358C111.078 52.878 110.712 52.506 110.244 52.242C109.788 51.966 109.254 51.828 108.642 51.828C108.042 51.828 107.508 51.966 107.04 52.242C106.572 52.506 106.206 52.884 105.942 53.376C105.678 53.856 105.546 54.408 105.546 55.032V55.32C105.546 55.956 105.69 56.526 105.978 57.03C106.278 57.522 106.692 57.906 107.22 58.182C107.748 58.458 108.354 58.596 109.038 58.596C109.602 58.596 110.112 58.5 110.568 58.308C111.036 58.116 111.444 57.828 111.792 57.444L112.746 58.56C112.314 59.064 111.774 59.448 111.126 59.712C110.49 59.976 109.776 60.108 108.984 60.108ZM123.867 60.108C122.907 60.108 122.163 59.85 121.635 59.334C121.107 58.818 120.843 58.08 120.843 57.12V48.372H122.571V57.048C122.571 57.564 122.697 57.96 122.949 58.236C123.213 58.512 123.585 58.65 124.065 58.65C124.605 58.65 125.055 58.5 125.415 58.2L125.955 59.442C125.691 59.67 125.373 59.838 125.001 59.946C124.641 60.054 124.263 60.108 123.867 60.108ZM119.223 51.882V50.46H125.307V51.882H119.223ZM128.044 60V50.46H129.7V53.052L129.538 52.404C129.802 51.744 130.246 51.24 130.87 50.892C131.494 50.544 132.262 50.37 133.174 50.37V52.044C133.102 52.032 133.03 52.026 132.958 52.026C132.898 52.026 132.838 52.026 132.778 52.026C131.854 52.026 131.122 52.302 130.582 52.854C130.042 53.406 129.772 54.204 129.772 55.248V60H128.044ZM135.304 60V50.46H137.032V60H135.304ZM136.168 48.624C135.832 48.624 135.55 48.516 135.322 48.3C135.106 48.084 134.998 47.82 134.998 47.508C134.998 47.184 135.106 46.914 135.322 46.698C135.55 46.482 135.832 46.374 136.168 46.374C136.504 46.374 136.78 46.482 136.996 46.698C137.224 46.902 137.338 47.16 137.338 47.472C137.338 47.796 137.23 48.072 137.014 48.3C136.798 48.516 136.516 48.624 136.168 48.624ZM145.389 60.108C144.597 60.108 143.871 59.928 143.211 59.568C142.563 59.196 142.041 58.65 141.645 57.93C141.261 57.21 141.069 56.31 141.069 55.23C141.069 54.15 141.255 53.25 141.627 52.53C142.011 51.81 142.527 51.27 143.175 50.91C143.835 50.55 144.573 50.37 145.389 50.37C146.325 50.37 147.153 50.574 147.873 50.982C148.593 51.39 149.163 51.96 149.583 52.692C150.003 53.412 150.213 54.258 150.213 55.23C150.213 56.202 150.003 57.054 149.583 57.786C149.163 58.518 148.593 59.088 147.873 59.496C147.153 59.904 146.325 60.108 145.389 60.108ZM140.331 63.492V50.46H141.987V53.034L141.879 55.248L142.059 57.462V63.492H140.331ZM145.245 58.596C145.857 58.596 146.403 58.458 146.883 58.182C147.375 57.906 147.759 57.516 148.035 57.012C148.323 56.496 148.467 55.902 148.467 55.23C148.467 54.546 148.323 53.958 148.035 53.466C147.759 52.962 147.375 52.572 146.883 52.296C146.403 52.02 145.857 51.882 145.245 51.882C144.645 51.882 144.099 52.02 143.607 52.296C143.127 52.572 142.743 52.962 142.455 53.466C142.179 53.958 142.041 54.546 142.041 55.23C142.041 55.902 142.179 56.496 142.455 57.012C142.743 57.516 143.127 57.906 143.607 58.182C144.099 58.458 144.645 58.596 145.245 58.596ZM155.337 60.108C154.545 60.108 153.789 60 153.069 59.784C152.361 59.568 151.803 59.304 151.395 58.992L152.115 57.624C152.523 57.9 153.027 58.134 153.627 58.326C154.227 58.518 154.839 58.614 155.463 58.614C156.267 58.614 156.843 58.5 157.191 58.272C157.551 58.044 157.731 57.726 157.731 57.318C157.731 57.018 157.623 56.784 157.407 56.616C157.191 56.448 156.903 56.322 156.543 56.238C156.195 56.154 155.805 56.082 155.373 56.022C154.941 55.95 154.509 55.866 154.077 55.77C153.645 55.662 153.249 55.518 152.889 55.338C152.529 55.146 152.241 54.888 152.025 54.564C151.809 54.228 151.701 53.784 151.701 53.232C151.701 52.656 151.863 52.152 152.187 51.72C152.511 51.288 152.967 50.958 153.555 50.73C154.155 50.49 154.863 50.37 155.679 50.37C156.303 50.37 156.933 50.448 157.569 50.604C158.217 50.748 158.745 50.958 159.153 51.234L158.415 52.602C157.983 52.314 157.533 52.116 157.065 52.008C156.597 51.9 156.129 51.846 155.661 51.846C154.905 51.846 154.341 51.972 153.969 52.224C153.597 52.464 153.411 52.776 153.411 53.16C153.411 53.484 153.519 53.736 153.735 53.916C153.963 54.084 154.251 54.216 154.599 54.312C154.959 54.408 155.355 54.492 155.787 54.564C156.219 54.624 156.651 54.708 157.083 54.816C157.515 54.912 157.905 55.05 158.253 55.23C158.613 55.41 158.901 55.662 159.117 55.986C159.345 56.31 159.459 56.742 159.459 57.282C159.459 57.858 159.291 58.356 158.955 58.776C158.619 59.196 158.145 59.526 157.533 59.766C156.921 59.994 156.189 60.108 155.337 60.108Z" fill="#071C2C"/>
<path d="M19.4855 92.7223L16.5932 91.4261C16.4621 91.37 16.3191 91.3474 16.1771 91.3605C16.0352 91.3735 15.8987 91.4217 15.7801 91.5008C15.768 91.5086 15.7566 91.5172 15.7458 91.5265L14.2341 92.8123C14.2184 92.8209 14.201 92.8256 14.1831 92.8263C14.1652 92.8269 14.1475 92.8234 14.1312 92.816C13.1596 92.347 12.153 91.3465 11.6822 90.3883C11.6743 90.3723 11.6703 90.3547 11.6703 90.3369C11.6703 90.3191 11.6743 90.3015 11.6822 90.2855L12.9722 88.7548C12.9815 88.7435 12.9901 88.7316 12.9979 88.7193C13.0759 88.6002 13.123 88.4636 13.135 88.3217C13.147 88.1799 13.1234 88.0373 13.0665 87.9068L11.7795 85.0194C11.7064 84.8489 11.58 84.7068 11.4193 84.6143C11.2586 84.5217 11.0722 84.4839 10.8881 84.5063C10.088 84.6115 9.35355 85.0044 8.82205 85.6116C8.29055 86.2188 7.99833 86.9988 8.00001 87.8058C8.00001 92.5999 11.9001 96.5 16.6942 96.5C17.5011 96.5015 18.281 96.2093 18.8882 95.6778C19.4954 95.1463 19.8884 94.412 19.9937 93.6119C20.0161 93.4287 19.9787 93.2431 19.8871 93.0828C19.7956 92.9225 19.6547 92.7961 19.4855 92.7223ZM16.6942 95.7653C12.3055 95.7653 8.73473 92.1945 8.73473 87.8058C8.73268 87.1776 8.95943 86.5701 9.37261 86.0968C9.78579 85.6236 10.3571 85.317 10.9799 85.2343H10.994C11.0187 85.2347 11.0426 85.2426 11.0627 85.257C11.0828 85.2713 11.0981 85.2913 11.1066 85.3145L12.3985 88.1989C12.4059 88.2149 12.4097 88.2324 12.4097 88.25C12.4097 88.2676 12.4059 88.2851 12.3985 88.3011L11.106 89.8355C11.0964 89.8464 11.0876 89.8581 11.0797 89.8704C10.9988 89.9938 10.9512 90.1361 10.9414 90.2834C10.9317 90.4306 10.9601 90.5779 11.024 90.711C11.5671 91.8229 12.6875 92.9348 13.8116 93.4778C13.9455 93.5414 14.0935 93.5691 14.2412 93.5584C14.389 93.5477 14.5315 93.4988 14.6547 93.4166C14.6664 93.4087 14.678 93.4001 14.689 93.3909L16.2001 92.1051C16.215 92.0971 16.2315 92.0924 16.2484 92.0914C16.2653 92.0903 16.2822 92.0929 16.298 92.099L19.191 93.3952C19.2146 93.4052 19.2345 93.4225 19.2478 93.4445C19.2611 93.4664 19.2671 93.492 19.2651 93.5176C19.1828 94.1407 18.8765 94.7125 18.4033 95.1261C17.9302 95.5398 17.3226 95.767 16.6942 95.7653Z" fill="black"/>
<path d="M31.072 93.344V88.256H31.828V93.344H31.072ZM28.84 91.16V90.452H34.06V91.16H28.84ZM38.1423 86.528C38.8863 86.528 39.5143 86.696 40.0263 87.032C40.5383 87.36 40.9263 87.836 41.1903 88.46C41.4543 89.084 41.5863 89.84 41.5863 90.728C41.5863 91.672 41.4223 92.468 41.0943 93.116C40.7743 93.764 40.3263 94.252 39.7503 94.58C39.1743 94.908 38.5063 95.072 37.7463 95.072C37.3703 95.072 37.0103 95.036 36.6663 94.964C36.3303 94.892 36.0263 94.776 35.7543 94.616L36.1023 93.92C36.3183 94.064 36.5663 94.168 36.8463 94.232C37.1343 94.288 37.4303 94.316 37.7343 94.316C38.6383 94.316 39.3583 94.028 39.8943 93.452C40.4383 92.876 40.7103 92.016 40.7103 90.872C40.7103 90.688 40.6983 90.468 40.6743 90.212C40.6583 89.956 40.6143 89.7 40.5423 89.444L40.8423 89.672C40.7623 90.088 40.5903 90.444 40.3263 90.74C40.0703 91.028 39.7503 91.248 39.3663 91.4C38.9903 91.552 38.5703 91.628 38.1063 91.628C37.5543 91.628 37.0623 91.524 36.6303 91.316C36.2063 91.108 35.8743 90.816 35.6343 90.44C35.3943 90.064 35.2743 89.62 35.2743 89.108C35.2743 88.58 35.3983 88.124 35.6463 87.74C35.8943 87.356 36.2343 87.06 36.6663 86.852C37.1063 86.636 37.5983 86.528 38.1423 86.528ZM38.1783 87.26C37.7783 87.26 37.4223 87.336 37.1103 87.488C36.8063 87.632 36.5663 87.84 36.3903 88.112C36.2143 88.384 36.1263 88.708 36.1263 89.084C36.1263 89.636 36.3143 90.076 36.6903 90.404C37.0743 90.732 37.5903 90.896 38.2383 90.896C38.6703 90.896 39.0463 90.816 39.3663 90.656C39.6943 90.496 39.9463 90.276 40.1223 89.996C40.3063 89.716 40.3983 89.404 40.3983 89.06C40.3983 88.748 40.3143 88.456 40.1463 88.184C39.9783 87.912 39.7303 87.692 39.4023 87.524C39.0743 87.348 38.6663 87.26 38.1783 87.26ZM44.3028 95V86.96L44.6868 87.368H42.3228V86.6H45.1668V95H44.3028ZM52.9314 86.528C53.6754 86.528 54.3034 86.696 54.8154 87.032C55.3274 87.36 55.7154 87.836 55.9794 88.46C56.2434 89.084 56.3754 89.84 56.3754 90.728C56.3754 91.672 56.2114 92.468 55.8834 93.116C55.5634 93.764 55.1154 94.252 54.5394 94.58C53.9634 94.908 53.2954 95.072 52.5354 95.072C52.1594 95.072 51.7994 95.036 51.4554 94.964C51.1194 94.892 50.8154 94.776 50.5434 94.616L50.8914 93.92C51.1074 94.064 51.3554 94.168 51.6354 94.232C51.9234 94.288 52.2194 94.316 52.5234 94.316C53.4274 94.316 54.1474 94.028 54.6834 93.452C55.2274 92.876 55.4994 92.016 55.4994 90.872C55.4994 90.688 55.4874 90.468 55.4634 90.212C55.4474 89.956 55.4034 89.7 55.3314 89.444L55.6314 89.672C55.5514 90.088 55.3794 90.444 55.1154 90.74C54.8594 91.028 54.5394 91.248 54.1554 91.4C53.7794 91.552 53.3594 91.628 52.8954 91.628C52.3434 91.628 51.8514 91.524 51.4194 91.316C50.9954 91.108 50.6634 90.816 50.4234 90.44C50.1834 90.064 50.0634 89.62 50.0634 89.108C50.0634 88.58 50.1874 88.124 50.4354 87.74C50.6834 87.356 51.0234 87.06 51.4554 86.852C51.8954 86.636 52.3874 86.528 52.9314 86.528ZM52.9674 87.26C52.5674 87.26 52.2114 87.336 51.8994 87.488C51.5954 87.632 51.3554 87.84 51.1794 88.112C51.0034 88.384 50.9154 88.708 50.9154 89.084C50.9154 89.636 51.1034 90.076 51.4794 90.404C51.8634 90.732 52.3794 90.896 53.0274 90.896C53.4594 90.896 53.8354 90.816 54.1554 90.656C54.4834 90.496 54.7354 90.276 54.9114 89.996C55.0954 89.716 55.1874 89.404 55.1874 89.06C55.1874 88.748 55.1034 88.456 54.9354 88.184C54.7674 87.912 54.5194 87.692 54.1914 87.524C53.8634 87.348 53.4554 87.26 52.9674 87.26ZM57.4719 95V94.388L60.9639 90.968C61.2839 90.656 61.5239 90.384 61.6839 90.152C61.8439 89.912 61.9519 89.688 62.0079 89.48C62.0639 89.272 62.0919 89.076 62.0919 88.892C62.0919 88.404 61.9239 88.02 61.5879 87.74C61.2599 87.46 60.7719 87.32 60.1239 87.32C59.6279 87.32 59.1879 87.396 58.8039 87.548C58.4279 87.7 58.1039 87.936 57.8319 88.256L57.2199 87.728C57.5479 87.344 57.9679 87.048 58.4799 86.84C58.9919 86.632 59.5639 86.528 60.1959 86.528C60.7639 86.528 61.2559 86.62 61.6719 86.804C62.0879 86.98 62.4079 87.24 62.6319 87.584C62.8639 87.928 62.9799 88.332 62.9799 88.796C62.9799 89.068 62.9399 89.336 62.8599 89.6C62.7879 89.864 62.6519 90.144 62.4519 90.44C62.2599 90.728 61.9759 91.056 61.5999 91.424L58.3959 94.568L58.1559 94.232H63.3639V95H57.4719ZM67.7728 95.072C67.1248 95.072 66.5488 94.904 66.0448 94.568C65.5408 94.224 65.1448 93.736 64.8568 93.104C64.5688 92.464 64.4248 91.696 64.4248 90.8C64.4248 89.904 64.5688 89.14 64.8568 88.508C65.1448 87.868 65.5408 87.38 66.0448 87.044C66.5488 86.7 67.1248 86.528 67.7728 86.528C68.4208 86.528 68.9968 86.7 69.5008 87.044C70.0048 87.38 70.4008 87.868 70.6888 88.508C70.9848 89.14 71.1328 89.904 71.1328 90.8C71.1328 91.696 70.9848 92.464 70.6888 93.104C70.4008 93.736 70.0048 94.224 69.5008 94.568C68.9968 94.904 68.4208 95.072 67.7728 95.072ZM67.7728 94.28C68.2688 94.28 68.7008 94.148 69.0688 93.884C69.4368 93.612 69.7248 93.22 69.9328 92.708C70.1408 92.188 70.2448 91.552 70.2448 90.8C70.2448 90.048 70.1408 89.416 69.9328 88.904C69.7248 88.384 69.4368 87.992 69.0688 87.728C68.7008 87.456 68.2688 87.32 67.7728 87.32C67.2928 87.32 66.8648 87.456 66.4888 87.728C66.1128 87.992 65.8208 88.384 65.6128 88.904C65.4048 89.416 65.3008 90.048 65.3008 90.8C65.3008 91.552 65.4048 92.188 65.6128 92.708C65.8208 93.22 66.1128 93.612 66.4888 93.884C66.8648 94.148 67.2928 94.28 67.7728 94.28ZM74.9861 86.528C75.7301 86.528 76.3581 86.696 76.8701 87.032C77.3821 87.36 77.7701 87.836 78.0341 88.46C78.2981 89.084 78.4301 89.84 78.4301 90.728C78.4301 91.672 78.2661 92.468 77.9381 93.116C77.6181 93.764 77.1701 94.252 76.5941 94.58C76.0181 94.908 75.3501 95.072 74.5901 95.072C74.2141 95.072 73.8541 95.036 73.5101 94.964C73.1741 94.892 72.8701 94.776 72.5981 94.616L72.9461 93.92C73.1621 94.064 73.4101 94.168 73.6901 94.232C73.9781 94.288 74.2741 94.316 74.5781 94.316C75.4821 94.316 76.2021 94.028 76.7381 93.452C77.2821 92.876 77.5541 92.016 77.5541 90.872C77.5541 90.688 77.5421 90.468 77.5181 90.212C77.5021 89.956 77.4581 89.7 77.3861 89.444L77.6861 89.672C77.6061 90.088 77.4341 90.444 77.1701 90.74C76.9141 91.028 76.5941 91.248 76.2101 91.4C75.8341 91.552 75.4141 91.628 74.9501 91.628C74.3981 91.628 73.9061 91.524 73.4741 91.316C73.0501 91.108 72.7181 90.816 72.4781 90.44C72.2381 90.064 72.1181 89.62 72.1181 89.108C72.1181 88.58 72.2421 88.124 72.4901 87.74C72.7381 87.356 73.0781 87.06 73.5101 86.852C73.9501 86.636 74.4421 86.528 74.9861 86.528ZM75.0221 87.26C74.6221 87.26 74.2661 87.336 73.9541 87.488C73.6501 87.632 73.4101 87.84 73.2341 88.112C73.0581 88.384 72.9701 88.708 72.9701 89.084C72.9701 89.636 73.1581 90.076 73.5341 90.404C73.9181 90.732 74.4341 90.896 75.0821 90.896C75.5141 90.896 75.8901 90.816 76.2101 90.656C76.5381 90.496 76.7901 90.276 76.9661 89.996C77.1501 89.716 77.2421 89.404 77.2421 89.06C77.2421 88.748 77.1581 88.456 76.9901 88.184C76.8221 87.912 76.5741 87.692 76.2461 87.524C75.9181 87.348 75.5101 87.26 75.0221 87.26ZM81.0648 95L84.6888 86.984L84.9528 87.368H79.7568L80.2008 86.948V88.94H79.3488V86.6H85.5168V87.212L82.0008 95H81.0648ZM89.2713 86.528C90.0153 86.528 90.6433 86.696 91.1553 87.032C91.6673 87.36 92.0553 87.836 92.3193 88.46C92.5833 89.084 92.7153 89.84 92.7153 90.728C92.7153 91.672 92.5513 92.468 92.2233 93.116C91.9033 93.764 91.4553 94.252 90.8793 94.58C90.3033 94.908 89.6353 95.072 88.8753 95.072C88.4993 95.072 88.1393 95.036 87.7952 94.964C87.4593 94.892 87.1553 94.776 86.8833 94.616L87.2313 93.92C87.4473 94.064 87.6953 94.168 87.9753 94.232C88.2633 94.288 88.5593 94.316 88.8633 94.316C89.7673 94.316 90.4873 94.028 91.0233 93.452C91.5673 92.876 91.8393 92.016 91.8393 90.872C91.8393 90.688 91.8273 90.468 91.8033 90.212C91.7873 89.956 91.7433 89.7 91.6713 89.444L91.9713 89.672C91.8913 90.088 91.7193 90.444 91.4553 90.74C91.1993 91.028 90.8793 91.248 90.4953 91.4C90.1193 91.552 89.6993 91.628 89.2353 91.628C88.6833 91.628 88.1913 91.524 87.7593 91.316C87.3353 91.108 87.0033 90.816 86.7633 90.44C86.5233 90.064 86.4033 89.62 86.4033 89.108C86.4033 88.58 86.5273 88.124 86.7753 87.74C87.0233 87.356 87.3633 87.06 87.7952 86.852C88.2353 86.636 88.7273 86.528 89.2713 86.528ZM89.3073 87.26C88.9073 87.26 88.5513 87.336 88.2393 87.488C87.9353 87.632 87.6953 87.84 87.5193 88.112C87.3433 88.384 87.2553 88.708 87.2553 89.084C87.2553 89.636 87.4433 90.076 87.8193 90.404C88.2033 90.732 88.7193 90.896 89.3673 90.896C89.7993 90.896 90.1753 90.816 90.4953 90.656C90.8233 90.496 91.0753 90.276 91.2513 89.996C91.4353 89.716 91.5273 89.404 91.5273 89.06C91.5273 88.748 91.4433 88.456 91.2753 88.184C91.1073 87.912 90.8593 87.692 90.5313 87.524C90.2033 87.348 89.7953 87.26 89.3073 87.26ZM96.3586 95.072C95.7506 95.072 95.1746 94.976 94.6306 94.784C94.0946 94.584 93.6626 94.32 93.3346 93.992L93.7546 93.308C94.0266 93.588 94.3906 93.82 94.8466 94.004C95.3106 94.188 95.8146 94.28 96.3586 94.28C97.0546 94.28 97.5866 94.128 97.9546 93.824C98.3306 93.52 98.5186 93.112 98.5186 92.6C98.5186 92.088 98.3346 91.68 97.9666 91.376C97.6066 91.072 97.0346 90.92 96.2506 90.92H95.6506V90.284L98.2426 87.032L98.3626 87.368H93.6826V86.6H99.0826V87.212L96.4906 90.464L96.0706 90.188H96.3946C97.4026 90.188 98.1546 90.412 98.6506 90.86C99.1546 91.308 99.4066 91.884 99.4066 92.588C99.4066 93.06 99.2946 93.484 99.0706 93.86C98.8466 94.236 98.5066 94.532 98.0506 94.748C97.6026 94.964 97.0386 95.072 96.3586 95.072ZM103.972 95.072C103.324 95.072 102.748 94.904 102.244 94.568C101.74 94.224 101.344 93.736 101.056 93.104C100.768 92.464 100.624 91.696 100.624 90.8C100.624 89.904 100.768 89.14 101.056 88.508C101.344 87.868 101.74 87.38 102.244 87.044C102.748 86.7 103.324 86.528 103.972 86.528C104.62 86.528 105.196 86.7 105.7 87.044C106.204 87.38 106.6 87.868 106.888 88.508C107.184 89.14 107.332 89.904 107.332 90.8C107.332 91.696 107.184 92.464 106.888 93.104C106.6 93.736 106.204 94.224 105.7 94.568C105.196 94.904 104.62 95.072 103.972 95.072ZM103.972 94.28C104.468 94.28 104.9 94.148 105.268 93.884C105.636 93.612 105.924 93.22 106.132 92.708C106.34 92.188 106.444 91.552 106.444 90.8C106.444 90.048 106.34 89.416 106.132 88.904C105.924 88.384 105.636 87.992 105.268 87.728C104.9 87.456 104.468 87.32 103.972 87.32C103.492 87.32 103.064 87.456 102.688 87.728C102.312 87.992 102.02 88.384 101.812 88.904C101.604 89.416 101.5 90.048 101.5 90.8C101.5 91.552 101.604 92.188 101.812 92.708C102.02 93.22 102.312 93.612 102.688 93.884C103.064 94.148 103.492 94.28 103.972 94.28ZM111.185 86.528C111.929 86.528 112.557 86.696 113.069 87.032C113.581 87.36 113.969 87.836 114.233 88.46C114.497 89.084 114.629 89.84 114.629 90.728C114.629 91.672 114.465 92.468 114.137 93.116C113.817 93.764 113.369 94.252 112.793 94.58C112.217 94.908 111.549 95.072 110.789 95.072C110.413 95.072 110.053 95.036 109.709 94.964C109.373 94.892 109.069 94.776 108.797 94.616L109.145 93.92C109.361 94.064 109.609 94.168 109.889 94.232C110.177 94.288 110.473 94.316 110.777 94.316C111.681 94.316 112.401 94.028 112.937 93.452C113.481 92.876 113.753 92.016 113.753 90.872C113.753 90.688 113.741 90.468 113.717 90.212C113.701 89.956 113.657 89.7 113.585 89.444L113.885 89.672C113.805 90.088 113.633 90.444 113.369 90.74C113.113 91.028 112.793 91.248 112.409 91.4C112.033 91.552 111.613 91.628 111.149 91.628C110.597 91.628 110.105 91.524 109.673 91.316C109.249 91.108 108.917 90.816 108.677 90.44C108.437 90.064 108.317 89.62 108.317 89.108C108.317 88.58 108.441 88.124 108.689 87.74C108.937 87.356 109.277 87.06 109.709 86.852C110.149 86.636 110.641 86.528 111.185 86.528ZM111.221 87.26C110.821 87.26 110.465 87.336 110.153 87.488C109.849 87.632 109.609 87.84 109.433 88.112C109.257 88.384 109.169 88.708 109.169 89.084C109.169 89.636 109.357 90.076 109.733 90.404C110.117 90.732 110.633 90.896 111.281 90.896C111.713 90.896 112.089 90.816 112.409 90.656C112.737 90.496 112.989 90.276 113.165 89.996C113.349 89.716 113.441 89.404 113.441 89.06C113.441 88.748 113.357 88.456 113.189 88.184C113.021 87.912 112.773 87.692 112.445 87.524C112.117 87.348 111.709 87.26 111.221 87.26ZM117.264 95L120.888 86.984L121.152 87.368H115.956L116.4 86.948V88.94H115.548V86.6H121.716V87.212L118.2 95H117.264Z" fill="#071C2C"/>
<path fill-rule="evenodd" clip-rule="evenodd" d="M10.4667 111.675L15.5067 114.864C15.5528 114.894 15.609 114.909 15.6667 114.909C15.7244 114.909 15.7805 114.894 15.8267 114.864L20.8667 111.675H10.4667ZM21.5333 112.097L16.3067 115.404C16.122 115.521 15.8975 115.584 15.6667 115.584C15.4359 115.584 15.2113 115.521 15.0267 115.404L9.8 112.097V119.325H21.5333V112.097ZM9.66667 111H21.6667C21.8435 111 22.013 111.059 22.1381 111.165C22.2631 111.27 22.3333 111.413 22.3333 111.562V119.438C22.3333 119.587 22.2631 119.73 22.1381 119.835C22.013 119.941 21.8435 120 21.6667 120H9.66667C9.48986 120 9.32029 119.941 9.19526 119.835C9.07024 119.73 9 119.587 9 119.438V111.562C9 111.413 9.07024 111.27 9.19526 111.165C9.32029 111.059 9.48986 111 9.66667 111Z" fill="black"/>
<path d="M32.404 113.64C32.916 113.64 33.364 113.74 33.748 113.94C34.14 114.132 34.444 114.428 34.66 114.828C34.884 115.228 34.996 115.732 34.996 116.34V120H34.144V116.424C34.144 115.76 33.976 115.26 33.64 114.924C33.312 114.58 32.848 114.408 32.248 114.408C31.8 114.408 31.408 114.5 31.072 114.684C30.744 114.86 30.488 115.12 30.304 115.464C30.128 115.8 30.04 116.208 30.04 116.688V120H29.188V111.096H30.04V115.428L29.872 115.104C30.072 114.648 30.392 114.292 30.832 114.036C31.272 113.772 31.796 113.64 32.404 113.64ZM39.8654 120.06C39.2574 120.06 38.7094 119.924 38.2214 119.652C37.7414 119.372 37.3614 118.992 37.0814 118.512C36.8014 118.024 36.6614 117.468 36.6614 116.844C36.6614 116.212 36.8014 115.656 37.0814 115.176C37.3614 114.696 37.7414 114.32 38.2214 114.048C38.7014 113.776 39.2494 113.64 39.8654 113.64C40.4894 113.64 41.0414 113.776 41.5214 114.048C42.0094 114.32 42.3894 114.696 42.6614 115.176C42.9414 115.656 43.0814 116.212 43.0814 116.844C43.0814 117.468 42.9414 118.024 42.6614 118.512C42.3894 118.992 42.0094 119.372 41.5214 119.652C41.0334 119.924 40.4814 120.06 39.8654 120.06ZM39.8654 119.304C40.3214 119.304 40.7254 119.204 41.0774 119.004C41.4294 118.796 41.7054 118.508 41.9054 118.14C42.1134 117.764 42.2174 117.332 42.2174 116.844C42.2174 116.348 42.1134 115.916 41.9054 115.548C41.7054 115.18 41.4294 114.896 41.0774 114.696C40.7254 114.488 40.3254 114.384 39.8774 114.384C39.4294 114.384 39.0294 114.488 38.6774 114.696C38.3254 114.896 38.0454 115.18 37.8374 115.548C37.6294 115.916 37.5254 116.348 37.5254 116.844C37.5254 117.332 37.6294 117.764 37.8374 118.14C38.0454 118.508 38.3254 118.796 38.6774 119.004C39.0294 119.204 39.4254 119.304 39.8654 119.304ZM44.8208 120V111.096H45.6728V120H44.8208ZM48.0435 120V113.7H48.8955V120H48.0435ZM48.4755 112.308C48.2995 112.308 48.1515 112.248 48.0315 112.128C47.9115 112.008 47.8515 111.864 47.8515 111.696C47.8515 111.528 47.9115 111.388 48.0315 111.276C48.1515 111.156 48.2995 111.096 48.4755 111.096C48.6515 111.096 48.7995 111.152 48.9195 111.264C49.0395 111.376 49.0995 111.516 49.0995 111.684C49.0995 111.86 49.0395 112.008 48.9195 112.128C48.8075 112.248 48.6595 112.308 48.4755 112.308ZM53.7741 120.06C53.1741 120.06 52.6341 119.924 52.1541 119.652C51.6821 119.38 51.3101 119.004 51.0381 118.524C50.7661 118.036 50.6301 117.476 50.6301 116.844C50.6301 116.204 50.7661 115.644 51.0381 115.164C51.3101 114.684 51.6821 114.312 52.1541 114.048C52.6341 113.776 53.1741 113.64 53.7741 113.64C54.3261 113.64 54.8181 113.764 55.2501 114.012C55.6901 114.26 56.0381 114.624 56.2941 115.104C56.5581 115.576 56.6901 116.156 56.6901 116.844C56.6901 117.524 56.5621 118.104 56.3061 118.584C56.0501 119.064 55.7021 119.432 55.2621 119.688C54.8301 119.936 54.3341 120.06 53.7741 120.06ZM53.8341 119.304C54.2821 119.304 54.6821 119.204 55.0341 119.004C55.3941 118.796 55.6741 118.508 55.8741 118.14C56.0821 117.764 56.1861 117.332 56.1861 116.844C56.1861 116.348 56.0821 115.916 55.8741 115.548C55.6741 115.18 55.3941 114.896 55.0341 114.696C54.6821 114.488 54.2821 114.384 53.8341 114.384C53.3941 114.384 52.9981 114.488 52.6461 114.696C52.2941 114.896 52.0141 115.18 51.8061 115.548C51.5981 115.916 51.4941 116.348 51.4941 116.844C51.4941 117.332 51.5981 117.764 51.8061 118.14C52.0141 118.508 52.2941 118.796 52.6461 119.004C52.9981 119.204 53.3941 119.304 53.8341 119.304ZM56.2101 120V118.104L56.2941 116.832L56.1741 115.56V111.096H57.0261V120H56.2101ZM63.3469 120V118.608L63.3109 118.38V116.052C63.3109 115.516 63.1589 115.104 62.8549 114.816C62.5589 114.528 62.1149 114.384 61.5229 114.384C61.1149 114.384 60.7269 114.452 60.3589 114.588C59.9909 114.724 59.6789 114.904 59.4229 115.128L59.0389 114.492C59.3589 114.22 59.7429 114.012 60.1909 113.868C60.6389 113.716 61.1109 113.64 61.6069 113.64C62.4229 113.64 63.0509 113.844 63.4909 114.252C63.9389 114.652 64.1629 115.264 64.1629 116.088V120H63.3469ZM61.1749 120.06C60.7029 120.06 60.2909 119.984 59.9389 119.832C59.5949 119.672 59.3309 119.456 59.1469 119.184C58.9629 118.904 58.8709 118.584 58.8709 118.224C58.8709 117.896 58.9469 117.6 59.0989 117.336C59.2589 117.064 59.5149 116.848 59.8669 116.688C60.2269 116.52 60.7069 116.436 61.3069 116.436H63.4789V117.072H61.3309C60.7229 117.072 60.2989 117.18 60.0589 117.396C59.8269 117.612 59.7109 117.88 59.7109 118.2C59.7109 118.56 59.8509 118.848 60.1309 119.064C60.4109 119.28 60.8029 119.388 61.3069 119.388C61.7869 119.388 62.1989 119.28 62.5429 119.064C62.8949 118.84 63.1509 118.52 63.3109 118.104L63.5029 118.692C63.3429 119.108 63.0629 119.44 62.6629 119.688C62.2709 119.936 61.7749 120.06 61.1749 120.06ZM66.4079 122.388C66.1119 122.388 65.8279 122.34 65.5559 122.244C65.2919 122.148 65.0639 122.004 64.8719 121.812L65.2679 121.176C65.4279 121.328 65.5999 121.444 65.7839 121.524C65.9759 121.612 66.1879 121.656 66.4199 121.656C66.6999 121.656 66.9399 121.576 67.1399 121.416C67.3479 121.264 67.5439 120.992 67.7279 120.6L68.1359 119.676L68.2319 119.544L70.8239 113.7H71.6639L68.5079 120.756C68.3319 121.164 68.1359 121.488 67.9199 121.728C67.7119 121.968 67.4839 122.136 67.2359 122.232C66.9879 122.336 66.7119 122.388 66.4079 122.388ZM68.0879 120.18L65.1839 113.7H66.0719L68.6399 119.484L68.0879 120.18ZM74.4855 120.06C73.9655 120.06 73.4735 119.988 73.0095 119.844C72.5455 119.692 72.1815 119.504 71.9175 119.28L72.3015 118.608C72.5575 118.8 72.8855 118.968 73.2855 119.112C73.6855 119.248 74.1055 119.316 74.5455 119.316C75.1455 119.316 75.5775 119.224 75.8415 119.04C76.1055 118.848 76.2375 118.596 76.2375 118.284C76.2375 118.052 76.1615 117.872 76.0095 117.744C75.8655 117.608 75.6735 117.508 75.4335 117.444C75.1935 117.372 74.9255 117.312 74.6295 117.264C74.3335 117.216 74.0375 117.16 73.7415 117.096C73.4535 117.032 73.1895 116.94 72.9495 116.82C72.7095 116.692 72.5135 116.52 72.3615 116.304C72.2175 116.088 72.1455 115.8 72.1455 115.44C72.1455 115.096 72.2415 114.788 72.4335 114.516C72.6255 114.244 72.9055 114.032 73.2735 113.88C73.6495 113.72 74.1055 113.64 74.6415 113.64C75.0495 113.64 75.4575 113.696 75.8655 113.808C76.2735 113.912 76.6095 114.052 76.8735 114.228L76.5015 114.912C76.2215 114.72 75.9215 114.584 75.6015 114.504C75.2815 114.416 74.9615 114.372 74.6415 114.372C74.0735 114.372 73.6535 114.472 73.3815 114.672C73.1175 114.864 72.9855 115.112 72.9855 115.416C72.9855 115.656 73.0575 115.844 73.2015 115.98C73.3535 116.116 73.5495 116.224 73.7895 116.304C74.0375 116.376 74.3055 116.436 74.5935 116.484C74.8895 116.532 75.1815 116.592 75.4695 116.664C75.7655 116.728 76.0335 116.82 76.2735 116.94C76.5215 117.052 76.7175 117.216 76.8615 117.432C77.0135 117.64 77.0895 117.916 77.0895 118.26C77.0895 118.628 76.9855 118.948 76.7775 119.22C76.5775 119.484 76.2815 119.692 75.8895 119.844C75.5055 119.988 75.0375 120.06 74.4855 120.06ZM83.6448 122.4C82.8208 122.4 82.0688 122.264 81.3888 121.992C80.7088 121.728 80.1208 121.352 79.6248 120.864C79.1368 120.384 78.7568 119.812 78.4848 119.148C78.2208 118.476 78.0888 117.744 78.0888 116.952C78.0888 116.152 78.2208 115.424 78.4848 114.768C78.7568 114.104 79.1408 113.532 79.6368 113.052C80.1408 112.564 80.7368 112.188 81.4248 111.924C82.1128 111.66 82.8688 111.528 83.6928 111.528C84.5088 111.528 85.2528 111.656 85.9248 111.912C86.6048 112.168 87.1928 112.532 87.6888 113.004C88.1848 113.468 88.5648 114.024 88.8288 114.672C89.1008 115.32 89.2368 116.036 89.2368 116.82C89.2368 117.492 89.1568 118.072 88.9968 118.56C88.8448 119.04 88.6208 119.412 88.3248 119.676C88.0288 119.932 87.6728 120.06 87.2568 120.06C86.8488 120.06 86.5208 119.936 86.2728 119.688C86.0248 119.44 85.9008 119.092 85.9008 118.644V117.696L85.9968 116.928L85.8768 115.728V113.916H86.6568V118.464C86.6568 118.8 86.7288 119.036 86.8728 119.172C87.0168 119.308 87.1928 119.376 87.4008 119.376C87.6488 119.376 87.8648 119.276 88.0488 119.076C88.2328 118.876 88.3728 118.588 88.4688 118.212C88.5728 117.828 88.6248 117.368 88.6248 116.832C88.6248 116.128 88.5048 115.488 88.2648 114.912C88.0248 114.336 87.6848 113.84 87.2448 113.424C86.8048 113.008 86.2848 112.692 85.6848 112.476C85.0848 112.252 84.4208 112.14 83.6928 112.14C82.9648 112.14 82.2968 112.256 81.6888 112.488C81.0808 112.72 80.5568 113.052 80.1168 113.484C79.6848 113.908 79.3488 114.416 79.1088 115.008C78.8688 115.592 78.7488 116.24 78.7488 116.952C78.7488 117.664 78.8648 118.316 79.0968 118.908C79.3368 119.5 79.6728 120.008 80.1048 120.432C80.5368 120.864 81.0528 121.196 81.6528 121.428C82.2528 121.668 82.9168 121.788 83.6448 121.788C84.0048 121.788 84.3888 121.744 84.7968 121.656C85.2128 121.568 85.5968 121.436 85.9488 121.26L86.1528 121.848C85.7928 122.032 85.3848 122.168 84.9288 122.256C84.4728 122.352 84.0448 122.4 83.6448 122.4ZM83.5008 120.06C82.9328 120.06 82.4248 119.928 81.9768 119.664C81.5288 119.392 81.1728 119.024 80.9088 118.56C80.6528 118.088 80.5248 117.552 80.5248 116.952C80.5248 116.352 80.6528 115.82 80.9088 115.356C81.1728 114.892 81.5288 114.528 81.9768 114.264C82.4248 114 82.9328 113.868 83.5008 113.868C84.0528 113.868 84.5408 113.992 84.9648 114.24C85.3968 114.488 85.7328 114.844 85.9728 115.308C86.2208 115.764 86.3448 116.312 86.3448 116.952C86.3448 117.592 86.2208 118.144 85.9728 118.608C85.7328 119.072 85.4008 119.432 84.9768 119.688C84.5528 119.936 84.0608 120.06 83.5008 120.06ZM83.6088 119.364C84.0408 119.364 84.4288 119.264 84.7728 119.064C85.1248 118.864 85.3968 118.584 85.5888 118.224C85.7888 117.856 85.8888 117.432 85.8888 116.952C85.8888 116.464 85.7888 116.044 85.5888 115.692C85.3968 115.332 85.1248 115.056 84.7728 114.864C84.4288 114.664 84.0408 114.564 83.6088 114.564C83.1608 114.564 82.7648 114.664 82.4208 114.864C82.0768 115.056 81.8048 115.332 81.6048 115.692C81.4128 116.052 81.3168 116.472 81.3168 116.952C81.3168 117.432 81.4128 117.852 81.6048 118.212C81.8048 118.572 82.0768 118.856 82.4208 119.064C82.7648 119.264 83.1608 119.364 83.6088 119.364ZM93.1019 120.06C92.5099 120.06 92.0539 119.9 91.7339 119.58C91.4139 119.26 91.2539 118.808 91.2539 118.224V112.308H92.1059V118.176C92.1059 118.544 92.1979 118.828 92.3819 119.028C92.5739 119.228 92.8459 119.328 93.1979 119.328C93.5739 119.328 93.8859 119.22 94.1339 119.004L94.4339 119.616C94.2659 119.768 94.0619 119.88 93.8219 119.952C93.5899 120.024 93.3499 120.06 93.1019 120.06ZM90.1259 114.408V113.7H94.0259V114.408H90.1259ZM99.2009 113.64C99.7129 113.64 100.161 113.74 100.545 113.94C100.937 114.132 101.241 114.428 101.457 114.828C101.681 115.228 101.793 115.732 101.793 116.34V120H100.941V116.424C100.941 115.76 100.773 115.26 100.437 114.924C100.109 114.58 99.6449 114.408 99.0449 114.408C98.5969 114.408 98.2049 114.5 97.8689 114.684C97.5409 114.86 97.2849 115.12 97.1009 115.464C96.9249 115.8 96.8369 116.208 96.8369 116.688V120H95.9849V111.096H96.8369V115.428L96.6689 115.104C96.8689 114.648 97.1889 114.292 97.6289 114.036C98.0689 113.772 98.5929 113.64 99.2009 113.64ZM106.77 120.06C106.114 120.06 105.538 119.924 105.042 119.652C104.546 119.372 104.158 118.992 103.878 118.512C103.598 118.024 103.458 117.468 103.458 116.844C103.458 116.22 103.59 115.668 103.854 115.188C104.126 114.708 104.494 114.332 104.958 114.06C105.43 113.78 105.958 113.64 106.542 113.64C107.134 113.64 107.658 113.776 108.114 114.048C108.578 114.312 108.942 114.688 109.206 115.176C109.47 115.656 109.602 116.212 109.602 116.844C109.602 116.884 109.598 116.928 109.59 116.976C109.59 117.016 109.59 117.06 109.59 117.108H104.106V116.472H109.134L108.798 116.724C108.798 116.268 108.698 115.864 108.498 115.512C108.306 115.152 108.042 114.872 107.706 114.672C107.37 114.472 106.982 114.372 106.542 114.372C106.11 114.372 105.722 114.472 105.378 114.672C105.034 114.872 104.766 115.152 104.574 115.512C104.382 115.872 104.286 116.284 104.286 116.748V116.88C104.286 117.36 104.39 117.784 104.598 118.152C104.814 118.512 105.11 118.796 105.486 119.004C105.87 119.204 106.306 119.304 106.794 119.304C107.178 119.304 107.534 119.236 107.862 119.1C108.198 118.964 108.486 118.756 108.726 118.476L109.206 119.028C108.926 119.364 108.574 119.62 108.15 119.796C107.734 119.972 107.274 120.06 106.77 120.06ZM113.028 120.06C112.508 120.06 112.016 119.988 111.552 119.844C111.088 119.692 110.724 119.504 110.46 119.28L110.844 118.608C111.1 118.8 111.428 118.968 111.828 119.112C112.228 119.248 112.648 119.316 113.088 119.316C113.688 119.316 114.12 119.224 114.384 119.04C114.648 118.848 114.78 118.596 114.78 118.284C114.78 118.052 114.704 117.872 114.552 117.744C114.408 117.608 114.216 117.508 113.976 117.444C113.736 117.372 113.468 117.312 113.172 117.264C112.876 117.216 112.58 117.16 112.284 117.096C111.996 117.032 111.732 116.94 111.492 116.82C111.252 116.692 111.056 116.52 110.904 116.304C110.76 116.088 110.688 115.8 110.688 115.44C110.688 115.096 110.784 114.788 110.976 114.516C111.168 114.244 111.448 114.032 111.816 113.88C112.192 113.72 112.648 113.64 113.184 113.64C113.592 113.64 114 113.696 114.408 113.808C114.816 113.912 115.152 114.052 115.416 114.228L115.044 114.912C114.764 114.72 114.464 114.584 114.144 114.504C113.824 114.416 113.504 114.372 113.184 114.372C112.616 114.372 112.196 114.472 111.924 114.672C111.66 114.864 111.528 115.112 111.528 115.416C111.528 115.656 111.6 115.844 111.744 115.98C111.896 116.116 112.092 116.224 112.332 116.304C112.58 116.376 112.848 116.436 113.136 116.484C113.432 116.532 113.724 116.592 114.012 116.664C114.308 116.728 114.576 116.82 114.816 116.94C115.064 117.052 115.26 117.216 115.404 117.432C115.556 117.64 115.632 117.916 115.632 118.26C115.632 118.628 115.528 118.948 115.32 119.22C115.12 119.484 114.824 119.692 114.432 119.844C114.048 119.988 113.58 120.06 113.028 120.06ZM117.868 118.368L117.892 117.276L121.816 113.7H122.86L120.088 116.352L119.608 116.76L117.868 118.368ZM117.196 120V111.096H118.048V120H117.196ZM122.08 120L119.452 116.724L120.004 116.064L123.124 120H122.08ZM124.123 122.388C123.827 122.388 123.543 122.34 123.271 122.244C123.007 122.148 122.779 122.004 122.587 121.812L122.983 121.176C123.143 121.328 123.315 121.444 123.499 121.524C123.691 121.612 123.903 121.656 124.135 121.656C124.415 121.656 124.655 121.576 124.855 121.416C125.063 121.264 125.259 120.992 125.443 120.6L125.851 119.676L125.947 119.544L128.539 113.7H129.379L126.223 120.756C126.047 121.164 125.851 121.488 125.635 121.728C125.427 121.968 125.199 122.136 124.951 122.232C124.703 122.336 124.427 122.388 124.123 122.388ZM125.803 120.18L122.899 113.7H123.787L126.355 119.484L125.803 120.18ZM132.746 120.06C132.154 120.06 131.698 119.9 131.378 119.58C131.058 119.26 130.898 118.808 130.898 118.224V112.308H131.75V118.176C131.75 118.544 131.842 118.828 132.026 119.028C132.218 119.228 132.49 119.328 132.842 119.328C133.218 119.328 133.53 119.22 133.778 119.004L134.078 119.616C133.91 119.768 133.706 119.88 133.466 119.952C133.234 120.024 132.994 120.06 132.746 120.06ZM129.77 114.408V113.7H133.67V114.408H129.77ZM135.629 120V113.7H136.445V115.416L136.361 115.116C136.537 114.636 136.833 114.272 137.249 114.024C137.665 113.768 138.181 113.64 138.797 113.64V114.468C138.765 114.468 138.733 114.468 138.701 114.468C138.669 114.46 138.637 114.456 138.605 114.456C137.941 114.456 137.421 114.66 137.045 115.068C136.669 115.468 136.481 116.04 136.481 116.784V120H135.629ZM143.831 120V118.608L143.795 118.38V116.052C143.795 115.516 143.643 115.104 143.339 114.816C143.043 114.528 142.599 114.384 142.007 114.384C141.599 114.384 141.211 114.452 140.843 114.588C140.475 114.724 140.163 114.904 139.907 115.128L139.523 114.492C139.843 114.22 140.227 114.012 140.675 113.868C141.123 113.716 141.595 113.64 142.091 113.64C142.907 113.64 143.535 113.844 143.975 114.252C144.423 114.652 144.647 115.264 144.647 116.088V120H143.831ZM141.659 120.06C141.187 120.06 140.775 119.984 140.423 119.832C140.079 119.672 139.815 119.456 139.631 119.184C139.447 118.904 139.355 118.584 139.355 118.224C139.355 117.896 139.431 117.6 139.583 117.336C139.743 117.064 139.999 116.848 140.351 116.688C140.711 116.52 141.191 116.436 141.791 116.436H143.963V117.072H141.815C141.207 117.072 140.783 117.18 140.543 117.396C140.311 117.612 140.195 117.88 140.195 118.2C140.195 118.56 140.335 118.848 140.615 119.064C140.895 119.28 141.287 119.388 141.791 119.388C142.271 119.388 142.683 119.28 143.027 119.064C143.379 118.84 143.635 118.52 143.795 118.104L143.987 118.692C143.827 119.108 143.547 119.44 143.147 119.688C142.755 119.936 142.259 120.06 141.659 120.06ZM146.961 120V113.7H147.813V120H146.961ZM147.393 112.308C147.217 112.308 147.069 112.248 146.949 112.128C146.829 112.008 146.769 111.864 146.769 111.696C146.769 111.528 146.829 111.388 146.949 111.276C147.069 111.156 147.217 111.096 147.393 111.096C147.569 111.096 147.717 111.152 147.837 111.264C147.957 111.376 148.017 111.516 148.017 111.684C148.017 111.86 147.957 112.008 147.837 112.128C147.725 112.248 147.577 112.308 147.393 112.308ZM150.184 120V111.096H151.036V120H150.184ZM155.099 120.06C154.579 120.06 154.087 119.988 153.623 119.844C153.159 119.692 152.795 119.504 152.531 119.28L152.915 118.608C153.171 118.8 153.499 118.968 153.899 119.112C154.299 119.248 154.719 119.316 155.159 119.316C155.759 119.316 156.191 119.224 156.455 119.04C156.719 118.848 156.851 118.596 156.851 118.284C156.851 118.052 156.775 117.872 156.623 117.744C156.479 117.608 156.287 117.508 156.047 117.444C155.807 117.372 155.539 117.312 155.243 117.264C154.947 117.216 154.651 117.16 154.355 117.096C154.067 117.032 153.803 116.94 153.563 116.82C153.323 116.692 153.127 116.52 152.975 116.304C152.831 116.088 152.759 115.8 152.759 115.44C152.759 115.096 152.855 114.788 153.047 114.516C153.239 114.244 153.519 114.032 153.887 113.88C154.263 113.72 154.719 113.64 155.255 113.64C155.663 113.64 156.071 113.696 156.479 113.808C156.887 113.912 157.223 114.052 157.487 114.228L157.115 114.912C156.835 114.72 156.535 114.584 156.215 114.504C155.895 114.416 155.575 114.372 155.255 114.372C154.687 114.372 154.267 114.472 153.995 114.672C153.731 114.864 153.599 115.112 153.599 115.416C153.599 115.656 153.671 115.844 153.815 115.98C153.967 116.116 154.163 116.224 154.403 116.304C154.651 116.376 154.919 116.436 155.207 116.484C155.503 116.532 155.795 116.592 156.083 116.664C156.379 116.728 156.647 116.82 156.887 116.94C157.135 117.052 157.331 117.216 157.475 117.432C157.627 117.64 157.703 117.916 157.703 118.26C157.703 118.628 157.599 118.948 157.391 119.22C157.191 119.484 156.895 119.692 156.503 119.844C156.119 119.988 155.651 120.06 155.099 120.06ZM159.35 120.06C159.174 120.06 159.022 119.996 158.894 119.868C158.774 119.74 158.714 119.584 158.714 119.4C158.714 119.208 158.774 119.052 158.894 118.932C159.022 118.812 159.174 118.752 159.35 118.752C159.526 118.752 159.674 118.812 159.794 118.932C159.922 119.052 159.986 119.208 159.986 119.4C159.986 119.584 159.922 119.74 159.794 119.868C159.674 119.996 159.526 120.06 159.35 120.06ZM164.249 120.06C163.625 120.06 163.065 119.924 162.569 119.652C162.081 119.372 161.697 118.992 161.417 118.512C161.137 118.024 160.997 117.468 160.997 116.844C160.997 116.212 161.137 115.656 161.417 115.176C161.697 114.696 162.081 114.32 162.569 114.048C163.065 113.776 163.625 113.64 164.249 113.64C164.785 113.64 165.269 113.744 165.701 113.952C166.133 114.16 166.473 114.472 166.721 114.888L166.085 115.32C165.869 115 165.601 114.764 165.281 114.612C164.961 114.46 164.613 114.384 164.237 114.384C163.789 114.384 163.385 114.488 163.025 114.696C162.665 114.896 162.381 115.18 162.173 115.548C161.965 115.916 161.861 116.348 161.861 116.844C161.861 117.34 161.965 117.772 162.173 118.14C162.381 118.508 162.665 118.796 163.025 119.004C163.385 119.204 163.789 119.304 164.237 119.304C164.613 119.304 164.961 119.228 165.281 119.076C165.601 118.924 165.869 118.692 166.085 118.38L166.721 118.812C166.473 119.22 166.133 119.532 165.701 119.748C165.269 119.956 164.785 120.06 164.249 120.06ZM170.858 120.06C170.25 120.06 169.702 119.924 169.214 119.652C168.734 119.372 168.354 118.992 168.074 118.512C167.794 118.024 167.654 117.468 167.654 116.844C167.654 116.212 167.794 115.656 168.074 115.176C168.354 114.696 168.734 114.32 169.214 114.048C169.694 113.776 170.242 113.64 170.858 113.64C171.482 113.64 172.034 113.776 172.514 114.048C173.002 114.32 173.382 114.696 173.654 115.176C173.934 115.656 174.074 116.212 174.074 116.844C174.074 117.468 173.934 118.024 173.654 118.512C173.382 118.992 173.002 119.372 172.514 119.652C172.026 119.924 171.474 120.06 170.858 120.06ZM170.858 119.304C171.314 119.304 171.718 119.204 172.07 119.004C172.422 118.796 172.698 118.508 172.898 118.14C173.106 117.764 173.21 117.332 173.21 116.844C173.21 116.348 173.106 115.916 172.898 115.548C172.698 115.18 172.422 114.896 172.07 114.696C171.718 114.488 171.318 114.384 170.87 114.384C170.422 114.384 170.022 114.488 169.67 114.696C169.318 114.896 169.038 115.18 168.83 115.548C168.622 115.916 168.518 116.348 168.518 116.844C168.518 117.332 168.622 117.764 168.83 118.14C169.038 118.508 169.318 118.796 169.67 119.004C170.022 119.204 170.418 119.304 170.858 119.304ZM183.685 113.64C184.197 113.64 184.641 113.74 185.017 113.94C185.401 114.132 185.697 114.428 185.905 114.828C186.121 115.228 186.229 115.732 186.229 116.34V120H185.377V116.424C185.377 115.76 185.217 115.26 184.897 114.924C184.585 114.58 184.141 114.408 183.565 114.408C183.133 114.408 182.757 114.5 182.437 114.684C182.125 114.86 181.881 115.12 181.705 115.464C181.537 115.8 181.453 116.208 181.453 116.688V120H180.601V116.424C180.601 115.76 180.441 115.26 180.121 114.924C179.801 114.58 179.353 114.408 178.777 114.408C178.353 114.408 177.981 114.5 177.661 114.684C177.341 114.86 177.093 115.12 176.917 115.464C176.749 115.8 176.665 116.208 176.665 116.688V120H175.813V113.7H176.629V115.404L176.497 115.104C176.689 114.648 176.997 114.292 177.421 114.036C177.853 113.772 178.361 113.64 178.945 113.64C179.561 113.64 180.085 113.796 180.517 114.108C180.949 114.412 181.229 114.872 181.357 115.488L181.021 115.356C181.205 114.844 181.529 114.432 181.993 114.12C182.465 113.8 183.029 113.64 183.685 113.64Z" fill="#071C2C"/>
<path d="M194.28 106.63C194.732 108.615 195.036 110.6 195.006 112.604C194.984 114.077 194.806 115.961 194.472 118.017H313.341C315.622 111.216 314.474 103.371 309.62 97.7967C306.693 94.4399 303.114 91.6827 301.367 87.4798C299.475 82.9156 299.492 77.6695 299.284 72.8122C299.284 72.7958 299.281 72.7767 299.281 72.7575C298.829 62.4488 298.136 51.3845 286.697 47.6498C285.67 47.2309 284.602 46.8941 283.496 46.6477C281.27 46.1576 278.88 46.0289 276.32 46.3356C271.301 46.9407 266.742 49.4377 262.049 51.3188C257.356 53.2053 252.012 54.4894 247.308 52.633C243.466 51.1189 240.715 47.7785 237.662 44.9912C233.355 41.0566 227.983 38.0065 222.159 37.5793C213.077 36.925 205.816 43.2991 205.353 52.3318C205.192 55.434 205.547 58.5389 205.432 61.6411C205.066 72.2181 194.472 77.1684 191.479 86.6092C189.407 93.1421 192.731 99.8338 194.28 106.63Z" fill="#EDFAFA"/>
<path d="M296.491 107.834C296.491 111.374 295.968 114.794 294.999 118.02H227.29C226.321 114.794 225.798 111.374 225.798 107.834C225.798 88.3121 241.621 72.489 261.143 72.489C280.665 72.489 296.491 88.3121 296.491 107.834Z" fill="#D7E2F4"/>
<path d="M318 117.655H188.015V119.473H318V117.655Z" fill="#7481B2"/>
<path d="M314.917 119.473H190.542V123H314.917V119.473Z" fill="#545C8C"/>
<path d="M314.92 119.473H278.392V123H314.92V119.473Z" fill="#262A41"/>
<path d="M317.999 117.655H276.088V119.473H317.999V117.655Z" fill="#444A7C"/>
<path d="M264.281 59.7654C264.281 59.7654 263.802 59.5299 262.123 59.9105C260.88 60.1925 263.753 61.2932 263.783 61.2494C263.81 61.2056 264.281 59.7654 264.281 59.7654Z" fill="#8391FC"/>
<path d="M263.957 60.3788C263.957 60.3788 271.552 59.6231 274.068 64.4694C276.587 69.3157 275.895 78.948 279.167 82.283C282.439 85.6179 292.323 96.4468 283.005 101.104C273.688 105.762 272.998 99.9706 272.242 96.8876C271.486 93.8018 272.431 90.9707 270.92 89.4593C269.408 87.9479 267.27 86.3106 268.086 81.9051C268.905 77.4996 262.61 77.6256 262.61 77.6256L261.224 94.0537L253.133 95.5432C253.133 95.5432 253.955 89.4894 253.859 83.5096C253.763 77.5298 251.214 71.2652 253.67 65.6632C256.126 60.0612 260.51 59.0837 263.957 60.3788Z" fill="#262A41"/>
<path d="M254.242 93.6098C251.064 94.9185 251.368 113.554 253.728 113.052C257.52 114.041 259.768 92.5337 254.242 93.6098Z" fill="#E8A398"/>
<path d="M251.157 105.339C251.157 105.339 250.538 112.111 250.464 112.22C250.171 112.661 243.912 112.765 243.912 112.765L242.42 117.135C242.42 117.135 253.925 118.446 255.527 115.607C257.129 112.768 257.892 105.085 257.892 105.085L251.157 105.339Z" fill="#E8A398"/>
<path d="M259.361 84.8758L255.738 104.759L255.56 105.959L252.806 105.718L250.536 105.521C250.536 105.521 251.514 94.7136 252.776 91.3786C254.139 87.7754 259.361 84.8758 259.361 84.8758Z" fill="#85D2F9"/>
<path d="M255.741 104.76L255.563 105.959L252.808 105.718C252.669 104.735 252.461 102.868 252.48 100.663C252.507 97.386 253.323 94.7383 253.323 94.7383L255.741 104.76Z" fill="#C3D3EA"/>
<path d="M270.68 83.8737C270.68 83.8737 263.416 93.0461 263.31 92.8818C263.197 92.7175 258.176 89.7686 258.228 89.3333C258.277 88.9336 260.191 85.1633 260.944 84.1228C261.018 84.0188 261.084 83.9394 261.133 83.8983C261.579 83.4931 262.1 82.7401 262.182 81.9215C262.201 81.7462 262.198 81.5655 262.168 81.3876L263.334 80.9029L268.263 78.8467L268.301 78.8302C268.301 78.8302 268.621 81.8777 268.988 82.5074C269.281 83.0167 270.68 83.8737 270.68 83.8737Z" fill="#E8A398"/>
<path opacity="0.5" d="M268.267 78.9069C267.018 80.8837 262.352 83.4767 260.942 84.1228C261.016 84.0188 261.082 83.9394 261.131 83.8983C261.578 83.4931 262.098 82.7401 262.18 81.9215L263.333 80.9029L267.464 77.2367C267.464 77.2367 267.724 77.2038 268.067 77.1984L268.261 78.8467L268.267 78.9069Z" fill="#E8A398"/>
<path d="M253.067 117.647C254.069 116.221 255.328 113.85 255.011 111.311C254.501 107.235 253.409 103.374 253.119 100.244C252.659 95.3241 253.822 89.8672 257.494 86.3406C257.924 85.9299 258.4 85.5767 258.86 85.2044C259.679 84.5418 261.037 84.027 261.122 83.912C261.092 84.0133 261.199 84.8457 261.36 85.7465C261.568 86.8964 261.864 88.1614 262.083 88.1477C262.461 88.1258 263.121 87.8329 263.907 87.4002C266.346 86.0504 269.971 83.3507 269.971 83.3507C269.971 83.3507 276.962 84.7717 277.181 91.4334C277.4 98.0922 276.2 103.158 276.71 107.015C277.126 110.208 278.251 114.953 279.993 117.647H253.067Z" fill="#85D2F9"/>
<path d="M264.217 87.6332C264.217 87.6332 262.325 88.9693 261.46 90.6614C261.356 90.8668 261.265 91.0776 261.197 91.2912C261.235 91.1324 261.797 88.6654 260.671 86.3545C260.217 85.4208 260.658 85.4154 261.367 85.7494C261.575 86.8994 261.871 88.1643 262.09 88.1506C262.467 88.1287 263.127 87.8358 263.913 87.4032C264.102 87.5428 264.217 87.6332 264.217 87.6332Z" fill="#C3D3EA"/>
<path d="M271.651 92.7446C271.651 92.7446 271.523 106.747 270.633 108.143C269.031 110.654 252.649 116.7 252.649 116.7L269.614 116.262C269.614 116.262 277.842 111.237 277.842 111.018C277.839 110.802 271.651 92.7446 271.651 92.7446Z" fill="#C3D3EA"/>
<path d="M263.842 117.648H243.712V116.394H262.588C263.281 116.394 263.842 116.955 263.842 117.648Z" fill="#262A41"/>
<path d="M227.697 117.647H253.528L251.05 101.769C250.978 101.309 250.581 100.97 250.116 100.97H226.199C225.619 100.97 225.175 101.487 225.266 102.06L227.697 117.647Z" fill="#262A41"/>
<path d="M275.867 93.6098C272.688 94.9185 272.992 113.554 275.352 113.052C279.144 114.041 281.392 92.5337 275.867 93.6098Z" fill="#E8A398"/>
<path d="M272.323 105.794C272.323 105.794 272.323 108.908 272.159 109.127C271.995 109.346 259.964 114.115 259.964 114.115L260.802 118.047C260.802 118.047 267.608 117.256 271.105 116.226C274.818 115.134 278.303 114.452 279.149 112.294C279.995 110.137 280.269 105.66 280.269 105.66L272.323 105.794Z" fill="#E8A398"/>
<path d="M271.653 92.7449L271.982 106.013L280.629 106.123C280.629 106.123 281.831 94.1632 280.519 89.8508C279.208 85.5357 269.98 83.3535 269.98 83.3535L271.653 92.7449Z" fill="#85D2F9"/>
<path d="M269.115 82.0337C269.115 82.0337 271.379 83.5944 270.957 84.4076C270.188 85.8916 266.243 88.2381 263.833 88.8925C262.856 89.1581 262.133 88.1505 262.133 88.1505L269.115 82.0337Z" fill="white"/>
<path d="M261.37 83.066C261.37 83.066 259.598 84.1831 259.965 85.1743C260.365 86.2503 260.729 87.8192 261.129 88.3668C261.528 88.9144 262.218 88.1916 262.218 88.1916L261.37 83.066Z" fill="white"/>
<path d="M277.477 112.382C277.526 113.091 277.145 113.77 276.559 114.175C271.992 117.346 250.77 119.501 251.238 117.957C251.112 116.818 277.096 107.046 277.477 112.382Z" fill="#E8A398"/>
<path d="M244.806 117.91C244.858 117.811 247.075 114.673 249.019 114.657C250.963 114.641 253.409 115.996 253.759 116.051C254.109 116.105 254.928 116.163 254.928 116.163L255.136 118.496C255.136 118.496 253.649 118.244 253.4 118.455C253.151 118.668 253.009 119.005 252.22 118.879C251.432 118.753 250.742 117.891 249.775 117.74C248.811 117.589 247.932 118.6 247.073 118.466C246.213 118.329 244.806 117.91 244.806 117.91Z" fill="#E8A398"/>
<path d="M268.221 79.1011C268.221 79.1011 267.243 80.2538 264.21 81.7324C262.786 82.4278 261.173 83.367 259.528 83.0439C258.076 82.7591 257.31 81.3134 256.688 80.1169C256.083 78.9505 255.623 77.5432 255.412 76.2508C255.166 74.7586 254.98 69.6741 255.637 68.6501C256.488 67.3221 263.131 65.6684 263.131 65.6684L267.041 67.8232L269.998 69.7782L268.221 79.1011Z" fill="#E8A398"/>
<path d="M268.943 82.1928C267.708 80.7964 268.042 77.0453 267.009 74.718C266.695 74.0116 266.087 74.4716 265.933 74.1649C265.41 73.1327 265.06 69.7156 265.06 69.7156C265.06 69.7156 262.705 70.2112 259.562 70.151C258.048 70.1236 254.185 68.6615 254.185 68.6615L256.589 65.9865L263.642 62.2737C263.642 62.2737 273.189 70.4659 272.861 70.9012C272.532 71.3366 271.223 80.2926 271.223 80.2926L268.943 82.1928Z" fill="#262A41"/>
<path d="M268.67 72.0781L267.435 72.037C267.525 69.3346 267.153 61.5148 263.936 60.3648L264.261 59.7542C268.979 61.4409 268.683 71.6427 268.67 72.0781Z" fill="#6875F5"/>
<path d="M268.369 76.4619C268.369 76.4619 265.803 80.369 260.464 80.9577" stroke="#262A41" stroke-width="0.321773" stroke-miterlimit="10"/>
<path d="M260.098 81.7407C260.711 81.7407 261.207 81.4024 261.207 80.9851C261.207 80.5677 260.711 80.2294 260.098 80.2294C259.486 80.2294 258.989 80.5677 258.989 80.9851C258.989 81.4024 259.486 81.7407 260.098 81.7407Z" fill="#262A41"/>
<path d="M267.967 77.5078C269.534 77.5078 270.804 76.1213 270.804 74.4111C270.804 72.7008 269.534 71.3144 267.967 71.3144C266.401 71.3144 265.131 72.7008 265.131 74.4111C265.131 76.1213 266.401 77.5078 267.967 77.5078Z" fill="white"/>
<path d="M268.692 77.5078C270.259 77.5078 271.529 76.1213 271.529 74.4111C271.529 72.7008 270.259 71.3144 268.692 71.3144C267.125 71.3144 265.855 72.7008 265.855 74.4111C265.855 76.1213 267.125 77.5078 268.692 77.5078Z" fill="#6875F5"/>
<path d="M269.378 76.5522C270.402 76.5522 271.232 75.6033 271.232 74.4329C271.232 73.2625 270.402 72.3137 269.378 72.3137C268.354 72.3137 267.524 73.2625 267.524 74.4329C267.524 75.6033 268.354 76.5522 269.378 76.5522Z" fill="#8391FC"/>
<path d="M220.444 85.6614C230.051 85.6614 237.839 77.8736 237.839 68.2667C237.839 58.6599 230.051 50.8721 220.444 50.8721C210.838 50.8721 203.05 58.6599 203.05 68.2667C203.05 77.8736 210.838 85.6614 220.444 85.6614Z" fill="#16BDCA"/>
<path d="M233.968 75.0105C234.061 75.2925 235.753 84.1172 235.753 84.1172L226.739 81.9569L233.968 75.0105Z" fill="#16BDCA"/>
<path d="M212.499 62.358C212.505 62.3526 212.513 62.3471 212.521 62.3389C212.779 62.1198 213.011 61.8844 213.23 61.6516L213.312 61.5667C213.444 61.4326 213.564 61.3039 213.704 61.1752C214.337 60.5701 215.109 60.5756 215.716 61.1944L217.784 63.2616C218.079 63.5381 218.244 63.8831 218.244 64.2363C218.244 64.5868 218.085 64.929 217.786 65.2302L216.502 66.5144C216.461 66.5582 216.42 66.6047 216.42 66.6622C216.42 66.6732 216.42 66.6978 216.445 66.7526C216.45 66.7608 216.456 66.769 216.458 66.7772C216.532 66.9032 216.604 67.0401 216.675 67.1852C216.74 67.3139 216.812 67.4617 216.897 67.5931C217.622 68.7431 218.572 69.789 219.802 70.7829C219.804 70.7857 219.807 70.7912 219.81 70.7939C220.483 71.3196 221.042 71.6646 221.617 71.9028L221.622 71.9055C221.751 71.9466 221.778 71.9466 221.869 71.859C221.872 71.8562 221.874 71.8535 221.877 71.8508C222.167 71.5277 222.457 71.2347 222.805 70.8952C222.876 70.8213 222.95 70.7473 223.027 70.6734L223.131 70.5748C223.761 69.9451 224.514 69.9451 225.143 70.5748L226.162 71.5934C226.225 71.6564 226.288 71.7139 226.348 71.7796C226.408 71.8371 226.466 71.8918 226.526 71.9493C226.786 72.204 227 72.4148 227.213 72.6421L227.216 72.6448C227.504 72.9323 227.654 73.2691 227.654 73.6168C227.654 73.959 227.506 74.2986 227.224 74.597C227.219 74.6025 227.216 74.6052 227.211 74.6107L225.929 75.8921C225.519 76.3001 225.018 76.5328 224.437 76.5848C223.651 76.6505 222.844 76.5081 221.828 76.1276C220.229 75.5361 218.742 74.6463 217.146 73.3211C215.226 71.7139 213.715 69.7836 212.647 67.574C212.25 66.7471 211.787 65.6437 211.711 64.4198C211.708 64.3541 211.708 64.2801 211.708 64.2117C211.713 63.4615 211.971 62.8564 212.499 62.358Z" fill="white"/>
<path d="M219.22 61.5619C219.598 61.4907 219.986 61.4523 220.383 61.4523C223.915 61.4523 226.779 64.4258 226.779 68.0948C226.779 68.5082 226.744 68.9134 226.673 69.3077" stroke="white" stroke-width="0.586896" stroke-miterlimit="10" stroke-linecap="round"/>
<path d="M218.014 60.3102C218.761 60.0637 219.558 59.9323 220.385 59.9323C224.725 59.9323 228.243 63.5876 228.243 68.0944C228.243 68.9541 228.117 69.781 227.879 70.5586" stroke="white" stroke-width="0.586896" stroke-miterlimit="10" stroke-linecap="round"/>
<path d="M291.347 82.162C294.047 82.162 296.235 79.9739 296.235 77.2747C296.235 74.5754 294.047 72.3873 291.347 72.3873C288.648 72.3873 286.46 74.5754 286.46 77.2747C286.46 79.9739 288.648 82.162 291.347 82.162Z" stroke="#C3D3EA" stroke-width="0.618109" stroke-miterlimit="10" stroke-linecap="round"/>
<path d="M289.518 77.9974L291.349 77.2746V73.8027" stroke="#C3D3EA" stroke-width="0.618109" stroke-miterlimit="10" stroke-linecap="round"/>
<path d="M282.197 56.8382C282.158 56.9559 281.449 60.6577 281.449 60.6577L285.23 59.7515L282.197 56.8382Z" fill="#16BDCA"/>
<path d="M290.209 61.1695C295.447 61.1695 299.694 57.9038 299.694 53.8754C299.694 49.847 295.447 46.5813 290.209 46.5813C284.971 46.5813 280.725 49.847 280.725 53.8754C280.725 57.9038 284.971 61.1695 290.209 61.1695Z" fill="#16BDCA"/>
<path d="M294.32 55.0417C294.964 55.0417 295.486 54.5195 295.486 53.8753C295.486 53.2312 294.964 52.7089 294.32 52.7089C293.676 52.7089 293.153 53.2312 293.153 53.8753C293.153 54.5195 293.676 55.0417 294.32 55.0417Z" fill="white"/>
<path d="M290.212 55.0417C290.856 55.0417 291.379 54.5195 291.379 53.8753C291.379 53.2312 290.856 52.7089 290.212 52.7089C289.568 52.7089 289.046 53.2312 289.046 53.8753C289.046 54.5195 289.568 55.0417 290.212 55.0417Z" fill="white"/>
<path d="M286.102 55.0417C286.746 55.0417 287.268 54.5195 287.268 53.8753C287.268 53.2312 286.746 52.7089 286.102 52.7089C285.458 52.7089 284.936 53.2312 284.936 53.8753C284.936 54.5195 285.458 55.0417 286.102 55.0417Z" fill="white"/>
<defs>
<linearGradient id="paint0_linear_0_2710" x1="0" y1="0" x2="344.899" y2="74.4841" gradientUnits="userSpaceOnUse">
<stop stop-color="#BCF0DA"/>
<stop offset="1" stop-color="#DEF7EC"/>
</linearGradient>
</defs>
</svg>
