<svg width="1312" height="440" viewBox="0 0 1312 440" fill="none" xmlns="http://www.w3.org/2000/svg">
<g clip-path="url(#clip0_238_1416)">
<rect width="1312" height="440" rx="16" fill="url(#paint0_linear_238_1416)"/>
<g clip-path="url(#clip1_238_1416)">
<path d="M153.412 43.5189L151.686 44.2639C151.143 44.4982 150.893 45.1279 151.127 45.6706C151.362 46.2133 151.991 46.4634 152.534 46.2292L154.26 45.4842C154.803 45.25 155.053 44.6202 154.819 44.0775C154.585 43.5347 153.955 43.2847 153.412 43.5189Z" fill="#DFCFEA"/>
<path d="M167.346 30.8714C167.268 30.7087 167.178 30.5516 167.076 30.4037L160.066 20.212C160.066 20.2116 160.065 20.2113 160.065 20.2109L158.674 18.1879C157.739 16.8292 155.962 16.3172 154.448 16.9707L96.4275 42.0097C94.6689 42.7685 93.8557 44.8166 94.6146 46.5752L105.948 72.8361C106.707 74.5946 108.755 75.4079 110.513 74.6489L113.626 73.3057C115.435 76.194 119.14 77.4145 122.364 76.0232C125.587 74.632 127.241 71.0993 126.381 67.8012L128.911 66.7091C129.454 66.475 129.704 65.8452 129.47 65.3024C129.236 64.7596 128.606 64.5096 128.063 64.7438L125.532 65.836C123.723 62.9478 120.018 61.7274 116.794 63.1186C113.571 64.5099 111.917 68.0426 112.777 71.3405L109.665 72.6837C108.99 72.975 108.204 72.6627 107.913 71.9878L96.5798 45.7271C96.2885 45.0521 96.6005 44.266 97.2755 43.9747L155.296 18.9358C155.874 18.6862 156.553 18.8817 156.91 19.4008L157.564 20.3519L144.663 25.9197C143.705 26.333 143.262 27.4485 143.675 28.4062L148.249 39.0044C148.679 40.0015 149.565 40.7414 150.618 40.9835C153.152 41.5668 158.209 41.457 167.987 37.7506L170.832 44.3447C171.222 45.2475 170.805 46.2988 169.902 46.6884L167.202 47.8533C165.393 44.9652 161.688 43.7447 158.464 45.136C155.241 46.5273 153.587 50.0599 154.447 53.3579L132.635 62.7709C132.093 63.0051 131.843 63.6349 132.077 64.1777C132.311 64.7204 132.941 64.9705 133.484 64.7362L155.296 55.3231C157.105 58.2114 160.81 59.4318 164.034 58.0406C167.258 56.6493 168.911 53.1166 168.051 49.8185L170.75 48.6536C172.737 47.7964 173.655 45.483 172.798 43.4966L167.403 30.9944L167.402 30.9942C167.384 30.9527 167.365 30.9119 167.346 30.8714ZM117.643 65.084C120.117 64.0162 122.998 65.1604 124.066 67.6346C125.134 70.1087 123.99 72.9903 121.516 74.0581C119.041 75.1258 116.16 73.9815 115.092 71.5073C114.024 69.0332 115.169 66.1517 117.643 65.084ZM163.185 56.075C160.711 57.1428 157.83 55.9985 156.762 53.5243C155.694 51.0502 156.838 48.1687 159.313 47.101C161.787 46.0332 164.668 47.1773 165.736 49.6515C166.804 52.1257 165.66 55.0073 163.185 56.075ZM150.214 38.1563L145.739 27.7864L158.801 22.1496L165.313 31.6173C165.324 31.6341 165.334 31.6522 165.345 31.6697C165.377 31.7208 165.406 31.7737 165.43 31.8285C165.432 31.8333 165.435 31.8378 165.437 31.8425L167.138 35.7834C157.43 39.4521 152.936 39.3205 151.098 38.8975C150.706 38.8074 150.376 38.5303 150.214 38.1563Z" fill="#DFCFEA"/>
<path d="M117.328 37.7183L100.88 44.8166C100.016 45.1895 99.6159 46.1959 99.9888 47.0601L104.761 58.1172C105.134 58.9813 106.14 59.381 107.004 59.008L123.452 51.9097C124.316 51.5368 124.716 50.5304 124.343 49.6662L119.571 38.6092C119.198 37.745 118.192 37.3454 117.328 37.7183ZM113.397 53.9178L106.554 56.8711L102.126 46.61L108.969 43.6567L113.397 53.9178ZM122.206 50.1163L115.363 53.0696L110.934 42.8085L117.778 39.8552L122.206 50.1163Z" fill="#DFCFEA"/>
<path d="M138.894 28.4099L122.446 35.5082C121.582 35.8812 121.182 36.8876 121.555 37.7518L126.327 48.8088C126.7 49.673 127.706 50.0726 128.57 49.6997L145.019 42.6013C145.883 42.2284 146.283 41.222 145.91 40.3578L141.138 29.3008C140.765 28.4366 139.759 28.037 138.894 28.4099ZM143.773 40.8079L136.929 43.7613L135.322 40.0372C135.088 39.4944 134.458 39.2443 133.915 39.4786C133.372 39.7128 133.122 40.3425 133.357 40.8853L134.964 44.6094L128.12 47.5628L123.692 37.3017L130.536 34.3483L131.383 36.3131C131.618 36.8559 132.247 37.1059 132.79 36.8717C133.333 36.6374 133.583 36.0077 133.349 35.465L132.501 33.5002L139.344 30.5468L143.773 40.8079Z" fill="#DFCFEA"/>
</g>
<path d="M554.497 200.76C556.049 202.981 556.9 204.259 556.931 204.319L554.801 205.749C554.801 205.749 553.95 204.441 552.398 202.251L554.497 200.76Z" fill="#DFCFEA"/>
<path d="M560.583 212.928C562.135 215.149 562.986 216.426 563.017 216.487L560.887 217.917C560.887 217.917 560.036 216.609 558.484 214.418L560.583 212.928Z" fill="#DFCFEA"/>
<path d="M557.544 206.844C559.096 209.065 559.947 210.342 559.978 210.403L557.848 211.833C557.848 211.833 556.997 210.525 555.445 208.335L557.544 206.844Z" fill="#DFCFEA"/>
<path d="M563.63 219.012C565.181 221.232 566.033 222.51 566.064 222.571L563.934 224C563.934 224 563.083 222.692 561.531 220.502L563.63 219.012Z" fill="#DFCFEA"/>
<path d="M140.808 97.7334C141.568 100.623 142.541 103.27 143.637 105.642L141.325 106.737C140.138 104.243 139.135 101.444 138.344 98.4026L140.808 97.7334ZM279.728 101.505C282.831 101.657 285.781 102.022 288.488 102.631L287.941 105.125C285.386 104.547 282.587 104.182 279.606 104.06L279.728 101.505ZM262.268 102.692L262.663 105.216C260.017 105.642 257.249 106.159 254.237 106.798L253.69 104.304C256.762 103.665 259.561 103.117 262.268 102.692ZM236.869 108.562L237.568 111.026C235.165 111.695 232.61 112.425 229.264 113.429L228.534 110.965C231.88 109.992 234.466 109.262 236.869 108.562ZM304.336 110.57C306.496 112.517 308.443 114.768 310.146 117.353L308.017 118.783C306.435 116.41 304.61 114.281 302.633 112.486L304.336 110.57ZM211.986 115.832L212.686 118.296C209.583 119.178 206.846 119.908 204.321 120.577L203.682 118.083C206.177 117.414 208.914 116.684 211.986 115.832ZM154.192 118.053C156.443 119.452 158.967 120.577 161.735 121.368L161.036 123.832C158.024 122.981 155.287 121.764 152.823 120.212L154.192 118.053ZM186.891 121.703L187.287 124.228C184.215 124.714 181.294 125.049 178.587 125.231L178.405 122.676C181.051 122.494 183.91 122.159 186.891 121.703ZM316.99 133.566C317.66 136.243 318.237 139.133 318.694 142.144L316.169 142.539C315.713 139.589 315.165 136.79 314.496 134.205L316.99 133.566ZM467.257 150.813C469.355 150.813 471.393 151.057 473.249 151.513L472.61 154.007C470.177 153.399 467.439 153.216 464.489 153.521L464.245 150.965C465.249 150.874 466.283 150.813 467.257 150.813ZM447.333 155.924L448.367 158.266C445.964 159.33 443.378 160.608 440.701 162.068L439.485 159.817C442.253 158.327 444.869 157.019 447.333 155.924ZM320.063 159.513C320.093 160.517 320.093 161.521 320.093 162.555C320.093 163.346 320.093 164.167 320.063 164.988C320.063 165.901 320.032 166.813 320.032 167.726V168.182H317.477V167.726C317.477 166.813 317.477 165.901 317.507 164.958C317.507 164.137 317.538 163.346 317.538 162.555C317.538 161.551 317.538 160.547 317.507 159.543L320.063 159.513ZM424.58 168.73L425.979 170.889C423.758 172.319 421.386 173.901 418.8 175.665L417.371 173.536C419.956 171.741 422.329 170.19 424.58 168.73ZM403.104 183.391L404.565 185.49L404.078 185.825C401.857 187.376 399.667 188.927 397.477 190.448L396.017 188.349C398.207 186.828 400.428 185.277 402.618 183.726L403.104 183.391ZM320.975 185.247C321.34 188.258 321.796 191.087 322.374 193.612L319.88 194.19C319.272 191.543 318.785 188.654 318.42 185.551L320.975 185.247ZM381.72 197.992L383.12 200.152C380.504 201.855 378.07 203.376 375.758 204.775L374.42 202.585C376.732 201.186 379.135 199.695 381.72 197.992ZM328.975 208.76C330.77 210.92 332.899 212.532 335.302 213.536L334.298 215.908C331.53 214.753 329.066 212.897 326.998 210.403L328.975 208.76ZM359.333 210.585L360.367 212.927C357.447 214.205 354.648 215.209 352.093 215.939L351.393 213.475C353.827 212.806 356.504 211.832 359.333 210.585Z" fill="#DFCFEA"/>
<path d="M138.227 76.0454C138.257 77.4751 138.288 78.9047 138.349 80.2735L135.794 80.3952C135.733 78.996 135.672 77.5359 135.672 76.0759L138.227 76.0454Z" fill="#DFCFEA"/>
<path d="M543.454 199.016C541.532 198.107 539.566 197.337 537.563 196.709L536.136 192.478H537.387C538.737 192.478 539.836 191.379 539.836 190.029V188.489C539.836 187.741 539.498 187.071 538.967 186.621C539.19 186.186 539.312 185.698 539.312 185.191C539.312 183.46 537.904 182.051 536.172 182.051H514.59C513.999 182.051 513.521 182.53 513.521 183.121C513.521 183.711 513.999 184.19 514.59 184.19H515.838L513.989 186.04H506.394C506.278 185.967 506.176 185.873 506.098 185.76L500.659 177.889C500.508 177.67 500.45 177.404 500.498 177.141C500.546 176.878 500.694 176.649 500.914 176.497C501.134 176.345 501.4 176.288 501.662 176.336C501.926 176.384 502.154 176.531 502.306 176.751L507.128 183.729C507.328 184.018 507.656 184.19 508.008 184.19H509.933C510.524 184.19 511.002 183.711 511.002 183.121C511.002 182.53 510.524 182.051 509.933 182.051H508.569L504.066 175.536C503.589 174.846 502.872 174.383 502.047 174.232C501.223 174.081 500.388 174.261 499.698 174.738C499.008 175.214 498.545 175.931 498.394 176.756C498.243 177.581 498.423 178.415 498.9 179.105L504.339 186.976C504.353 186.996 504.368 187.016 504.383 187.035C504.081 187.443 503.9 187.944 503.9 188.489V190.029C503.9 191.379 504.999 192.478 506.35 192.478H506.408L505.598 194.879C499.809 192.696 493.756 191.443 487.521 191.135L494.998 166.301C496.42 167.003 497.528 168.208 498.112 169.722C498.311 170.242 498.731 170.632 499.262 170.792C499.794 170.951 500.359 170.858 500.812 170.536C502.43 169.385 504.447 169.053 506.347 169.625C507.911 170.096 509.221 171.134 510.034 172.549C510.361 173.118 510.946 173.451 511.579 173.451C511.683 173.451 511.789 173.442 511.895 173.424C512.641 173.293 513.209 172.725 513.341 171.976C513.914 168.737 513.683 165.525 512.784 162.553C513.439 162.409 514.11 162.335 514.787 162.335C515.16 162.335 515.537 162.36 515.94 162.409C516.388 162.463 516.824 162.231 517.026 161.827C518.272 159.34 520.642 157.557 523.366 157.055C523.686 156.996 523.962 156.795 524.115 156.509C524.269 156.222 524.284 155.882 524.156 155.583C524.023 155.273 523.956 154.944 523.956 154.604C523.956 153.23 525.074 152.112 526.448 152.112C527.048 152.112 527.627 152.329 528.081 152.723C528.326 152.936 528.656 153.026 528.976 152.967C529.296 152.908 529.572 152.707 529.725 152.42C530.857 150.302 533.049 148.987 535.446 148.987C539.02 148.987 541.927 151.895 541.927 155.469C541.927 156.059 542.406 156.538 542.997 156.538C543.587 156.538 544.066 156.059 544.066 155.469C544.066 150.715 540.199 146.848 535.446 146.848C532.647 146.848 530.059 148.196 528.451 150.429C527.83 150.132 527.146 149.973 526.448 149.973C523.895 149.973 521.817 152.051 521.817 154.604C521.817 154.812 521.831 155.017 521.858 155.221C519.19 156.012 516.887 157.808 515.468 160.218C515.237 160.204 515.01 160.197 514.787 160.197C513.861 160.197 512.945 160.309 512.053 160.527C509.89 155.4 505.659 151.218 500.136 149.237L500.44 148.226C500.61 147.66 500.29 147.064 499.724 146.893C499.159 146.724 498.563 147.043 498.392 147.609L498.088 148.62C494.889 147.834 491.589 147.837 488.435 148.604C487.822 144.994 484.977 142.153 481.349 141.559C480.756 139.309 478.684 137.652 476.291 137.652C473.408 137.652 471.063 139.998 471.063 142.881C471.063 143.472 471.541 143.951 472.132 143.951C472.723 143.951 473.201 143.472 473.201 142.881C473.201 141.177 474.588 139.791 476.291 139.791C477.884 139.791 479.236 141.033 479.369 142.619C479.414 143.146 479.837 143.562 480.366 143.596C483.481 143.799 485.974 146.178 486.366 149.224C485.579 149.506 484.805 149.837 484.049 150.218C483.522 150.484 483.31 151.127 483.576 151.655C483.842 152.182 484.485 152.394 485.012 152.128C488.062 150.59 491.425 149.95 494.763 150.234C493.877 150.971 492.971 151.979 492.056 153.254C490.146 155.915 488.355 159.532 486.917 163.595C485.833 161.947 484.208 160.725 482.269 160.141C480.484 159.604 478.6 159.665 476.873 160.303C477.963 158.102 479.465 156.175 481.348 154.566C481.797 154.182 481.85 153.507 481.466 153.058C481.082 152.609 480.407 152.556 479.958 152.94C477.591 154.964 475.762 157.436 474.523 160.288C474.22 160.986 474.379 161.773 474.929 162.294C475.482 162.817 476.281 162.934 476.963 162.592C478.422 161.861 480.088 161.718 481.653 162.189C483.552 162.762 485.051 164.152 485.764 166.005C485.964 166.524 486.384 166.914 486.915 167.074C487.446 167.234 488.011 167.141 488.465 166.818C489.787 165.877 491.376 165.484 492.95 165.684L485.308 191.064C485.03 191.061 484.751 191.059 484.471 191.059C480.239 191.059 476.012 191.502 471.909 192.377C471.331 192.5 470.963 193.068 471.086 193.646C471.209 194.223 471.779 194.591 472.355 194.469C476.312 193.625 480.388 193.197 484.471 193.197C484.536 193.197 484.601 193.199 484.666 193.199L483.835 195.959C483.664 196.525 483.985 197.121 484.55 197.292C484.653 197.323 484.757 197.337 484.859 197.337C485.319 197.337 485.743 197.039 485.883 196.576L486.885 193.246C493.907 193.53 500.692 195.055 507.115 197.792C503.909 199.053 500.838 200.681 497.955 202.662C497.468 202.996 497.344 203.662 497.679 204.149C497.886 204.451 498.221 204.613 498.561 204.613C498.77 204.613 498.981 204.552 499.166 204.425C506.452 199.418 514.996 196.772 523.873 196.772C530.403 196.772 536.683 198.178 542.539 200.95C543.073 201.202 543.71 200.974 543.963 200.441C544.216 199.907 543.988 199.269 543.454 199.016ZM511.373 170.69C510.286 169.205 508.749 168.114 506.963 167.577C505.025 166.993 502.995 167.115 501.181 167.89C502.225 163.709 502.729 159.704 502.606 156.43C502.547 154.864 502.349 153.523 502.017 152.42C508.502 155.967 512.315 163.183 511.373 170.69ZM489.006 164.103C490.363 160.314 492.029 156.96 493.794 154.501C495.602 151.98 497.406 150.619 498.503 150.949C499.598 151.28 500.353 153.411 500.469 156.51C500.582 159.535 500.12 163.251 499.159 167.16C498.076 165.591 496.494 164.425 494.616 163.859C492.739 163.294 490.776 163.392 489.006 164.103ZM537.173 185.191C537.173 185.538 536.992 185.857 536.699 186.04H530.395L532.244 184.19H536.173C536.724 184.19 537.173 184.639 537.173 185.191ZM529.219 184.19L527.37 186.04H523.809L525.658 184.19H529.219ZM518.863 184.19H522.633L520.784 186.04H517.014L518.863 184.19ZM510.034 196.76C509.224 196.378 508.409 196.016 507.588 195.672L508.665 192.478H526.473C527.064 192.478 527.543 192 527.543 191.409C527.543 190.818 527.064 190.34 526.473 190.34H506.35C506.179 190.34 506.039 190.2 506.039 190.029V188.489C506.039 188.318 506.179 188.178 506.35 188.178H537.387C537.558 188.178 537.697 188.318 537.697 188.489V190.029C537.697 190.2 537.558 190.34 537.387 190.34H531.13C530.54 190.34 530.061 190.818 530.061 191.409C530.061 192 530.54 192.478 531.13 192.478H533.879L535.068 196.006C531.439 195.094 527.697 194.634 523.873 194.634C519.127 194.633 514.471 195.357 510.034 196.76Z" fill="#DFCFEA"/>
<path d="M532.238 200.375L532.227 200.386C531.81 200.804 531.81 201.481 532.227 201.898C532.436 202.107 532.71 202.211 532.984 202.211C533.257 202.211 533.531 202.107 533.74 201.898L533.751 201.887C534.169 201.469 534.169 200.792 533.751 200.375C533.333 199.957 532.656 199.957 532.238 200.375Z" fill="#DFCFEA"/>
<path d="M497.888 199.534C498.303 199.114 498.299 198.437 497.879 198.022C497.459 197.607 496.781 197.611 496.366 198.032L496.355 198.043C495.94 198.463 495.945 199.14 496.365 199.555C496.573 199.761 496.845 199.863 497.116 199.863C497.392 199.863 497.668 199.757 497.877 199.545L497.888 199.534Z" fill="#DFCFEA"/>
<path d="M481.652 197.074L481.641 197.085C481.224 197.503 481.224 198.18 481.641 198.597C481.85 198.806 482.124 198.911 482.398 198.911C482.671 198.911 482.945 198.806 483.154 198.597L483.165 198.586C483.583 198.168 483.583 197.491 483.165 197.074C482.747 196.656 482.07 196.656 481.652 197.074Z" fill="#DFCFEA"/>
<path d="M485.074 198.785L485.063 198.796C484.646 199.214 484.646 199.891 485.063 200.309C485.272 200.517 485.546 200.622 485.819 200.622C486.093 200.622 486.367 200.517 486.576 200.309L486.587 200.297C487.005 199.88 487.005 199.203 486.587 198.785C486.169 198.368 485.492 198.368 485.074 198.785Z" fill="#DFCFEA"/>
<g clip-path="url(#clip2_238_1416)">
<path d="M94.4121 219.519L92.6858 220.264C92.143 220.498 91.893 221.128 92.1272 221.671C92.3616 222.213 92.9913 222.463 93.5339 222.229L95.2603 221.484C95.803 221.25 96.0531 220.62 95.8189 220.077C95.5846 219.535 94.9549 219.285 94.4121 219.519Z" fill="#DFCFEA"/>
<path d="M108.346 206.871C108.268 206.709 108.178 206.552 108.076 206.404L101.066 196.212C101.066 196.212 101.065 196.211 101.065 196.211L99.6738 194.188C98.7392 192.829 96.9619 192.317 95.4478 192.971L37.4275 218.01C35.6689 218.768 34.8557 220.817 35.6146 222.575L46.9476 248.836C47.7066 250.595 49.7546 251.408 51.5132 250.649L54.6257 249.306C56.4351 252.194 60.1399 253.414 63.3637 252.023C66.5875 250.632 68.241 247.099 67.3807 243.801L69.9113 242.709C70.4539 242.475 70.7041 241.845 70.4699 241.302C70.2356 240.76 69.6059 240.51 69.0631 240.744L66.5324 241.836C64.7231 238.948 61.0182 237.727 57.7945 239.119C54.5707 240.51 52.9171 244.043 53.7774 247.34L50.665 248.684C49.99 248.975 49.204 248.663 48.9127 247.988L37.5798 221.727C37.2885 221.052 37.6005 220.266 38.2755 219.975L96.2956 194.936C96.874 194.686 97.5529 194.882 97.9101 195.401L98.5643 196.352L85.6626 201.92C84.7048 202.333 84.2619 203.448 84.6752 204.406L89.2489 215.004C89.6792 216.001 90.5647 216.741 91.6176 216.983C94.1524 217.567 99.2094 217.457 108.987 213.751L111.832 220.345C112.222 221.247 111.805 222.299 110.902 222.688L108.202 223.853C106.393 220.965 102.688 219.745 99.4644 221.136C96.2406 222.527 94.5871 226.06 95.4473 229.358L73.6355 238.771C73.0928 239.005 72.8426 239.635 73.0769 240.178C73.3111 240.72 73.9408 240.97 74.4836 240.736L96.2957 231.323C98.1051 234.211 101.81 235.432 105.034 234.041C108.258 232.649 109.911 229.117 109.051 225.819L111.75 224.654C113.737 223.796 114.655 221.483 113.798 219.497L108.403 206.994L108.402 206.994C108.384 206.953 108.365 206.912 108.346 206.871ZM58.6428 241.084C61.117 240.016 63.9984 241.16 65.0661 243.635C66.1339 246.109 64.9898 248.99 62.5156 250.058C60.0414 251.126 57.1599 249.981 56.0922 247.507C55.0245 245.033 56.1686 242.152 58.6428 241.084ZM104.185 232.075C101.711 233.143 98.8298 231.998 97.7621 229.524C96.6943 227.05 97.8385 224.169 100.313 223.101C102.787 222.033 105.668 223.177 106.736 225.651C107.804 228.126 106.66 231.007 104.185 232.075ZM91.2142 214.156L86.739 203.786L99.8007 198.15L106.313 207.617C106.324 207.634 106.334 207.652 106.345 207.67C106.377 207.721 106.406 207.774 106.43 207.829C106.432 207.833 106.435 207.838 106.437 207.842L108.138 211.783C98.4304 215.452 93.9355 215.321 92.0977 214.898C91.7059 214.807 91.3756 214.53 91.2142 214.156Z" fill="#DFCFEA"/>
<path d="M58.3278 213.718L41.8797 220.817C41.0155 221.19 40.6159 222.196 40.9888 223.06L45.7606 234.117C46.1335 234.981 47.1399 235.381 48.0041 235.008L64.4522 227.91C65.3164 227.537 65.716 226.53 65.3431 225.666L60.5713 214.609C60.1984 213.745 59.192 213.345 58.3278 213.718ZM54.3974 229.918L47.554 232.871L43.1257 222.61L49.9692 219.657L54.3974 229.918ZM63.2061 226.116L56.3627 229.07L51.9345 218.809L58.7779 215.855L63.2061 226.116Z" fill="#DFCFEA"/>
<path d="M79.8944 204.41L63.4461 211.508C62.5819 211.881 62.1823 212.888 62.5552 213.752L67.327 224.809C67.6999 225.673 68.7063 226.073 69.5705 225.7L86.0187 218.601C86.8829 218.228 87.2825 217.222 86.9096 216.358L82.1379 205.301C81.7649 204.437 80.7585 204.037 79.8944 204.41ZM84.7727 216.808L77.9291 219.761L76.3219 216.037C76.0877 215.494 75.458 215.244 74.9152 215.479C74.3725 215.713 74.1224 216.343 74.3567 216.885L75.9638 220.609L69.1204 223.563L64.6921 213.302L71.5356 210.348L72.3835 212.313C72.6177 212.856 73.2474 213.106 73.7902 212.872C74.333 212.637 74.583 212.008 74.3488 211.465L73.5009 209.5L80.3445 206.547L84.7727 216.808Z" fill="#DFCFEA"/>
</g>
<path d="M495.497 376.76C497.049 378.981 497.9 380.259 497.931 380.319L495.801 381.749C495.801 381.749 494.95 380.441 493.398 378.251L495.497 376.76Z" fill="#DFCFEA"/>
<path d="M501.583 388.928C503.135 391.149 503.986 392.426 504.017 392.487L501.887 393.917C501.887 393.917 501.036 392.609 499.484 390.418L501.583 388.928Z" fill="#DFCFEA"/>
<path d="M498.544 382.844C500.096 385.065 500.947 386.342 500.978 386.403L498.848 387.833C498.848 387.833 497.997 386.525 496.445 384.335L498.544 382.844Z" fill="#DFCFEA"/>
<path d="M504.63 395.012C506.181 397.232 507.033 398.51 507.064 398.571L504.934 400C504.934 400 504.083 398.692 502.531 396.502L504.63 395.012Z" fill="#DFCFEA"/>
<path d="M81.8076 273.733C82.5681 276.623 83.5415 279.27 84.6365 281.642L82.3247 282.737C81.1384 280.243 80.1346 277.444 79.3438 274.403L81.8076 273.733ZM220.728 277.505C223.831 277.657 226.781 278.022 229.488 278.631L228.941 281.125C226.386 280.547 223.587 280.182 220.606 280.06L220.728 277.505ZM203.268 278.692L203.663 281.216C201.017 281.642 198.249 282.159 195.237 282.798L194.69 280.304C197.762 279.665 200.561 279.117 203.268 278.692ZM177.869 284.562L178.568 287.026C176.165 287.695 173.61 288.425 170.264 289.429L169.534 286.965C172.88 285.992 175.466 285.262 177.869 284.562ZM245.336 286.57C247.496 288.517 249.443 290.768 251.146 293.353L249.017 294.783C247.435 292.41 245.61 290.281 243.633 288.486L245.336 286.57ZM152.986 291.832L153.686 294.296C150.583 295.178 147.846 295.908 145.321 296.577L144.682 294.083C147.177 293.414 149.914 292.684 152.986 291.832ZM95.1917 294.053C97.4426 295.452 99.9674 296.577 102.735 297.368L102.036 299.832C99.0244 298.981 96.2867 297.764 93.8229 296.212L95.1917 294.053ZM127.891 297.703L128.287 300.228C125.215 300.714 122.294 301.049 119.587 301.231L119.405 298.676C122.051 298.494 124.91 298.159 127.891 297.703ZM257.99 309.566C258.66 312.243 259.237 315.133 259.694 318.144L257.169 318.539C256.713 315.589 256.165 312.79 255.496 310.205L257.99 309.566ZM408.257 326.813C410.355 326.813 412.393 327.057 414.249 327.513L413.61 330.007C411.177 329.399 408.439 329.216 405.489 329.521L405.245 326.965C406.249 326.874 407.283 326.813 408.257 326.813ZM388.333 331.924L389.367 334.266C386.964 335.33 384.378 336.608 381.701 338.068L380.485 335.817C383.253 334.327 385.869 333.019 388.333 331.924ZM261.063 335.513C261.093 336.517 261.093 337.521 261.093 338.555C261.093 339.346 261.093 340.167 261.063 340.988C261.063 341.901 261.032 342.813 261.032 343.726V344.182H258.477V343.726C258.477 342.813 258.477 341.901 258.507 340.958C258.507 340.137 258.538 339.346 258.538 338.555C258.538 337.551 258.538 336.547 258.507 335.543L261.063 335.513ZM365.58 344.73L366.979 346.889C364.758 348.319 362.386 349.901 359.8 351.665L358.371 349.536C360.956 347.741 363.329 346.19 365.58 344.73ZM344.104 359.391L345.565 361.49L345.078 361.825C342.857 363.376 340.667 364.927 338.477 366.448L337.017 364.349C339.207 362.828 341.428 361.277 343.618 359.726L344.104 359.391ZM261.975 361.247C262.34 364.258 262.796 367.087 263.374 369.612L260.88 370.19C260.272 367.543 259.785 364.654 259.42 361.551L261.975 361.247ZM322.72 373.992L324.12 376.152C321.504 377.855 319.07 379.376 316.758 380.775L315.42 378.585C317.732 377.186 320.135 375.695 322.72 373.992ZM269.975 384.76C271.77 386.92 273.899 388.532 276.302 389.536L275.298 391.908C272.53 390.753 270.066 388.897 267.998 386.403L269.975 384.76ZM300.333 386.585L301.367 388.927C298.447 390.205 295.648 391.209 293.093 391.939L292.393 389.475C294.827 388.806 297.504 387.832 300.333 386.585Z" fill="#DFCFEA"/>
<path d="M79.227 252.045C79.2574 253.475 79.2878 254.905 79.3487 256.274L76.7935 256.395C76.7327 254.996 76.6719 253.536 76.6719 252.076L79.227 252.045Z" fill="#DFCFEA"/>
<path d="M484.454 375.016C482.532 374.107 480.566 373.337 478.563 372.709L477.136 368.478H478.387C479.737 368.478 480.836 367.379 480.836 366.029V364.489C480.836 363.741 480.498 363.071 479.967 362.621C480.19 362.186 480.312 361.698 480.312 361.191C480.312 359.46 478.904 358.051 477.172 358.051H455.59C454.999 358.051 454.521 358.53 454.521 359.121C454.521 359.711 454.999 360.19 455.59 360.19H456.838L454.989 362.04H447.394C447.278 361.967 447.176 361.873 447.098 361.76L441.659 353.889C441.508 353.67 441.45 353.404 441.498 353.141C441.546 352.878 441.694 352.649 441.914 352.497C442.134 352.345 442.4 352.288 442.662 352.336C442.926 352.384 443.154 352.531 443.306 352.751L448.128 359.729C448.328 360.018 448.656 360.19 449.008 360.19H450.933C451.524 360.19 452.002 359.711 452.002 359.121C452.002 358.53 451.524 358.051 450.933 358.051H449.569L445.066 351.536C444.589 350.846 443.872 350.383 443.047 350.232C442.223 350.081 441.388 350.261 440.698 350.738C440.008 351.214 439.545 351.931 439.394 352.756C439.243 353.581 439.423 354.415 439.9 355.105L445.339 362.976C445.353 362.996 445.368 363.016 445.383 363.035C445.081 363.443 444.9 363.944 444.9 364.489V366.029C444.9 367.379 445.999 368.478 447.35 368.478H447.408L446.598 370.879C440.809 368.696 434.756 367.443 428.521 367.135L435.998 342.301C437.42 343.003 438.528 344.208 439.112 345.722C439.311 346.242 439.731 346.632 440.262 346.792C440.794 346.951 441.359 346.858 441.812 346.536C443.43 345.385 445.447 345.053 447.347 345.625C448.911 346.096 450.221 347.134 451.034 348.549C451.361 349.118 451.946 349.451 452.579 349.451C452.683 349.451 452.789 349.442 452.895 349.424C453.641 349.293 454.209 348.725 454.341 347.976C454.914 344.737 454.683 341.525 453.784 338.553C454.439 338.409 455.11 338.335 455.787 338.335C456.16 338.335 456.537 338.36 456.94 338.409C457.388 338.463 457.824 338.231 458.026 337.827C459.272 335.34 461.642 333.557 464.366 333.055C464.686 332.996 464.962 332.795 465.115 332.509C465.269 332.222 465.284 331.882 465.156 331.583C465.023 331.273 464.956 330.944 464.956 330.604C464.956 329.23 466.074 328.112 467.448 328.112C468.048 328.112 468.627 328.329 469.081 328.723C469.326 328.936 469.656 329.026 469.976 328.967C470.296 328.908 470.572 328.707 470.725 328.42C471.857 326.302 474.049 324.987 476.446 324.987C480.02 324.987 482.927 327.895 482.927 331.469C482.927 332.059 483.406 332.538 483.997 332.538C484.587 332.538 485.066 332.059 485.066 331.469C485.066 326.715 481.199 322.848 476.446 322.848C473.647 322.848 471.059 324.196 469.451 326.429C468.83 326.132 468.146 325.973 467.448 325.973C464.895 325.973 462.817 328.051 462.817 330.604C462.817 330.812 462.831 331.017 462.858 331.221C460.19 332.012 457.887 333.808 456.468 336.218C456.237 336.204 456.01 336.197 455.787 336.197C454.861 336.197 453.945 336.309 453.053 336.527C450.89 331.4 446.659 327.218 441.136 325.237L441.44 324.226C441.61 323.66 441.29 323.064 440.724 322.893C440.159 322.724 439.563 323.043 439.392 323.609L439.088 324.62C435.889 323.834 432.589 323.837 429.435 324.604C428.822 320.994 425.977 318.153 422.349 317.559C421.756 315.309 419.684 313.652 417.291 313.652C414.408 313.652 412.063 315.998 412.063 318.881C412.063 319.472 412.541 319.951 413.132 319.951C413.723 319.951 414.201 319.472 414.201 318.881C414.201 317.177 415.588 315.791 417.291 315.791C418.884 315.791 420.236 317.033 420.369 318.619C420.414 319.146 420.837 319.562 421.366 319.596C424.481 319.799 426.974 322.178 427.366 325.224C426.579 325.506 425.805 325.837 425.049 326.218C424.522 326.484 424.31 327.127 424.576 327.655C424.842 328.182 425.485 328.394 426.012 328.128C429.062 326.59 432.425 325.95 435.763 326.234C434.877 326.971 433.971 327.979 433.056 329.254C431.146 331.915 429.355 335.532 427.917 339.595C426.833 337.947 425.208 336.725 423.269 336.141C421.484 335.604 419.6 335.665 417.873 336.303C418.963 334.102 420.465 332.175 422.348 330.566C422.797 330.182 422.85 329.507 422.466 329.058C422.082 328.609 421.407 328.556 420.958 328.94C418.591 330.964 416.762 333.436 415.523 336.288C415.22 336.986 415.379 337.773 415.929 338.294C416.482 338.817 417.281 338.934 417.963 338.592C419.422 337.861 421.088 337.718 422.653 338.189C424.552 338.762 426.051 340.152 426.764 342.005C426.964 342.524 427.384 342.914 427.915 343.074C428.446 343.234 429.011 343.141 429.465 342.818C430.787 341.877 432.376 341.484 433.95 341.684L426.308 367.064C426.03 367.061 425.751 367.059 425.471 367.059C421.239 367.059 417.012 367.502 412.909 368.377C412.331 368.5 411.963 369.068 412.086 369.646C412.209 370.223 412.779 370.591 413.355 370.469C417.312 369.625 421.388 369.197 425.471 369.197C425.536 369.197 425.601 369.199 425.666 369.199L424.835 371.959C424.664 372.525 424.985 373.121 425.55 373.292C425.653 373.323 425.757 373.337 425.859 373.337C426.319 373.337 426.743 373.039 426.883 372.576L427.885 369.246C434.907 369.53 441.692 371.055 448.115 373.792C444.909 375.053 441.838 376.681 438.955 378.662C438.468 378.996 438.344 379.662 438.679 380.149C438.886 380.451 439.221 380.613 439.561 380.613C439.77 380.613 439.981 380.552 440.166 380.425C447.452 375.418 455.996 372.772 464.873 372.772C471.403 372.772 477.683 374.178 483.539 376.95C484.073 377.202 484.71 376.974 484.963 376.441C485.216 375.907 484.988 375.269 484.454 375.016ZM452.373 346.69C451.286 345.205 449.749 344.114 447.963 343.577C446.025 342.993 443.995 343.115 442.181 343.89C443.225 339.709 443.729 335.704 443.606 332.43C443.547 330.864 443.349 329.523 443.017 328.42C449.502 331.967 453.315 339.183 452.373 346.69ZM430.006 340.103C431.363 336.314 433.029 332.96 434.794 330.501C436.602 327.98 438.406 326.619 439.503 326.949C440.598 327.28 441.353 329.411 441.469 332.51C441.582 335.535 441.12 339.251 440.159 343.16C439.076 341.591 437.494 340.425 435.616 339.859C433.739 339.294 431.776 339.392 430.006 340.103ZM478.173 361.191C478.173 361.538 477.992 361.857 477.699 362.04H471.395L473.244 360.19H477.173C477.724 360.19 478.173 360.639 478.173 361.191ZM470.219 360.19L468.37 362.04H464.809L466.658 360.19H470.219ZM459.863 360.19H463.633L461.784 362.04H458.014L459.863 360.19ZM451.034 372.76C450.224 372.378 449.409 372.016 448.588 371.672L449.665 368.478H467.473C468.064 368.478 468.543 368 468.543 367.409C468.543 366.818 468.064 366.34 467.473 366.34H447.35C447.179 366.34 447.039 366.2 447.039 366.029V364.489C447.039 364.318 447.179 364.178 447.35 364.178H478.387C478.558 364.178 478.697 364.318 478.697 364.489V366.029C478.697 366.2 478.558 366.34 478.387 366.34H472.13C471.54 366.34 471.061 366.818 471.061 367.409C471.061 368 471.54 368.478 472.13 368.478H474.879L476.068 372.006C472.439 371.094 468.697 370.634 464.873 370.634C460.127 370.633 455.471 371.357 451.034 372.76Z" fill="#DFCFEA"/>
<path d="M473.238 376.375L473.227 376.386C472.81 376.804 472.81 377.481 473.227 377.898C473.436 378.107 473.71 378.211 473.984 378.211C474.257 378.211 474.531 378.107 474.74 377.898L474.751 377.887C475.169 377.469 475.169 376.792 474.751 376.375C474.333 375.957 473.656 375.957 473.238 376.375Z" fill="#DFCFEA"/>
<path d="M438.888 375.534C439.303 375.114 439.299 374.437 438.879 374.022C438.459 373.607 437.781 373.611 437.366 374.032L437.355 374.043C436.94 374.463 436.945 375.14 437.365 375.555C437.573 375.761 437.845 375.863 438.116 375.863C438.392 375.863 438.668 375.757 438.877 375.545L438.888 375.534Z" fill="#DFCFEA"/>
<path d="M422.652 373.074L422.641 373.085C422.224 373.503 422.224 374.18 422.641 374.597C422.85 374.806 423.124 374.911 423.398 374.911C423.671 374.911 423.945 374.806 424.154 374.597L424.165 374.586C424.583 374.168 424.583 373.491 424.165 373.074C423.747 372.656 423.07 372.656 422.652 373.074Z" fill="#DFCFEA"/>
<path d="M426.074 374.785L426.063 374.796C425.646 375.214 425.646 375.891 426.063 376.309C426.272 376.517 426.546 376.622 426.819 376.622C427.093 376.622 427.367 376.517 427.576 376.309L427.587 376.297C428.005 375.88 428.005 375.203 427.587 374.785C427.169 374.368 426.492 374.368 426.074 374.785Z" fill="#DFCFEA"/>
<g clip-path="url(#clip3_238_1416)">
<path d="M652.412 64.5189L650.686 65.2639C650.143 65.4982 649.893 66.1279 650.127 66.6706C650.362 67.2133 650.991 67.4634 651.534 67.2292L653.26 66.4842C653.803 66.25 654.053 65.6202 653.819 65.0775C653.585 64.5347 652.955 64.2847 652.412 64.5189Z" fill="#DFCFEA"/>
<path d="M666.346 51.8714C666.268 51.7087 666.178 51.5516 666.076 51.4037L659.066 41.212C659.066 41.2116 659.065 41.2113 659.065 41.2109L657.674 39.1879C656.739 37.8292 654.962 37.3172 653.448 37.9707L595.427 63.0097C593.669 63.7685 592.856 65.8166 593.615 67.5752L604.948 93.8361C605.707 95.5946 607.755 96.4079 609.513 95.6489L612.626 94.3057C614.435 97.194 618.14 98.4145 621.364 97.0232C624.587 95.632 626.241 92.0993 625.381 88.8012L627.911 87.7091C628.454 87.475 628.704 86.8452 628.47 86.3024C628.236 85.7596 627.606 85.5096 627.063 85.7438L624.532 86.836C622.723 83.9478 619.018 82.7274 615.794 84.1186C612.571 85.5099 610.917 89.0426 611.777 92.3405L608.665 93.6837C607.99 93.975 607.204 93.6627 606.913 92.9878L595.58 66.7271C595.288 66.0521 595.601 65.266 596.276 64.9747L654.296 39.9358C654.874 39.6862 655.553 39.8817 655.91 40.4008L656.564 41.3519L643.663 46.9197C642.705 47.333 642.262 48.4485 642.675 49.4062L647.249 60.0044C647.679 61.0015 648.565 61.7414 649.618 61.9835C652.152 62.5668 657.209 62.457 666.987 58.7506L669.832 65.3447C670.222 66.2475 669.805 67.2988 668.902 67.6884L666.202 68.8533C664.393 65.9652 660.688 64.7447 657.464 66.136C654.241 67.5273 652.587 71.0599 653.447 74.3579L631.635 83.7709C631.093 84.0051 630.843 84.6349 631.077 85.1777C631.311 85.7204 631.941 85.9705 632.484 85.7362L654.296 76.3231C656.105 79.2114 659.81 80.4318 663.034 79.0406C666.258 77.6493 667.911 74.1166 667.051 70.8185L669.75 69.6536C671.737 68.7964 672.655 66.483 671.798 64.4966L666.403 51.9944L666.402 51.9942C666.384 51.9527 666.365 51.9119 666.346 51.8714ZM616.643 86.084C619.117 85.0162 621.998 86.1604 623.066 88.6346C624.134 91.1087 622.99 93.9903 620.516 95.0581C618.041 96.1258 615.16 94.9815 614.092 92.5073C613.024 90.0332 614.169 87.1517 616.643 86.084ZM662.185 77.075C659.711 78.1428 656.83 76.9985 655.762 74.5243C654.694 72.0502 655.838 69.1687 658.313 68.101C660.787 67.0332 663.668 68.1773 664.736 70.6515C665.804 73.1257 664.66 76.0073 662.185 77.075ZM649.214 59.1563L644.739 48.7864L657.801 43.1496L664.313 52.6173C664.324 52.6341 664.334 52.6522 664.345 52.6697C664.377 52.7208 664.406 52.7737 664.43 52.8285C664.432 52.8333 664.435 52.8378 664.437 52.8425L666.138 56.7834C656.43 60.4521 651.936 60.3205 650.098 59.8975C649.706 59.8074 649.376 59.5303 649.214 59.1563Z" fill="#DFCFEA"/>
<path d="M616.328 58.7183L599.88 65.8166C599.016 66.1895 598.616 67.1959 598.989 68.0601L603.761 79.1172C604.134 79.9813 605.14 80.381 606.004 80.008L622.452 72.9097C623.316 72.5368 623.716 71.5304 623.343 70.6662L618.571 59.6092C618.198 58.745 617.192 58.3454 616.328 58.7183ZM612.397 74.9178L605.554 77.8711L601.126 67.61L607.969 64.6567L612.397 74.9178ZM621.206 71.1163L614.363 74.0696L609.934 63.8085L616.778 60.8552L621.206 71.1163Z" fill="#DFCFEA"/>
<path d="M637.894 49.4099L621.446 56.5082C620.582 56.8812 620.182 57.8876 620.555 58.7518L625.327 69.8088C625.7 70.673 626.706 71.0726 627.57 70.6997L644.019 63.6013C644.883 63.2284 645.283 62.222 644.91 61.3578L640.138 50.3008C639.765 49.4366 638.759 49.037 637.894 49.4099ZM642.773 61.8079L635.929 64.7613L634.322 61.0372C634.088 60.4944 633.458 60.2443 632.915 60.4786C632.372 60.7128 632.122 61.3425 632.357 61.8853L633.964 65.6094L627.12 68.5628L622.692 58.3017L629.536 55.3483L630.383 57.3131C630.618 57.8559 631.247 58.1059 631.79 57.8717C632.333 57.6374 632.583 57.0077 632.349 56.465L631.501 54.5002L638.344 51.5468L642.773 61.8079Z" fill="#DFCFEA"/>
</g>
<path d="M1053.5 221.76C1055.05 223.981 1055.9 225.259 1055.93 225.319L1053.8 226.749C1053.8 226.749 1052.95 225.441 1051.4 223.251L1053.5 221.76Z" fill="#DFCFEA"/>
<path d="M1059.58 233.928C1061.13 236.149 1061.99 237.426 1062.02 237.487L1059.89 238.917C1059.89 238.917 1059.04 237.609 1057.48 235.418L1059.58 233.928Z" fill="#DFCFEA"/>
<path d="M1056.54 227.844C1058.1 230.065 1058.95 231.342 1058.98 231.403L1056.85 232.833C1056.85 232.833 1056 231.525 1054.45 229.335L1056.54 227.844Z" fill="#DFCFEA"/>
<path d="M1062.63 240.012C1064.18 242.232 1065.03 243.51 1065.06 243.571L1062.93 245C1062.93 245 1062.08 243.692 1060.53 241.502L1062.63 240.012Z" fill="#DFCFEA"/>
<path d="M639.808 118.733C640.568 121.623 641.541 124.27 642.637 126.642L640.325 127.737C639.138 125.243 638.135 122.444 637.344 119.403L639.808 118.733ZM778.728 122.505C781.831 122.657 784.781 123.022 787.488 123.631L786.941 126.125C784.386 125.547 781.587 125.182 778.606 125.06L778.728 122.505ZM761.268 123.692L761.663 126.216C759.017 126.642 756.249 127.159 753.237 127.798L752.69 125.304C755.762 124.665 758.561 124.117 761.268 123.692ZM735.869 129.562L736.568 132.026C734.165 132.695 731.61 133.425 728.264 134.429L727.534 131.965C730.88 130.992 733.466 130.262 735.869 129.562ZM803.336 131.57C805.496 133.517 807.443 135.768 809.146 138.353L807.017 139.783C805.435 137.41 803.61 135.281 801.633 133.486L803.336 131.57ZM710.986 136.832L711.686 139.296C708.583 140.178 705.846 140.908 703.321 141.577L702.682 139.083C705.177 138.414 707.914 137.684 710.986 136.832ZM653.192 139.053C655.443 140.452 657.967 141.577 660.735 142.368L660.036 144.832C657.024 143.981 654.287 142.764 651.823 141.212L653.192 139.053ZM685.891 142.703L686.287 145.228C683.215 145.714 680.294 146.049 677.587 146.231L677.405 143.676C680.051 143.494 682.91 143.159 685.891 142.703ZM815.99 154.566C816.66 157.243 817.237 160.133 817.694 163.144L815.169 163.539C814.713 160.589 814.165 157.79 813.496 155.205L815.99 154.566ZM966.257 171.813C968.355 171.813 970.393 172.057 972.249 172.513L971.61 175.007C969.177 174.399 966.439 174.216 963.489 174.521L963.245 171.965C964.249 171.874 965.283 171.813 966.257 171.813ZM946.333 176.924L947.367 179.266C944.964 180.33 942.378 181.608 939.701 183.068L938.485 180.817C941.253 179.327 943.869 178.019 946.333 176.924ZM819.063 180.513C819.093 181.517 819.093 182.521 819.093 183.555C819.093 184.346 819.093 185.167 819.063 185.988C819.063 186.901 819.032 187.813 819.032 188.726V189.182H816.477V188.726C816.477 187.813 816.477 186.901 816.507 185.958C816.507 185.137 816.538 184.346 816.538 183.555C816.538 182.551 816.538 181.547 816.507 180.543L819.063 180.513ZM923.58 189.73L924.979 191.889C922.758 193.319 920.386 194.901 917.8 196.665L916.371 194.536C918.956 192.741 921.329 191.19 923.58 189.73ZM902.104 204.391L903.565 206.49L903.078 206.825C900.857 208.376 898.667 209.927 896.477 211.448L895.017 209.349C897.207 207.828 899.428 206.277 901.618 204.726L902.104 204.391ZM819.975 206.247C820.34 209.258 820.796 212.087 821.374 214.612L818.88 215.19C818.272 212.543 817.785 209.654 817.42 206.551L819.975 206.247ZM880.72 218.992L882.12 221.152C879.504 222.855 877.07 224.376 874.758 225.775L873.42 223.585C875.732 222.186 878.135 220.695 880.72 218.992ZM827.975 229.76C829.77 231.92 831.899 233.532 834.302 234.536L833.298 236.908C830.53 235.753 828.066 233.897 825.998 231.403L827.975 229.76ZM858.333 231.585L859.367 233.927C856.447 235.205 853.648 236.209 851.093 236.939L850.393 234.475C852.827 233.806 855.504 232.832 858.333 231.585Z" fill="#DFCFEA"/>
<path d="M637.227 97.0454C637.257 98.4751 637.288 99.9047 637.349 101.274L634.794 101.395C634.733 99.996 634.672 98.5359 634.672 97.0759L637.227 97.0454Z" fill="#DFCFEA"/>
<path d="M1042.45 220.016C1040.53 219.107 1038.57 218.337 1036.56 217.709L1035.14 213.478H1036.39C1037.74 213.478 1038.84 212.379 1038.84 211.029V209.489C1038.84 208.741 1038.5 208.071 1037.97 207.621C1038.19 207.186 1038.31 206.698 1038.31 206.191C1038.31 204.46 1036.9 203.051 1035.17 203.051H1013.59C1013 203.051 1012.52 203.53 1012.52 204.121C1012.52 204.711 1013 205.19 1013.59 205.19H1014.84L1012.99 207.04H1005.39C1005.28 206.967 1005.18 206.873 1005.1 206.76L999.659 198.889C999.508 198.67 999.45 198.404 999.498 198.141C999.546 197.878 999.694 197.649 999.914 197.497C1000.13 197.345 1000.4 197.288 1000.66 197.336C1000.93 197.384 1001.15 197.531 1001.31 197.751L1006.13 204.729C1006.33 205.018 1006.66 205.19 1007.01 205.19H1008.93C1009.52 205.19 1010 204.711 1010 204.121C1010 203.53 1009.52 203.051 1008.93 203.051H1007.57L1003.07 196.536C1002.59 195.846 1001.87 195.383 1001.05 195.232C1000.22 195.081 999.388 195.261 998.698 195.738C998.008 196.214 997.545 196.931 997.394 197.756C997.243 198.581 997.423 199.415 997.9 200.105L1003.34 207.976C1003.35 207.996 1003.37 208.016 1003.38 208.035C1003.08 208.443 1002.9 208.944 1002.9 209.489V211.029C1002.9 212.379 1004 213.478 1005.35 213.478H1005.41L1004.6 215.879C998.809 213.696 992.756 212.443 986.521 212.135L993.998 187.301C995.42 188.003 996.528 189.208 997.112 190.722C997.311 191.242 997.731 191.632 998.262 191.792C998.794 191.951 999.359 191.858 999.812 191.536C1001.43 190.385 1003.45 190.053 1005.35 190.625C1006.91 191.096 1008.22 192.134 1009.03 193.549C1009.36 194.118 1009.95 194.451 1010.58 194.451C1010.68 194.451 1010.79 194.442 1010.9 194.424C1011.64 194.293 1012.21 193.725 1012.34 192.976C1012.91 189.737 1012.68 186.525 1011.78 183.553C1012.44 183.409 1013.11 183.335 1013.79 183.335C1014.16 183.335 1014.54 183.36 1014.94 183.409C1015.39 183.463 1015.82 183.231 1016.03 182.827C1017.27 180.34 1019.64 178.557 1022.37 178.055C1022.69 177.996 1022.96 177.795 1023.12 177.509C1023.27 177.222 1023.28 176.882 1023.16 176.583C1023.02 176.273 1022.96 175.944 1022.96 175.604C1022.96 174.23 1024.07 173.112 1025.45 173.112C1026.05 173.112 1026.63 173.329 1027.08 173.723C1027.33 173.936 1027.66 174.026 1027.98 173.967C1028.3 173.908 1028.57 173.707 1028.73 173.42C1029.86 171.302 1032.05 169.987 1034.45 169.987C1038.02 169.987 1040.93 172.895 1040.93 176.469C1040.93 177.059 1041.41 177.538 1042 177.538C1042.59 177.538 1043.07 177.059 1043.07 176.469C1043.07 171.715 1039.2 167.848 1034.45 167.848C1031.65 167.848 1029.06 169.196 1027.45 171.429C1026.83 171.132 1026.15 170.973 1025.45 170.973C1022.89 170.973 1020.82 173.051 1020.82 175.604C1020.82 175.812 1020.83 176.017 1020.86 176.221C1018.19 177.012 1015.89 178.808 1014.47 181.218C1014.24 181.204 1014.01 181.197 1013.79 181.197C1012.86 181.197 1011.94 181.309 1011.05 181.527C1008.89 176.4 1004.66 172.218 999.136 170.237L999.44 169.226C999.61 168.66 999.29 168.064 998.724 167.893C998.159 167.724 997.563 168.043 997.392 168.609L997.088 169.62C993.889 168.834 990.589 168.837 987.435 169.604C986.822 165.994 983.977 163.153 980.349 162.559C979.756 160.309 977.684 158.652 975.291 158.652C972.408 158.652 970.063 160.998 970.063 163.881C970.063 164.472 970.541 164.951 971.132 164.951C971.723 164.951 972.201 164.472 972.201 163.881C972.201 162.177 973.588 160.791 975.291 160.791C976.884 160.791 978.236 162.033 978.369 163.619C978.414 164.146 978.837 164.562 979.366 164.596C982.481 164.799 984.974 167.178 985.366 170.224C984.579 170.506 983.805 170.837 983.049 171.218C982.522 171.484 982.31 172.127 982.576 172.655C982.842 173.182 983.485 173.394 984.012 173.128C987.062 171.59 990.425 170.95 993.763 171.234C992.877 171.971 991.971 172.979 991.056 174.254C989.146 176.915 987.355 180.532 985.917 184.595C984.833 182.947 983.208 181.725 981.269 181.141C979.484 180.604 977.6 180.665 975.873 181.303C976.963 179.102 978.465 177.175 980.348 175.566C980.797 175.182 980.85 174.507 980.466 174.058C980.082 173.609 979.407 173.556 978.958 173.94C976.591 175.964 974.762 178.436 973.523 181.288C973.22 181.986 973.379 182.773 973.929 183.294C974.482 183.817 975.281 183.934 975.963 183.592C977.422 182.861 979.088 182.718 980.653 183.189C982.552 183.762 984.051 185.152 984.764 187.005C984.964 187.524 985.384 187.914 985.915 188.074C986.446 188.234 987.011 188.141 987.465 187.818C988.787 186.877 990.376 186.484 991.95 186.684L984.308 212.064C984.03 212.061 983.751 212.059 983.471 212.059C979.239 212.059 975.012 212.502 970.909 213.377C970.331 213.5 969.963 214.068 970.086 214.646C970.209 215.223 970.779 215.591 971.355 215.469C975.312 214.625 979.388 214.197 983.471 214.197C983.536 214.197 983.601 214.199 983.666 214.199L982.835 216.959C982.664 217.525 982.985 218.121 983.55 218.292C983.653 218.323 983.757 218.337 983.859 218.337C984.319 218.337 984.743 218.039 984.883 217.576L985.885 214.246C992.907 214.53 999.692 216.055 1006.11 218.792C1002.91 220.053 999.838 221.681 996.955 223.662C996.468 223.996 996.344 224.662 996.679 225.149C996.886 225.451 997.221 225.613 997.561 225.613C997.77 225.613 997.981 225.552 998.166 225.425C1005.45 220.418 1014 217.772 1022.87 217.772C1029.4 217.772 1035.68 219.178 1041.54 221.95C1042.07 222.202 1042.71 221.974 1042.96 221.441C1043.22 220.907 1042.99 220.269 1042.45 220.016ZM1010.37 191.69C1009.29 190.205 1007.75 189.114 1005.96 188.577C1004.02 187.993 1001.99 188.115 1000.18 188.89C1001.23 184.709 1001.73 180.704 1001.61 177.43C1001.55 175.864 1001.35 174.523 1001.02 173.42C1007.5 176.967 1011.31 184.183 1010.37 191.69ZM988.006 185.103C989.363 181.314 991.029 177.96 992.794 175.501C994.602 172.98 996.406 171.619 997.503 171.949C998.598 172.28 999.353 174.411 999.469 177.51C999.582 180.535 999.12 184.251 998.159 188.16C997.076 186.591 995.494 185.425 993.616 184.859C991.739 184.294 989.776 184.392 988.006 185.103ZM1036.17 206.191C1036.17 206.538 1035.99 206.857 1035.7 207.04H1029.39L1031.24 205.19H1035.17C1035.72 205.19 1036.17 205.639 1036.17 206.191ZM1028.22 205.19L1026.37 207.04H1022.81L1024.66 205.19H1028.22ZM1017.86 205.19H1021.63L1019.78 207.04H1016.01L1017.86 205.19ZM1009.03 217.76C1008.22 217.378 1007.41 217.016 1006.59 216.672L1007.66 213.478H1025.47C1026.06 213.478 1026.54 213 1026.54 212.409C1026.54 211.818 1026.06 211.34 1025.47 211.34H1005.35C1005.18 211.34 1005.04 211.2 1005.04 211.029V209.489C1005.04 209.318 1005.18 209.178 1005.35 209.178H1036.39C1036.56 209.178 1036.7 209.318 1036.7 209.489V211.029C1036.7 211.2 1036.56 211.34 1036.39 211.34H1030.13C1029.54 211.34 1029.06 211.818 1029.06 212.409C1029.06 213 1029.54 213.478 1030.13 213.478H1032.88L1034.07 217.006C1030.44 216.094 1026.7 215.634 1022.87 215.634C1018.13 215.633 1013.47 216.357 1009.03 217.76Z" fill="#DFCFEA"/>
<path d="M1031.24 221.375L1031.23 221.386C1030.81 221.804 1030.81 222.481 1031.23 222.898C1031.44 223.107 1031.71 223.211 1031.98 223.211C1032.26 223.211 1032.53 223.107 1032.74 222.898L1032.75 222.887C1033.17 222.469 1033.17 221.792 1032.75 221.375C1032.33 220.957 1031.66 220.957 1031.24 221.375Z" fill="#DFCFEA"/>
<path d="M996.888 220.534C997.303 220.114 997.299 219.437 996.879 219.022C996.459 218.607 995.781 218.611 995.366 219.032L995.355 219.043C994.94 219.463 994.945 220.14 995.365 220.555C995.573 220.761 995.845 220.863 996.116 220.863C996.392 220.863 996.668 220.757 996.877 220.545L996.888 220.534Z" fill="#DFCFEA"/>
<path d="M980.652 218.074L980.641 218.085C980.224 218.503 980.224 219.18 980.641 219.597C980.85 219.806 981.124 219.911 981.398 219.911C981.671 219.911 981.945 219.806 982.154 219.597L982.165 219.586C982.583 219.168 982.583 218.491 982.165 218.074C981.747 217.656 981.07 217.656 980.652 218.074Z" fill="#DFCFEA"/>
<path d="M984.074 219.785L984.063 219.796C983.646 220.214 983.646 220.891 984.063 221.309C984.272 221.517 984.546 221.622 984.819 221.622C985.093 221.622 985.367 221.517 985.576 221.309L985.587 221.297C986.005 220.88 986.005 220.203 985.587 219.785C985.169 219.368 984.492 219.368 984.074 219.785Z" fill="#DFCFEA"/>
<g clip-path="url(#clip4_238_1416)">
<path d="M803.412 250.519L801.686 251.264C801.143 251.498 800.893 252.128 801.127 252.671C801.362 253.213 801.991 253.463 802.534 253.229L804.26 252.484C804.803 252.25 805.053 251.62 804.819 251.077C804.585 250.535 803.955 250.285 803.412 250.519Z" fill="#DFCFEA"/>
<path d="M817.346 237.871C817.268 237.709 817.178 237.552 817.076 237.404L810.066 227.212C810.066 227.212 810.065 227.211 810.065 227.211L808.674 225.188C807.739 223.829 805.962 223.317 804.448 223.971L746.427 249.01C744.669 249.768 743.856 251.817 744.615 253.575L755.948 279.836C756.707 281.595 758.755 282.408 760.513 281.649L763.626 280.306C765.435 283.194 769.14 284.414 772.364 283.023C775.587 281.632 777.241 278.099 776.381 274.801L778.911 273.709C779.454 273.475 779.704 272.845 779.47 272.302C779.236 271.76 778.606 271.51 778.063 271.744L775.532 272.836C773.723 269.948 770.018 268.727 766.794 270.119C763.571 271.51 761.917 275.043 762.777 278.34L759.665 279.684C758.99 279.975 758.204 279.663 757.913 278.988L746.58 252.727C746.288 252.052 746.601 251.266 747.276 250.975L805.296 225.936C805.874 225.686 806.553 225.882 806.91 226.401L807.564 227.352L794.663 232.92C793.705 233.333 793.262 234.448 793.675 235.406L798.249 246.004C798.679 247.001 799.565 247.741 800.618 247.983C803.152 248.567 808.209 248.457 817.987 244.751L820.832 251.345C821.222 252.247 820.805 253.299 819.902 253.688L817.202 254.853C815.393 251.965 811.688 250.745 808.464 252.136C805.241 253.527 803.587 257.06 804.447 260.358L782.635 269.771C782.093 270.005 781.843 270.635 782.077 271.178C782.311 271.72 782.941 271.97 783.484 271.736L805.296 262.323C807.105 265.211 810.81 266.432 814.034 265.041C817.258 263.649 818.911 260.117 818.051 256.819L820.75 255.654C822.737 254.796 823.655 252.483 822.798 250.497L817.403 237.994L817.402 237.994C817.384 237.953 817.365 237.912 817.346 237.871ZM767.643 272.084C770.117 271.016 772.998 272.16 774.066 274.635C775.134 277.109 773.99 279.99 771.516 281.058C769.041 282.126 766.16 280.981 765.092 278.507C764.024 276.033 765.169 273.152 767.643 272.084ZM813.185 263.075C810.711 264.143 807.83 262.998 806.762 260.524C805.694 258.05 806.838 255.169 809.313 254.101C811.787 253.033 814.668 254.177 815.736 256.651C816.804 259.126 815.66 262.007 813.185 263.075ZM800.214 245.156L795.739 234.786L808.801 229.15L815.313 238.617C815.324 238.634 815.334 238.652 815.345 238.67C815.377 238.721 815.406 238.774 815.43 238.829C815.432 238.833 815.435 238.838 815.437 238.842L817.138 242.783C807.43 246.452 802.936 246.321 801.098 245.898C800.706 245.807 800.376 245.53 800.214 245.156Z" fill="#DFCFEA"/>
<path d="M767.328 244.718L750.88 251.817C750.016 252.19 749.616 253.196 749.989 254.06L754.761 265.117C755.134 265.981 756.14 266.381 757.004 266.008L773.452 258.91C774.316 258.537 774.716 257.53 774.343 256.666L769.571 245.609C769.198 244.745 768.192 244.345 767.328 244.718ZM763.397 260.918L756.554 263.871L752.126 253.61L758.969 250.657L763.397 260.918ZM772.206 257.116L765.363 260.07L760.934 249.809L767.778 246.855L772.206 257.116Z" fill="#DFCFEA"/>
<path d="M788.894 235.41L772.446 242.508C771.582 242.881 771.182 243.888 771.555 244.752L776.327 255.809C776.7 256.673 777.706 257.073 778.57 256.7L795.019 249.601C795.883 249.228 796.283 248.222 795.91 247.358L791.138 236.301C790.765 235.437 789.759 235.037 788.894 235.41ZM793.773 247.808L786.929 250.761L785.322 247.037C785.088 246.494 784.458 246.244 783.915 246.479C783.372 246.713 783.122 247.343 783.357 247.885L784.964 251.609L778.12 254.563L773.692 244.302L780.536 241.348L781.383 243.313C781.618 243.856 782.247 244.106 782.79 243.872C783.333 243.637 783.583 243.008 783.349 242.465L782.501 240.5L789.344 237.547L793.773 247.808Z" fill="#DFCFEA"/>
</g>
<path d="M1204.5 407.76C1206.05 409.981 1206.9 411.259 1206.93 411.319L1204.8 412.749C1204.8 412.749 1203.95 411.441 1202.4 409.251L1204.5 407.76Z" fill="#DFCFEA"/>
<path d="M1210.58 419.928C1212.13 422.149 1212.99 423.426 1213.02 423.487L1210.89 424.917C1210.89 424.917 1210.04 423.609 1208.48 421.418L1210.58 419.928Z" fill="#DFCFEA"/>
<path d="M1207.54 413.844C1209.1 416.065 1209.95 417.342 1209.98 417.403L1207.85 418.833C1207.85 418.833 1207 417.525 1205.45 415.335L1207.54 413.844Z" fill="#DFCFEA"/>
<path d="M1213.63 426.012C1215.18 428.232 1216.03 429.51 1216.06 429.571L1213.93 431C1213.93 431 1213.08 429.692 1211.53 427.502L1213.63 426.012Z" fill="#DFCFEA"/>
<path d="M790.808 304.733C791.568 307.623 792.541 310.27 793.637 312.642L791.325 313.737C790.138 311.243 789.135 308.444 788.344 305.403L790.808 304.733ZM929.728 308.505C932.831 308.657 935.781 309.022 938.488 309.631L937.941 312.125C935.386 311.547 932.587 311.182 929.606 311.06L929.728 308.505ZM912.268 309.692L912.663 312.216C910.017 312.642 907.249 313.159 904.237 313.798L903.69 311.304C906.762 310.665 909.561 310.117 912.268 309.692ZM886.869 315.562L887.568 318.026C885.165 318.695 882.61 319.425 879.264 320.429L878.534 317.965C881.88 316.992 884.466 316.262 886.869 315.562ZM954.336 317.57C956.496 319.517 958.443 321.768 960.146 324.353L958.017 325.783C956.435 323.41 954.61 321.281 952.633 319.486L954.336 317.57ZM861.986 322.832L862.686 325.296C859.583 326.178 856.846 326.908 854.321 327.577L853.682 325.083C856.177 324.414 858.914 323.684 861.986 322.832ZM804.192 325.053C806.443 326.452 808.967 327.577 811.735 328.368L811.036 330.832C808.024 329.981 805.287 328.764 802.823 327.212L804.192 325.053ZM836.891 328.703L837.287 331.228C834.215 331.714 831.294 332.049 828.587 332.231L828.405 329.676C831.051 329.494 833.91 329.159 836.891 328.703ZM966.99 340.566C967.66 343.243 968.237 346.133 968.694 349.144L966.169 349.539C965.713 346.589 965.165 343.79 964.496 341.205L966.99 340.566ZM1117.26 357.813C1119.36 357.813 1121.39 358.057 1123.25 358.513L1122.61 361.007C1120.18 360.399 1117.44 360.216 1114.49 360.521L1114.25 357.965C1115.25 357.874 1116.28 357.813 1117.26 357.813ZM1097.33 362.924L1098.37 365.266C1095.96 366.33 1093.38 367.608 1090.7 369.068L1089.48 366.817C1092.25 365.327 1094.87 364.019 1097.33 362.924ZM970.063 366.513C970.093 367.517 970.093 368.521 970.093 369.555C970.093 370.346 970.093 371.167 970.063 371.988C970.063 372.901 970.032 373.813 970.032 374.726V375.182H967.477V374.726C967.477 373.813 967.477 372.901 967.507 371.958C967.507 371.137 967.538 370.346 967.538 369.555C967.538 368.551 967.538 367.547 967.507 366.543L970.063 366.513ZM1074.58 375.73L1075.98 377.889C1073.76 379.319 1071.39 380.901 1068.8 382.665L1067.37 380.536C1069.96 378.741 1072.33 377.19 1074.58 375.73ZM1053.1 390.391L1054.56 392.49L1054.08 392.825C1051.86 394.376 1049.67 395.927 1047.48 397.448L1046.02 395.349C1048.21 393.828 1050.43 392.277 1052.62 390.726L1053.1 390.391ZM970.975 392.247C971.34 395.258 971.796 398.087 972.374 400.612L969.88 401.19C969.272 398.543 968.785 395.654 968.42 392.551L970.975 392.247ZM1031.72 404.992L1033.12 407.152C1030.5 408.855 1028.07 410.376 1025.76 411.775L1024.42 409.585C1026.73 408.186 1029.13 406.695 1031.72 404.992ZM978.975 415.76C980.77 417.92 982.899 419.532 985.302 420.536L984.298 422.908C981.53 421.753 979.066 419.897 976.998 417.403L978.975 415.76ZM1009.33 417.585L1010.37 419.927C1007.45 421.205 1004.65 422.209 1002.09 422.939L1001.39 420.475C1003.83 419.806 1006.5 418.832 1009.33 417.585Z" fill="#DFCFEA"/>
<path d="M788.227 283.045C788.257 284.475 788.288 285.905 788.349 287.274L785.794 287.395C785.733 285.996 785.672 284.536 785.672 283.076L788.227 283.045Z" fill="#DFCFEA"/>
<path d="M1193.45 406.016C1191.53 405.107 1189.57 404.337 1187.56 403.709L1186.14 399.478H1187.39C1188.74 399.478 1189.84 398.379 1189.84 397.029V395.489C1189.84 394.741 1189.5 394.071 1188.97 393.621C1189.19 393.186 1189.31 392.698 1189.31 392.191C1189.31 390.46 1187.9 389.051 1186.17 389.051H1164.59C1164 389.051 1163.52 389.53 1163.52 390.121C1163.52 390.711 1164 391.19 1164.59 391.19H1165.84L1163.99 393.04H1156.39C1156.28 392.967 1156.18 392.873 1156.1 392.76L1150.66 384.889C1150.51 384.67 1150.45 384.404 1150.5 384.141C1150.55 383.878 1150.69 383.649 1150.91 383.497C1151.13 383.345 1151.4 383.288 1151.66 383.336C1151.93 383.384 1152.15 383.531 1152.31 383.751L1157.13 390.729C1157.33 391.018 1157.66 391.19 1158.01 391.19H1159.93C1160.52 391.19 1161 390.711 1161 390.121C1161 389.53 1160.52 389.051 1159.93 389.051H1158.57L1154.07 382.536C1153.59 381.846 1152.87 381.383 1152.05 381.232C1151.22 381.081 1150.39 381.261 1149.7 381.738C1149.01 382.214 1148.54 382.931 1148.39 383.756C1148.24 384.581 1148.42 385.415 1148.9 386.105L1154.34 393.976C1154.35 393.996 1154.37 394.016 1154.38 394.035C1154.08 394.443 1153.9 394.944 1153.9 395.489V397.029C1153.9 398.379 1155 399.478 1156.35 399.478H1156.41L1155.6 401.879C1149.81 399.696 1143.76 398.443 1137.52 398.135L1145 373.301C1146.42 374.003 1147.53 375.208 1148.11 376.722C1148.31 377.242 1148.73 377.632 1149.26 377.792C1149.79 377.951 1150.36 377.858 1150.81 377.536C1152.43 376.385 1154.45 376.053 1156.35 376.625C1157.91 377.096 1159.22 378.134 1160.03 379.549C1160.36 380.118 1160.95 380.451 1161.58 380.451C1161.68 380.451 1161.79 380.442 1161.9 380.424C1162.64 380.293 1163.21 379.725 1163.34 378.976C1163.91 375.737 1163.68 372.525 1162.78 369.553C1163.44 369.409 1164.11 369.335 1164.79 369.335C1165.16 369.335 1165.54 369.36 1165.94 369.409C1166.39 369.463 1166.82 369.231 1167.03 368.827C1168.27 366.34 1170.64 364.557 1173.37 364.055C1173.69 363.996 1173.96 363.795 1174.12 363.509C1174.27 363.222 1174.28 362.882 1174.16 362.583C1174.02 362.273 1173.96 361.944 1173.96 361.604C1173.96 360.23 1175.07 359.112 1176.45 359.112C1177.05 359.112 1177.63 359.329 1178.08 359.723C1178.33 359.936 1178.66 360.026 1178.98 359.967C1179.3 359.908 1179.57 359.707 1179.73 359.42C1180.86 357.302 1183.05 355.987 1185.45 355.987C1189.02 355.987 1191.93 358.895 1191.93 362.469C1191.93 363.059 1192.41 363.538 1193 363.538C1193.59 363.538 1194.07 363.059 1194.07 362.469C1194.07 357.715 1190.2 353.848 1185.45 353.848C1182.65 353.848 1180.06 355.196 1178.45 357.429C1177.83 357.132 1177.15 356.973 1176.45 356.973C1173.89 356.973 1171.82 359.051 1171.82 361.604C1171.82 361.812 1171.83 362.017 1171.86 362.221C1169.19 363.012 1166.89 364.808 1165.47 367.218C1165.24 367.204 1165.01 367.197 1164.79 367.197C1163.86 367.197 1162.94 367.309 1162.05 367.527C1159.89 362.4 1155.66 358.218 1150.14 356.237L1150.44 355.226C1150.61 354.66 1150.29 354.064 1149.72 353.893C1149.16 353.724 1148.56 354.043 1148.39 354.609L1148.09 355.62C1144.89 354.834 1141.59 354.837 1138.44 355.604C1137.82 351.994 1134.98 349.153 1131.35 348.559C1130.76 346.309 1128.68 344.652 1126.29 344.652C1123.41 344.652 1121.06 346.998 1121.06 349.881C1121.06 350.472 1121.54 350.951 1122.13 350.951C1122.72 350.951 1123.2 350.472 1123.2 349.881C1123.2 348.177 1124.59 346.791 1126.29 346.791C1127.88 346.791 1129.24 348.033 1129.37 349.619C1129.41 350.146 1129.84 350.562 1130.37 350.596C1133.48 350.799 1135.97 353.178 1136.37 356.224C1135.58 356.506 1134.81 356.837 1134.05 357.218C1133.52 357.484 1133.31 358.127 1133.58 358.655C1133.84 359.182 1134.48 359.394 1135.01 359.128C1138.06 357.59 1141.43 356.95 1144.76 357.234C1143.88 357.971 1142.97 358.979 1142.06 360.254C1140.15 362.915 1138.36 366.532 1136.92 370.595C1135.83 368.947 1134.21 367.725 1132.27 367.141C1130.48 366.604 1128.6 366.665 1126.87 367.303C1127.96 365.102 1129.46 363.175 1131.35 361.566C1131.8 361.182 1131.85 360.507 1131.47 360.058C1131.08 359.609 1130.41 359.556 1129.96 359.94C1127.59 361.964 1125.76 364.436 1124.52 367.288C1124.22 367.986 1124.38 368.773 1124.93 369.294C1125.48 369.817 1126.28 369.934 1126.96 369.592C1128.42 368.861 1130.09 368.718 1131.65 369.189C1133.55 369.762 1135.05 371.152 1135.76 373.005C1135.96 373.524 1136.38 373.914 1136.92 374.074C1137.45 374.234 1138.01 374.141 1138.47 373.818C1139.79 372.877 1141.38 372.484 1142.95 372.684L1135.31 398.064C1135.03 398.061 1134.75 398.059 1134.47 398.059C1130.24 398.059 1126.01 398.502 1121.91 399.377C1121.33 399.5 1120.96 400.068 1121.09 400.646C1121.21 401.223 1121.78 401.591 1122.36 401.469C1126.31 400.625 1130.39 400.197 1134.47 400.197C1134.54 400.197 1134.6 400.199 1134.67 400.199L1133.83 402.959C1133.66 403.525 1133.98 404.121 1134.55 404.292C1134.65 404.323 1134.76 404.337 1134.86 404.337C1135.32 404.337 1135.74 404.039 1135.88 403.576L1136.89 400.246C1143.91 400.53 1150.69 402.055 1157.11 404.792C1153.91 406.053 1150.84 407.681 1147.95 409.662C1147.47 409.996 1147.34 410.662 1147.68 411.149C1147.89 411.451 1148.22 411.613 1148.56 411.613C1148.77 411.613 1148.98 411.552 1149.17 411.425C1156.45 406.418 1165 403.772 1173.87 403.772C1180.4 403.772 1186.68 405.178 1192.54 407.95C1193.07 408.202 1193.71 407.974 1193.96 407.441C1194.22 406.907 1193.99 406.269 1193.45 406.016ZM1161.37 377.69C1160.29 376.205 1158.75 375.114 1156.96 374.577C1155.02 373.993 1152.99 374.115 1151.18 374.89C1152.23 370.709 1152.73 366.704 1152.61 363.43C1152.55 361.864 1152.35 360.523 1152.02 359.42C1158.5 362.967 1162.31 370.183 1161.37 377.69ZM1139.01 371.103C1140.36 367.314 1142.03 363.96 1143.79 361.501C1145.6 358.98 1147.41 357.619 1148.5 357.949C1149.6 358.28 1150.35 360.411 1150.47 363.51C1150.58 366.535 1150.12 370.251 1149.16 374.16C1148.08 372.591 1146.49 371.425 1144.62 370.859C1142.74 370.294 1140.78 370.392 1139.01 371.103ZM1187.17 392.191C1187.17 392.538 1186.99 392.857 1186.7 393.04H1180.39L1182.24 391.19H1186.17C1186.72 391.19 1187.17 391.639 1187.17 392.191ZM1179.22 391.19L1177.37 393.04H1173.81L1175.66 391.19H1179.22ZM1168.86 391.19H1172.63L1170.78 393.04H1167.01L1168.86 391.19ZM1160.03 403.76C1159.22 403.378 1158.41 403.016 1157.59 402.672L1158.66 399.478H1176.47C1177.06 399.478 1177.54 399 1177.54 398.409C1177.54 397.818 1177.06 397.34 1176.47 397.34H1156.35C1156.18 397.34 1156.04 397.2 1156.04 397.029V395.489C1156.04 395.318 1156.18 395.178 1156.35 395.178H1187.39C1187.56 395.178 1187.7 395.318 1187.7 395.489V397.029C1187.7 397.2 1187.56 397.34 1187.39 397.34H1181.13C1180.54 397.34 1180.06 397.818 1180.06 398.409C1180.06 399 1180.54 399.478 1181.13 399.478H1183.88L1185.07 403.006C1181.44 402.094 1177.7 401.634 1173.87 401.634C1169.13 401.633 1164.47 402.357 1160.03 403.76Z" fill="#DFCFEA"/>
<path d="M1182.24 407.375L1182.23 407.386C1181.81 407.804 1181.81 408.481 1182.23 408.898C1182.44 409.107 1182.71 409.211 1182.98 409.211C1183.26 409.211 1183.53 409.107 1183.74 408.898L1183.75 408.887C1184.17 408.469 1184.17 407.792 1183.75 407.375C1183.33 406.957 1182.66 406.957 1182.24 407.375Z" fill="#DFCFEA"/>
<path d="M1147.89 406.534C1148.3 406.114 1148.3 405.437 1147.88 405.022C1147.46 404.607 1146.78 404.611 1146.37 405.032L1146.36 405.043C1145.94 405.463 1145.94 406.14 1146.36 406.555C1146.57 406.761 1146.84 406.863 1147.12 406.863C1147.39 406.863 1147.67 406.757 1147.88 406.545L1147.89 406.534Z" fill="#DFCFEA"/>
<path d="M1131.65 404.074L1131.64 404.085C1131.22 404.503 1131.22 405.18 1131.64 405.597C1131.85 405.806 1132.12 405.911 1132.4 405.911C1132.67 405.911 1132.95 405.806 1133.15 405.597L1133.17 405.586C1133.58 405.168 1133.58 404.491 1133.17 404.074C1132.75 403.656 1132.07 403.656 1131.65 404.074Z" fill="#DFCFEA"/>
<path d="M1135.07 405.785L1135.06 405.796C1134.65 406.214 1134.65 406.891 1135.06 407.309C1135.27 407.517 1135.55 407.622 1135.82 407.622C1136.09 407.622 1136.37 407.517 1136.58 407.309L1136.59 407.297C1137 406.88 1137 406.203 1136.59 405.785C1136.17 405.368 1135.49 405.368 1135.07 405.785Z" fill="#DFCFEA"/>
<g clip-path="url(#clip5_238_1416)">
<path d="M1001.41 31.5189L999.686 32.2639C999.143 32.4982 998.893 33.1279 999.127 33.6706C999.362 34.2133 999.991 34.4634 1000.53 34.2292L1002.26 33.4842C1002.8 33.25 1003.05 32.6202 1002.82 32.0775C1002.58 31.5347 1001.95 31.2847 1001.41 31.5189Z" fill="#DFCFEA"/>
<path d="M1015.35 18.8714C1015.27 18.7087 1015.18 18.5516 1015.08 18.4037L1008.07 8.21195C1008.07 8.21162 1008.07 8.21128 1008.07 8.21089L1006.67 6.18793C1005.74 4.82924 1003.96 4.31723 1002.45 4.97068L944.427 30.0097C942.669 30.7685 941.856 32.8166 942.615 34.5752L953.948 60.8361C954.707 62.5946 956.755 63.4079 958.513 62.6489L961.626 61.3057C963.435 64.194 967.14 65.4145 970.364 64.0232C973.587 62.632 975.241 59.0993 974.381 55.8012L976.911 54.7091C977.454 54.475 977.704 53.8452 977.47 53.3024C977.236 52.7596 976.606 52.5096 976.063 52.7438L973.532 53.836C971.723 50.9478 968.018 49.7274 964.794 51.1186C961.571 52.5099 959.917 56.0426 960.777 59.3405L957.665 60.6837C956.99 60.975 956.204 60.6627 955.913 59.9878L944.58 33.7271C944.288 33.0521 944.601 32.266 945.276 31.9747L1003.3 6.93577C1003.87 6.68617 1004.55 6.88175 1004.91 7.40079L1005.56 8.35187L992.663 13.9197C991.705 14.333 991.262 15.4485 991.675 16.4062L996.249 27.0044C996.679 28.0015 997.565 28.7414 998.618 28.9835C1001.15 29.5668 1006.21 29.457 1015.99 25.7506L1018.83 32.3447C1019.22 33.2475 1018.8 34.2988 1017.9 34.6884L1015.2 35.8533C1013.39 32.9652 1009.69 31.7447 1006.46 33.136C1003.24 34.5273 1001.59 38.0599 1002.45 41.3579L980.635 50.7709C980.093 51.0051 979.843 51.6349 980.077 52.1777C980.311 52.7204 980.941 52.9705 981.484 52.7362L1003.3 43.3231C1005.11 46.2114 1008.81 47.4318 1012.03 46.0406C1015.26 44.6493 1016.91 41.1166 1016.05 37.8185L1018.75 36.6536C1020.74 35.7964 1021.66 33.483 1020.8 31.4966L1015.4 18.9944L1015.4 18.9942C1015.38 18.9527 1015.37 18.9119 1015.35 18.8714ZM965.643 53.084C968.117 52.0162 970.998 53.1604 972.066 55.6346C973.134 58.1087 971.99 60.9903 969.516 62.0581C967.041 63.1258 964.16 61.9815 963.092 59.5073C962.024 57.0332 963.169 54.1517 965.643 53.084ZM1011.19 44.075C1008.71 45.1428 1005.83 43.9985 1004.76 41.5243C1003.69 39.0502 1004.84 36.1687 1007.31 35.101C1009.79 34.0332 1012.67 35.1773 1013.74 37.6515C1014.8 40.1257 1013.66 43.0073 1011.19 44.075ZM998.214 26.1563L993.739 15.7864L1006.8 10.1496L1013.31 19.6173C1013.32 19.6341 1013.33 19.6522 1013.34 19.6697C1013.38 19.7208 1013.41 19.7737 1013.43 19.8285C1013.43 19.8333 1013.43 19.8378 1013.44 19.8425L1015.14 23.7834C1005.43 27.4521 1000.94 27.3205 999.098 26.8975C998.706 26.8074 998.376 26.5303 998.214 26.1563Z" fill="#DFCFEA"/>
<path d="M965.328 25.7183L948.88 32.8166C948.016 33.1895 947.616 34.1959 947.989 35.0601L952.761 46.1172C953.134 46.9813 954.14 47.381 955.004 47.008L971.452 39.9097C972.316 39.5368 972.716 38.5304 972.343 37.6662L967.571 26.6092C967.198 25.745 966.192 25.3454 965.328 25.7183ZM961.397 41.9178L954.554 44.8711L950.126 34.61L956.969 31.6567L961.397 41.9178ZM970.206 38.1163L963.363 41.0696L958.934 30.8085L965.778 27.8552L970.206 38.1163Z" fill="#DFCFEA"/>
<path d="M986.894 16.4099L970.446 23.5082C969.582 23.8812 969.182 24.8876 969.555 25.7518L974.327 36.8088C974.7 37.673 975.706 38.0726 976.57 37.6997L993.019 30.6013C993.883 30.2284 994.283 29.222 993.91 28.3578L989.138 17.3008C988.765 16.4366 987.759 16.037 986.894 16.4099ZM991.773 28.8079L984.929 31.7613L983.322 28.0372C983.088 27.4944 982.458 27.2443 981.915 27.4786C981.372 27.7128 981.122 28.3425 981.357 28.8853L982.964 32.6094L976.12 35.5628L971.692 25.3017L978.536 22.3483L979.383 24.3131C979.618 24.8559 980.247 25.1059 980.79 24.8717C981.333 24.6374 981.583 24.0077 981.349 23.465L980.501 21.5002L987.344 18.5468L991.773 28.8079Z" fill="#DFCFEA"/>
</g>
<path d="M988.808 85.7334C989.568 88.6231 990.541 91.2695 991.637 93.6422L989.325 94.7372C988.138 92.2429 987.135 89.4444 986.344 86.4026L988.808 85.7334ZM1127.73 89.5052C1130.83 89.6573 1133.78 90.0223 1136.49 90.6307L1135.94 93.125C1133.39 92.5471 1130.59 92.182 1127.61 92.0604L1127.73 89.5052ZM1110.27 90.6916L1110.66 93.2163C1108.02 93.6421 1105.25 94.1592 1102.24 94.798L1101.69 92.3038C1104.76 91.665 1107.56 91.1174 1110.27 90.6916ZM1084.87 96.5623L1085.57 99.0262C1083.17 99.6954 1080.61 100.425 1077.26 101.429L1076.53 98.9654C1079.88 97.992 1082.47 97.2619 1084.87 96.5623ZM1152.34 98.5699C1154.5 100.517 1156.44 102.768 1158.15 105.353L1156.02 106.783C1154.44 104.41 1152.61 102.281 1150.63 100.486L1152.34 98.5699ZM1059.99 103.832L1060.69 106.296C1057.58 107.178 1054.85 107.908 1052.32 108.577L1051.68 106.083C1054.18 105.414 1056.91 104.684 1059.99 103.832ZM1002.19 106.053C1004.44 107.452 1006.97 108.577 1009.74 109.368L1009.04 111.832C1006.02 110.981 1003.29 109.764 1000.82 108.212L1002.19 106.053ZM1034.89 109.703L1035.29 112.228C1032.21 112.714 1029.29 113.049 1026.59 113.231L1026.4 110.676C1029.05 110.494 1031.91 110.159 1034.89 109.703ZM1164.99 121.566C1165.66 124.243 1166.24 127.133 1166.69 130.144L1164.17 130.539C1163.71 127.589 1163.17 124.79 1162.5 122.205L1164.99 121.566ZM1315.26 138.813C1317.36 138.813 1319.39 139.057 1321.25 139.513L1320.61 142.007C1318.18 141.399 1315.44 141.216 1312.49 141.521L1312.25 138.965C1313.25 138.874 1314.28 138.813 1315.26 138.813ZM1295.33 143.924L1296.37 146.266C1293.96 147.33 1291.38 148.608 1288.7 150.068L1287.48 147.817C1290.25 146.327 1292.87 145.019 1295.33 143.924ZM1168.06 147.513C1168.09 148.517 1168.09 149.521 1168.09 150.555C1168.09 151.346 1168.09 152.167 1168.06 152.988C1168.06 153.901 1168.03 154.813 1168.03 155.726V156.182H1165.48V155.726C1165.48 154.813 1165.48 153.901 1165.51 152.958C1165.51 152.137 1165.54 151.346 1165.54 150.555C1165.54 149.551 1165.54 148.547 1165.51 147.543L1168.06 147.513ZM1272.58 156.73L1273.98 158.889C1271.76 160.319 1269.39 161.901 1266.8 163.665L1265.37 161.536C1267.96 159.741 1270.33 158.19 1272.58 156.73ZM1251.1 171.391L1252.56 173.49L1252.08 173.825C1249.86 175.376 1247.67 176.927 1245.48 178.448L1244.02 176.349C1246.21 174.828 1248.43 173.277 1250.62 171.726L1251.1 171.391ZM1168.98 173.247C1169.34 176.258 1169.8 179.087 1170.37 181.612L1167.88 182.19C1167.27 179.543 1166.78 176.654 1166.42 173.551L1168.98 173.247ZM1229.72 185.992L1231.12 188.152C1228.5 189.855 1226.07 191.376 1223.76 192.775L1222.42 190.585C1224.73 189.186 1227.13 187.695 1229.72 185.992ZM1176.98 196.76C1178.77 198.92 1180.9 200.532 1183.3 201.536L1182.3 203.908C1179.53 202.753 1177.07 200.897 1175 198.403L1176.98 196.76ZM1207.33 198.585L1208.37 200.927C1205.45 202.205 1202.65 203.209 1200.09 203.939L1199.39 201.475C1201.83 200.806 1204.5 199.832 1207.33 198.585Z" fill="#DFCFEA"/>
<path d="M986.227 64.0454C986.257 65.4751 986.288 66.9047 986.349 68.2735L983.794 68.3952C983.733 66.996 983.672 65.5359 983.672 64.0759L986.227 64.0454Z" fill="#DFCFEA"/>
</g>
<defs>
<linearGradient id="paint0_linear_238_1416" x1="-234.5" y1="-172" x2="1292.5" y2="424" gradientUnits="userSpaceOnUse">
<stop stop-color="#FFEDFC"/>
<stop offset="1" stop-color="#EFE6FC"/>
</linearGradient>
<clipPath id="clip0_238_1416">
<rect width="1312" height="440" rx="16" fill="white"/>
</clipPath>
<clipPath id="clip1_238_1416">
<rect width="73.0039" height="73.0039" fill="white" transform="translate(87 28.9265) rotate(-23.3429)"/>
</clipPath>
<clipPath id="clip2_238_1416">
<rect width="73.0039" height="73.0039" fill="white" transform="translate(28 204.927) rotate(-23.3429)"/>
</clipPath>
<clipPath id="clip3_238_1416">
<rect width="73.0039" height="73.0039" fill="white" transform="translate(586 49.9265) rotate(-23.3429)"/>
</clipPath>
<clipPath id="clip4_238_1416">
<rect width="73.0039" height="73.0039" fill="white" transform="translate(737 235.927) rotate(-23.3429)"/>
</clipPath>
<clipPath id="clip5_238_1416">
<rect width="73.0039" height="73.0039" fill="white" transform="translate(935 16.9265) rotate(-23.3429)"/>
</clipPath>
</defs>
</svg>
