<svg width="326" height="88" viewBox="0 0 326 88" fill="none" xmlns="http://www.w3.org/2000/svg">
<rect width="326" height="88" rx="8" fill="#FFF7F4"/>
<rect x="16" y="12" width="64" height="64" rx="32" fill="white"/>
<path d="M45.6157 40.8883C45.6368 41.2036 45.7453 41.5068 45.9291 41.7638C46.1128 42.0209 46.3646 42.2216 46.6561 42.3436V39.4336C46.3646 39.5555 46.1129 39.7562 45.9292 40.0131C45.7454 40.2701 45.6369 40.5731 45.6157 40.8883Z" fill="#16BDCA"/>
<path d="M56.065 36.0189C56.8449 36.0189 57.4772 35.3866 57.4772 34.6067V27.4405C57.4772 26.6606 56.8449 26.0283 56.065 26.0283C55.2851 26.0283 54.6599 26.6606 54.6528 27.4405V34.6137C54.6528 35.3866 55.2851 36.0189 56.065 36.0189Z" fill="#FE4B09"/>
<path d="M40.4677 36.0189C41.2476 36.0189 41.8799 35.3866 41.8799 34.6067V27.4405C41.8939 26.6607 41.2827 26.0143 40.5028 26.0002C39.723 25.9862 39.0766 26.5974 39.0626 27.3773V27.4405V34.6138C39.0555 35.3866 39.6878 36.0189 40.4677 36.0189Z" fill="#FE4B09"/>
<path d="M61.5729 29.8503H58.5308V34.6138C58.5308 35.9768 57.4278 37.0798 56.0648 37.0728C54.7088 37.0728 53.6058 35.9697 53.6058 34.6138V29.8503H42.9267V34.6138C42.9478 35.9768 41.8658 37.0939 40.5028 37.1149C39.1398 37.136 38.0227 36.054 38.0017 34.6911C38.0017 34.663 38.0017 34.6349 38.0017 34.6068V29.8503H34.9595C32.7324 29.8503 30.9268 31.656 30.9268 33.8831V57.9673C30.9268 60.1944 32.7324 62 34.9595 62H61.5729C63.8001 62 65.6057 60.1944 65.6057 57.9673V33.8831C65.6057 31.656 63.8001 29.8503 61.5729 29.8503ZM56.7392 46.1781L47.5074 55.4099C46.9594 55.9579 46.0672 55.9579 45.5121 55.4099L41.4302 51.3209C40.8892 50.7589 40.9033 49.8666 41.4653 49.3256C42.0133 48.7987 42.8775 48.7987 43.4255 49.3256L46.5168 52.4169L54.751 44.1828C55.299 43.6348 56.1912 43.6348 56.7463 44.1828C57.2943 44.7378 57.2943 45.6301 56.7392 46.1781Z" fill="#FE4B09"/>
<path d="M94.944 50.128C94.0907 50.128 93.2747 50 92.496 49.744C91.7173 49.4773 91.104 49.136 90.656 48.72L91.248 47.472C91.6747 47.8453 92.2187 48.1547 92.88 48.4C93.5413 48.6453 94.2293 48.768 94.944 48.768C95.5947 48.768 96.1227 48.6933 96.528 48.544C96.9333 48.3947 97.232 48.192 97.424 47.936C97.616 47.6693 97.712 47.3707 97.712 47.04C97.712 46.656 97.584 46.3467 97.328 46.112C97.0827 45.8773 96.7573 45.6907 96.352 45.552C95.9573 45.4027 95.52 45.2747 95.04 45.168C94.56 45.0613 94.0747 44.9387 93.584 44.8C93.104 44.6507 92.6613 44.464 92.256 44.24C91.8613 44.016 91.5413 43.7173 91.296 43.344C91.0507 42.96 90.928 42.4693 90.928 41.872C90.928 41.296 91.0773 40.768 91.376 40.288C91.6853 39.7973 92.1547 39.408 92.784 39.12C93.424 38.8213 94.2347 38.672 95.216 38.672C95.8667 38.672 96.512 38.7573 97.152 38.928C97.792 39.0987 98.3467 39.344 98.816 39.664L98.288 40.944C97.808 40.624 97.3013 40.3947 96.768 40.256C96.2347 40.1067 95.7173 40.032 95.216 40.032C94.5867 40.032 94.0693 40.112 93.664 40.272C93.2587 40.432 92.96 40.6453 92.768 40.912C92.5867 41.1787 92.496 41.4773 92.496 41.808C92.496 42.2027 92.6187 42.5173 92.864 42.752C93.12 42.9867 93.4453 43.1733 93.84 43.312C94.2453 43.4507 94.688 43.5787 95.168 43.696C95.648 43.8027 96.128 43.9253 96.608 44.064C97.0987 44.2027 97.5413 44.384 97.936 44.608C98.3413 44.832 98.6667 45.1307 98.912 45.504C99.1573 45.8773 99.28 46.3573 99.28 46.944C99.28 47.5093 99.1253 48.0373 98.816 48.528C98.5067 49.008 98.0267 49.3973 97.376 49.696C96.736 49.984 95.9253 50.128 94.944 50.128ZM105.17 50.096C104.263 50.096 103.463 49.9093 102.77 49.536C102.087 49.1627 101.554 48.6507 101.17 48C100.796 47.3493 100.61 46.6027 100.61 45.76C100.61 44.9173 100.791 44.1707 101.154 43.52C101.527 42.8693 102.034 42.3627 102.674 42C103.324 41.6267 104.055 41.44 104.866 41.44C105.687 41.44 106.412 41.6213 107.042 41.984C107.671 42.3467 108.162 42.8587 108.514 43.52C108.876 44.1707 109.058 44.9333 109.058 45.808C109.058 45.872 109.052 45.9467 109.042 46.032C109.042 46.1173 109.036 46.1973 109.026 46.272H101.81V45.168H108.226L107.602 45.552C107.612 45.008 107.5 44.5227 107.266 44.096C107.031 43.6693 106.706 43.3387 106.29 43.104C105.884 42.8587 105.41 42.736 104.866 42.736C104.332 42.736 103.858 42.8587 103.442 43.104C103.026 43.3387 102.7 43.6747 102.466 44.112C102.231 44.5387 102.114 45.0293 102.114 45.584V45.84C102.114 46.4053 102.242 46.912 102.498 47.36C102.764 47.7973 103.132 48.1387 103.602 48.384C104.071 48.6293 104.61 48.752 105.218 48.752C105.719 48.752 106.172 48.6667 106.578 48.496C106.994 48.3253 107.356 48.0693 107.666 47.728L108.514 48.72C108.13 49.168 107.65 49.5093 107.074 49.744C106.508 49.9787 105.874 50.096 105.17 50.096ZM116.22 50V48.208L116.14 47.872V44.816C116.14 44.1653 115.948 43.664 115.564 43.312C115.191 42.9493 114.625 42.768 113.868 42.768C113.367 42.768 112.876 42.8533 112.396 43.024C111.916 43.184 111.511 43.4027 111.18 43.68L110.54 42.528C110.977 42.176 111.5 41.9093 112.108 41.728C112.727 41.536 113.372 41.44 114.044 41.44C115.207 41.44 116.103 41.7227 116.732 42.288C117.361 42.8533 117.676 43.7173 117.676 44.88V50H116.22ZM113.436 50.096C112.807 50.096 112.252 49.9893 111.772 49.776C111.303 49.5627 110.94 49.2693 110.684 48.896C110.428 48.512 110.3 48.08 110.3 47.6C110.3 47.1413 110.407 46.7253 110.62 46.352C110.844 45.9787 111.201 45.68 111.692 45.456C112.193 45.232 112.865 45.12 113.708 45.12H116.396V46.224H113.772C113.004 46.224 112.487 46.352 112.22 46.608C111.953 46.864 111.82 47.1733 111.82 47.536C111.82 47.952 111.985 48.288 112.316 48.544C112.647 48.7893 113.105 48.912 113.692 48.912C114.268 48.912 114.769 48.784 115.196 48.528C115.633 48.272 115.948 47.8987 116.14 47.408L116.444 48.464C116.241 48.9653 115.884 49.3653 115.372 49.664C114.86 49.952 114.215 50.096 113.436 50.096ZM131.127 41.44C131.809 41.44 132.412 41.5733 132.935 41.84C133.457 42.1067 133.863 42.512 134.151 43.056C134.449 43.6 134.599 44.288 134.599 45.12V50H133.063V45.296C133.063 44.4747 132.871 43.856 132.487 43.44C132.103 43.024 131.564 42.816 130.871 42.816C130.359 42.816 129.911 42.9227 129.527 43.136C129.143 43.3493 128.844 43.664 128.631 44.08C128.428 44.496 128.327 45.0133 128.327 45.632V50H126.791V45.296C126.791 44.4747 126.599 43.856 126.215 43.44C125.841 43.024 125.303 42.816 124.599 42.816C124.097 42.816 123.655 42.9227 123.271 43.136C122.887 43.3493 122.588 43.664 122.375 44.08C122.161 44.496 122.055 45.0133 122.055 45.632V50H120.519V41.52H121.991V43.776L121.751 43.2C122.017 42.6453 122.428 42.2133 122.983 41.904C123.537 41.5947 124.183 41.44 124.919 41.44C125.729 41.44 126.428 41.6427 127.015 42.048C127.601 42.4427 127.985 43.0453 128.167 43.856L127.543 43.6C127.799 42.9493 128.247 42.4267 128.887 42.032C129.527 41.6373 130.273 41.44 131.127 41.44ZM137.425 50V38.128H138.961V50H137.425ZM145.67 50.096C144.763 50.096 143.963 49.9093 143.27 49.536C142.587 49.1627 142.054 48.6507 141.67 48C141.296 47.3493 141.11 46.6027 141.11 45.76C141.11 44.9173 141.291 44.1707 141.654 43.52C142.027 42.8693 142.534 42.3627 143.174 42C143.824 41.6267 144.555 41.44 145.366 41.44C146.187 41.44 146.912 41.6213 147.542 41.984C148.171 42.3467 148.662 42.8587 149.014 43.52C149.376 44.1707 149.558 44.9333 149.558 45.808C149.558 45.872 149.552 45.9467 149.542 46.032C149.542 46.1173 149.536 46.1973 149.526 46.272H142.31V45.168H148.726L148.102 45.552C148.112 45.008 148 44.5227 147.766 44.096C147.531 43.6693 147.206 43.3387 146.79 43.104C146.384 42.8587 145.91 42.736 145.366 42.736C144.832 42.736 144.358 42.8587 143.942 43.104C143.526 43.3387 143.2 43.6747 142.966 44.112C142.731 44.5387 142.614 45.0293 142.614 45.584V45.84C142.614 46.4053 142.742 46.912 142.998 47.36C143.264 47.7973 143.632 48.1387 144.102 48.384C144.571 48.6293 145.11 48.752 145.718 48.752C146.219 48.752 146.672 48.6667 147.078 48.496C147.494 48.3253 147.856 48.0693 148.166 47.728L149.014 48.72C148.63 49.168 148.15 49.5093 147.574 49.744C147.008 49.9787 146.374 50.096 145.67 50.096ZM154.122 50.096C153.418 50.096 152.746 50 152.106 49.808C151.477 49.616 150.981 49.3813 150.618 49.104L151.258 47.888C151.621 48.1333 152.069 48.3413 152.602 48.512C153.136 48.6827 153.68 48.768 154.234 48.768C154.949 48.768 155.461 48.6667 155.77 48.464C156.09 48.2613 156.25 47.9787 156.25 47.616C156.25 47.3493 156.154 47.1413 155.962 46.992C155.77 46.8427 155.514 46.7307 155.194 46.656C154.885 46.5813 154.538 46.5173 154.154 46.464C153.77 46.4 153.386 46.3253 153.002 46.24C152.618 46.144 152.266 46.016 151.946 45.856C151.626 45.6853 151.37 45.456 151.178 45.168C150.986 44.8693 150.89 44.4747 150.89 43.984C150.89 43.472 151.034 43.024 151.322 42.64C151.61 42.256 152.016 41.9627 152.538 41.76C153.072 41.5467 153.701 41.44 154.426 41.44C154.981 41.44 155.541 41.5093 156.106 41.648C156.682 41.776 157.152 41.9627 157.514 42.208L156.858 43.424C156.474 43.168 156.074 42.992 155.658 42.896C155.242 42.8 154.826 42.752 154.41 42.752C153.738 42.752 153.237 42.864 152.906 43.088C152.576 43.3013 152.41 43.5787 152.41 43.92C152.41 44.208 152.506 44.432 152.698 44.592C152.901 44.7413 153.157 44.8587 153.466 44.944C153.786 45.0293 154.138 45.104 154.522 45.168C154.906 45.2213 155.29 45.296 155.674 45.392C156.058 45.4773 156.405 45.6 156.714 45.76C157.034 45.92 157.29 46.144 157.482 46.432C157.685 46.72 157.786 47.104 157.786 47.584C157.786 48.096 157.637 48.5387 157.338 48.912C157.04 49.2853 156.618 49.5787 156.074 49.792C155.53 49.9947 154.88 50.096 154.122 50.096ZM162.138 50.096C161.434 50.096 160.762 50 160.122 49.808C159.493 49.616 158.997 49.3813 158.634 49.104L159.274 47.888C159.637 48.1333 160.085 48.3413 160.618 48.512C161.151 48.6827 161.695 48.768 162.25 48.768C162.965 48.768 163.477 48.6667 163.786 48.464C164.106 48.2613 164.266 47.9787 164.266 47.616C164.266 47.3493 164.17 47.1413 163.978 46.992C163.786 46.8427 163.53 46.7307 163.21 46.656C162.901 46.5813 162.554 46.5173 162.17 46.464C161.786 46.4 161.402 46.3253 161.018 46.24C160.634 46.144 160.282 46.016 159.962 45.856C159.642 45.6853 159.386 45.456 159.194 45.168C159.002 44.8693 158.906 44.4747 158.906 43.984C158.906 43.472 159.05 43.024 159.338 42.64C159.626 42.256 160.031 41.9627 160.554 41.76C161.087 41.5467 161.717 41.44 162.442 41.44C162.997 41.44 163.557 41.5093 164.122 41.648C164.698 41.776 165.167 41.9627 165.53 42.208L164.874 43.424C164.49 43.168 164.09 42.992 163.674 42.896C163.258 42.8 162.842 42.752 162.426 42.752C161.754 42.752 161.253 42.864 160.922 43.088C160.591 43.3013 160.426 43.5787 160.426 43.92C160.426 44.208 160.522 44.432 160.714 44.592C160.917 44.7413 161.173 44.8587 161.482 44.944C161.802 45.0293 162.154 45.104 162.538 45.168C162.922 45.2213 163.306 45.296 163.69 45.392C164.074 45.4773 164.421 45.6 164.73 45.76C165.05 45.92 165.306 46.144 165.498 46.432C165.701 46.72 165.802 47.104 165.802 47.584C165.802 48.096 165.653 48.5387 165.354 48.912C165.055 49.2853 164.634 49.5787 164.09 49.792C163.546 49.9947 162.895 50.096 162.138 50.096ZM172.243 50V38.8H177.267C178.557 38.8 179.549 39.0613 180.243 39.584C180.936 40.096 181.283 40.8 181.283 41.696C181.283 42.304 181.144 42.816 180.867 43.232C180.6 43.648 180.237 43.968 179.779 44.192C179.32 44.416 178.824 44.528 178.291 44.528L178.579 44.048C179.219 44.048 179.784 44.16 180.275 44.384C180.765 44.608 181.155 44.9387 181.443 45.376C181.731 45.8027 181.875 46.336 181.875 46.976C181.875 47.936 181.512 48.6827 180.787 49.216C180.072 49.7387 179.005 50 177.587 50H172.243ZM173.843 48.704H177.523C178.408 48.704 179.085 48.5547 179.555 48.256C180.024 47.9573 180.259 47.488 180.259 46.848C180.259 46.1973 180.024 45.7227 179.555 45.424C179.085 45.1253 178.408 44.976 177.523 44.976H173.699V43.68H177.123C177.933 43.68 178.563 43.5307 179.01 43.232C179.459 42.9333 179.683 42.4853 179.683 41.888C179.683 41.2907 179.459 40.8427 179.01 40.544C178.563 40.2453 177.933 40.096 177.123 40.096H173.843V48.704ZM187.76 50.096C186.907 50.096 186.149 49.9093 185.488 49.536C184.827 49.1627 184.304 48.6507 183.92 48C183.536 47.3387 183.344 46.592 183.344 45.76C183.344 44.9173 183.536 44.1707 183.92 43.52C184.304 42.8693 184.827 42.3627 185.488 42C186.149 41.6267 186.907 41.44 187.76 41.44C188.603 41.44 189.355 41.6267 190.016 42C190.688 42.3627 191.211 42.8693 191.584 43.52C191.968 44.16 192.16 44.9067 192.16 45.76C192.16 46.6027 191.968 47.3493 191.584 48C191.211 48.6507 190.688 49.1627 190.016 49.536C189.355 49.9093 188.603 50.096 187.76 50.096ZM187.76 48.752C188.304 48.752 188.789 48.6293 189.216 48.384C189.653 48.1387 189.995 47.792 190.24 47.344C190.485 46.8853 190.608 46.3573 190.608 45.76C190.608 45.152 190.485 44.6293 190.24 44.192C189.995 43.744 189.653 43.3973 189.216 43.152C188.789 42.9067 188.304 42.784 187.76 42.784C187.216 42.784 186.731 42.9067 186.304 43.152C185.877 43.3973 185.536 43.744 185.28 44.192C185.024 44.6293 184.896 45.152 184.896 45.76C184.896 46.3573 185.024 46.8853 185.28 47.344C185.536 47.792 185.877 48.1387 186.304 48.384C186.731 48.6293 187.216 48.752 187.76 48.752ZM197.916 50.096C197.063 50.096 196.305 49.9093 195.644 49.536C194.983 49.1627 194.46 48.6507 194.076 48C193.692 47.3387 193.5 46.592 193.5 45.76C193.5 44.9173 193.692 44.1707 194.076 43.52C194.46 42.8693 194.983 42.3627 195.644 42C196.305 41.6267 197.063 41.44 197.916 41.44C198.759 41.44 199.511 41.6267 200.172 42C200.844 42.3627 201.367 42.8693 201.74 43.52C202.124 44.16 202.316 44.9067 202.316 45.76C202.316 46.6027 202.124 47.3493 201.74 48C201.367 48.6507 200.844 49.1627 200.172 49.536C199.511 49.9093 198.759 50.096 197.916 50.096ZM197.916 48.752C198.46 48.752 198.945 48.6293 199.372 48.384C199.809 48.1387 200.151 47.792 200.396 47.344C200.641 46.8853 200.764 46.3573 200.764 45.76C200.764 45.152 200.641 44.6293 200.396 44.192C200.151 43.744 199.809 43.3973 199.372 43.152C198.945 42.9067 198.46 42.784 197.916 42.784C197.372 42.784 196.887 42.9067 196.46 43.152C196.033 43.3973 195.692 43.744 195.436 44.192C195.18 44.6293 195.052 45.152 195.052 45.76C195.052 46.3573 195.18 46.8853 195.436 47.344C195.692 47.792 196.033 48.1387 196.46 48.384C196.887 48.6293 197.372 48.752 197.916 48.752ZM205.688 47.952L205.72 45.984L210.6 41.52H212.456L208.712 45.2L207.88 45.904L205.688 47.952ZM204.44 50V38.128H205.976V50H204.44ZM210.92 50L207.592 45.872L208.584 44.64L212.808 50H210.92ZM214.3 50V41.52H215.836V50H214.3ZM215.068 39.888C214.769 39.888 214.518 39.792 214.316 39.6C214.124 39.408 214.028 39.1733 214.028 38.896C214.028 38.608 214.124 38.368 214.316 38.176C214.518 37.984 214.769 37.888 215.068 37.888C215.366 37.888 215.612 37.984 215.804 38.176C216.006 38.3573 216.108 38.5867 216.108 38.864C216.108 39.152 216.012 39.3973 215.82 39.6C215.628 39.792 215.377 39.888 215.068 39.888ZM223.297 41.44C223.99 41.44 224.598 41.5733 225.121 41.84C225.654 42.1067 226.07 42.512 226.369 43.056C226.667 43.6 226.817 44.288 226.817 45.12V50H225.281V45.296C225.281 44.4747 225.078 43.856 224.673 43.44C224.278 43.024 223.718 42.816 222.993 42.816C222.449 42.816 221.974 42.9227 221.569 43.136C221.163 43.3493 220.849 43.664 220.625 44.08C220.411 44.496 220.305 45.0133 220.305 45.632V50H218.769V41.52H220.241V43.808L220.001 43.2C220.278 42.6453 220.705 42.2133 221.281 41.904C221.857 41.5947 222.529 41.44 223.297 41.44ZM233.371 53.2C232.592 53.2 231.835 53.088 231.099 52.864C230.374 52.6507 229.782 52.3413 229.323 51.936L230.059 50.752C230.454 51.0933 230.939 51.36 231.515 51.552C232.091 51.7547 232.694 51.856 233.323 51.856C234.326 51.856 235.062 51.6213 235.531 51.152C236 50.6827 236.235 49.968 236.235 49.008V47.216L236.395 45.536L236.315 43.84V41.52H237.771V48.848C237.771 50.3413 237.398 51.44 236.651 52.144C235.904 52.848 234.811 53.2 233.371 53.2ZM233.179 49.648C232.358 49.648 231.622 49.4773 230.971 49.136C230.331 48.784 229.819 48.2987 229.435 47.68C229.062 47.0613 228.875 46.3467 228.875 45.536C228.875 44.7147 229.062 44 229.435 43.392C229.819 42.7733 230.331 42.2933 230.971 41.952C231.622 41.6107 232.358 41.44 233.179 41.44C233.904 41.44 234.566 41.5893 235.163 41.888C235.76 42.176 236.235 42.624 236.587 43.232C236.95 43.84 237.131 44.608 237.131 45.536C237.131 46.4533 236.95 47.216 236.587 47.824C236.235 48.432 235.76 48.8907 235.163 49.2C234.566 49.4987 233.904 49.648 233.179 49.648ZM233.355 48.304C233.92 48.304 234.422 48.1867 234.859 47.952C235.296 47.7173 235.638 47.392 235.883 46.976C236.139 46.56 236.267 46.08 236.267 45.536C236.267 44.992 236.139 44.512 235.883 44.096C235.638 43.68 235.296 43.36 234.859 43.136C234.422 42.9013 233.92 42.784 233.355 42.784C232.79 42.784 232.283 42.9013 231.835 43.136C231.398 43.36 231.051 43.68 230.795 44.096C230.55 44.512 230.427 44.992 230.427 45.536C230.427 46.08 230.55 46.56 230.795 46.976C231.051 47.392 231.398 47.7173 231.835 47.952C232.283 48.1867 232.79 48.304 233.355 48.304Z" fill="#071C2C"/>
</svg>
