<svg width="310" height="88" viewBox="0 0 310 88" fill="none" xmlns="http://www.w3.org/2000/svg">
<rect width="310" height="88" rx="8" fill="#FFFAE2"/>
<rect x="20.5" y="12" width="64" height="64" rx="32" fill="white"/>
<path d="M73.8818 34.8594C73.6982 34.8707 73.5153 34.8918 73.334 34.9227C71.9178 30.589 69.1372 26.8088 65.393 24.1269C61.6487 21.4451 57.1342 20 52.5 20C47.8658 20 43.3513 21.4451 39.607 24.1269C35.8628 26.8088 33.0822 30.589 31.666 34.9227C31.4847 34.8918 31.3018 34.8707 31.1182 34.8594C27.4074 34.8594 24.5 38.6544 24.5 43.5001C24.5 48.3448 27.4074 52.1397 31.1182 52.1397C32.5319 52.1247 33.8856 51.576 34.8986 50.6075C35.1265 50.3948 35.2821 50.1182 35.344 49.8155C35.4059 49.5128 35.3712 49.1987 35.2446 48.9161C33.9044 45.9339 33.4026 42.6534 33.7914 39.4161C33.8133 39.2254 33.8516 39.0401 33.8794 38.8511C33.957 38.3296 34.048 37.8116 34.1713 37.3033C35.132 33.2362 37.4667 29.6085 40.795 27.0112C44.1233 24.4139 48.2491 23 52.5001 23C56.7511 23 60.8769 24.4139 64.2052 27.0112C67.5335 29.6085 69.8682 33.2362 70.8289 37.3033C70.9522 37.8116 71.0432 38.3296 71.1207 38.8511C71.1486 39.0401 71.1868 39.2254 71.2087 39.4161C71.2913 40.1078 71.3339 40.8036 71.3363 41.5001C71.3361 42.1338 71.3031 42.7671 71.2374 43.3975C71.2135 43.626 71.1648 43.8467 71.1325 44.0728C71.0763 44.4678 71.0271 44.8643 70.9451 45.254C70.8989 45.4722 70.8303 45.6817 70.7766 45.897C70.6782 46.2886 70.5857 46.6817 70.4614 47.067C70.3973 47.2667 70.3133 47.4572 70.2427 47.6539C70.1015 48.0436 69.9623 48.4342 69.7937 48.8165C68.336 52.1342 65.9221 54.9606 62.8493 56.9477C59.7765 58.9348 56.179 59.9958 52.4999 60.0001H51.4817C50.5366 60.0001 49.6302 60.3688 48.9619 61.0252C48.2935 61.6816 47.9181 62.5718 47.9181 63.5001C47.9181 64.4283 48.2935 65.3186 48.9619 65.9749C49.6302 66.6313 50.5366 67.0001 51.4817 67.0001H55.5545C56.1485 67.002 56.7336 66.8576 57.2561 66.5801C57.7786 66.3025 58.2219 65.9007 58.5453 65.4113C58.8688 64.922 59.0622 64.3608 59.1077 63.7791C59.1532 63.1974 59.0495 62.6137 58.8059 62.0816C64.3527 60.4312 69.0117 56.6966 71.7694 51.69C72.4343 51.9818 73.1536 52.1349 73.8818 52.1397C77.5926 52.1397 80.5 48.3448 80.5 43.5001C80.5 38.6544 77.5926 34.8594 73.8818 34.8594Z" fill="#FDB419"/>
<path d="M39.5172 56.5006H52.0605C56.008 56.5423 59.824 55.1093 62.7361 52.4916C65.6482 49.8739 67.4387 46.2672 67.745 42.4017C67.9046 39.8618 67.4038 37.3238 66.2896 35.0264C65.1754 32.729 63.4845 30.7477 61.3759 29.2689C59.2674 27.7901 56.8104 26.8625 54.2362 26.5731C51.6621 26.2838 49.0553 26.6423 46.661 27.615C44.2668 28.5877 42.1639 30.1426 40.55 32.1333C38.9362 34.1241 37.8644 36.4854 37.4357 38.995C37.0069 41.5046 37.2352 44.0801 38.0991 46.4792C38.963 48.8783 40.434 51.0222 42.3738 52.7091L39.0588 55.1506C38.9307 55.2451 38.8361 55.3768 38.7884 55.527C38.7406 55.6773 38.7422 55.8384 38.7929 55.9877C38.8436 56.137 38.9408 56.2669 39.0708 56.3589C39.2008 56.4509 39.3569 56.5005 39.5172 56.5006ZM58.6081 39.5006C59.0109 39.5006 59.4046 39.6179 59.7395 39.8376C60.0744 40.0574 60.3354 40.3698 60.4895 40.7352C60.6436 41.1007 60.684 41.5028 60.6054 41.8908C60.5268 42.2787 60.3329 42.6351 60.0481 42.9148C59.7633 43.1945 59.4004 43.385 59.0054 43.4622C58.6104 43.5393 58.201 43.4997 57.8289 43.3483C57.4568 43.197 57.1387 42.9406 56.915 42.6117C56.6912 42.2828 56.5718 41.8961 56.5718 41.5006C56.5718 40.9701 56.7863 40.4614 57.1682 40.0864C57.5501 39.7113 58.0681 39.5006 58.6081 39.5006ZM52.499 39.5006C52.9018 39.5006 53.2955 39.6179 53.6304 39.8376C53.9653 40.0574 54.2263 40.3698 54.3804 40.7352C54.5345 41.1007 54.5749 41.5028 54.4963 41.8908C54.4177 42.2787 54.2238 42.6351 53.939 42.9148C53.6542 43.1945 53.2913 43.385 52.8963 43.4622C52.5013 43.5393 52.0918 43.4997 51.7198 43.3483C51.3477 43.197 51.0296 42.9406 50.8059 42.6117C50.5821 42.2828 50.4627 41.8961 50.4627 41.5006C50.4627 40.9701 50.6772 40.4614 51.0591 40.0864C51.441 39.7113 51.959 39.5006 52.499 39.5006ZM46.3899 39.5006C46.7927 39.5006 47.1864 39.6179 47.5213 39.8376C47.8562 40.0574 48.1172 40.3698 48.2713 40.7352C48.4254 41.1007 48.4657 41.5028 48.3872 41.8908C48.3086 42.2787 48.1146 42.6351 47.8299 42.9148C47.5451 43.1945 47.1822 43.385 46.7872 43.4622C46.3922 43.5393 45.9827 43.4997 45.6106 43.3483C45.2385 43.197 44.9205 42.9406 44.6967 42.6117C44.473 42.2828 44.3536 41.8961 44.3536 41.5006C44.3536 40.9701 44.5681 40.4614 44.95 40.0864C45.3319 39.7113 45.8498 39.5006 46.3899 39.5006Z" fill="#FDB419"/>
<path d="M97.092 50V48.912L101.652 44.512C102.057 44.128 102.356 43.792 102.548 43.504C102.751 43.2053 102.884 42.9333 102.948 42.688C103.023 42.432 103.06 42.1867 103.06 41.952C103.06 41.376 102.857 40.9227 102.452 40.592C102.047 40.2613 101.455 40.096 100.676 40.096C100.079 40.096 99.54 40.1973 99.06 40.4C98.58 40.592 98.164 40.896 97.812 41.312L96.724 40.368C97.1507 39.824 97.7213 39.408 98.436 39.12C99.1613 38.8213 99.956 38.672 100.82 38.672C101.599 38.672 102.276 38.8 102.852 39.056C103.428 39.3013 103.871 39.6587 104.18 40.128C104.5 40.5973 104.66 41.152 104.66 41.792C104.66 42.1547 104.612 42.512 104.516 42.864C104.42 43.216 104.239 43.5893 103.972 43.984C103.705 44.3787 103.321 44.8213 102.82 45.312L98.756 49.232L98.372 48.608H105.14V50H97.092ZM105.999 47.248V46.128L111.727 38.8H113.455L107.775 46.128L106.959 45.872H115.903V47.248H105.999ZM112.223 50V47.248L112.271 45.872V43.44H113.775V50H112.223ZM116.083 51.6L121.363 36.528H122.755L117.475 51.6H116.083ZM125.048 50L129.8 39.472L130.216 40.192H123.56L124.36 39.408V42.192H122.824V38.8H131.272V39.888L126.744 50H125.048ZM142.891 50.128C142.038 50.128 141.248 49.9893 140.523 49.712C139.808 49.424 139.184 49.024 138.651 48.512C138.128 47.9893 137.718 47.3813 137.419 46.688C137.12 45.9947 136.971 45.232 136.971 44.4C136.971 43.568 137.12 42.8053 137.419 42.112C137.718 41.4187 138.134 40.816 138.667 40.304C139.2 39.7813 139.824 39.3813 140.539 39.104C141.264 38.816 142.054 38.672 142.907 38.672C143.771 38.672 144.566 38.8213 145.291 39.12C146.027 39.408 146.651 39.84 147.163 40.416L146.123 41.424C145.696 40.976 145.216 40.6453 144.683 40.432C144.15 40.208 143.579 40.096 142.971 40.096C142.342 40.096 141.755 40.2027 141.211 40.416C140.678 40.6293 140.214 40.928 139.819 41.312C139.424 41.696 139.115 42.1547 138.891 42.688C138.678 43.2107 138.571 43.7813 138.571 44.4C138.571 45.0187 138.678 45.5947 138.891 46.128C139.115 46.6507 139.424 47.104 139.819 47.488C140.214 47.872 140.678 48.1707 141.211 48.384C141.755 48.5973 142.342 48.704 142.971 48.704C143.579 48.704 144.15 48.5973 144.683 48.384C145.216 48.16 145.696 47.8187 146.123 47.36L147.163 48.368C146.651 48.944 146.027 49.3813 145.291 49.68C144.566 49.9787 143.766 50.128 142.891 50.128ZM152.524 50.096C151.799 50.096 151.159 49.9627 150.604 49.696C150.06 49.4293 149.633 49.024 149.324 48.48C149.025 47.9253 148.876 47.232 148.876 46.4V41.52H150.412V46.224C150.412 47.056 150.609 47.68 151.004 48.096C151.409 48.512 151.975 48.72 152.7 48.72C153.233 48.72 153.697 48.6133 154.092 48.4C154.487 48.176 154.791 47.856 155.004 47.44C155.217 47.0133 155.324 46.5013 155.324 45.904V41.52H156.86V50H155.404V47.712L155.644 48.32C155.367 48.8853 154.951 49.3227 154.396 49.632C153.841 49.9413 153.217 50.096 152.524 50.096ZM162.216 50.096C161.512 50.096 160.84 50 160.2 49.808C159.571 49.616 159.075 49.3813 158.712 49.104L159.352 47.888C159.715 48.1333 160.163 48.3413 160.696 48.512C161.229 48.6827 161.773 48.768 162.328 48.768C163.043 48.768 163.555 48.6667 163.864 48.464C164.184 48.2613 164.344 47.9787 164.344 47.616C164.344 47.3493 164.248 47.1413 164.056 46.992C163.864 46.8427 163.608 46.7307 163.288 46.656C162.979 46.5813 162.632 46.5173 162.248 46.464C161.864 46.4 161.48 46.3253 161.096 46.24C160.712 46.144 160.36 46.016 160.04 45.856C159.72 45.6853 159.464 45.456 159.272 45.168C159.08 44.8693 158.984 44.4747 158.984 43.984C158.984 43.472 159.128 43.024 159.416 42.64C159.704 42.256 160.109 41.9627 160.632 41.76C161.165 41.5467 161.795 41.44 162.52 41.44C163.075 41.44 163.635 41.5093 164.2 41.648C164.776 41.776 165.245 41.9627 165.608 42.208L164.952 43.424C164.568 43.168 164.168 42.992 163.752 42.896C163.336 42.8 162.92 42.752 162.504 42.752C161.832 42.752 161.331 42.864 161 43.088C160.669 43.3013 160.504 43.5787 160.504 43.92C160.504 44.208 160.6 44.432 160.792 44.592C160.995 44.7413 161.251 44.8587 161.56 44.944C161.88 45.0293 162.232 45.104 162.616 45.168C163 45.2213 163.384 45.296 163.768 45.392C164.152 45.4773 164.499 45.6 164.808 45.76C165.128 45.92 165.384 46.144 165.576 46.432C165.779 46.72 165.88 47.104 165.88 47.584C165.88 48.096 165.731 48.5387 165.432 48.912C165.133 49.2853 164.712 49.5787 164.168 49.792C163.624 49.9947 162.973 50.096 162.216 50.096ZM170.712 50.096C169.858 50.096 169.197 49.8667 168.728 49.408C168.258 48.9493 168.024 48.2933 168.024 47.44V39.664H169.56V47.376C169.56 47.8347 169.672 48.1867 169.896 48.432C170.13 48.6773 170.461 48.8 170.888 48.8C171.368 48.8 171.768 48.6667 172.088 48.4L172.568 49.504C172.333 49.7067 172.05 49.856 171.72 49.952C171.4 50.048 171.064 50.096 170.712 50.096ZM166.584 42.784V41.52H171.992V42.784H166.584ZM177.776 50.096C176.922 50.096 176.165 49.9093 175.504 49.536C174.842 49.1627 174.32 48.6507 173.936 48C173.552 47.3387 173.36 46.592 173.36 45.76C173.36 44.9173 173.552 44.1707 173.936 43.52C174.32 42.8693 174.842 42.3627 175.504 42C176.165 41.6267 176.922 41.44 177.776 41.44C178.618 41.44 179.37 41.6267 180.032 42C180.704 42.3627 181.226 42.8693 181.6 43.52C181.984 44.16 182.176 44.9067 182.176 45.76C182.176 46.6027 181.984 47.3493 181.6 48C181.226 48.6507 180.704 49.1627 180.032 49.536C179.37 49.9093 178.618 50.096 177.776 50.096ZM177.776 48.752C178.32 48.752 178.805 48.6293 179.232 48.384C179.669 48.1387 180.01 47.792 180.256 47.344C180.501 46.8853 180.624 46.3573 180.624 45.76C180.624 45.152 180.501 44.6293 180.256 44.192C180.01 43.744 179.669 43.3973 179.232 43.152C178.805 42.9067 178.32 42.784 177.776 42.784C177.232 42.784 176.746 42.9067 176.32 43.152C175.893 43.3973 175.552 43.744 175.296 44.192C175.04 44.6293 174.912 45.152 174.912 45.76C174.912 46.3573 175.04 46.8853 175.296 47.344C175.552 47.792 175.893 48.1387 176.32 48.384C176.746 48.6293 177.232 48.752 177.776 48.752ZM194.908 41.44C195.59 41.44 196.193 41.5733 196.716 41.84C197.238 42.1067 197.644 42.512 197.932 43.056C198.23 43.6 198.38 44.288 198.38 45.12V50H196.844V45.296C196.844 44.4747 196.652 43.856 196.268 43.44C195.884 43.024 195.345 42.816 194.652 42.816C194.14 42.816 193.692 42.9227 193.308 43.136C192.924 43.3493 192.625 43.664 192.412 44.08C192.209 44.496 192.108 45.0133 192.108 45.632V50H190.572V45.296C190.572 44.4747 190.38 43.856 189.996 43.44C189.622 43.024 189.084 42.816 188.38 42.816C187.878 42.816 187.436 42.9227 187.052 43.136C186.668 43.3493 186.369 43.664 186.156 44.08C185.942 44.496 185.836 45.0133 185.836 45.632V50H184.3V41.52H185.772V43.776L185.532 43.2C185.798 42.6453 186.209 42.2133 186.764 41.904C187.318 41.5947 187.964 41.44 188.7 41.44C189.51 41.44 190.209 41.6427 190.796 42.048C191.382 42.4427 191.766 43.0453 191.948 43.856L191.324 43.6C191.58 42.9493 192.028 42.4267 192.668 42.032C193.308 41.6373 194.054 41.44 194.908 41.44ZM204.982 50.096C204.075 50.096 203.275 49.9093 202.582 49.536C201.899 49.1627 201.366 48.6507 200.982 48C200.609 47.3493 200.422 46.6027 200.422 45.76C200.422 44.9173 200.603 44.1707 200.966 43.52C201.339 42.8693 201.846 42.3627 202.486 42C203.137 41.6267 203.867 41.44 204.678 41.44C205.499 41.44 206.225 41.6213 206.854 41.984C207.483 42.3467 207.974 42.8587 208.326 43.52C208.689 44.1707 208.87 44.9333 208.87 45.808C208.87 45.872 208.865 45.9467 208.854 46.032C208.854 46.1173 208.849 46.1973 208.838 46.272H201.622V45.168H208.038L207.414 45.552C207.425 45.008 207.313 44.5227 207.078 44.096C206.843 43.6693 206.518 43.3387 206.102 43.104C205.697 42.8587 205.222 42.736 204.678 42.736C204.145 42.736 203.67 42.8587 203.254 43.104C202.838 43.3387 202.513 43.6747 202.278 44.112C202.043 44.5387 201.926 45.0293 201.926 45.584V45.84C201.926 46.4053 202.054 46.912 202.31 47.36C202.577 47.7973 202.945 48.1387 203.414 48.384C203.883 48.6293 204.422 48.752 205.03 48.752C205.531 48.752 205.985 48.6667 206.39 48.496C206.806 48.3253 207.169 48.0693 207.478 47.728L208.326 48.72C207.942 49.168 207.462 49.5093 206.886 49.744C206.321 49.9787 205.686 50.096 204.982 50.096ZM211.003 50V41.52H212.475V43.824L212.331 43.248C212.566 42.6613 212.96 42.2133 213.515 41.904C214.07 41.5947 214.752 41.44 215.563 41.44V42.928C215.499 42.9173 215.435 42.912 215.371 42.912C215.318 42.912 215.264 42.912 215.211 42.912C214.39 42.912 213.739 43.1573 213.259 43.648C212.779 44.1387 212.539 44.848 212.539 45.776V50H211.003ZM222.086 50V38.8H227.11C228.401 38.8 229.393 39.0613 230.086 39.584C230.78 40.096 231.126 40.8 231.126 41.696C231.126 42.304 230.988 42.816 230.71 43.232C230.444 43.648 230.081 43.968 229.622 44.192C229.164 44.416 228.668 44.528 228.134 44.528L228.422 44.048C229.062 44.048 229.628 44.16 230.118 44.384C230.609 44.608 230.998 44.9387 231.286 45.376C231.574 45.8027 231.718 46.336 231.718 46.976C231.718 47.936 231.356 48.6827 230.63 49.216C229.916 49.7387 228.849 50 227.43 50H222.086ZM223.686 48.704H227.366C228.252 48.704 228.929 48.5547 229.398 48.256C229.868 47.9573 230.102 47.488 230.102 46.848C230.102 46.1973 229.868 45.7227 229.398 45.424C228.929 45.1253 228.252 44.976 227.366 44.976H223.542V43.68H226.966C227.777 43.68 228.406 43.5307 228.854 43.232C229.302 42.9333 229.526 42.4853 229.526 41.888C229.526 41.2907 229.302 40.8427 228.854 40.544C228.406 40.2453 227.777 40.096 226.966 40.096H223.686V48.704ZM237.604 50.096C236.75 50.096 235.993 49.9093 235.332 49.536C234.67 49.1627 234.148 48.6507 233.764 48C233.38 47.3387 233.188 46.592 233.188 45.76C233.188 44.9173 233.38 44.1707 233.764 43.52C234.148 42.8693 234.67 42.3627 235.332 42C235.993 41.6267 236.75 41.44 237.604 41.44C238.446 41.44 239.198 41.6267 239.86 42C240.532 42.3627 241.054 42.8693 241.428 43.52C241.812 44.16 242.004 44.9067 242.004 45.76C242.004 46.6027 241.812 47.3493 241.428 48C241.054 48.6507 240.532 49.1627 239.86 49.536C239.198 49.9093 238.446 50.096 237.604 50.096ZM237.604 48.752C238.148 48.752 238.633 48.6293 239.06 48.384C239.497 48.1387 239.838 47.792 240.084 47.344C240.329 46.8853 240.452 46.3573 240.452 45.76C240.452 45.152 240.329 44.6293 240.084 44.192C239.838 43.744 239.497 43.3973 239.06 43.152C238.633 42.9067 238.148 42.784 237.604 42.784C237.06 42.784 236.574 42.9067 236.148 43.152C235.721 43.3973 235.38 43.744 235.124 44.192C234.868 44.6293 234.74 45.152 234.74 45.76C234.74 46.3573 234.868 46.8853 235.124 47.344C235.38 47.792 235.721 48.1387 236.148 48.384C236.574 48.6293 237.06 48.752 237.604 48.752ZM247.76 50.096C246.907 50.096 246.149 49.9093 245.488 49.536C244.827 49.1627 244.304 48.6507 243.92 48C243.536 47.3387 243.344 46.592 243.344 45.76C243.344 44.9173 243.536 44.1707 243.92 43.52C244.304 42.8693 244.827 42.3627 245.488 42C246.149 41.6267 246.907 41.44 247.76 41.44C248.603 41.44 249.355 41.6267 250.016 42C250.688 42.3627 251.211 42.8693 251.584 43.52C251.968 44.16 252.16 44.9067 252.16 45.76C252.16 46.6027 251.968 47.3493 251.584 48C251.211 48.6507 250.688 49.1627 250.016 49.536C249.355 49.9093 248.603 50.096 247.76 50.096ZM247.76 48.752C248.304 48.752 248.789 48.6293 249.216 48.384C249.653 48.1387 249.995 47.792 250.24 47.344C250.485 46.8853 250.608 46.3573 250.608 45.76C250.608 45.152 250.485 44.6293 250.24 44.192C249.995 43.744 249.653 43.3973 249.216 43.152C248.789 42.9067 248.304 42.784 247.76 42.784C247.216 42.784 246.731 42.9067 246.304 43.152C245.877 43.3973 245.536 43.744 245.28 44.192C245.024 44.6293 244.896 45.152 244.896 45.76C244.896 46.3573 245.024 46.8853 245.28 47.344C245.536 47.792 245.877 48.1387 246.304 48.384C246.731 48.6293 247.216 48.752 247.76 48.752ZM255.532 47.952L255.564 45.984L260.444 41.52H262.3L258.556 45.2L257.724 45.904L255.532 47.952ZM254.284 50V38.128H255.82V50H254.284ZM260.764 50L257.436 45.872L258.428 44.64L262.652 50H260.764ZM264.144 50V41.52H265.68V50H264.144ZM264.912 39.888C264.613 39.888 264.362 39.792 264.16 39.6C263.968 39.408 263.872 39.1733 263.872 38.896C263.872 38.608 263.968 38.368 264.16 38.176C264.362 37.984 264.613 37.888 264.912 37.888C265.21 37.888 265.456 37.984 265.648 38.176C265.85 38.3573 265.952 38.5867 265.952 38.864C265.952 39.152 265.856 39.3973 265.664 39.6C265.472 39.792 265.221 39.888 264.912 39.888ZM273.14 41.44C273.834 41.44 274.442 41.5733 274.964 41.84C275.498 42.1067 275.914 42.512 276.212 43.056C276.511 43.6 276.66 44.288 276.66 45.12V50H275.124V45.296C275.124 44.4747 274.922 43.856 274.516 43.44C274.122 43.024 273.562 42.816 272.836 42.816C272.292 42.816 271.818 42.9227 271.412 43.136C271.007 43.3493 270.692 43.664 270.468 44.08C270.255 44.496 270.148 45.0133 270.148 45.632V50H268.612V41.52H270.084V43.808L269.844 43.2C270.122 42.6453 270.548 42.2133 271.124 41.904C271.7 41.5947 272.372 41.44 273.14 41.44ZM283.215 53.2C282.436 53.2 281.679 53.088 280.943 52.864C280.218 52.6507 279.626 52.3413 279.167 51.936L279.903 50.752C280.298 51.0933 280.783 51.36 281.359 51.552C281.935 51.7547 282.538 51.856 283.167 51.856C284.17 51.856 284.906 51.6213 285.375 51.152C285.844 50.6827 286.079 49.968 286.079 49.008V47.216L286.239 45.536L286.159 43.84V41.52H287.615V48.848C287.615 50.3413 287.242 51.44 286.495 52.144C285.748 52.848 284.655 53.2 283.215 53.2ZM283.023 49.648C282.202 49.648 281.466 49.4773 280.815 49.136C280.175 48.784 279.663 48.2987 279.279 47.68C278.906 47.0613 278.719 46.3467 278.719 45.536C278.719 44.7147 278.906 44 279.279 43.392C279.663 42.7733 280.175 42.2933 280.815 41.952C281.466 41.6107 282.202 41.44 283.023 41.44C283.748 41.44 284.41 41.5893 285.007 41.888C285.604 42.176 286.079 42.624 286.431 43.232C286.794 43.84 286.975 44.608 286.975 45.536C286.975 46.4533 286.794 47.216 286.431 47.824C286.079 48.432 285.604 48.8907 285.007 49.2C284.41 49.4987 283.748 49.648 283.023 49.648ZM283.199 48.304C283.764 48.304 284.266 48.1867 284.703 47.952C285.14 47.7173 285.482 47.392 285.727 46.976C285.983 46.56 286.111 46.08 286.111 45.536C286.111 44.992 285.983 44.512 285.727 44.096C285.482 43.68 285.14 43.36 284.703 43.136C284.266 42.9013 283.764 42.784 283.199 42.784C282.634 42.784 282.127 42.9013 281.679 43.136C281.242 43.36 280.895 43.68 280.639 44.096C280.394 44.512 280.271 44.992 280.271 45.536C280.271 46.08 280.394 46.56 280.639 46.976C280.895 47.392 281.242 47.7173 281.679 47.952C282.127 48.1867 282.634 48.304 283.199 48.304Z" fill="#071C2C"/>
</svg>
