<svg width="327" height="88" viewBox="0 0 327 88" fill="none" xmlns="http://www.w3.org/2000/svg">
<rect x="0.666504" width="326" height="88" rx="8" fill="#E9FEFF"/>
<rect x="16.6665" y="12" width="64" height="64" rx="32" fill="white"/>
<path d="M61.4577 34.3994H36.6764C36.477 35.2325 36.0508 35.9941 35.4451 36.5999C34.8394 37.2056 34.0777 37.6318 33.2446 37.8312V50.1676C34.0777 50.367 34.8394 50.7932 35.4451 51.399C36.0508 52.0047 36.477 52.7663 36.6764 53.5994H61.4577C61.6571 52.7663 62.0832 52.0047 62.689 51.399C63.2947 50.7932 64.0563 50.367 64.8894 50.1676V37.8312C64.0563 37.6318 63.2947 37.2056 62.689 36.5999C62.0832 35.9941 61.6571 35.2325 61.4577 34.3994ZM40.5337 45.5994C40.2172 45.5994 39.9079 45.5056 39.6448 45.3298C39.3817 45.154 39.1766 44.9041 39.0555 44.6117C38.9344 44.3193 38.9027 43.9976 38.9644 43.6873C39.0262 43.3769 39.1786 43.0918 39.4023 42.868C39.6261 42.6443 39.9112 42.4919 40.2216 42.4302C40.5319 42.3684 40.8536 42.4001 41.146 42.5212C41.4384 42.6423 41.6882 42.8474 41.864 43.1105C42.0399 43.3736 42.1337 43.683 42.1337 43.9994C42.1337 44.4238 41.9651 44.8307 41.665 45.1308C41.365 45.4308 40.958 45.5994 40.5337 45.5994ZM57.6004 45.5994C57.2839 45.5994 56.9746 45.5056 56.7115 45.3298C56.4483 45.154 56.2433 44.9041 56.1222 44.6117C56.0011 44.3193 55.9694 43.9976 56.0311 43.6873C56.0928 43.3769 56.2452 43.0918 56.469 42.868C56.6928 42.6443 56.9778 42.4919 57.2882 42.4302C57.5986 42.3684 57.9203 42.4001 58.2127 42.5212C58.505 42.6423 58.7549 42.8474 58.9307 43.1105C59.1065 43.3736 59.2004 43.683 59.2004 43.9994C59.2003 44.4238 59.0318 44.8307 58.7317 45.1308C58.4317 45.4308 58.0247 45.5994 57.6004 45.5994Z" fill="#16BDCA"/>
<path d="M46.2822 40.8883C46.3033 41.2036 46.4118 41.5068 46.5956 41.7638C46.7793 42.0209 47.0311 42.2216 47.3226 42.3436V39.4336C47.0311 39.5555 46.7794 39.7562 46.5957 40.0131C46.4119 40.2701 46.3034 40.5731 46.2822 40.8883Z" fill="#16BDCA"/>
<path d="M68.5713 28H28.7617C28.2062 28.0006 27.6736 28.2215 27.2808 28.6143C26.888 29.0071 26.6671 29.5397 26.6665 30.0952V57.3333C26.6671 57.8889 26.888 58.4215 27.2808 58.8143C27.6736 59.2071 28.2062 59.428 28.7617 59.4286H68.5713C69.1268 59.428 69.6594 59.2071 70.0522 58.8143C70.445 58.4215 70.666 57.8889 70.6665 57.3333V30.0952C70.666 29.5397 70.445 29.0071 70.0522 28.6143C69.6594 28.2215 69.1268 28.0006 68.5713 28ZM66.3016 50.6982C66.3016 50.9761 66.1912 51.2425 65.9947 51.439C65.7983 51.6355 65.5318 51.7458 65.254 51.7459C64.6059 51.7466 63.9845 52.0044 63.5262 52.4627C63.0679 52.921 62.8101 53.5424 62.8094 54.1905C62.8094 54.4683 62.699 54.7348 62.5025 54.9313C62.3061 55.1277 62.0396 55.2381 61.7617 55.2381H35.5713C35.2934 55.2381 35.027 55.1277 34.8305 54.9313C34.634 54.7348 34.5236 54.4683 34.5236 54.1905C34.5229 53.5424 34.2651 52.921 33.8068 52.4627C33.3485 52.0044 32.7271 51.7466 32.079 51.7459C31.8012 51.7458 31.5347 51.6355 31.3383 51.439C31.1418 51.2425 31.0314 50.9761 31.0314 50.6982V36.7303C31.0314 36.4525 31.1418 36.186 31.3383 35.9896C31.5347 35.7931 31.8012 35.6827 32.079 35.6827C32.7271 35.682 33.3485 35.4242 33.8068 34.9659C34.2651 34.5076 34.5229 33.8862 34.5236 33.2381C34.5236 32.9602 34.634 32.6938 34.8305 32.4973C35.027 32.3008 35.2934 32.1905 35.5713 32.1905H61.7617C62.0396 32.1905 62.3061 32.3008 62.5025 32.4973C62.699 32.6938 62.8094 32.9602 62.8094 33.2381C62.8101 33.8862 63.0679 34.5076 63.5262 34.9659C63.9845 35.4242 64.6059 35.682 65.254 35.6827C65.5318 35.6827 65.7983 35.7931 65.9947 35.9896C66.1912 36.186 66.3016 36.4525 66.3016 36.7303V50.6982Z" fill="#16BDCA"/>
<path d="M51.0506 47.1115C51.0295 46.7962 50.921 46.4931 50.7373 46.236C50.5535 45.979 50.3017 45.7782 50.0103 45.6562V48.5662C50.3017 48.4443 50.5534 48.2437 50.7372 47.9867C50.9209 47.7298 51.0295 47.4267 51.0506 47.1115Z" fill="#16BDCA"/>
<path d="M45.2999 44.8002V43.516H47.8386C48.8541 43.516 49.5908 43.3069 50.0487 42.8888C50.5067 42.4706 50.7357 41.938 50.7357 41.2909C50.7357 40.5144 50.4868 39.9021 49.989 39.4541C49.4912 39.0061 48.7346 38.7871 47.7191 38.797H44.165V37.9458H53.7373V38.797H49.8247L50.2877 38.3789C50.9945 38.6477 51.4923 39.0459 51.781 39.5736C52.0797 40.0913 52.229 40.6737 52.229 41.3208C52.229 42.0475 52.0548 42.6747 51.7063 43.2024C51.3579 43.7201 50.8601 44.1183 50.213 44.397C49.5758 44.6658 48.7993 44.8002 47.8834 44.8002H45.2999ZM50.7954 48.3992L48.0626 44.2477H49.6754L52.4231 48.3992H50.7954ZM44.165 40.8728V40.0216H53.7373V40.8728H44.165Z" fill="white"/>
<path d="M92.3465 50V38.8H93.9465V50H92.3465ZM101.604 41.44C102.297 41.44 102.905 41.5733 103.428 41.84C103.961 42.1067 104.377 42.512 104.676 43.056C104.974 43.6 105.124 44.288 105.124 45.12V50H103.588V45.296C103.588 44.4747 103.385 43.856 102.98 43.44C102.585 43.024 102.025 42.816 101.3 42.816C100.756 42.816 100.281 42.9227 99.8756 43.136C99.4703 43.3493 99.1556 43.664 98.9316 44.08C98.7183 44.496 98.6116 45.0133 98.6116 45.632V50H97.0756V41.52H98.5476V43.808L98.3076 43.2C98.585 42.6453 99.0116 42.2133 99.5876 41.904C100.164 41.5947 100.836 41.44 101.604 41.44ZM110.398 50.096C109.694 50.096 109.022 50 108.382 49.808C107.753 49.616 107.257 49.3813 106.894 49.104L107.534 47.888C107.897 48.1333 108.345 48.3413 108.878 48.512C109.412 48.6827 109.956 48.768 110.51 48.768C111.225 48.768 111.737 48.6667 112.046 48.464C112.366 48.2613 112.526 47.9787 112.526 47.616C112.526 47.3493 112.43 47.1413 112.238 46.992C112.046 46.8427 111.79 46.7307 111.47 46.656C111.161 46.5813 110.814 46.5173 110.43 46.464C110.046 46.4 109.662 46.3253 109.278 46.24C108.894 46.144 108.542 46.016 108.222 45.856C107.902 45.6853 107.646 45.456 107.454 45.168C107.262 44.8693 107.166 44.4747 107.166 43.984C107.166 43.472 107.31 43.024 107.598 42.64C107.886 42.256 108.292 41.9627 108.814 41.76C109.348 41.5467 109.977 41.44 110.702 41.44C111.257 41.44 111.817 41.5093 112.382 41.648C112.958 41.776 113.428 41.9627 113.79 42.208L113.134 43.424C112.75 43.168 112.35 42.992 111.934 42.896C111.518 42.8 111.102 42.752 110.686 42.752C110.014 42.752 109.513 42.864 109.182 43.088C108.852 43.3013 108.686 43.5787 108.686 43.92C108.686 44.208 108.782 44.432 108.974 44.592C109.177 44.7413 109.433 44.8587 109.742 44.944C110.062 45.0293 110.414 45.104 110.798 45.168C111.182 45.2213 111.566 45.296 111.95 45.392C112.334 45.4773 112.681 45.6 112.99 45.76C113.31 45.92 113.566 46.144 113.758 46.432C113.961 46.72 114.062 47.104 114.062 47.584C114.062 48.096 113.913 48.5387 113.614 48.912C113.316 49.2853 112.894 49.5787 112.35 49.792C111.806 49.9947 111.156 50.096 110.398 50.096ZM118.894 50.096C118.041 50.096 117.379 49.8667 116.91 49.408C116.441 48.9493 116.206 48.2933 116.206 47.44V39.664H117.742V47.376C117.742 47.8347 117.854 48.1867 118.078 48.432C118.313 48.6773 118.643 48.8 119.07 48.8C119.55 48.8 119.95 48.6667 120.27 48.4L120.75 49.504C120.515 49.7067 120.233 49.856 119.902 49.952C119.582 50.048 119.246 50.096 118.894 50.096ZM114.766 42.784V41.52H120.174V42.784H114.766ZM127.871 50V48.208L127.791 47.872V44.816C127.791 44.1653 127.599 43.664 127.215 43.312C126.842 42.9493 126.276 42.768 125.519 42.768C125.018 42.768 124.527 42.8533 124.047 43.024C123.567 43.184 123.162 43.4027 122.831 43.68L122.191 42.528C122.628 42.176 123.151 41.9093 123.759 41.728C124.378 41.536 125.023 41.44 125.695 41.44C126.858 41.44 127.754 41.7227 128.383 42.288C129.012 42.8533 129.327 43.7173 129.327 44.88V50H127.871ZM125.087 50.096C124.458 50.096 123.903 49.9893 123.423 49.776C122.954 49.5627 122.591 49.2693 122.335 48.896C122.079 48.512 121.951 48.08 121.951 47.6C121.951 47.1413 122.058 46.7253 122.271 46.352C122.495 45.9787 122.852 45.68 123.343 45.456C123.844 45.232 124.516 45.12 125.359 45.12H128.047V46.224H125.423C124.655 46.224 124.138 46.352 123.871 46.608C123.604 46.864 123.471 47.1733 123.471 47.536C123.471 47.952 123.636 48.288 123.967 48.544C124.298 48.7893 124.756 48.912 125.343 48.912C125.919 48.912 126.42 48.784 126.847 48.528C127.284 48.272 127.599 47.8987 127.791 47.408L128.095 48.464C127.892 48.9653 127.535 49.3653 127.023 49.664C126.511 49.952 125.866 50.096 125.087 50.096ZM136.697 41.44C137.391 41.44 137.999 41.5733 138.521 41.84C139.055 42.1067 139.471 42.512 139.769 43.056C140.068 43.6 140.217 44.288 140.217 45.12V50H138.681V45.296C138.681 44.4747 138.479 43.856 138.073 43.44C137.679 43.024 137.119 42.816 136.393 42.816C135.849 42.816 135.375 42.9227 134.969 43.136C134.564 43.3493 134.249 43.664 134.025 44.08C133.812 44.496 133.705 45.0133 133.705 45.632V50H132.169V41.52H133.641V43.808L133.401 43.2C133.679 42.6453 134.105 42.2133 134.681 41.904C135.257 41.5947 135.929 41.44 136.697 41.44ZM145.972 50.096C145.119 50.096 144.457 49.8667 143.988 49.408C143.519 48.9493 143.284 48.2933 143.284 47.44V39.664H144.82V47.376C144.82 47.8347 144.932 48.1867 145.156 48.432C145.391 48.6773 145.721 48.8 146.148 48.8C146.628 48.8 147.028 48.6667 147.348 48.4L147.828 49.504C147.593 49.7067 147.311 49.856 146.98 49.952C146.66 50.048 146.324 50.096 145.972 50.096ZM141.844 42.784V41.52H147.252V42.784H141.844ZM154.206 50V38.8H158.574C159.555 38.8 160.393 38.9547 161.086 39.264C161.779 39.5733 162.313 40.0213 162.686 40.608C163.059 41.1947 163.246 41.8933 163.246 42.704C163.246 43.5147 163.059 44.2133 162.686 44.8C162.313 45.376 161.779 45.8187 161.086 46.128C160.393 46.4373 159.555 46.592 158.574 46.592H155.086L155.806 45.856V50H154.206ZM161.694 50L158.846 45.936H160.558L163.438 50H161.694ZM155.806 46.016L155.086 45.232H158.526C159.55 45.232 160.323 45.0133 160.846 44.576C161.379 44.128 161.646 43.504 161.646 42.704C161.646 41.904 161.379 41.2853 160.846 40.848C160.323 40.4107 159.55 40.192 158.526 40.192H155.086L155.806 39.392V46.016ZM169.383 50.096C168.476 50.096 167.676 49.9093 166.983 49.536C166.3 49.1627 165.767 48.6507 165.383 48C165.01 47.3493 164.823 46.6027 164.823 45.76C164.823 44.9173 165.004 44.1707 165.367 43.52C165.74 42.8693 166.247 42.3627 166.887 42C167.538 41.6267 168.268 41.44 169.079 41.44C169.9 41.44 170.626 41.6213 171.255 41.984C171.884 42.3467 172.375 42.8587 172.727 43.52C173.09 44.1707 173.271 44.9333 173.271 45.808C173.271 45.872 173.266 45.9467 173.255 46.032C173.255 46.1173 173.25 46.1973 173.239 46.272H166.023V45.168H172.439L171.815 45.552C171.826 45.008 171.714 44.5227 171.479 44.096C171.244 43.6693 170.919 43.3387 170.503 43.104C170.098 42.8587 169.623 42.736 169.079 42.736C168.546 42.736 168.071 42.8587 167.655 43.104C167.239 43.3387 166.914 43.6747 166.679 44.112C166.444 44.5387 166.327 45.0293 166.327 45.584V45.84C166.327 46.4053 166.455 46.912 166.711 47.36C166.978 47.7973 167.346 48.1387 167.815 48.384C168.284 48.6293 168.823 48.752 169.431 48.752C169.932 48.752 170.386 48.6667 170.791 48.496C171.207 48.3253 171.57 48.0693 171.879 47.728L172.727 48.72C172.343 49.168 171.863 49.5093 171.287 49.744C170.722 49.9787 170.087 50.096 169.383 50.096ZM175.628 50V40.768C175.628 39.936 175.868 39.2747 176.348 38.784C176.838 38.2827 177.532 38.032 178.428 38.032C178.758 38.032 179.073 38.0747 179.372 38.16C179.681 38.2347 179.942 38.3573 180.156 38.528L179.692 39.696C179.532 39.568 179.35 39.472 179.148 39.408C178.945 39.3333 178.732 39.296 178.508 39.296C178.06 39.296 177.718 39.424 177.484 39.68C177.249 39.9253 177.132 40.2933 177.132 40.784V41.92L177.164 42.624V50H175.628ZM174.188 42.784V41.52H179.596V42.784H174.188ZM184.612 50.096C183.887 50.096 183.247 49.9627 182.692 49.696C182.148 49.4293 181.722 49.024 181.412 48.48C181.114 47.9253 180.964 47.232 180.964 46.4V41.52H182.5V46.224C182.5 47.056 182.698 47.68 183.092 48.096C183.498 48.512 184.063 48.72 184.788 48.72C185.322 48.72 185.786 48.6133 186.18 48.4C186.575 48.176 186.879 47.856 187.092 47.44C187.306 47.0133 187.412 46.5013 187.412 45.904V41.52H188.948V50H187.492V47.712L187.732 48.32C187.455 48.8853 187.039 49.3227 186.484 49.632C185.93 49.9413 185.306 50.096 184.612 50.096ZM196.401 41.44C197.094 41.44 197.702 41.5733 198.225 41.84C198.758 42.1067 199.174 42.512 199.473 43.056C199.771 43.6 199.921 44.288 199.921 45.12V50H198.385V45.296C198.385 44.4747 198.182 43.856 197.777 43.44C197.382 43.024 196.822 42.816 196.097 42.816C195.553 42.816 195.078 42.9227 194.673 43.136C194.267 43.3493 193.953 43.664 193.729 44.08C193.515 44.496 193.409 45.0133 193.409 45.632V50H191.873V41.52H193.345V43.808L193.105 43.2C193.382 42.6453 193.809 42.2133 194.385 41.904C194.961 41.5947 195.633 41.44 196.401 41.44ZM206.267 50.096C205.446 50.096 204.71 49.9147 204.059 49.552C203.419 49.1893 202.912 48.6827 202.539 48.032C202.166 47.3813 201.979 46.624 201.979 45.76C201.979 44.896 202.166 44.144 202.539 43.504C202.912 42.8533 203.419 42.3467 204.059 41.984C204.71 41.6213 205.446 41.44 206.267 41.44C206.982 41.44 207.627 41.6 208.203 41.92C208.779 42.24 209.238 42.72 209.579 43.36C209.931 44 210.107 44.8 210.107 45.76C210.107 46.72 209.936 47.52 209.595 48.16C209.264 48.8 208.811 49.2853 208.235 49.616C207.659 49.936 207.003 50.096 206.267 50.096ZM206.395 48.752C206.928 48.752 207.408 48.6293 207.835 48.384C208.272 48.1387 208.614 47.792 208.859 47.344C209.115 46.8853 209.243 46.3573 209.243 45.76C209.243 45.152 209.115 44.6293 208.859 44.192C208.614 43.744 208.272 43.3973 207.835 43.152C207.408 42.9067 206.928 42.784 206.395 42.784C205.851 42.784 205.366 42.9067 204.939 43.152C204.512 43.3973 204.171 43.744 203.915 44.192C203.659 44.6293 203.531 45.152 203.531 45.76C203.531 46.3573 203.659 46.8853 203.915 47.344C204.171 47.792 204.512 48.1387 204.939 48.384C205.366 48.6293 205.851 48.752 206.395 48.752ZM209.291 50V47.712L209.387 45.744L209.227 43.776V38.128H210.763V50H209.291Z" fill="#071C2C"/>
</svg>
