<svg width="311" height="88" viewBox="0 0 311 88" fill="none" xmlns="http://www.w3.org/2000/svg">
<rect x="0.333496" width="310" height="88" rx="8" fill="#FFF4FA"/>
<rect x="16.3335" y="12" width="64" height="64" rx="32" fill="white"/>
<path d="M66.4103 38.0101C66.413 37.5822 66.5206 37.1616 66.7234 36.7849C66.9263 36.4082 67.2184 36.0869 67.5741 35.8492C67.6918 35.7707 67.7907 35.6671 67.8635 35.5457C67.9364 35.4244 67.9814 35.2885 67.9953 35.1476C68.0093 35.0068 67.9918 34.8647 67.9442 34.7314C67.8965 34.5982 67.8199 34.4772 67.7198 34.3771L57.6229 24.2802C57.5228 24.1801 57.4017 24.1035 57.2684 24.0558C57.1351 24.0082 56.9929 23.9907 56.852 24.0047C56.7111 24.0187 56.5751 24.0637 56.4538 24.1367C56.3324 24.2096 56.2288 24.3085 56.1503 24.4264C55.9163 24.7838 55.5969 25.0772 55.2211 25.2803C54.8452 25.4834 54.4247 25.5898 53.9975 25.5897C53.5703 25.5897 53.1498 25.4832 52.774 25.2801C52.3982 25.0769 52.0789 24.7833 51.8449 24.4259C51.7664 24.3082 51.6628 24.2093 51.5415 24.1365C51.4202 24.0636 51.2842 24.0186 51.1434 24.0047C51.0026 23.9908 50.8605 24.0082 50.7272 24.0559C50.594 24.1035 50.473 24.1801 50.373 24.2802L40.5025 34.1506L42.0264 35.6745C42.2057 35.8538 42.3065 36.0971 42.3065 36.3507C42.3065 36.6043 42.2057 36.8476 42.0264 37.0269C41.847 37.2063 41.6038 37.3071 41.3501 37.3071C41.0965 37.3071 40.8532 37.2063 40.6739 37.0269L39.15 35.5031L28.2802 46.3729C28.1801 46.4729 28.1035 46.5939 28.0558 46.7272C28.0082 46.8604 27.9907 47.0026 28.0047 47.1434C28.0186 47.2842 28.0636 47.4202 28.1365 47.5415C28.2093 47.6628 28.3082 47.7664 28.4259 47.8449C28.7834 48.079 29.077 48.3984 29.2802 48.7743C29.4833 49.1502 29.5897 49.5708 29.5897 49.9981C29.5897 50.4254 29.4833 50.846 29.2802 51.2219C29.077 51.5978 28.7834 51.9172 28.4259 52.1513C28.3082 52.2298 28.2093 52.3334 28.1365 52.4547C28.0636 52.576 28.0186 52.712 28.0047 52.8528C27.9907 52.9936 28.0082 53.1358 28.0558 53.269C28.1035 53.4023 28.1801 53.5233 28.2802 53.6233L38.3771 63.7198C38.4772 63.8199 38.5982 63.8965 38.7315 63.9442C38.8648 63.9918 39.0069 64.0093 39.1478 63.9953C39.2886 63.9813 39.4246 63.9362 39.5459 63.8633C39.6672 63.7904 39.7708 63.6914 39.8492 63.5736C40.0834 63.2163 40.4028 62.923 40.7787 62.72C41.1546 62.517 41.5751 62.4107 42.0023 62.4107C42.4295 62.4108 42.8499 62.5171 43.2257 62.7202C43.6016 62.9233 43.9209 63.2168 44.1551 63.5741C44.2335 63.6919 44.3371 63.7908 44.4584 63.8636C44.5797 63.9365 44.7157 63.9815 44.8565 63.9953C44.8879 63.9985 44.9194 64.0001 44.9509 64C45.2045 63.9999 45.4477 63.8991 45.6271 63.7198L56.4971 52.8497L54.9735 51.3261C54.8847 51.2373 54.8143 51.1318 54.7662 51.0158C54.7181 50.8998 54.6934 50.7754 54.6934 50.6498C54.6934 50.5242 54.7181 50.3999 54.7662 50.2838C54.8143 50.1678 54.8847 50.0624 54.9735 49.9736C55.0623 49.8848 55.1677 49.8143 55.2838 49.7663C55.3998 49.7182 55.5242 49.6935 55.6498 49.6935C55.7753 49.6935 55.8997 49.7182 56.0157 49.7663C56.1318 49.8143 56.2372 49.8848 56.326 49.9736L57.8496 51.4972L67.7198 41.6275C67.8198 41.5275 67.8964 41.4065 67.9441 41.2733C67.9917 41.1401 68.0092 40.998 67.9953 40.8572C67.9814 40.7164 67.9365 40.5804 67.8637 40.4591C67.791 40.3378 67.6922 40.2341 67.5746 40.1555C67.2205 39.9196 66.9295 39.6009 66.7266 39.2271C66.5237 38.8532 66.4151 38.4354 66.4103 38.0101ZM38.5765 51.9239C38.3294 52.171 38.0145 52.3393 37.6718 52.4075C37.329 52.4757 36.9737 52.4407 36.6508 52.3069C36.3279 52.1732 36.0519 51.9467 35.8577 51.6561C35.6636 51.3655 35.5599 51.0238 35.5599 50.6744C35.5599 50.3249 35.6636 49.9832 35.8577 49.6926C36.0519 49.402 36.3279 49.1755 36.6508 49.0418C36.9737 48.908 37.329 48.873 37.6718 48.9412C38.0145 49.0094 38.3294 49.1777 38.5765 49.4248C38.7406 49.5889 38.8708 49.7837 38.9597 49.9981C39.0485 50.2125 39.0942 50.4423 39.0942 50.6744C39.0942 50.9064 39.0485 51.1362 38.9597 51.3506C38.8708 51.565 38.7406 51.7598 38.5765 51.9239ZM42.2821 55.6726C42.2821 55.9263 42.1813 56.1695 42.0019 56.3489C41.8226 56.5283 41.5793 56.6291 41.3256 56.6291C41.072 56.6291 40.8287 56.5283 40.6493 56.3489C40.4699 56.1695 40.3692 55.9263 40.3692 55.6726V45.6761C40.3692 45.4224 40.4699 45.1792 40.6493 44.9998C40.8287 44.8204 41.072 44.7197 41.3256 44.7197C41.5793 44.7197 41.8226 44.8204 42.0019 44.9998C42.1813 45.1792 42.2821 45.4224 42.2821 45.6761V55.6726ZM46.5737 51.9239C46.3266 52.171 46.0117 52.3393 45.669 52.4075C45.3262 52.4757 44.9709 52.4407 44.648 52.3069C44.3251 52.1732 44.0491 51.9467 43.855 51.6561C43.6608 51.3655 43.5571 51.0238 43.5571 50.6744C43.5571 50.3249 43.6608 49.9832 43.855 49.6926C44.0491 49.402 44.3251 49.1755 44.648 49.0418C44.9709 48.908 45.3262 48.873 45.669 48.9412C46.0117 49.0094 46.3266 49.1777 46.5737 49.4248C46.7379 49.5889 46.868 49.7837 46.9569 49.9981C47.0457 50.2125 47.0914 50.4423 47.0914 50.6744C47.0914 50.9064 47.0457 51.1362 46.9569 51.3506C46.868 51.565 46.7379 51.7598 46.5737 51.9239ZM47.4592 42.4598C47.3704 42.5486 47.265 42.6191 47.149 42.6672C47.0329 42.7152 46.9086 42.74 46.783 42.74C46.6574 42.74 46.533 42.7152 46.417 42.6672C46.3009 42.6191 46.1955 42.5486 46.1067 42.4598L44.1074 40.4605C44.0186 40.3717 43.9482 40.2663 43.9001 40.1502C43.852 40.0342 43.8273 39.9098 43.8273 39.7842C43.8273 39.6587 43.852 39.5343 43.9001 39.4183C43.9482 39.3022 44.0186 39.1968 44.1074 39.108C44.1962 39.0192 44.3016 38.9488 44.4177 38.9007C44.5337 38.8526 44.6581 38.8279 44.7837 38.8279C44.9092 38.8279 45.0336 38.8526 45.1496 38.9007C45.2657 38.9488 45.3711 39.0192 45.4599 39.108L47.4592 41.1073C47.548 41.1961 47.6185 41.3015 47.6666 41.4175C47.7146 41.5336 47.7394 41.6579 47.7394 41.7835C47.7394 41.9091 47.7146 42.0335 47.6666 42.1495C47.6185 42.2655 47.548 42.371 47.4592 42.4598ZM48.3236 35.6796C48.2348 35.5908 48.1643 35.4854 48.1163 35.3694C48.0682 35.2533 48.0434 35.129 48.0434 35.0034C48.0434 34.8778 48.0682 34.7534 48.1163 34.6374C48.1643 34.5213 48.2348 34.4159 48.3236 34.3271L51.3224 31.328C51.5017 31.1486 51.745 31.0478 51.9986 31.0478C52.2522 31.0478 52.4955 31.1486 52.6748 31.328C52.8542 31.5073 52.955 31.7506 52.955 32.0042C52.955 32.2578 52.8542 32.5011 52.6748 32.6804L49.6761 35.6796C49.5873 35.7685 49.4819 35.8389 49.3659 35.887C49.2498 35.9351 49.1255 35.9598 48.9999 35.9598C48.8743 35.9598 48.7499 35.9351 48.6339 35.887C48.5179 35.8389 48.4124 35.7685 48.3236 35.6796ZM52.892 47.8925C52.8032 47.9814 52.6978 48.0518 52.5818 48.0999C52.4657 48.148 52.3414 48.1728 52.2158 48.1728C52.0902 48.1728 51.9658 48.148 51.8498 48.0999C51.7337 48.0518 51.6283 47.9814 51.5395 47.8925L49.5402 45.8932C49.4514 45.8044 49.381 45.699 49.3329 45.583C49.2848 45.467 49.2601 45.3426 49.2601 45.217C49.2601 45.0914 49.2848 44.9671 49.3329 44.851C49.381 44.735 49.4514 44.6296 49.5402 44.5408C49.629 44.452 49.7345 44.3815 49.8505 44.3335C49.9665 44.2854 50.0909 44.2607 50.2165 44.2607C50.3421 44.2607 50.4664 44.2854 50.5824 44.3335C50.6985 44.3815 50.8039 44.452 50.8927 44.5408L52.892 46.5401C52.9808 46.6289 53.0513 46.7343 53.0994 46.8503C53.1475 46.9663 53.1722 47.0907 53.1722 47.2163C53.1722 47.3419 53.1475 47.4663 53.0994 47.5823C53.0513 47.6983 52.9808 47.8038 52.892 47.8925ZM53.6747 39.6782C53.4954 39.8575 53.2521 39.9583 52.9985 39.9583C52.7448 39.9583 52.5016 39.8575 52.3222 39.6782C52.1429 39.4988 52.0421 39.2556 52.0421 39.0019C52.0421 38.7483 52.1429 38.505 52.3222 38.3257L55.3209 35.3265C55.5003 35.1472 55.7435 35.0464 55.9972 35.0464C56.2508 35.0464 56.4941 35.1472 56.6734 35.3265C56.8528 35.5059 56.9535 35.7491 56.9535 36.0027C56.9535 36.2564 56.8528 36.4996 56.6734 36.679L53.6747 39.6782ZM60.672 40.6776L57.6733 43.6768C57.5845 43.7656 57.4791 43.836 57.363 43.8841C57.247 43.9322 57.1227 43.9569 56.9971 43.9569C56.8715 43.9569 56.7471 43.9322 56.6311 43.8841C56.5151 43.836 56.4096 43.7656 56.3208 43.6768C56.232 43.588 56.1616 43.4826 56.1135 43.3665C56.0655 43.2505 56.0407 43.1261 56.0407 43.0005C56.0407 42.875 56.0655 42.7506 56.1135 42.6346C56.1616 42.5185 56.232 42.4131 56.3208 42.3243L59.3196 39.3252C59.4995 39.1485 59.7419 39.05 59.994 39.0512C60.2462 39.0523 60.4876 39.153 60.6659 39.3313C60.8442 39.5096 60.9449 39.751 60.946 40.0032C60.9472 40.2553 60.8487 40.4977 60.672 40.6776Z" fill="#E62C80"/>
<path d="M97.0695 50.128C96.2162 50.128 95.4215 49.984 94.6855 49.696C93.9602 49.408 93.3308 49.008 92.7975 48.496C92.2642 47.9733 91.8482 47.3653 91.5495 46.672C91.2508 45.9787 91.1015 45.2213 91.1015 44.4C91.1015 43.5787 91.2508 42.8213 91.5495 42.128C91.8482 41.4347 92.2642 40.832 92.7975 40.32C93.3308 39.7973 93.9602 39.392 94.6855 39.104C95.4108 38.816 96.2055 38.672 97.0695 38.672C97.9228 38.672 98.7068 38.816 99.4215 39.104C100.147 39.3813 100.776 39.7813 101.309 40.304C101.853 40.816 102.269 41.4187 102.557 42.112C102.856 42.8053 103.005 43.568 103.005 44.4C103.005 45.232 102.856 45.9947 102.557 46.688C102.269 47.3813 101.853 47.9893 101.309 48.512C100.776 49.024 100.147 49.424 99.4215 49.712C98.7068 49.9893 97.9228 50.128 97.0695 50.128ZM97.0695 48.704C97.6882 48.704 98.2588 48.5973 98.7815 48.384C99.3148 48.1707 99.7735 47.872 100.157 47.488C100.552 47.0933 100.856 46.6347 101.069 46.112C101.293 45.5893 101.405 45.0187 101.405 44.4C101.405 43.7813 101.293 43.2107 101.069 42.688C100.856 42.1653 100.552 41.712 100.157 41.328C99.7735 40.9333 99.3148 40.6293 98.7815 40.416C98.2588 40.2027 97.6882 40.096 97.0695 40.096C96.4402 40.096 95.8588 40.2027 95.3255 40.416C94.8028 40.6293 94.3442 40.9333 93.9495 41.328C93.5548 41.712 93.2455 42.1653 93.0215 42.688C92.8082 43.2107 92.7015 43.7813 92.7015 44.4C92.7015 45.0187 92.8082 45.5893 93.0215 46.112C93.2455 46.6347 93.5548 47.0933 93.9495 47.488C94.3442 47.872 94.8028 48.1707 95.3255 48.384C95.8588 48.5973 96.4402 48.704 97.0695 48.704ZM105.451 50V40.768C105.451 39.936 105.691 39.2747 106.171 38.784C106.662 38.2827 107.355 38.032 108.251 38.032C108.582 38.032 108.896 38.0747 109.195 38.16C109.504 38.2347 109.766 38.3573 109.979 38.528L109.515 39.696C109.355 39.568 109.174 39.472 108.971 39.408C108.768 39.3333 108.555 39.296 108.331 39.296C107.883 39.296 107.542 39.424 107.307 39.68C107.072 39.9253 106.955 40.2933 106.955 40.784V41.92L106.987 42.624V50H105.451ZM104.011 42.784V41.52H109.419V42.784H104.011ZM111.107 50V40.768C111.107 39.936 111.347 39.2747 111.827 38.784C112.318 38.2827 113.011 38.032 113.907 38.032C114.238 38.032 114.553 38.0747 114.851 38.16C115.161 38.2347 115.422 38.3573 115.635 38.528L115.171 39.696C115.011 39.568 114.83 39.472 114.627 39.408C114.425 39.3333 114.211 39.296 113.987 39.296C113.539 39.296 113.198 39.424 112.963 39.68C112.729 39.9253 112.611 40.2933 112.611 40.784V41.92L112.643 42.624V50H111.107ZM109.667 42.784V41.52H115.075V42.784H109.667ZM120.175 50.096C119.268 50.096 118.468 49.9093 117.775 49.536C117.092 49.1627 116.559 48.6507 116.175 48C115.802 47.3493 115.615 46.6027 115.615 45.76C115.615 44.9173 115.796 44.1707 116.159 43.52C116.532 42.8693 117.039 42.3627 117.679 42C118.33 41.6267 119.06 41.44 119.871 41.44C120.692 41.44 121.418 41.6213 122.047 41.984C122.676 42.3467 123.167 42.8587 123.519 43.52C123.882 44.1707 124.063 44.9333 124.063 45.808C124.063 45.872 124.058 45.9467 124.047 46.032C124.047 46.1173 124.042 46.1973 124.031 46.272H116.815V45.168H123.231L122.607 45.552C122.618 45.008 122.506 44.5227 122.271 44.096C122.036 43.6693 121.711 43.3387 121.295 43.104C120.89 42.8587 120.415 42.736 119.871 42.736C119.338 42.736 118.863 42.8587 118.447 43.104C118.031 43.3387 117.706 43.6747 117.471 44.112C117.236 44.5387 117.119 45.0293 117.119 45.584V45.84C117.119 46.4053 117.247 46.912 117.503 47.36C117.77 47.7973 118.138 48.1387 118.607 48.384C119.076 48.6293 119.615 48.752 120.223 48.752C120.724 48.752 121.178 48.6667 121.583 48.496C121.999 48.3253 122.362 48.0693 122.671 47.728L123.519 48.72C123.135 49.168 122.655 49.5093 122.079 49.744C121.514 49.9787 120.879 50.096 120.175 50.096ZM126.196 50V41.52H127.668V43.824L127.524 43.248C127.758 42.6613 128.153 42.2133 128.708 41.904C129.262 41.5947 129.945 41.44 130.756 41.44V42.928C130.692 42.9173 130.628 42.912 130.564 42.912C130.51 42.912 130.457 42.912 130.404 42.912C129.582 42.912 128.932 43.1573 128.452 43.648C127.972 44.1387 127.732 44.848 127.732 45.776V50H126.196ZM132.649 50V41.52H134.185V50H132.649ZM133.417 39.888C133.118 39.888 132.868 39.792 132.665 39.6C132.473 39.408 132.377 39.1733 132.377 38.896C132.377 38.608 132.473 38.368 132.665 38.176C132.868 37.984 133.118 37.888 133.417 37.888C133.716 37.888 133.961 37.984 134.153 38.176C134.356 38.3573 134.457 38.5867 134.457 38.864C134.457 39.152 134.361 39.3973 134.169 39.6C133.977 39.792 133.726 39.888 133.417 39.888ZM141.646 41.44C142.339 41.44 142.947 41.5733 143.47 41.84C144.003 42.1067 144.419 42.512 144.718 43.056C145.016 43.6 145.166 44.288 145.166 45.12V50H143.63V45.296C143.63 44.4747 143.427 43.856 143.022 43.44C142.627 43.024 142.067 42.816 141.342 42.816C140.798 42.816 140.323 42.9227 139.918 43.136C139.512 43.3493 139.198 43.664 138.974 44.08C138.76 44.496 138.654 45.0133 138.654 45.632V50H137.118V41.52H138.59V43.808L138.35 43.2C138.627 42.6453 139.054 42.2133 139.63 41.904C140.206 41.5947 140.878 41.44 141.646 41.44ZM151.72 53.2C150.942 53.2 150.184 53.088 149.448 52.864C148.723 52.6507 148.131 52.3413 147.672 51.936L148.408 50.752C148.803 51.0933 149.288 51.36 149.864 51.552C150.44 51.7547 151.043 51.856 151.672 51.856C152.675 51.856 153.411 51.6213 153.88 51.152C154.35 50.6827 154.584 49.968 154.584 49.008V47.216L154.744 45.536L154.664 43.84V41.52H156.12V48.848C156.12 50.3413 155.747 51.44 155 52.144C154.254 52.848 153.16 53.2 151.72 53.2ZM151.528 49.648C150.707 49.648 149.971 49.4773 149.32 49.136C148.68 48.784 148.168 48.2987 147.784 47.68C147.411 47.0613 147.224 46.3467 147.224 45.536C147.224 44.7147 147.411 44 147.784 43.392C148.168 42.7733 148.68 42.2933 149.32 41.952C149.971 41.6107 150.707 41.44 151.528 41.44C152.254 41.44 152.915 41.5893 153.512 41.888C154.11 42.176 154.584 42.624 154.936 43.232C155.299 43.84 155.48 44.608 155.48 45.536C155.48 46.4533 155.299 47.216 154.936 47.824C154.584 48.432 154.11 48.8907 153.512 49.2C152.915 49.4987 152.254 49.648 151.528 49.648ZM151.704 48.304C152.27 48.304 152.771 48.1867 153.208 47.952C153.646 47.7173 153.987 47.392 154.232 46.976C154.488 46.56 154.616 46.08 154.616 45.536C154.616 44.992 154.488 44.512 154.232 44.096C153.987 43.68 153.646 43.36 153.208 43.136C152.771 42.9013 152.27 42.784 151.704 42.784C151.139 42.784 150.632 42.9013 150.184 43.136C149.747 43.36 149.4 43.68 149.144 44.096C148.899 44.512 148.776 44.992 148.776 45.536C148.776 46.08 148.899 46.56 149.144 46.976C149.4 47.392 149.747 47.7173 150.184 47.952C150.632 48.1867 151.139 48.304 151.704 48.304ZM163.576 50V38.8H165.176V48.608H171.24V50H163.576ZM176.375 50.096C175.521 50.096 174.764 49.9093 174.103 49.536C173.441 49.1627 172.919 48.6507 172.535 48C172.151 47.3387 171.959 46.592 171.959 45.76C171.959 44.9173 172.151 44.1707 172.535 43.52C172.919 42.8693 173.441 42.3627 174.103 42C174.764 41.6267 175.521 41.44 176.375 41.44C177.217 41.44 177.969 41.6267 178.631 42C179.303 42.3627 179.825 42.8693 180.199 43.52C180.583 44.16 180.775 44.9067 180.775 45.76C180.775 46.6027 180.583 47.3493 180.199 48C179.825 48.6507 179.303 49.1627 178.631 49.536C177.969 49.9093 177.217 50.096 176.375 50.096ZM176.375 48.752C176.919 48.752 177.404 48.6293 177.831 48.384C178.268 48.1387 178.609 47.792 178.855 47.344C179.1 46.8853 179.223 46.3573 179.223 45.76C179.223 45.152 179.1 44.6293 178.855 44.192C178.609 43.744 178.268 43.3973 177.831 43.152C177.404 42.9067 176.919 42.784 176.375 42.784C175.831 42.784 175.345 42.9067 174.919 43.152C174.492 43.3973 174.151 43.744 173.895 44.192C173.639 44.6293 173.511 45.152 173.511 45.76C173.511 46.3573 173.639 46.8853 173.895 47.344C174.151 47.792 174.492 48.1387 174.919 48.384C175.345 48.6293 175.831 48.752 176.375 48.752ZM184.456 50L181.304 41.52H182.76L185.56 49.2H184.872L187.784 41.52H189.08L191.928 49.2H191.256L194.12 41.52H195.496L192.328 50H190.856L188.184 42.992H188.632L185.928 50H184.456ZM200.597 50.096C199.69 50.096 198.89 49.9093 198.197 49.536C197.514 49.1627 196.981 48.6507 196.597 48C196.223 47.3493 196.037 46.6027 196.037 45.76C196.037 44.9173 196.218 44.1707 196.581 43.52C196.954 42.8693 197.461 42.3627 198.101 42C198.751 41.6267 199.482 41.44 200.293 41.44C201.114 41.44 201.839 41.6213 202.469 41.984C203.098 42.3467 203.589 42.8587 203.941 43.52C204.303 44.1707 204.485 44.9333 204.485 45.808C204.485 45.872 204.479 45.9467 204.469 46.032C204.469 46.1173 204.463 46.1973 204.453 46.272H197.237V45.168H203.653L203.029 45.552C203.039 45.008 202.927 44.5227 202.693 44.096C202.458 43.6693 202.133 43.3387 201.717 43.104C201.311 42.8587 200.837 42.736 200.293 42.736C199.759 42.736 199.285 42.8587 198.869 43.104C198.453 43.3387 198.127 43.6747 197.893 44.112C197.658 44.5387 197.541 45.0293 197.541 45.584V45.84C197.541 46.4053 197.669 46.912 197.925 47.36C198.191 47.7973 198.559 48.1387 199.029 48.384C199.498 48.6293 200.037 48.752 200.645 48.752C201.146 48.752 201.599 48.6667 202.005 48.496C202.421 48.3253 202.783 48.0693 203.093 47.728L203.941 48.72C203.557 49.168 203.077 49.5093 202.501 49.744C201.935 49.9787 201.301 50.096 200.597 50.096ZM209.05 50.096C208.346 50.096 207.674 50 207.034 49.808C206.404 49.616 205.908 49.3813 205.546 49.104L206.186 47.888C206.548 48.1333 206.996 48.3413 207.53 48.512C208.063 48.6827 208.607 48.768 209.162 48.768C209.876 48.768 210.388 48.6667 210.698 48.464C211.018 48.2613 211.178 47.9787 211.178 47.616C211.178 47.3493 211.082 47.1413 210.89 46.992C210.698 46.8427 210.442 46.7307 210.122 46.656C209.812 46.5813 209.466 46.5173 209.082 46.464C208.698 46.4 208.314 46.3253 207.93 46.24C207.546 46.144 207.194 46.016 206.874 45.856C206.554 45.6853 206.298 45.456 206.106 45.168C205.914 44.8693 205.818 44.4747 205.818 43.984C205.818 43.472 205.962 43.024 206.25 42.64C206.538 42.256 206.943 41.9627 207.466 41.76C207.999 41.5467 208.628 41.44 209.354 41.44C209.908 41.44 210.468 41.5093 211.034 41.648C211.61 41.776 212.079 41.9627 212.442 42.208L211.786 43.424C211.402 43.168 211.002 42.992 210.586 42.896C210.17 42.8 209.754 42.752 209.338 42.752C208.666 42.752 208.164 42.864 207.834 43.088C207.503 43.3013 207.338 43.5787 207.338 43.92C207.338 44.208 207.434 44.432 207.626 44.592C207.828 44.7413 208.084 44.8587 208.394 44.944C208.714 45.0293 209.066 45.104 209.45 45.168C209.834 45.2213 210.218 45.296 210.602 45.392C210.986 45.4773 211.332 45.6 211.642 45.76C211.962 45.92 212.218 46.144 212.41 46.432C212.612 46.72 212.714 47.104 212.714 47.584C212.714 48.096 212.564 48.5387 212.266 48.912C211.967 49.2853 211.546 49.5787 211.002 49.792C210.458 49.9947 209.807 50.096 209.05 50.096ZM217.545 50.096C216.692 50.096 216.031 49.8667 215.561 49.408C215.092 48.9493 214.857 48.2933 214.857 47.44V39.664H216.393V47.376C216.393 47.8347 216.505 48.1867 216.729 48.432C216.964 48.6773 217.295 48.8 217.721 48.8C218.201 48.8 218.601 48.6667 218.921 48.4L219.401 49.504C219.167 49.7067 218.884 49.856 218.553 49.952C218.233 50.048 217.897 50.096 217.545 50.096ZM213.417 42.784V41.52H218.825V42.784H213.417ZM225.779 50V38.8H230.147C231.128 38.8 231.966 38.9547 232.659 39.264C233.352 39.5733 233.886 40.0213 234.259 40.608C234.632 41.1947 234.819 41.8933 234.819 42.704C234.819 43.5147 234.632 44.2133 234.259 44.8C233.886 45.376 233.352 45.824 232.659 46.144C231.966 46.4533 231.128 46.608 230.147 46.608H226.659L227.379 45.856V50H225.779ZM227.379 46.016L226.659 45.216H230.099C231.123 45.216 231.896 44.9973 232.419 44.56C232.952 44.1227 233.219 43.504 233.219 42.704C233.219 41.904 232.952 41.2853 232.419 40.848C231.896 40.4107 231.123 40.192 230.099 40.192H226.659L227.379 39.392V46.016ZM236.805 50V41.52H238.277V43.824L238.133 43.248C238.368 42.6613 238.762 42.2133 239.317 41.904C239.872 41.5947 240.554 41.44 241.365 41.44V42.928C241.301 42.9173 241.237 42.912 241.173 42.912C241.12 42.912 241.066 42.912 241.013 42.912C240.192 42.912 239.541 43.1573 239.061 43.648C238.581 44.1387 238.341 44.848 238.341 45.776V50H236.805ZM243.258 50V41.52H244.794V50H243.258ZM244.026 39.888C243.728 39.888 243.477 39.792 243.274 39.6C243.082 39.408 242.986 39.1733 242.986 38.896C242.986 38.608 243.082 38.368 243.274 38.176C243.477 37.984 243.728 37.888 244.026 37.888C244.325 37.888 244.57 37.984 244.762 38.176C244.965 38.3573 245.066 38.5867 245.066 38.864C245.066 39.152 244.97 39.3973 244.778 39.6C244.586 39.792 244.336 39.888 244.026 39.888ZM251.423 50.096C250.559 50.096 249.786 49.9093 249.103 49.536C248.431 49.1627 247.903 48.6507 247.519 48C247.135 47.3493 246.943 46.6027 246.943 45.76C246.943 44.9173 247.135 44.1707 247.519 43.52C247.903 42.8693 248.431 42.3627 249.103 42C249.786 41.6267 250.559 41.44 251.423 41.44C252.191 41.44 252.874 41.5947 253.471 41.904C254.079 42.2027 254.548 42.6507 254.879 43.248L253.711 44C253.434 43.584 253.092 43.28 252.687 43.088C252.292 42.8853 251.866 42.784 251.407 42.784C250.852 42.784 250.356 42.9067 249.919 43.152C249.482 43.3973 249.135 43.744 248.879 44.192C248.623 44.6293 248.495 45.152 248.495 45.76C248.495 46.368 248.623 46.896 248.879 47.344C249.135 47.792 249.482 48.1387 249.919 48.384C250.356 48.6293 250.852 48.752 251.407 48.752C251.866 48.752 252.292 48.656 252.687 48.464C253.092 48.2613 253.434 47.952 253.711 47.536L254.879 48.272C254.548 48.8587 254.079 49.312 253.471 49.632C252.874 49.9413 252.191 50.096 251.423 50.096ZM260.519 50.096C259.612 50.096 258.812 49.9093 258.119 49.536C257.436 49.1627 256.903 48.6507 256.519 48C256.145 47.3493 255.959 46.6027 255.959 45.76C255.959 44.9173 256.14 44.1707 256.503 43.52C256.876 42.8693 257.383 42.3627 258.023 42C258.673 41.6267 259.404 41.44 260.215 41.44C261.036 41.44 261.761 41.6213 262.391 41.984C263.02 42.3467 263.511 42.8587 263.863 43.52C264.225 44.1707 264.407 44.9333 264.407 45.808C264.407 45.872 264.401 45.9467 264.391 46.032C264.391 46.1173 264.385 46.1973 264.375 46.272H257.159V45.168H263.575L262.951 45.552C262.961 45.008 262.849 44.5227 262.615 44.096C262.38 43.6693 262.055 43.3387 261.639 43.104C261.233 42.8587 260.759 42.736 260.215 42.736C259.681 42.736 259.207 42.8587 258.791 43.104C258.375 43.3387 258.049 43.6747 257.815 44.112C257.58 44.5387 257.463 45.0293 257.463 45.584V45.84C257.463 46.4053 257.591 46.912 257.847 47.36C258.113 47.7973 258.481 48.1387 258.951 48.384C259.42 48.6293 259.959 48.752 260.567 48.752C261.068 48.752 261.521 48.6667 261.927 48.496C262.343 48.3253 262.705 48.0693 263.015 47.728L263.863 48.72C263.479 49.168 262.999 49.5093 262.423 49.744C261.857 49.9787 261.223 50.096 260.519 50.096Z" fill="#071C2C"/>
</svg>
