 <svg id="fi_4329323" enable-background="new 0 0 512 512" height="15" viewBox="0 0 512 512" width="20" xmlns="http://www.w3.org/2000/svg"><path d="m502 220.341h-37.223v-54.073c0-14.606-11.883-26.489-26.489-26.489h-21.086c-2.758 0-5.419.424-7.922 1.21-3.578-10.399-13.458-17.891-25.056-17.891h-33.405c-14.606 0-26.489 11.883-26.489 26.488v70.756h-145.256v-70.756c0-14.605-11.883-26.488-26.489-26.488h-33.405c-11.598 0-21.479 7.493-25.056 17.891-2.502-.786-5.163-1.21-7.922-1.21h-21.086c-14.606 0-26.489 11.883-26.489 26.489v54.073h-28.627c-5.523 0-10 4.478-10 10v51.318c0 5.522 4.477 10 10 10h28.627v54.073c0 14.606 11.883 26.489 26.489 26.489h21.086c2.758 0 5.419-.424 7.922-1.21 3.578 10.399 13.458 17.891 25.056 17.891h33.405c14.606 0 26.489-11.883 26.489-26.488v-70.756h145.256v70.756c0 14.605 11.883 26.488 26.489 26.488h33.405c11.598 0 21.478-7.493 25.056-17.891 2.502.786 5.163 1.21 7.922 1.21h21.086c14.606 0 26.489-11.883 26.489-26.489v-54.073h37.223c5.522 0 10-4.478 10-10v-51.318c0-5.523-4.478-10-10-10zm-482 51.318v-31.318h18.627v31.318zm66.202 80.563h-21.086c-3.578 0-6.489-2.911-6.489-6.489v-179.465c0-3.578 2.911-6.489 6.489-6.489h21.086c3.578 0 6.489 2.911 6.489 6.489v179.465c0 3.578-2.911 6.489-6.489 6.489zm72.872 10.193c0 3.577-2.911 6.488-6.489 6.488h-33.405c-3.578 0-6.489-2.911-6.489-6.488v-212.83c0-3.577 2.911-6.488 6.489-6.488h33.405c3.578 0 6.489 2.911 6.489 6.488zm20-90.756v-31.318h145.256v31.318zm211.639 90.756c0 3.577-2.91 6.488-6.488 6.488h-33.405c-3.578 0-6.489-2.911-6.489-6.488v-212.83c0-3.577 2.911-6.488 6.489-6.488h33.405c3.578 0 6.488 2.911 6.488 6.488zm54.064-16.683c0 3.578-2.911 6.489-6.489 6.489h-21.086c-3.578 0-6.489-2.911-6.489-6.489v-179.464c0-3.578 2.911-6.489 6.489-6.489h21.086c3.578 0 6.489 2.911 6.489 6.489zm47.223-74.073h-27.223v-31.318h27.223z"></path></svg>