<svg xmlns="http://www.w3.org/2000/svg" width="30" height="31" viewBox="0 0 30 31" fill="none">
<path d="M24.3953 6.7403C24.1851 4.81651 23.8489 3.33519 23.3025 2.73882C21.0749 0.334077 5.50258 0.141698 3.71629 2.73882C3.27497 3.37367 2.98075 4.85499 2.7706 6.7403C2.11913 6.81726 1.59375 7.31744 1.59375 7.93306V10.2801C1.59375 10.7995 1.95101 11.242 2.45537 11.4151C2.32928 15.1088 2.43436 18.9756 2.60248 20.8802C2.60248 22.3615 3.69527 22.1114 3.69527 22.1114H4.704V23.7082C4.704 24.343 5.41852 24.8624 6.30116 24.8624C7.1838 24.8624 7.89832 24.343 7.89832 23.7082V22.1114H19.7509V23.7082C19.7509 24.343 20.4654 24.8624 21.3481 24.8624C22.2307 24.8624 22.9452 24.343 22.9452 23.7082V22.1114H23.2815C23.2815 22.1114 24.5634 22.2653 24.6475 21.5727C24.6475 19.6682 24.7735 15.4166 24.6685 11.4151C25.2149 11.2612 25.5931 10.7995 25.5931 10.2608V7.95229C25.6142 7.31744 25.0888 6.79802 24.3953 6.7403ZM7.52004 3.0851H19.4987V4.73956H7.52004V3.0851ZM7.70918 20.2453C6.7635 20.2453 6.00695 19.5528 6.00695 18.6871C6.00695 17.8213 6.7635 17.1288 7.70918 17.1288C8.65487 17.1288 9.41142 17.8213 9.41142 18.6871C9.41142 19.5528 8.63385 20.2453 7.70918 20.2453ZM19.4357 20.2453C18.49 20.2453 17.7334 19.5528 17.7334 18.6871C17.7334 17.8213 18.49 17.1288 19.4357 17.1288C20.3814 17.1288 21.1379 17.8213 21.1379 18.6871C21.1379 19.5528 20.3814 20.2453 19.4357 20.2453ZM21.6002 13.4351H5.43954V5.66298H21.6002V13.4351Z" fill="#21325D"/>
</svg>