<svg xmlns="http://www.w3.org/2000/svg" width="20" height="20" viewBox="0 0 20 20" fill="none">
<path fill-rule="evenodd" clip-rule="evenodd" d="M7.29259 14.707C7.10512 14.5194 6.99981 14.2651 6.99981 14C6.99981 13.7348 7.10512 13.4805 7.29259 13.293L10.5856 9.99997L7.29259 6.70697C7.19708 6.61472 7.1209 6.50438 7.06849 6.38237C7.01608 6.26037 6.9885 6.12915 6.98734 5.99637C6.98619 5.86359 7.01149 5.73191 7.06177 5.60902C7.11205 5.48612 7.1863 5.37447 7.2802 5.28057C7.37409 5.18668 7.48574 5.11243 7.60864 5.06215C7.73153 5.01187 7.86321 4.98656 7.99599 4.98772C8.12877 4.98887 8.25999 5.01646 8.382 5.06887C8.504 5.12128 8.61435 5.19746 8.70659 5.29297L12.7066 9.29297C12.8941 9.4805 12.9994 9.7348 12.9994 9.99997C12.9994 10.2651 12.8941 10.5194 12.7066 10.707L8.70659 14.707C8.51907 14.8944 8.26476 14.9998 7.99959 14.9998C7.73443 14.9998 7.48012 14.8944 7.29259 14.707Z" fill="#d90429"/>
</svg>