<svg width="32" height="33" viewBox="0 0 32 33" fill="none" xmlns="http://www.w3.org/2000/svg">
<g filter="url(#filter0_d_237_11532)">
<path d="M17.5566 15.6126C17.5566 17.7501 19.3004 19.4938 21.4379 19.4938C23.5754 19.4938 25.3191 17.7501 25.3191 15.6126C25.3191 13.4751 23.5754 11.7313 21.4379 11.7313C19.3004 11.7313 17.5566 13.4563 17.5566 15.6126ZM21.4379 12.5001C23.1441 12.5001 24.5504 13.8876 24.5504 15.6126C24.5504 17.3376 23.1441 18.7063 21.4379 18.7063C19.7316 18.7063 18.3254 17.3188 18.3254 15.5938C18.3254 13.8876 19.7129 12.5001 21.4379 12.5001Z" fill="#21325D"/>
<path d="M19.2266 23.375H23.6703V24.1437H19.2266V23.375Z" fill="#21325D"/>
<path d="M17.5566 21.8187H25.3191V22.5875H17.5566V21.8187Z" fill="#21325D"/>
<path d="M9.00781 21.8187H9.77656V22.5875H9.00781V21.8187Z" fill="#21325D"/>
<path d="M6.68164 22.5875H7.45039V23.3563H6.68164V22.5875Z" fill="#21325D"/>
<path d="M9.04441 19.6438C11.0694 16.1188 12.3444 12.2 12.7757 8.15004L16.3944 11.7313C16.4694 11.8063 16.5632 11.8438 16.6569 11.8438C16.6757 11.8438 16.6944 11.8438 16.7132 11.8438C16.8444 11.825 16.9382 11.75 16.9944 11.6375C17.7257 10.175 17.4444 8.41254 16.2819 7.25004L15.9632 6.93129H18.7007C18.9069 6.93129 19.0944 6.76254 19.0944 6.53754C19.0944 6.50004 19.0944 6.46254 19.0757 6.40629C18.5694 4.86879 17.1257 3.81879 15.4944 3.81879H14.9882L16.9194 1.86879C17.0694 1.71879 17.0694 1.47504 16.9194 1.32504C16.8819 1.28754 16.8632 1.26879 16.8257 1.25004C15.3632 0.518786 13.5819 0.800036 12.4382 1.96254L12.0632 2.33754C11.9507 2.45004 11.8382 2.58129 11.7257 2.73129C11.6319 2.60004 11.5194 2.46879 11.3882 2.33754L11.0132 1.96254C9.86941 0.800036 8.10691 0.518786 6.64441 1.25004C6.45691 1.34379 6.38191 1.58754 6.47566 1.77504C6.49441 1.81254 6.51316 1.85004 6.55066 1.86879L8.50066 3.81879H7.99441C6.36316 3.81879 4.90066 4.86879 4.39441 6.40629C4.31941 6.61254 4.43191 6.83754 4.63816 6.89379C4.67566 6.91254 4.71316 6.91254 4.76941 6.91254H7.50691L7.15066 7.25004C5.98816 8.41254 5.70691 10.175 6.43816 11.6375C6.49441 11.75 6.60691 11.825 6.71941 11.8438C6.73816 11.8438 6.75691 11.8438 6.77566 11.8438C6.86941 11.8438 6.98191 11.8063 7.05691 11.7313L10.4132 8.39379C10.0007 12.1063 8.61316 15.65 6.36316 18.65C5.83816 18.5188 5.31316 18.4063 4.76941 18.3313L4.52566 18.3125L4.45066 19.0813L4.67566 19.1C5.06941 19.1563 5.44441 19.2313 5.83816 19.325C5.76316 19.4188 5.68816 19.5125 5.59441 19.625L6.19441 20.1313C9.17566 16.5875 10.9569 12.1813 11.2757 7.55004L11.7257 7.10004L12.0632 7.43754C11.6507 12.3875 9.96316 17.1313 7.13191 21.2188L7.76941 21.6688C8.06941 21.2375 8.36941 20.7875 8.65066 20.3188C10.4694 21.1813 12.0632 22.4375 13.3569 23.9938L13.9569 23.5063C13.2069 22.5875 12.3444 21.7625 11.3694 21.05H27.6444V20.2813H10.2257C9.85066 20.0375 9.45691 19.8313 9.04441 19.6438ZM16.5257 10.7563L12.4194 6.68754C13.4694 6.36879 14.6132 6.65004 15.3819 7.43754L15.7569 7.81254C16.5444 8.58129 16.8257 9.70629 16.5257 10.7563ZM18.1194 6.16254H14.9132C14.1632 5.80629 13.3194 5.71254 12.5132 5.88129C13.0757 5.09379 13.9944 4.60629 14.9694 4.60629H15.4944C16.5819 4.60629 17.5944 5.18754 18.1194 6.16254ZM12.6069 2.88129L12.9819 2.50629C13.7507 1.73754 14.8944 1.43754 15.9444 1.73754L13.6569 4.06254C12.9069 4.34379 12.2694 4.85004 11.8194 5.50629C11.6319 4.55004 11.9319 3.57504 12.6069 2.88129ZM10.4694 2.50629L10.8444 2.88129C11.0132 3.05004 11.1632 3.25629 11.2944 3.46254C11.1257 3.87504 11.0132 4.30629 10.9944 4.75629C10.6382 4.45629 10.2444 4.21254 9.81316 4.06254L7.50691 1.73754C8.55691 1.43754 9.70066 1.73754 10.4694 2.50629ZM7.97566 4.60629H8.50066C9.47566 4.60629 10.3944 5.07504 10.9569 5.88129C10.1507 5.71254 9.30691 5.80629 8.55691 6.16254H5.33191C5.85691 5.18754 6.86941 4.60629 7.97566 4.60629ZM6.92566 10.7563C6.62566 9.70629 6.92566 8.56254 7.69441 7.79379L8.06941 7.41879C8.63191 6.85629 9.38191 6.55629 10.1694 6.55629C10.4694 6.55629 10.7507 6.59379 11.0319 6.68754L6.92566 10.7563Z" fill="#21325D"/>
</g>
<defs>
<filter id="filter0_d_237_11532" x="0" y="0.5" width="32" height="32" filterUnits="userSpaceOnUse" color-interpolation-filters="sRGB">
<feFlood flood-opacity="0" result="BackgroundImageFix"/>
<feColorMatrix in="SourceAlpha" type="matrix" values="0 0 0 0 0 0 0 0 0 0 0 0 0 0 0 0 0 0 127 0" result="hardAlpha"/>
<feOffset dy="4"/>
<feGaussianBlur stdDeviation="2"/>
<feComposite in2="hardAlpha" operator="out"/>
<feColorMatrix type="matrix" values="0 0 0 0 0 0 0 0 0 0 0 0 0 0 0 0 0 0 0.15 0"/>
<feBlend mode="normal" in2="BackgroundImageFix" result="effect1_dropShadow_237_11532"/>
<feBlend mode="normal" in="SourceGraphic" in2="effect1_dropShadow_237_11532" result="shape"/>
</filter>
</defs>
</svg>
