<svg width="24" height="25" viewBox="0 0 24 25" fill="none" xmlns="http://www.w3.org/2000/svg">
<path d="M22.5938 23.0938V6.14375H18.3563V23.0938H16.95V0.5H7.05V23.0938H5.64375V8.975H1.40625V23.0938H0V24.5H24V23.0938H22.5938ZM19.7625 8.975H21.1688V10.3813H19.7625V8.975ZM19.7625 11.7875H21.1688V13.1937H19.7625V11.7875ZM19.7625 14.6188H21.1688V16.025H19.7625V14.6188ZM19.7625 17.45H21.1688V18.8563H19.7625V17.45ZM19.7625 20.2625H21.1688V21.6688H19.7625V20.2625ZM2.83125 11.7875H4.2375V13.1937H2.83125V11.7875ZM2.83125 14.6188H4.2375V16.025H2.83125V14.6188ZM2.83125 17.45H4.2375V18.8563H2.83125V17.45ZM2.83125 20.2625H4.2375V21.6688H2.83125V20.2625ZM12.7125 3.33125H14.1188V4.7375H12.7125V3.33125ZM12.7125 6.14375H14.1188V7.55H12.7125V6.14375ZM12.7125 8.975H14.1188V10.3813H12.7125V8.975ZM12.7125 11.7875H14.1188V13.1937H12.7125V11.7875ZM12.7125 14.6188H14.1188V16.025H12.7125V14.6188ZM9.88125 3.33125H11.2875V4.7375H9.88125V3.33125ZM9.88125 6.14375H11.2875V7.55H9.88125V6.14375ZM9.88125 8.975H11.2875V10.3813H9.88125V8.975ZM9.88125 11.7875H11.2875V13.1937H9.88125V11.7875ZM9.88125 14.6188H11.2875V16.025H9.88125V14.6188ZM12.7125 23.0938V18.8563H11.3062V23.0938H9.9V17.45H14.1375V23.0938H12.7125Z" fill="#21325D"/>
</svg>
