<?xml version="1.0" encoding="utf-8"?>
<!-- Generator: Adobe Illustrator 28.2.0, SVG Export Plug-In . SVG Version: 6.00 Build 0)  -->
<svg version="1.1" id="Layer_1" xmlns="http://www.w3.org/2000/svg" xmlns:xlink="http://www.w3.org/1999/xlink" x="0px" y="0px"
	 viewBox="0 0 998.1 218.9" style="enable-background:new 0 0 998.1 218.9;" xml:space="preserve">
<style type="text/css">
	.st0{fill:#EF433D;}
	.st1{fill:#FFFFFF;}
	.st2{fill:#061A28;}
</style>
<g>
	<path class="st0" d="M85.8,16h116.3c16.1,0,29.1,13,29.1,29.1v116.3c0,16.1-13,29.1-29.1,29.1H85.8c-16.1,0-29.1-13-29.1-29.1V45.1
		C56.8,29,69.8,16,85.8,16z"/>
	<path class="st1" d="M231.2,117.4l0,45.1c0,8.5,0.8,13.5-6.8,21.1c-7.4,7.5-15.8,6.7-23.2,6.8c4-1,7.2-3.8,8.1-7.6
		c0-0.1,0.1-0.2,0.1-0.4c0,0,0,0,0-0.1c0-0.2,0.1-0.4,0.1-0.6c0.1-0.3,0.1-0.5,0.2-0.8c0.1-0.3,0.1-0.6,0.2-0.8
		c0-0.3,0.1-0.5,0.1-0.8c0-0.3,0.1-0.6,0.1-0.9c0-0.3,0.1-0.6,0.1-0.8c0-0.3,0.1-0.6,0.1-0.9c0-0.3,0.1-0.6,0.1-0.9
		c0-0.3,0-0.6,0-0.9c0-0.3,0-0.6,0-0.9c0-0.3,0-0.6,0-0.9c0-0.3,0-0.6,0-0.9c0-0.3,0-0.6,0-0.9c0-0.3,0-0.6-0.1-0.9
		c0-0.3-0.1-0.6-0.1-0.9c0-0.3-0.1-0.6-0.1-0.9c0-0.3-0.1-0.6-0.1-1c0-0.3-0.1-0.6-0.1-1c-0.1-0.3-0.1-0.7-0.2-1
		c-0.1-0.3-0.1-0.6-0.2-1c-0.1-0.3-0.2-0.7-0.2-1c-0.1-0.3-0.2-0.7-0.2-1c-0.1-0.3-0.2-0.7-0.3-1c-0.1-0.3-0.2-0.7-0.3-1
		c-0.1-0.3-0.2-0.7-0.3-1c-0.1-0.3-0.2-0.7-0.3-1c-0.1-0.4-0.3-0.7-0.4-1.1c-0.1-0.3-0.3-0.7-0.4-1c-0.1-0.4-0.3-0.7-0.5-1.1
		c-0.2-0.4-0.3-0.7-0.5-1c-0.2-0.4-0.3-0.7-0.5-1.1c-0.2-0.4-0.3-0.7-0.5-1.1c-0.2-0.4-0.4-0.7-0.6-1.1c-0.2-0.4-0.4-0.7-0.6-1.1
		c-0.2-0.4-0.4-0.8-0.7-1.1c-0.2-0.4-0.4-0.7-0.6-1.1c-0.2-0.4-0.5-0.8-0.7-1.2c-0.2-0.4-0.5-0.7-0.7-1.1c-0.3-0.4-0.5-0.8-0.8-1.2
		c-0.2-0.4-0.5-0.7-0.8-1.1c-0.3-0.4-0.6-0.8-0.9-1.2c-0.3-0.4-0.5-0.7-0.8-1.1c-0.3-0.4-0.6-0.8-1-1.2c-0.3-0.4-0.6-0.8-0.9-1.1
		c-0.3-0.4-0.7-0.8-1-1.3c-0.3-0.4-0.6-0.8-1-1.1c-0.4-0.4-0.8-0.9-1.1-1.3c-0.3-0.4-0.7-0.8-1-1.1c-0.4-0.4-0.8-0.9-1.2-1.3
		c-0.4-0.4-0.7-0.8-1.1-1.1c-0.4-0.4-0.9-0.9-1.3-1.3c-0.4-0.4-0.7-0.8-1.1-1.2c-0.5-0.5-0.9-0.9-1.4-1.4c-0.4-0.4-0.8-0.8-1.2-1.2
		c-0.5-0.5-1-0.9-1.6-1.4c-0.4-0.4-0.8-0.8-1.2-1.1c-0.6-0.5-1.1-1-1.7-1.5c-0.4-0.4-0.8-0.7-1.3-1.1c-0.6-0.5-1.2-1-1.9-1.5
		c-0.4-0.4-0.9-0.7-1.3-1.1c-0.7-0.6-1.5-1.2-2.3-1.8c-0.4-0.3-0.7-0.6-1-0.8c-1.1-0.9-2.3-1.8-3.5-2.7c-2.4-1.8-6-1-7.3,1.6
		l-16.8,34.9l-11.2-10.1l4-49c0,0-28-23.7-21.5-29.7c6.5-6,35,12.7,35,12.7l52.5-13.8l13,8.3l-35.1,23.4c-1.4,1-1.1,3,0.6,3.5
		c18.5,5.5,34.6,13.1,48.5,22C230.6,117.2,230.9,117.3,231.2,117.4L231.2,117.4z"/>
	<path class="st2" d="M346.6,55.3c0,0.6-0.3,0.9-0.8,0.9c-0.9,0-1.6-1.5-2.3-4.5c-1.4-6-3.3-10-5.8-12.2c-2.5-2.2-6.4-3.3-11.9-3.3
		c-2.1,0-3.9,0.1-5.5,0.2l0.1,70.7c0.1,1.9,0.6,3.2,1.6,3.7c1,0.5,3.7,1,8.1,1.4c0.9,0.1,1.3,0.4,1.3,1c0,0.8-0.6,1.2-1.9,1.2
		c-0.2,0-0.8,0-1.7-0.1c-1.2-0.1-2.1-0.1-2.9-0.1l-12-0.3l-19.8,0.3c-1.1,0-1.6-0.3-1.6-0.9c0-0.5,0.2-0.7,0.5-0.8
		c0.3-0.1,1.6-0.2,3.8-0.2c4.3-0.2,6.6-1.2,6.9-3c0.2-1,0.2-8.9,0.2-23.6V36.5c-0.9-0.1-1.9-0.1-3-0.1c-6.2,0-10.7,1.2-13.6,3.5
		c-2.8,2.2-4.6,6.3-5.5,12.1c-0.5,3.4-1.2,5.1-2.1,5.1c-0.7,0-1-0.5-1-1.4c0-0.6,0.2-2.8,0.5-6.4c0.6-7.6,1-12.8,1.2-15.6h1.7
		l8.5-0.1c0.2,0,2.9,0.1,8,0.2c5.2,0.2,11.8,0.2,19.8,0.2c4.4,0,8.4,0,11.9-0.1c3.5-0.1,6.7-0.1,9.5-0.1c2.6,0,4.5-0.1,5.8-0.2
		c0.2,5,0.8,11.5,1.7,19.3C346.5,54.2,346.6,55,346.6,55.3z M413.7,113.8c0,0.5-0.3,0.7-1,0.7c0.1,0-0.7,0-2.3,0
		c-1.6-0.1-3-0.1-4.1-0.1h-2.9c-6.7,0-10.8-0.1-12.3-0.2h-1.9l-2.8,0.1c-1,0.1-1.5-0.2-1.5-0.8c0-0.5,0.2-0.7,0.6-0.7l2.7,0.1
		c1.7,0.1,2.7-0.4,2.9-1.4c0.2-0.6,0.2-4.5,0.2-11.6V82.5c0-7.2-0.3-11.5-1-12.8c-1-2-2.9-3-5.8-3c-3,0-5.3,1.4-7,4.1
		c-0.8,1.3-1.2,4.1-1.2,8.5v18.3c0,5.7,0,8.8,0.1,9.3v1.4l-0.1,2.8c-0.1,1.2,1.6,1.7,4.9,1.7c0.7,0,1,0.2,1,0.7
		c0,0.5-0.5,0.8-1.5,0.8c0,0-0.3,0-0.9,0c-0.6-0.1-1.6-0.1-2.8-0.1h-5.1l-6.5,0.1l-6.9,0.2h-3.5c-1.2,0-1.7-0.2-1.7-0.7
		c0-0.2,0.1-0.4,0.2-0.5s0.5-0.1,1-0.1c2.9,0,4.7-0.1,5.2-0.3c0.5-0.2,0.9-1.1,1-2.7c0.1-0.9,0.1-5.6,0.1-14V53.5
		c0-8.4-0.2-13.2-0.6-14.4c-0.3-1.3-1.9-2-4.9-2c-2.2,0-3.4-0.2-3.4-0.7c0-0.5,1.3-0.8,4-0.9c6-0.4,11.6-1.4,16.9-3
		c1-0.3,1.7-0.5,2.2-0.5c0.6,0,0.9,2.2,0.9,6.5v2.3c0,1.6,0,3.6,0,6.2c-0.1,2.5-0.1,4.2-0.1,5.1v18.5c2.2-3.2,4.4-5.3,6.5-6.5
		c2.2-1.2,5.1-1.7,8.7-1.7c7.7,0,12.5,3.1,14.4,9.3c0.7,2,1,5.3,1,9.8v27.1c0,2,0.3,3.3,0.9,3.7c0.7,0.5,2.4,0.7,5,0.7
		C413.3,113,413.7,113.2,413.7,113.8z M469.5,100c0,1.7-1,4-3,6.7c-4.3,6-10,9-17,9c-7.8,0-14.3-2.5-19.3-7.4
		c-5-5-7.6-11.3-7.6-19.1c0-7.6,2.4-13.9,7.3-19c4.9-5.1,11-7.7,18.3-7.7c5,0,9.2,1.1,12.7,3.3c3.9,2.4,6.4,5.9,7.6,10.4
		c0.3,1.4,0.5,3.1,0.7,5c-1.8,0.2-9,0.3-21.5,0.3c-1.9,0-4.4,0.1-7.3,0.2c-0.2,2.8-0.3,5.2-0.3,7.1c0,9.1,1.9,15.5,5.7,19.3
		c2.2,2.2,5,3.4,8.3,3.4c2.7,0,5.3-0.9,7.8-2.8c2.6-1.9,4.5-4.3,5.8-7.2c0.6-1.5,1.1-2.2,1.5-2.2C469.3,99.3,469.5,99.5,469.5,100z
		 M454.8,79.7c0.1-6-0.3-10.1-1.3-12.4c-0.9-2.3-2.6-3.5-4.9-3.5c-4.7,0-7.4,5.3-8.1,15.9c1.6-0.1,5-0.1,10.2-0.1
		C452.3,79.6,453.7,79.6,454.8,79.7z M555.1,91.2c0,7.1-2.5,12.9-7.6,17.6c-5,4.6-11.3,6.9-19.1,6.9c-4.7,0-11.2-1.6-19.5-4.8
		c-0.6-0.2-1.2-0.3-1.6-0.3c-1.3,0-2.3,1.4-3,4.2c-0.2,0.9-0.5,1.3-0.9,1.3c-0.6,0-0.9-0.5-0.9-1.6c0-1,0.2-2.8,0.6-5.3
		c0.3-2.1,0.5-4.5,0.5-7.3c0-2.2,0-4-0.1-5.3c-0.2-2.6-0.2-4.2-0.2-4.7c0-1.2,0.4-1.9,1.2-1.9c0.8,0,1.5,1.7,2.1,5
		c1.1,5.7,3.5,10.2,7.3,13.4c4.1,3.4,8.5,5.1,13.3,5.1c4.2,0,7.7-1.3,10.6-4c2.9-2.6,4.3-5.9,4.3-9.7c0-3.3-0.9-5.9-2.8-7.8
		c-1.4-1.4-5.9-4.1-13.5-8.3c-8.5-4.5-14.2-9-17.2-13.5c-2.8-4.1-4.2-9-4.2-14.7c0-6.7,2.4-12.2,7.1-16.5c4.7-4.4,10.7-6.6,17.9-6.6
		c3.9,0,8,0.9,12.4,2.8c1.5,0.6,2.5,0.9,3.1,0.9c1.2,0,1.9-1,2.3-3c0.2-0.7,0.5-1,1-1c0.8,0,1.2,0.5,1.2,1.5c0,0.4-0.1,1.5-0.2,3.3
		c-0.2,1.8-0.2,3.3-0.2,4.4c0,4,0.2,7.4,0.5,10.2c0.1,0.2,0.1,0.5,0.1,0.9c0,0.7-0.3,1-0.9,1c-0.7,0-1.4-1.2-2.1-3.7
		c-0.7-2.5-1.9-4.9-3.7-7.3c-1.7-2.5-3.5-4.3-5.2-5.3c-2.3-1.4-5-2.1-8.1-2.1c-4.3,0-7.8,1-10.4,3.1c-2.6,2.1-3.8,5-3.8,8.6
		c0,3.2,1.2,6,3.6,8.5c2.4,2.4,7,5.5,13.8,9.3c8.4,4.7,13.9,8.4,16.6,11.2C553.1,79.8,555.1,84.9,555.1,91.2z M628.3,113.4
		c0,0.5-1.4,0.8-4.3,0.8h-2c-1.5,0-3.5,0-6-0.1c-2.5-0.1-4.9-0.1-7.2-0.1c-2.9,0-5,0-6.5,0.1c-1.5,0.1-2.5,0.1-3.1,0.1
		c-1.1,0-1.6-0.3-1.6-0.8c0-0.5,1-0.9,3.1-0.9c1.3-0.1,2-0.5,2-1.3s-1.6-3.8-4.9-9.1c-0.9-1.4-2.3-3.6-4.1-6.5c-1.2-2.2-3-5-5.3-8.5
		v17.2c0,4.1,0.1,6.5,0.3,7.2c0.3,0.7,1.2,1,2.7,1c0.5,0,0.9,0,1.2-0.1h0.9c0.8,0,1.2,0.3,1.2,0.9c0,0.6-0.4,0.9-1.3,0.9h-0.5
		l-3-0.1H586l-7.2-0.1h-11.3c-0.4,0.1-0.8,0.1-1.3,0.1c-0.9,0-1.3-0.3-1.3-0.8c0-0.5,1-0.9,3-0.9c2.6-0.1,4-0.3,4.3-0.7
		c0.4-0.4,0.6-2.3,0.6-5.8l-0.1-61.3c0-3-0.3-4.9-1-5.6c-0.6-0.7-2.4-1-5.2-0.9c-1.5,0-2.2-0.3-2.2-0.8c0-0.5,0.2-0.7,0.5-0.8
		c0.3-0.1,1.4-0.2,3.4-0.2c7.8-0.3,13.3-1.3,16.5-3c1.1-0.6,2-1,2.8-1c0.3,1.1,0.5,3.2,0.6,6.3l0.2,12.4c0.1,4.2,0.1,10,0.1,17.6v17
		c1.2-1,3.3-3.1,6-6.2c1.2-1.3,2.9-3.3,5.2-5.9c3.7-4.2,5.6-6.4,5.6-6.7c0-0.4-0.2-0.6-0.7-0.7c-0.5-0.1-2-0.2-4.7-0.2
		c-1.8,0-2.7-0.3-2.7-1c0-0.6,0.5-0.9,1.4-0.9l8.8,0.2l9.1-0.2c1.4,0,2.1,0.2,2.1,0.7c0,0.5-1.6,0.8-4.8,0.9
		c-2.1,0.1-3.8,0.8-5.1,2.1c-2.4,2.3-5.5,5.6-9.2,9.8l13.4,20.2c0.7,1.2,1.8,2.9,3.4,5.2c0.2,0.3,0.8,1.2,1.7,2.6l2,2.8l0.9,1.4
		c0.9,1.3,1.6,2.2,2.1,2.6c0.5,0.3,1.6,0.5,3,0.5C627.6,112.5,628.3,112.8,628.3,113.4z M681.7,64.6c0,0.5-0.2,0.9-0.5,1
		c-0.3,0.1-1.4,0.1-3.3,0.1c-2.1,0-3.3,0.1-3.7,0.3l-0.7,1.3l-1.4,4.1c-0.6,1.9-2,5.6-4.2,11.3c-0.2,0.5-1.9,5.2-5.1,14.3
		c-7.7,21.5-12.6,34.5-14.9,39c-2.8,5.6-6.4,8.4-10.7,8.4c-2.5,0-4.5-0.7-6-2.2c-1.5-1.5-2.2-3.4-2.2-5.8c0-3.8,2.1-5.7,6.3-5.7
		c1.4,0,2.5,0.5,3.4,1.4c0.4,0.4,1,1.5,2,3.3c0.5,0.8,1.3,1.2,2.2,1.2c1.6,0,3-1.3,4.4-4c1.5-2.6,3.5-7.4,5.9-14.7
		c-0.6-1.2-1.8-4-3.6-8.3c-2.3-5.9-5.4-13.6-9.3-23.1c-0.9-2.3-3-7.4-6.3-15.2c-1.1-2.6-2-4.2-2.8-4.7c-0.8-0.5-2.6-0.9-5.3-0.9
		c-0.9,0-1.4-0.3-1.4-0.9c0-0.6,0.5-0.9,1.4-0.9h2.1c1.2,0,2.9,0,5.2,0.1s4.1,0.1,5.3,0.1l14.2-0.1c0.5-0.1,1-0.1,1.6-0.1
		c0.9,0,1.3,0.3,1.3,0.8c0,0.7-1.2,1-3.5,0.9s-3.5,0.4-3.5,1.5c0,0.8,0.3,2,0.9,3.6c0.9,2.2,1.3,3.5,1.4,3.8
		c3.8,10.5,6.9,18.6,9.3,24.1c7.2-18.4,10.8-28.8,10.8-31.4c0-0.9-0.9-1.3-2.7-1.3c-3.7,0-5.6-0.3-5.6-1s0.5-1,1.4-1
		c0.8,0,1.6,0,2.3,0.1c1.5,0.2,3.5,0.2,6,0.2c0.3,0,1.4,0,3.4-0.1c2-0.2,3.3-0.2,4-0.2h0.7C681.3,63.8,681.7,64.1,681.7,64.6z
		 M721.4,106.7c0,0.9-0.7,2-2.2,3.4c-3.8,3.6-9,5.5-15.7,5.5c-6.1,0-10.2-1.5-12.1-4.5c-0.8-1.2-1.2-2.2-1.4-3.3
		c-0.1-1-0.1-3.6-0.1-7.8v-5.6c0-1.5,0-3,0-4.7c-0.1-1.6-0.1-2.4-0.1-2.4V76.8l-0.1-8.4c0-1.4-0.2-2.2-0.6-2.4
		c-0.4-0.2-1.6-0.3-3.5-0.3c-2.3,0-3.5-0.3-3.5-0.9c0-0.5,0.4-0.8,1.3-0.9c7.3-0.2,13.6-4.2,18.8-11.9c0.7-1.1,1.2-1.6,1.6-1.6
		c0.5,0,0.7,0.5,0.7,1.6c-0.1,6.7,0.2,10.3,0.8,10.9c0.6,0.6,2.5,0.9,5.7,0.9c3.3,0,5.5-0.2,6.9-0.5c0.2-0.1,0.3-0.1,0.5-0.1
		c0.3,0,0.5,0.2,0.5,0.7c0,1.1-0.5,1.6-1.5,1.6c-3.2,0.1-6.7,0.1-10.6,0.1c-0.3,0-0.9,0-1.6-0.1V68c0,20.8,0.3,32.9,0.8,36.5
		c0.7,4.5,2.9,6.7,6.5,6.7c1.6,0,3.7-1.2,6.3-3.5c1.2-1.1,2-1.6,2.3-1.6C721.3,106.1,721.4,106.3,721.4,106.7z M769.5,71
		c0,2.2-0.7,4.1-2,5.6c-1.3,1.4-3,2.1-5.1,2.1c-4.2,0-6.3-1.9-6.3-5.8c0-1.3,0.5-2.6,1.5-4c0.2-0.3,0.3-0.6,0.3-0.8
		c0-0.7-0.5-1-1.5-1c-2.6,0-4.7,2.1-6,6.2c-0.8,2.3-1.2,8-1.2,17.1v8.5l0.1,10.2c0,2.1,1,3.2,3.1,3.4c1.2,0.1,2.7,0.1,4.4,0.1
		c0.9,0.1,1.3,0.3,1.3,0.8c0,0.6-0.3,0.9-1,0.9h-2.3c-0.7-0.1-4.1-0.1-10.1-0.1c0.3,0-1.4,0-5.2,0.1l-5.7,0.1h-4.4
		c-0.8,0.1-1.7,0.1-2.7,0.1c-0.9,0-1.3-0.3-1.3-0.8c0-0.5,0.5-0.8,1.6-0.8c3.2-0.1,5.1-0.4,5.7-0.9c0.7-0.6,1-2.4,1-5.2l-0.1-31.4
		c0-2.6-0.4-4.5-1.2-5.5c-0.7-1-2.3-1.6-4.9-1.9c-2-0.2-3.2-0.3-3.5-0.3c-0.2-0.1-0.3-0.3-0.3-0.8c0-0.5,0.3-0.7,0.9-0.7
		c0.7,0,1.4,0,2,0.1h2.3c6,0,12.4-1.2,19.3-3.7c0.4,1.6,0.6,3.3,0.6,5.3v4.9c1.5-3.8,3.1-6.5,4.8-8c1.8-1.6,4.1-2.3,6.9-2.3
		c2.6,0,4.8,0.8,6.4,2.4C768.6,66.5,769.5,68.5,769.5,71z M830,108c0,0.6-0.6,1.5-1.9,2.6c-3.3,3-7.4,4.5-12.3,4.5
		c-3.2,0-5.5-0.7-7-2c-1.4-1.3-2.3-3.7-2.8-7.1c-3.5,6.4-8.3,9.5-14.3,9.5c-3.3,0-6-1-8.1-3.1c-2-2.1-3-4.8-3-8.1
		c0-9.8,8.4-15.5,25.1-17.3v-2.4c0-7.8-0.3-12.5-0.8-14.3l-0.1-0.6c-1.1-3.9-3.8-5.8-8.3-5.8c-2.6,0-4.6,0.7-6.2,2.2
		c-1.5,1.5-2.3,2.9-2.3,4.3c0,0.8,0.9,1.2,2.8,1.4c2.8,0.2,4.2,1.9,4.2,5.1c0,1.7-0.6,3.1-1.7,4.3c-1.1,1.1-2.5,1.6-4.3,1.6
		c-2.2,0-4.1-0.7-5.6-2c-1.4-1.4-2.1-3.1-2.1-5.2c0-3.3,1.7-6.4,5-9.1c3.3-2.7,7.7-4.1,13.1-4.1c8.1,0,13.7,1.4,16.9,4.3
		c2.6,2.4,3.8,6.6,3.8,12.6v19.9c0,3.9,0,6.1,0.1,6.7c0.4,3.3,1.5,4.9,3.4,4.9c1.3,0,3-0.9,4.9-2.8c0.4-0.4,0.7-0.6,0.9-0.6
		C829.8,107.4,830,107.6,830,108z M805.7,94.1v-5.7c-7.5,1.5-11.3,5.7-11.3,12.8c0,5.4,1.9,8.1,5.6,8.1c2.1,0,3.6-1.2,4.4-3.5
		C805.3,103.6,805.7,99.6,805.7,94.1z M859,39.7c0,2.2-0.7,4-2.2,5.6c-1.5,1.6-3.3,2.3-5.3,2.3c-2.2,0-4-0.7-5.5-2.2
		c-1.5-1.5-2.2-3.3-2.2-5.6c0-2.2,0.7-4,2.2-5.3c1.5-1.4,3.4-2.1,5.7-2.1c2.1,0,3.8,0.7,5.2,2.1C858.3,35.9,859,37.6,859,39.7z
		 M867.4,113.4c0,0.5-0.3,0.8-1,0.8l-15.5-0.2l-11.2,0.2c-0.5,0-1,0-1.7,0.1c-0.6,0-1,0-1,0c-0.9,0-1.4-0.3-1.4-0.9
		c0-0.5,0.9-0.7,2.7-0.8c2.6-0.1,4.2-0.3,4.7-0.8c0.5-0.5,0.7-2.1,0.7-4.7V73.8c0-2.9-0.3-4.7-0.8-5.2c-0.5-0.6-2-0.9-4.5-0.9
		c-1.6,0-2.6,0-2.9-0.1c-0.2-0.1-0.3-0.3-0.3-0.8c0-0.5,0.6-0.8,1.7-0.8c8.5-0.1,15.8-1.4,21.9-4c0.2,0.9,0.3,3.5,0.6,7.7l0.1,14.8
		v21.9c0,3.2,0.3,5,0.8,5.6c0.6,0.5,2.6,0.8,6,0.8C866.9,112.6,867.4,112.9,867.4,113.4z M906.3,113.3c0,0.6-1.5,0.9-4.4,0.9
		c-0.7,0-2.9-0.1-6.5-0.2c-1.9-0.1-3.7-0.1-5.5-0.1c-1.7,0-4.9,0.1-9.5,0.2l-3.5,0.1c-1.7,0.1-2.6-0.2-2.6-0.8
		c0-0.6,0.9-0.9,2.7-0.8c2.7,0.1,4.3-0.2,4.7-0.8c0.5-0.6,0.7-2.9,0.7-7V43.5c0-2.6-0.3-4.2-0.8-4.7c-0.5-0.5-2.1-0.8-4.8-0.8
		c-1.9,0-2.9-0.3-2.9-0.8c0-0.6,1-1,3-1c8.7-0.3,15.8-1.6,21.3-4c-0.1,2.3-0.1,15.9-0.1,40.8v29c0,5.3,0.1,8.4,0.3,9.3
		c0.3,0.9,1.3,1.2,2.9,1.2l3.5-0.1C905.8,112.4,906.3,112.7,906.3,113.3z M951.6,98.1c0,5.2-1.6,9.4-4.8,12.7
		c-3.2,3.2-7.3,4.8-12.3,4.8c-2.5,0-5.4-0.6-8.8-1.9c-2.8-1-4.6-1.5-5.5-1.5c-1.5,0-2.4,0.5-2.9,1.6c-0.5,1.1-0.8,1.6-1,1.6
		c-0.5,0-0.7-0.3-0.7-0.8c0-0.5,0.1-1.2,0.2-2.2c0.2-1.5,0.3-4,0.3-7.7c0-0.2,0-0.5,0-1.2c-0.1-0.6-0.1-1.5-0.1-2.6v-2
		c0-0.9,0.2-1.3,0.6-1.3c0.5,0,0.8,0.6,1,1.7c0.7,4.1,2.7,7.6,5.9,10.4c3.3,2.7,6.9,4.1,10.9,4.1c2.6,0,4.6-0.8,6.2-2.3
		c1.6-1.6,2.4-3.7,2.4-6.3c0-2-0.7-3.7-2.2-5.1c-1.1-1-4-2.3-8.7-3.8c-5.8-1.9-10-4.3-12.7-7c-2.6-2.8-3.8-6.3-3.8-10.6
		c0-4.6,1.6-8.5,4.7-11.6c3.1-3.2,6.9-4.8,11.4-4.8c1.7,0,4.7,0.5,8.8,1.6c0.6,0.2,1.1,0.2,1.4,0.2c1.7,0,3-1,3.8-3.1
		c0.2-0.4,0.3-0.6,0.6-0.6c0.5,0,0.8,0.5,0.8,1.4c0,0,0,0.7-0.1,2.2c-0.1,0.3-0.1,0.9-0.1,1.6c0,3.2,0.2,6.4,0.6,9.8v0.6
		c0,0.6-0.2,0.9-0.7,0.9c-0.4,0-0.7-0.3-0.9-1c-2.2-7.9-6.8-11.9-13.7-11.9c-2.6,0-4.7,0.7-6.4,2.1c-1.6,1.4-2.4,3.2-2.4,5.3
		c0,2,0.7,3.6,2.1,4.8s4.1,2.5,8.1,4c7.1,2.5,11.8,5,14.3,7.4C950.3,90.2,951.6,93.7,951.6,98.1z"/>
	<path class="st2" d="M529,191.5c-2.5,0-4.6-0.4-6.3-1.3c-1.7-0.9-3.1-2.1-4-3.7c-0.9-1.6-1.4-3.4-1.4-5.4c0-2.1,0.3-4,1-5.8
		c0.7-1.8,1.7-3.3,3-4.7c1.3-1.3,2.9-2.4,4.7-3.1c1.8-0.8,3.9-1.2,6.1-1.2c2.4,0,4.5,0.4,6.3,1.3c1.7,0.9,3.1,2.1,4,3.7
		c0.9,1.6,1.4,3.4,1.4,5.4c0,2.1-0.4,4-1.1,5.8c-0.7,1.8-1.7,3.3-3,4.6c-1.3,1.3-2.9,2.4-4.7,3.1C533.3,191.2,531.3,191.5,529,191.5
		z M529.4,187.6c1.5,0,2.9-0.3,4.2-0.8c1.2-0.6,2.3-1.3,3.1-2.3c0.9-1,1.6-2.1,2-3.3c0.5-1.3,0.7-2.6,0.7-4c0-1.3-0.3-2.5-0.9-3.5
		c-0.6-1-1.4-1.8-2.5-2.4c-1.1-0.6-2.5-0.8-4.1-0.8c-1.5,0-2.9,0.3-4.2,0.8c-1.2,0.5-2.3,1.3-3.2,2.3c-0.9,1-1.5,2.1-2,3.3
		c-0.4,1.3-0.7,2.6-0.7,4c0,1.3,0.3,2.5,0.8,3.5c0.6,1,1.4,1.8,2.5,2.4S527.8,187.6,529.4,187.6z M561.4,172.3c1.6,0,3,0.3,4.1,1
		c1.1,0.7,1.9,1.6,2.3,2.9c0.5,1.3,0.5,2.8,0.1,4.6l-2.1,10.3h-4.4l2-10.2c0.3-1.5,0.2-2.7-0.4-3.5c-0.6-0.9-1.6-1.3-3.2-1.3
		c-1.6,0-2.9,0.4-4,1.3s-1.8,2.2-2.1,4l-2,9.7h-4.4l3.7-18.6h4.2l-1,5.3l-0.7-1.7c0.9-1.3,2-2.3,3.3-2.9
		C558.3,172.7,559.8,172.3,561.4,172.3z M573.1,191.2l5.2-25.9h4.4l-2.3,11.6l-1.4,4.8l-0.7,4.4l-1,5.1H573.1z M584.4,191.4
		c-1.5,0-2.9-0.3-4-0.8c-1.1-0.6-2-1.4-2.6-2.4c-0.6-1.1-0.9-2.4-0.9-4c0-1.7,0.2-3.3,0.6-4.8c0.4-1.5,1.1-2.7,1.9-3.8
		c0.9-1.1,1.9-1.9,3.1-2.4c1.2-0.6,2.6-0.9,4.1-0.9c1.5,0,2.9,0.3,4.2,1c1.2,0.6,2.2,1.6,2.9,2.8c0.7,1.2,1.1,2.7,1.1,4.4
		c0,1.6-0.3,3-0.8,4.4c-0.5,1.3-1.2,2.5-2.2,3.5c-1,1-2.1,1.7-3.3,2.3C587.3,191.2,585.9,191.4,584.4,191.4z M584.1,187.7
		c1.3,0,2.4-0.3,3.3-0.9c1-0.6,1.7-1.4,2.3-2.5c0.6-1,0.8-2.3,0.8-3.6c0-1.4-0.4-2.6-1.3-3.4c-0.9-0.8-2.1-1.3-3.6-1.3
		c-1.2,0-2.3,0.3-3.3,0.9c-1,0.6-1.7,1.4-2.3,2.4c-0.6,1-0.8,2.3-0.8,3.6c0,1.4,0.4,2.6,1.3,3.4
		C581.3,187.3,582.5,187.7,584.1,187.7z M608,191.4c-1.8,0-3.4-0.3-4.8-1c-1.3-0.7-2.4-1.7-3.1-2.9c-0.7-1.2-1.1-2.7-1.1-4.3
		c0-2.1,0.5-4,1.4-5.6c1-1.7,2.3-2.9,3.9-3.9c1.7-1,3.6-1.4,5.7-1.4c1.8,0,3.4,0.3,4.8,1c1.4,0.7,2.4,1.6,3.2,2.8
		c0.7,1.2,1.1,2.7,1.1,4.3c0,2.1-0.5,3.9-1.4,5.6c-1,1.7-2.3,3-3.9,3.9C612.1,190.9,610.2,191.4,608,191.4z M608.3,187.7
		c1.3,0,2.4-0.3,3.3-0.9c1-0.6,1.7-1.4,2.3-2.5c0.6-1,0.8-2.3,0.8-3.6c0-1.4-0.4-2.6-1.3-3.4c-0.9-0.8-2.1-1.3-3.6-1.3
		c-1.2,0-2.3,0.3-3.3,0.9c-1,0.6-1.7,1.4-2.3,2.4c-0.6,1-0.8,2.3-0.8,3.6c0,1.5,0.4,2.6,1.3,3.5
		C605.5,187.3,606.7,187.7,608.3,187.7z M631.4,191.4c-1.5,0-2.9-0.3-4.2-1c-1.2-0.7-2.2-1.6-3-2.8c-0.7-1.2-1.1-2.7-1.1-4.4
		c0-1.6,0.3-3,0.8-4.4c0.5-1.3,1.3-2.5,2.2-3.5s2.1-1.7,3.3-2.3c1.3-0.5,2.7-0.8,4.2-0.8c1.6,0,2.9,0.3,4,0.8c1.1,0.6,2,1.4,2.6,2.5
		c0.6,1.1,0.8,2.5,0.8,4.2c0,2.3-0.5,4.3-1.3,6.1c-0.8,1.7-1.9,3.1-3.3,4C635.1,190.9,633.4,191.4,631.4,191.4z M632.5,187.7
		c1.3,0,2.4-0.3,3.3-0.9c1-0.6,1.7-1.4,2.3-2.5c0.6-1,0.8-2.3,0.8-3.6c0-1.4-0.4-2.6-1.3-3.4c-0.9-0.8-2.1-1.3-3.6-1.3
		c-1.2,0-2.3,0.3-3.3,0.9c-1,0.6-1.7,1.4-2.3,2.4c-0.6,1-0.8,2.3-0.8,3.6c0,1.4,0.4,2.6,1.3,3.4C629.8,187.3,631,187.7,632.5,187.7z
		 M637.1,191.2l0.8-4.3l1.2-5l0.6-5l0.9-4.4h4.4l-3.7,18.6H637.1z M648.7,191.2l3.7-18.6h4.2l-1,5.3l-0.4-1.5c0.9-1.5,2-2.5,3.3-3.1
		c1.3-0.6,2.9-0.9,4.8-0.9l-0.8,4.2c-0.2,0-0.4-0.1-0.5-0.1c-0.2,0-0.3,0-0.6,0c-1.7,0-3.1,0.5-4.2,1.4c-1.1,0.9-1.9,2.3-2.2,4.3
		l-1.8,9.2H648.7z M673.2,191.4c-1.5,0-2.9-0.3-4.2-1c-1.3-0.7-2.2-1.6-3-2.8c-0.7-1.2-1.1-2.7-1.1-4.4c0-1.6,0.3-3,0.8-4.4
		c0.5-1.3,1.3-2.5,2.2-3.5s2.1-1.7,3.3-2.3c1.3-0.5,2.7-0.8,4.2-0.8c1.5,0,2.9,0.3,4,0.8c1.1,0.5,2,1.3,2.6,2.4
		c0.6,1.1,0.9,2.4,0.9,4c0,1.7-0.2,3.3-0.7,4.8c-0.4,1.4-1.1,2.7-1.9,3.8c-0.8,1-1.9,1.9-3.1,2.4
		C676.1,191.1,674.7,191.4,673.2,191.4z M674.3,187.7c1.2,0,2.3-0.3,3.3-0.9c1-0.6,1.7-1.4,2.3-2.5c0.6-1,0.8-2.3,0.8-3.6
		c0-1.4-0.4-2.6-1.3-3.4c-0.8-0.8-2-1.3-3.6-1.3c-1.2,0-2.3,0.3-3.3,0.9c-1,0.6-1.7,1.4-2.3,2.4c-0.5,1-0.8,2.3-0.8,3.6
		c0,1.4,0.4,2.6,1.3,3.4C671.5,187.3,672.7,187.7,674.3,187.7z M678.8,191.2l0.9-4.3l1.2-5l0.6-5l2.3-11.7h4.4l-5.2,25.9H678.8z
		 M708.2,191.2l1.9-9.7l0.5,2.9l-7.1-17.6h4.5l5.7,14.1l-2.7,0l11.4-14.1h4.7l-14.1,17.7l1.5-3l-2,9.7H708.2z M733.8,191.4
		c-1.8,0-3.4-0.3-4.8-1c-1.3-0.7-2.4-1.7-3.1-2.9c-0.7-1.2-1.1-2.7-1.1-4.3c0-2.1,0.5-4,1.4-5.6c1-1.7,2.3-2.9,3.9-3.9
		c1.7-1,3.6-1.4,5.7-1.4c1.8,0,3.4,0.3,4.8,1c1.4,0.7,2.4,1.6,3.2,2.8c0.7,1.2,1.1,2.7,1.1,4.3c0,2.1-0.5,3.9-1.4,5.6
		c-1,1.7-2.3,3-3.9,3.9C737.8,190.9,735.9,191.4,733.8,191.4z M734.1,187.7c1.3,0,2.4-0.3,3.3-0.9c1-0.6,1.7-1.4,2.3-2.5
		c0.6-1,0.8-2.3,0.8-3.6c0-1.4-0.4-2.6-1.3-3.4c-0.9-0.8-2.1-1.3-3.6-1.3c-1.2,0-2.3,0.3-3.3,0.9c-1,0.6-1.7,1.4-2.3,2.4
		c-0.6,1-0.8,2.3-0.8,3.6c0,1.5,0.4,2.6,1.3,3.5C731.3,187.3,732.5,187.7,734.1,187.7z M756.8,191.4c-1.6,0-2.9-0.3-4-1
		c-1.1-0.7-1.9-1.6-2.3-2.9c-0.5-1.3-0.5-2.8-0.1-4.7l2.1-10.3h4.4l-2.1,10.2c-0.3,1.5-0.1,2.7,0.4,3.6c0.6,0.8,1.6,1.3,3.1,1.3
		c1.6,0,2.9-0.4,3.9-1.3c1.1-0.9,1.8-2.2,2.1-4l2-9.7h4.3l-3.7,18.6h-4.2l1-5.3l0.7,1.7c-0.9,1.3-2,2.3-3.4,2.9
		C759.8,191.1,758.3,191.4,756.8,191.4z M774.3,191.2l3.7-18.6h4.2l-1,5.3l-0.4-1.5c0.9-1.5,2-2.5,3.3-3.1c1.3-0.6,2.9-0.9,4.8-0.9
		l-0.8,4.2c-0.2,0-0.4-0.1-0.5-0.1c-0.2,0-0.3,0-0.6,0c-1.7,0-3.1,0.5-4.2,1.4c-1.1,0.9-1.9,2.3-2.2,4.3l-1.8,9.2H774.3z
		 M802.5,191.2l4.9-24.4h9.9c2.5,0,4.6,0.4,6.4,1.3c1.8,0.8,3.1,2,4,3.5c1,1.5,1.4,3.3,1.4,5.3c0,2.2-0.4,4.1-1.1,5.9
		c-0.7,1.8-1.8,3.3-3.1,4.5c-1.3,1.2-2.9,2.2-4.8,2.9c-1.9,0.7-3.9,1-6.2,1H802.5z M807.8,187.3h6.2c2.2,0,4.1-0.4,5.6-1.3
		c1.6-0.9,2.8-2.1,3.6-3.7c0.8-1.5,1.3-3.3,1.3-5.2c0-1.3-0.3-2.5-0.9-3.5c-0.6-1-1.5-1.7-2.6-2.3c-1.1-0.5-2.6-0.8-4.3-0.8h-5.6
		L807.8,187.3z M832.6,191.2l3.7-18.6h4.2l-1,5.3l-0.4-1.5c0.9-1.5,2-2.5,3.3-3.1c1.3-0.6,2.9-0.9,4.8-0.9l-0.8,4.2
		c-0.2,0-0.4-0.1-0.5-0.1c-0.2,0-0.3,0-0.6,0c-1.7,0-3.1,0.5-4.2,1.4c-1.1,0.9-1.9,2.3-2.2,4.3l-1.8,9.2H832.6z M858,191.4
		c-1.9,0-3.5-0.3-4.8-1c-1.4-0.7-2.4-1.7-3.2-2.9c-0.7-1.2-1.1-2.7-1.1-4.3c0-2.1,0.5-4,1.4-5.6c0.9-1.6,2.2-2.9,3.8-3.8
		c1.6-1,3.5-1.4,5.5-1.4c1.7,0,3.3,0.3,4.5,1c1.3,0.7,2.3,1.6,3,2.8c0.7,1.2,1.1,2.7,1.1,4.4c0,0.4,0,0.9-0.1,1.4
		c0,0.5-0.1,0.9-0.2,1.3h-15.8l0.5-2.9h13.3l-1.8,1c0.2-1.2,0.1-2.2-0.2-3s-0.9-1.4-1.7-1.8c-0.8-0.4-1.7-0.6-2.8-0.6
		c-1.3,0-2.4,0.3-3.4,0.9c-0.9,0.6-1.6,1.4-2.2,2.5c-0.5,1.1-0.8,2.3-0.8,3.8c0,1.5,0.4,2.7,1.3,3.5c0.9,0.8,2.2,1.2,4.1,1.2
		c1,0,2-0.2,3-0.5c1-0.3,1.7-0.8,2.4-1.4l1.8,3c-1,0.9-2.1,1.5-3.5,2C860.9,191.2,859.5,191.4,858,191.4z M880.4,191.4
		c-1.5,0-2.9-0.3-4.2-1c-1.2-0.7-2.2-1.6-3-2.8c-0.7-1.2-1.1-2.7-1.1-4.4c0-1.6,0.3-3,0.8-4.4c0.5-1.3,1.3-2.5,2.2-3.5
		c1-1,2.1-1.7,3.3-2.3c1.3-0.5,2.7-0.8,4.2-0.8c1.6,0,2.9,0.3,4,0.8c1.1,0.6,2,1.4,2.6,2.5c0.6,1.1,0.9,2.5,0.8,4.2
		c-0.1,2.3-0.5,4.3-1.3,6.1c-0.8,1.7-1.9,3.1-3.3,4C884.1,190.9,882.4,191.4,880.4,191.4z M881.5,187.7c1.3,0,2.4-0.3,3.3-0.9
		c1-0.6,1.7-1.4,2.3-2.5c0.6-1,0.8-2.3,0.8-3.6c0-1.4-0.4-2.6-1.3-3.4c-0.9-0.8-2.1-1.3-3.6-1.3c-1.2,0-2.3,0.3-3.3,0.9
		c-1,0.6-1.7,1.4-2.3,2.4c-0.6,1-0.8,2.3-0.8,3.6c0,1.4,0.4,2.6,1.3,3.4C878.8,187.3,880,187.7,881.5,187.7z M886.1,191.2l0.8-4.3
		l1.2-5l0.6-5l0.9-4.4h4.4l-3.7,18.6H886.1z M924.4,172.3c1.6,0,3,0.3,4.1,1c1.1,0.7,1.9,1.6,2.3,2.9c0.4,1.3,0.5,2.8,0.1,4.6
		l-2.1,10.3h-4.4l2.1-10.2c0.3-1.5,0.2-2.7-0.4-3.6c-0.6-0.8-1.6-1.3-3-1.3c-1.5,0-2.8,0.4-3.7,1.3c-1,0.9-1.6,2.2-2,4l-2,9.7h-4.4
		l2.1-10.2c0.3-1.5,0.2-2.7-0.4-3.6c-0.6-0.8-1.6-1.3-3-1.3c-1.5,0-2.8,0.4-3.7,1.3c-1,0.9-1.6,2.2-2,4l-2,9.7h-4.4l3.7-18.6h4.2
		l-1,5.1l-0.7-1.5c0.9-1.3,1.9-2.3,3.2-2.9c1.3-0.6,2.7-0.9,4.3-0.9c1.2,0,2.3,0.2,3.2,0.6c0.9,0.4,1.7,1,2.2,1.8
		c0.6,0.8,0.9,1.8,1,3l-2.1-0.5c1-1.7,2.2-2.9,3.7-3.8C920.8,172.8,922.5,172.3,924.4,172.3z M942.5,191.4c-1.6,0-3.2-0.2-4.6-0.6
		s-2.5-0.9-3.3-1.4l1.8-3.3c0.8,0.5,1.7,1,2.9,1.3c1.2,0.3,2.4,0.5,3.6,0.5c1.4,0,2.5-0.2,3.2-0.6c0.7-0.4,1-0.9,1-1.6
		c0-0.5-0.2-0.9-0.7-1.2c-0.5-0.3-1.1-0.5-1.9-0.6c-0.7-0.2-1.6-0.3-2.4-0.5c-0.9-0.2-1.7-0.4-2.4-0.8c-0.7-0.3-1.4-0.8-1.9-1.4
		c-0.5-0.6-0.7-1.5-0.7-2.5c0-1.3,0.4-2.5,1.1-3.4c0.7-0.9,1.8-1.6,3.1-2.1c1.4-0.5,2.9-0.8,4.6-0.8c1.3,0,2.5,0.1,3.7,0.4
		c1.2,0.3,2.2,0.7,3,1.2l-1.6,3.3c-0.8-0.5-1.7-0.9-2.7-1.1c-1-0.2-1.9-0.3-2.8-0.3c-1.4,0-2.5,0.2-3.2,0.7c-0.7,0.4-1,1-1,1.6
		c0,0.5,0.2,0.9,0.7,1.2c0.5,0.3,1.1,0.5,1.8,0.7c0.8,0.2,1.6,0.3,2.4,0.5c0.9,0.2,1.7,0.4,2.4,0.7c0.8,0.3,1.4,0.8,1.9,1.4
		c0.5,0.6,0.7,1.4,0.7,2.4c0,1.3-0.4,2.5-1.1,3.5c-0.7,0.9-1.8,1.6-3.1,2.1C945.8,191.2,944.3,191.4,942.5,191.4z"/>
</g>
</svg>
