<svg xmlns="http://www.w3.org/2000/svg" xmlns:xlink="http://www.w3.org/1999/xlink" width="100" zoomAndPan="magnify" viewBox="0 0 75 37.5" height="50" preserveAspectRatio="xMidYMid meet" version="1.0"><defs><clipPath id="6e72e0a67b"><path d="M 30.839844 15.960938 L 60.445312 15.960938 L 60.445312 18.183594 L 30.839844 18.183594 Z M 30.839844 15.960938 " clip-rule="nonzero"/></clipPath><clipPath id="1340faeed2"><path d="M 1 15.21875 L 74.503906 15.21875 L 74.503906 21.878906 L 1 21.878906 Z M 1 15.21875 " clip-rule="nonzero"/></clipPath></defs><g clip-path="url(#6e72e0a67b)"><path fill="#f34336" d="M 48.070312 15.976562 L 47.929688 15.976562 C 45.570312 15.964844 41.492188 16.085938 35.691406 16.339844 C 34.960938 16.378906 34.003906 16.449219 32.808594 16.550781 C 32.511719 16.570312 31.972656 16.640625 31.191406 16.765625 L 30.957031 16.78125 C 31.21875 16.804688 31.585938 16.808594 32.058594 16.792969 L 34.699219 16.667969 L 35.640625 16.628906 C 39.886719 16.472656 42.820312 16.375 44.441406 16.339844 C 46.257812 16.292969 48.453125 16.289062 51.03125 16.332031 C 49.953125 16.363281 48.226562 16.425781 45.863281 16.519531 C 45.089844 16.558594 44.5 16.605469 44.089844 16.660156 C 43.707031 16.652344 43.488281 16.652344 43.425781 16.65625 C 43.367188 16.664062 43.492188 16.679688 43.804688 16.703125 C 43.175781 16.808594 42.964844 16.910156 43.171875 17.007812 C 43.285156 17.035156 43.359375 17.042969 43.394531 17.039062 C 45.488281 17.085938 48.273438 17.175781 51.75 17.3125 C 53.558594 17.394531 55.324219 17.5 57.042969 17.628906 C 56.96875 17.632812 56.90625 17.648438 56.859375 17.675781 C 56.820312 17.679688 56.773438 17.734375 56.71875 17.84375 C 56.695312 18.070312 56.761719 18.183594 56.914062 18.183594 C 59.003906 18.082031 60.039062 18.015625 60.027344 17.984375 C 60.226562 17.914062 60.296875 17.820312 60.242188 17.703125 C 60.179688 17.535156 60.046875 17.4375 59.84375 17.414062 C 57.839844 17.25 55.898438 17.117188 54.019531 17.011719 C 52.808594 16.941406 50.921875 16.863281 48.351562 16.78125 C 50.003906 16.730469 51.488281 16.6875 52.804688 16.65625 L 57.214844 16.589844 C 57.679688 16.585938 58 16.574219 58.175781 16.5625 C 58.25 16.558594 58.304688 16.546875 58.339844 16.53125 L 58.417969 16.386719 C 58.441406 16.28125 58.402344 16.207031 58.292969 16.167969 C 58.246094 16.152344 58.117188 16.144531 57.902344 16.140625 C 55.976562 16.09375 54.40625 16.054688 53.191406 16.03125 C 51.417969 16 49.710938 15.980469 48.070312 15.976562 " fill-opacity="1" fill-rule="nonzero"/></g><g clip-path="url(#1340faeed2)"><path fill="#df6011" d="M 59.65625 15.210938 L 59.429688 15.210938 C 46.730469 15.238281 37.152344 15.472656 30.695312 15.910156 C 28.171875 16.070312 25.875 16.257812 23.796875 16.46875 C 17.363281 17.179688 12.765625 17.734375 10.003906 18.128906 C 8.371094 18.355469 6.941406 18.570312 5.71875 18.773438 C 4.851562 18.886719 3.484375 19.164062 1.617188 19.605469 C 0.894531 20.15625 0.964844 20.597656 1.828125 20.9375 C 4.601562 20.308594 7.410156 19.816406 10.25 19.464844 C 16.199219 18.664062 21.816406 18.019531 27.105469 17.527344 C 23.703125 17.925781 19.71875 18.484375 15.152344 19.203125 C 14.980469 19.234375 14.847656 19.3125 14.742188 19.433594 C 14.0625 19.558594 13.285156 19.734375 12.410156 19.957031 C 11.5625 20.167969 11.117188 20.457031 11.074219 20.828125 C 10.929688 21.328125 11.207031 21.644531 11.902344 21.773438 C 12.300781 21.773438 12.949219 21.710938 13.855469 21.59375 C 21.558594 20.460938 26.78125 19.707031 29.519531 19.332031 C 30.503906 19.179688 32.328125 18.964844 34.984375 18.679688 C 38.277344 18.492188 42.691406 18.375 48.226562 18.328125 C 56.664062 18.304688 64.195312 18.378906 70.816406 18.546875 C 71.773438 18.550781 72.519531 18.53125 73.054688 18.480469 C 74.011719 18.242188 74.316406 17.8125 73.976562 17.179688 C 73.878906 16.863281 73.125 16.648438 71.71875 16.539062 C 71.90625 16.003906 71.769531 15.664062 71.304688 15.515625 C 70.3125 15.40625 69.179688 15.339844 67.902344 15.3125 L 61.960938 15.226562 C 61.152344 15.21875 60.386719 15.210938 59.65625 15.210938 " fill-opacity="1" fill-rule="nonzero"/></g></svg>