<svg width="24" height="25" viewBox="0 0 24 25" fill="none" xmlns="http://www.w3.org/2000/svg">
<path d="M23.0819 5.31147L18.2224 3.90649V22.6138C18.2224 22.71 18.2224 22.8063 18.2031 22.8832C18.8009 22.941 19.3601 22.5753 19.5337 21.9787L23.9497 6.87041C24.1425 6.21604 23.7568 5.50393 23.0819 5.31147Z" fill="#21325D"/>
<path d="M7.11524 5.98511C6.59458 6.21606 6.13177 6.54325 5.74609 6.94742H6.691C6.8067 6.60099 6.96097 6.2738 7.11524 5.98511Z" fill="#21325D"/>
<path d="M6.46061 7.79443H5.13003C4.86006 8.27559 4.66723 8.83373 4.60938 9.41111H6.26777C6.28706 8.83373 6.36419 8.29483 6.46061 7.79443Z" fill="#21325D"/>
<path d="M11.8398 6.94742C11.4542 6.54325 10.9914 6.21606 10.4707 5.98511C10.6443 6.25455 10.7792 6.58174 10.8949 6.94742H11.8398Z" fill="#21325D"/>
<path d="M5.74609 12.7213C6.13177 13.1255 6.59458 13.4527 7.11524 13.6836C6.94168 13.4142 6.8067 13.087 6.691 12.7213H5.74609Z" fill="#21325D"/>
<path d="M10.4706 9.41111C10.4513 8.81448 10.3742 8.27559 10.2585 7.79443H7.34664C7.23094 8.27559 7.1538 8.81448 7.11523 9.41111H10.4706Z" fill="#21325D"/>
<path d="M8.79325 5.63879C8.369 5.63879 7.92548 6.13919 7.59766 6.94753H9.96955C9.66101 6.13919 9.21749 5.63879 8.79325 5.63879Z" fill="#21325D"/>
<path d="M6.26777 10.2578H4.60938C4.66723 10.8352 4.84078 11.3933 5.13003 11.8745H6.46061C6.36419 11.3741 6.28706 10.8352 6.26777 10.2578Z" fill="#21325D"/>
<path d="M11.3198 9.41111H12.9782C12.9203 8.83373 12.7468 8.27559 12.4575 7.79443H11.127C11.2234 8.29483 11.3005 8.83373 11.3198 9.41111Z" fill="#21325D"/>
<path d="M8.79325 14.0301C9.21749 14.0301 9.66101 13.5297 9.98883 12.7213H7.59766C7.92548 13.5297 8.369 14.0301 8.79325 14.0301Z" fill="#21325D"/>
<path d="M11.127 11.8745H12.4575C12.7275 11.3933 12.9203 10.8352 12.9782 10.2578H11.3198C11.3005 10.8352 11.2234 11.3741 11.127 11.8745Z" fill="#21325D"/>
<path d="M4.41637 17.6483H3.68359V19.034H4.41637C4.99489 19.034 5.28414 18.8031 5.28414 18.3412C5.26486 17.8793 4.9756 17.6483 4.41637 17.6483Z" fill="#21325D"/>
<path d="M6.75 19.1496H7.75275L7.23209 18.0718L6.75 19.1496Z" fill="#21325D"/>
<path d="M15.6969 0.5H1.8898C0.848483 0.5 0 1.34683 0 2.38613V22.6139C0 23.6532 0.848483 24.5 1.8898 24.5H15.7162C16.7575 24.5 17.606 23.6532 17.606 22.6139V2.40537C17.606 1.34683 16.7575 0.5 15.6969 0.5ZM8.79337 4.7919C11.5702 4.7919 13.8264 7.04371 13.8264 9.81516C13.8264 12.5866 11.5702 14.8577 8.79337 14.8577C6.01652 14.8577 3.76032 12.6059 3.76032 9.8344C3.76032 7.06295 6.01652 4.7919 8.79337 4.7919ZM3.68319 19.6885V20.4775C3.68319 20.6508 3.5482 20.7855 3.37465 20.7855H3.33608C3.16253 20.7855 3.02754 20.6508 3.02754 20.4775V17.3019C3.02754 17.1287 3.16253 16.994 3.33608 16.994H4.41597C5.36087 16.994 5.93938 17.5136 5.93938 18.3412C5.93938 19.1881 5.36087 19.7077 4.41597 19.7077L3.68319 19.6885ZM9.00549 20.6508C8.94764 20.747 8.85122 20.8047 8.73552 20.8047H8.71623C8.60053 20.8047 8.48483 20.7277 8.42698 20.6123L8.06059 19.8039H6.46004L6.09365 20.6123C6.0358 20.7277 5.9201 20.8047 5.80439 20.8047H5.76583C5.65013 20.8047 5.55371 20.747 5.49586 20.6508C5.438 20.5545 5.438 20.4391 5.47657 20.3428L6.94213 17.1672C6.99998 17.0517 7.11569 16.9747 7.23139 16.9747H7.26996H7.30852C7.42423 16.9747 7.53993 17.0517 7.59778 17.1672L9.08262 20.3428C9.08262 20.4583 9.06334 20.5738 9.00549 20.6508ZM10.4132 20.8047C9.95039 20.8047 9.44901 20.6123 9.12119 20.2851C9.06334 20.2273 9.02477 20.1504 9.02477 20.0541C9.02477 19.9771 9.06334 19.8809 9.12119 19.8232L9.14048 19.8039C9.25618 19.6885 9.4683 19.6885 9.584 19.8039C9.77684 19.9964 10.1047 20.1311 10.4132 20.1311C10.741 20.1311 11.146 20.0156 11.146 19.7269C11.146 19.4383 10.9724 19.342 10.3939 19.1688C9.89254 19.0148 9.19833 18.8031 9.19833 17.9948C9.19833 17.3982 9.73827 16.994 10.5289 16.994C10.876 16.994 11.2424 17.0902 11.5124 17.2634C11.5895 17.3019 11.6281 17.3789 11.6474 17.4559C11.6666 17.5329 11.6474 17.6291 11.6088 17.6868V17.7061C11.5124 17.8601 11.3195 17.8986 11.1845 17.8023C11.0303 17.7061 10.7603 17.6484 10.5289 17.6484C10.2204 17.6484 9.87326 17.7446 9.87326 17.9948C9.87326 18.2642 10.0468 18.3605 10.606 18.5337C11.1267 18.6877 11.8209 18.8994 11.8209 19.7269C11.8016 20.3813 11.2424 20.8047 10.4132 20.8047ZM13.1708 20.8047C12.708 20.8047 12.2066 20.6123 11.8788 20.2851C11.8209 20.2273 11.7823 20.1504 11.7823 20.0541C11.7823 19.9771 11.8209 19.8809 11.8788 19.8232L11.898 19.8039C12.0137 19.6885 12.2259 19.6885 12.3416 19.8039C12.5344 19.9964 12.8622 20.1311 13.1708 20.1311C13.4986 20.1311 13.9035 20.0156 13.9035 19.7269C13.9035 19.4383 13.73 19.342 13.1515 19.1688C12.6501 19.0148 11.9559 18.8031 11.9559 17.9948C11.9559 17.3982 12.4958 16.994 13.2865 16.994C13.6336 16.994 14 17.0902 14.2699 17.2634C14.3471 17.3019 14.3856 17.3789 14.4049 17.4559C14.4242 17.5329 14.4049 17.6291 14.3664 17.7061H14.3471C14.2507 17.8601 14.0578 17.8986 13.9228 17.8023C13.7686 17.7061 13.4986 17.6484 13.2865 17.6484C12.9779 17.6484 12.6308 17.7446 12.6308 17.9948C12.6308 18.2642 12.8044 18.3605 13.3636 18.5337C13.8843 18.6877 14.5785 18.8994 14.5785 19.7269C14.5592 20.3813 14 20.8047 13.1708 20.8047Z" fill="#21325D"/>
<path d="M7.11523 10.2578C7.13452 10.8544 7.21165 11.3933 7.34664 11.8745H10.2585C10.3742 11.3933 10.4513 10.8544 10.4899 10.2578H7.11523Z" fill="#21325D"/>
<path d="M10.4707 13.6836C10.9914 13.4527 11.4542 13.1255 11.8398 12.7213H10.8949C10.7792 13.0677 10.625 13.3949 10.4707 13.6836Z" fill="#21325D"/>
</svg>
