<svg version="1.1" id="fi_422858" xmlns="http://www.w3.org/2000/svg" xmlns:xlink="http://www.w3.org/1999/xlink" x="0px" y="0px" viewBox="0 0 512 512" fill="#000" style="enable-background:new 0 0 512 512;" xml:space="preserve">
<g>
	<g>
		<path d="M256,94.563c-15.953,0-25.477,10.742-25.477,28.735c0,4.328,3.509,7.837,7.837,7.837c4.328,0,7.837-3.509,7.837-7.837
			c0-3.973,0.609-9.182,3.514-11.432c1.413-1.096,3.471-1.629,6.29-1.629c2.819,0,4.877,0.533,6.29,1.629
			c2.904,2.252,3.514,7.46,3.514,11.432c0,4.328,3.509,7.837,7.837,7.837c4.328,0,7.837-3.509,7.837-7.837
			C281.477,105.304,271.953,94.563,256,94.563z"></path>
	</g>
</g>
<g>
	<g>
		<path d="M497.407,257.875l-37.698-15.215v-24.047c0-7.203-5.859-13.061-13.061-13.061h-23.596
			c-7.202,0-13.061,5.859-13.061,13.061v3.983l-25.448-10.27V186.73c0-7.203-5.859-13.061-13.061-13.061h-23.596
			c-7.203,0-13.061,5.859-13.061,13.061v5.53l-30.447-12.288l2.293-51.892l0.007-0.346c0-10.562-2.319-20.49-6.373-29.124
			c-0.783-12.341-2.649-24.194-5.523-34.828c-1.13-4.177-5.429-6.651-9.611-5.52c-4.179,1.13-6.65,5.432-5.52,9.611
			c0.697,2.577,1.309,5.256,1.872,7.988c-7.501-5.209-16.22-8.21-25.524-8.21c-8.732,0-16.956,2.632-24.135,7.262
			c5.547-25.923,16.335-40.864,24.765-40.864c4.688,0,10.04,4.628,14.682,12.695c2.158,3.752,6.95,5.044,10.701,2.885
			c3.752-2.158,5.044-6.949,2.885-10.701c-9.771-16.987-20.764-20.553-28.266-20.553c-22.533,0-40.091,32.293-43.491,77.359
			c-4.942,9.272-7.817,20.242-7.817,31.998v0.173l2.3,52.065l-30.447,12.288v-5.53c0-7.203-5.859-13.061-13.061-13.061h-23.595
			c-7.202,0-13.061,5.859-13.061,13.061v25.596l-25.448,10.27v-3.983c0-7.203-5.859-13.061-13.061-13.061H65.352
			c-7.201,0-13.061,5.859-13.061,13.061v24.048l-37.698,15.215C6.274,261.233,0,270.531,0,279.502v16.501
			c0,10.082,8.203,18.286,18.286,18.286h33.224c1.285,5.804,6.314,10.151,12.317,10.151c6.003,0,11.032-4.348,12.317-10.151h27.724
			c1.285,5.804,6.314,10.151,12.317,10.151s11.032-4.348,12.317-10.151h27.723c1.285,5.804,6.314,10.151,12.317,10.151
			s11.032-4.348,12.317-10.151h32.693l3.845,87.061l-76.679,30.947c-8.32,3.358-14.593,12.168-14.593,20.491
			c0,9.456,8.203,17.151,18.286,17.151h93.108v5.399c0,10.082,8.203,18.286,18.286,18.286h0.385
			c10.082,0,18.286-8.203,18.286-18.286v-5.399h33.769c4.328,0,7.837-3.509,7.837-7.837c0-4.328-3.509-7.837-7.837-7.837h-21.738
			c0.163-0.316,0.336-0.619,0.494-0.943c4.29-8.804,6.588-20.397,7.002-35.311l71.408,28.819c2.731,1.102,4.787,4.374,4.787,5.957
			c0,0.507-1.018,1.477-2.612,1.477h-33.218c-4.328,0-7.837,3.509-7.837,7.837s3.509,7.837,7.837,7.837h33.218
			c10.082,0,18.286-7.694,18.286-17.151c0-8.324-6.274-17.133-14.593-20.492L294.6,401.35l3.845-87.061h32.693
			c1.285,5.804,6.314,10.151,12.317,10.151s11.033-4.348,12.318-10.151h27.723c1.285,5.804,6.314,10.151,12.317,10.151
			s11.032-4.348,12.317-10.151h27.724c1.285,5.804,6.314,10.151,12.317,10.151s11.032-4.348,12.317-10.151h33.225
			c10.082,0,18.286-8.203,18.286-18.286v-16.501C512,270.531,505.726,261.233,497.407,257.875z M143.131,189.341h18.37v9.243
			l-18.37,7.415V189.341z M67.964,221.225h18.371v7.697l-18.371,7.414V221.225z M77.026,298.616v-2.817
			c0-1.416,1.196-2.612,2.612-2.612H196.76c1.416,0,2.612,1.196,2.612,2.612v2.817H77.026z M196.761,277.513H79.638
			c-10.082,0-18.286,8.204-18.286,18.286v2.817H18.286c-1.416,0-2.612-1.196-2.612-2.612v-16.501c0-2.556,2.416-6.136,4.787-7.093
			l187.896-75.831l3.96,89.657C209.092,281.012,203.335,277.513,196.761,277.513z M425.665,221.225h18.371v15.11l-18.371-7.415
			V221.225z M350.498,189.341h18.371v16.657l-18.371-7.414V189.341z M144.414,454.265L144.414,454.265
			c-1.594,0-2.612-0.97-2.612-1.478c0-1.583,2.055-4.855,4.787-5.957l71.408-28.819c0.414,14.913,2.711,26.507,7.002,35.311
			c0.158,0.324,0.33,0.627,0.494,0.943H144.414z M258.805,475.337c0,1.416-1.196,2.612-2.612,2.612h-0.385
			c-1.416,0-2.612-1.196-2.612-2.612v-69.312c0-1.416,1.196-2.612,2.612-2.612h0.385c1.416,0,2.612,1.196,2.612,2.612V475.337z
			 M496.329,296.003h-0.002c0,1.416-1.196,2.612-2.612,2.612h-43.067v-2.678v-0.139c0-10.082-8.203-18.286-18.286-18.286h-34.256
			c-4.328,0-7.837,3.509-7.837,7.837s3.509,7.837,7.837,7.837h34.256c1.416,0,2.612,1.196,2.612,2.612v0.139v2.678H312.627v-2.678
			v-0.139c0-1.416,1.196-2.612,2.612-2.612h55.699c4.328,0,7.837-3.509,7.837-7.837s-3.509-7.837-7.837-7.837h-55.699
			c-6.574,0-12.333,3.5-15.555,8.723l2.104-47.654c0.191-4.324-3.159-7.984-7.484-8.175c-4.314-0.192-7.984,3.16-8.175,7.484
			l-7.719,174.755l-0.007,0.346c0,13.803-1.575,23.309-3.926,29.864v-36.831c0-10.082-8.203-18.286-18.286-18.286h-0.385
			c-10.082,0-18.286,8.203-18.286,18.286v36.831c-2.352-6.556-3.926-16.061-3.926-29.864v-0.172l-12.6-285.252
			c0.071-24.411,15.747-44.241,35.004-44.241s34.933,19.831,35.004,44.241l-3.489,78.977c-0.191,4.324,3.159,7.984,7.484,8.175
			c4.307,0.191,7.984-3.159,8.175-7.484l0.471-10.658l187.897,75.832c2.371,0.956,4.787,4.536,4.787,7.093V296.003z"></path>
	</g>
</g>
<g>
</g>
<g>
</g>
<g>
</g>
<g>
</g>
<g>
</g>
<g>
</g>
<g>
</g>
<g>
</g>
<g>
</g>
<g>
</g>
<g>
</g>
<g>
</g>
<g>
</g>
<g>
</g>
<g>
</g>
</svg>