<svg xmlns="http://www.w3.org/2000/svg" width="213.828" height="100.382" viewBox="0 0 213.828 100.382">
                          <g id="Group_165" data-name="Group 165" transform="translate(-576 -305.81)">
                            <g id="Group_162" data-name="Group 162" transform="translate(-28.485 -14.975)">
                              <g id="Group_161" data-name="Group 161" transform="translate(604.485 320.784)">
                                <g id="Group_65" data-name="Group 65" transform="translate(22.82 89.285)">
                                  <g id="Group_62" data-name="Group 62" transform="translate(0 0)">
                                    <path id="Path_65" data-name="Path 65" d="M75.583,769.364l-1.751,4.816,1.751,1.751,1.751-1.751Z" transform="translate(-73.029 -768.561)" fill="#dde8eb" />
                                    <path id="Path_66" data-name="Path 66" d="M74.386,775.537a.8.8,0,0,1-.568-.235l-1.751-1.751a.8.8,0,0,1-.187-.842l1.751-4.815a.8.8,0,0,1,1.509,0l1.751,4.815a.8.8,0,0,1-.187.842L74.954,775.3A.8.8,0,0,1,74.386,775.537Zm-.822-2.76.822.822.822-.822-.822-2.259Z" transform="translate(-71.832 -767.364)" fill="#a9c3d9" />
                                  </g>
                                  <g id="Group_64" data-name="Group 64" transform="translate(1.751 6.567)">
                                    <g id="Group_63" data-name="Group 63">
                                      <path id="Path_67" data-name="Path 67" d="M77,787.951a.8.8,0,0,1-.8-.8v-2.627a.8.8,0,0,1,1.606,0v2.627A.8.8,0,0,1,77,787.951Z" transform="translate(-76.193 -783.718)" fill="#a9c3d9" />
                                    </g>
                                  </g>
                                </g>
                                <g id="Group_69" data-name="Group 69" transform="translate(30.126 85.035)">
                                  <g id="Group_66" data-name="Group 66" transform="translate(0)">
                                    <path id="Path_68" data-name="Path 68" d="M94.589,758.779l-2.561,7.042,2.561,2.561,2.561-2.561Z" transform="translate(-91.226 -757.976)" fill="#dde8eb" />
                                    <path id="Path_69" data-name="Path 69" d="M93.392,767.988h0a.8.8,0,0,1-.568-.235l-2.561-2.561a.8.8,0,0,1-.187-.842l2.561-7.042a.8.8,0,0,1,1.509,0l2.561,7.042a.8.8,0,0,1-.187.842l-2.561,2.561A.8.8,0,0,1,93.392,767.988Zm-1.631-3.57,1.631,1.631,1.631-1.631-1.631-4.485Z" transform="translate(-90.029 -756.779)" fill="#a9c3d9" />
                                  </g>
                                  <g id="Group_68" data-name="Group 68" transform="translate(2.561 9.602)">
                                    <g id="Group_67" data-name="Group 67">
                                      <path id="Path_70" data-name="Path 70" d="M97.209,786.141a.8.8,0,0,1-.8-.8V781.5a.8.8,0,0,1,1.606,0v3.841A.8.8,0,0,1,97.209,786.141Z" transform="translate(-96.406 -780.694)" fill="#a9c3d9" />
                                    </g>
                                  </g>
                                </g>
                                <g id="Group_91" data-name="Group 91" transform="translate(30.917 11.644)">
                                  <g id="Group_71" data-name="Group 71" transform="translate(20.879 0)">
                                    <g id="Group_70" data-name="Group 70">
                                      <path id="Path_71" data-name="Path 71" d="M144.8,592.069a.8.8,0,0,1-.8-.8V574.8a.8.8,0,0,1,1.606,0v16.463A.8.8,0,0,1,144.8,592.069Z" transform="translate(-144 -574)" fill="#a9c3d9" />
                                    </g>
                                  </g>
                                  <g id="Group_73" data-name="Group 73" transform="translate(17.266 46.577)">
                                    <g id="Group_72" data-name="Group 72">
                                      <path id="Path_72" data-name="Path 72" d="M135.8,699.235a.8.8,0,0,1-.1-1.6l59.426-7.63a.8.8,0,0,1,.2,1.593l-59.426,7.629A.76.76,0,0,1,135.8,699.235Z" transform="translate(-135 -690)" fill="#a9c3d9" />
                                    </g>
                                  </g>
                                  <g id="Group_74" data-name="Group 74" transform="translate(17.266 47.736)">
                                    <path id="Path_73" data-name="Path 73" d="M187.592,694.888l-16.061,39.394H137V701.358Z" transform="translate(-136.197 -694.085)" fill="#dde8eb" />
                                    <path id="Path_74" data-name="Path 74" d="M170.334,733.888H135.8a.8.8,0,0,1-.8-.8V700.16a.8.8,0,0,1,.7-.8l50.592-6.469a.8.8,0,0,1,.846,1.1l-16.061,39.394A.8.8,0,0,1,170.334,733.888Zm-33.728-1.606h33.189l15.337-37.62-48.526,6.2Z" transform="translate(-135 -692.887)" fill="#a9c3d9" />
                                  </g>
                                  <g id="Group_76" data-name="Group 76" transform="translate(17.266 80.305)">
                                    <g id="Group_75" data-name="Group 75">
                                      <path id="Path_75" data-name="Path 75" d="M173.145,775.606H135.8a.8.8,0,1,1,0-1.606h37.342a.8.8,0,1,1,0,1.606Z" transform="translate(-135 -774)" fill="#a9c3d9" />
                                    </g>
                                  </g>
                                  <g id="Group_78" data-name="Group 78" transform="translate(26.902 50.89)">
                                    <g id="Group_77" data-name="Group 77">
                                      <path id="Path_76" data-name="Path 76" d="M159.8,738.589a.8.8,0,0,1-.732-1.133l16.3-36.241a.8.8,0,1,1,1.465.658l-16.3,36.241A.8.8,0,0,1,159.8,738.589Z" transform="translate(-158.999 -700.741)" fill="#a9c3d9" />
                                    </g>
                                  </g>
                                  <g id="Group_80" data-name="Group 80" transform="translate(34.933 50.89)">
                                    <g id="Group_79" data-name="Group 79">
                                      <path id="Path_77" data-name="Path 77" d="M179.8,738.589a.8.8,0,0,1-.732-1.133l16.3-36.241a.8.8,0,1,1,1.465.658l-16.3,36.241A.8.8,0,0,1,179.8,738.589Z" transform="translate(-178.999 -700.741)" fill="#a9c3d9" />
                                    </g>
                                  </g>
                                  <g id="Group_81" data-name="Group 81" transform="translate(6.826 38.948)">
                                    <rect id="Rectangle_31" data-name="Rectangle 31" width="11.402" height="48.458" transform="translate(0.376 1.023)" fill="#dde8eb" />
                                    <path id="Path_78" data-name="Path 78" d="M120.243,720.789H109.8a.8.8,0,0,1-.8-.8V671.8a.8.8,0,0,1,.8-.8h10.44a.8.8,0,0,1,.8.8v48.183A.8.8,0,0,1,120.243,720.789Zm-9.637-1.606h8.834V672.606h-8.834Z" transform="translate(-109 -671)" fill="#a9c3d9" />
                                  </g>
                                  <g id="Group_83" data-name="Group 83" transform="translate(11.478 78.452)">
                                    <g id="Group_82" data-name="Group 82" transform="translate(0 0)">
                                      <rect id="Rectangle_32" data-name="Rectangle 32" width="2.85" height="9.977" fill="#a9c3d9" />
                                    </g>
                                  </g>
                                  <g id="Group_84" data-name="Group 84" transform="translate(0 30.114)">
                                    <path id="Path_79" data-name="Path 79" d="M116.485,659.834H95.606L94,651h24.092Z" transform="translate(-93.197 -650.197)" fill="#dde8eb" />
                                    <path id="Path_80" data-name="Path 80" d="M115.288,659.44H94.409a.8.8,0,0,1-.79-.66l-1.606-8.834A.8.8,0,0,1,92.8,649h24.092a.8.8,0,0,1,.79.946l-1.606,8.834A.8.8,0,0,1,115.288,659.44Zm-20.209-1.606h19.539l1.314-7.227H93.765Z" transform="translate(-92 -649)" fill="#a9c3d9" />
                                  </g>
                                  <g id="Group_85" data-name="Group 85" transform="translate(0 16.463)">
                                    <path id="Path_81" data-name="Path 81" d="M116.485,625.833H95.606L94,617h24.092Z" transform="translate(-93.197 -616.197)" fill="#dde8eb" />
                                    <path id="Path_82" data-name="Path 82" d="M115.288,625.44H94.409a.8.8,0,0,1-.79-.66l-1.606-8.834A.8.8,0,0,1,92.8,615h24.092a.8.8,0,0,1,.79.946l-1.606,8.834A.8.8,0,0,1,115.288,625.44Zm-20.209-1.606h19.539l1.314-7.227H93.765Z" transform="translate(-92 -615)" fill="#a9c3d9" />
                                  </g>
                                  <g id="Group_86" data-name="Group 86" transform="translate(6.826 25.296)">
                                    <rect id="Rectangle_33" data-name="Rectangle 33" width="11.402" height="5.701" transform="translate(0.376 0.423)" fill="#dde8eb" />
                                    <path id="Path_83" data-name="Path 83" d="M120.243,643.424H109.8a.8.8,0,0,1-.8-.8V637.8a.8.8,0,0,1,.8-.8h10.44a.8.8,0,0,1,.8.8v4.818A.8.8,0,0,1,120.243,643.424Zm-9.637-1.606h8.834v-3.212h-8.834Z" transform="translate(-109 -637)" fill="#a9c3d9" />
                                  </g>
                                  <g id="Group_88" data-name="Group 88" transform="translate(1.501 32.845)">
                                    <g id="Group_87" data-name="Group 87" transform="translate(0 0)">
                                      <rect id="Rectangle_34" data-name="Rectangle 34" width="22.804" height="1.425" fill="#a9c3d9" />
                                    </g>
                                  </g>
                                  <g id="Group_90" data-name="Group 90" transform="translate(1.501 20.018)">
                                    <g id="Group_89" data-name="Group 89" transform="translate(0 0)">
                                      <rect id="Rectangle_35" data-name="Rectangle 35" width="22.804" height="1.425" fill="#a9c3d9" />
                                    </g>
                                  </g>
                                </g>
                                <g id="Group_93" data-name="Group 93" transform="translate(21.281 98.775)">
                                  <g id="Group_92" data-name="Group 92">
                                    <path id="Path_84" data-name="Path 84" d="M239.452,792.606H68.8a.8.8,0,1,1,0-1.606H239.452a.8.8,0,1,1,0,1.606Z" transform="translate(-68 -791)" fill="#3c464c" />
                                  </g>
                                </g>
                                <g id="Group_95" data-name="Group 95" transform="translate(12.447 98.775)">
                                  <g id="Group_94" data-name="Group 94" transform="translate(0)">
                                    <path id="Path_85" data-name="Path 85" d="M51.621,792.606H46.8a.8.8,0,1,1,0-1.606h4.818a.8.8,0,1,1,0,1.606Z" transform="translate(-46 -791)" fill="#3c464c" />
                                  </g>
                                </g>
                                <g id="Group_139" data-name="Group 139" transform="translate(59.024 65.85)">
                                  <g id="Group_96" data-name="Group 96" transform="translate(0.803 0)">
                                    <path id="Path_86" data-name="Path 86" d="M186.076,725.053,173.227,711H166l6.826,14.455Z" transform="translate(-165.197 -710.197)" fill="#19a5ff" />
                                    <path id="Path_87" data-name="Path 87" d="M171.629,725.061a.8.8,0,0,1-.726-.46l-6.826-14.455A.8.8,0,0,1,164.8,709h7.227a.8.8,0,0,1,.593.261l12.849,14.053a.8.8,0,0,1-.568,1.345l-13.25.4Zm-5.559-14.455,6.06,12.833,10.975-.333-11.429-12.5Z" transform="translate(-164 -709)" fill="#3c464c" />
                                  </g>
                                  <g id="Group_97" data-name="Group 97" transform="translate(4.015 14.053)">
                                    <path id="Path_88" data-name="Path 88" d="M264.745,758.849H193.273c-3.533,0-13.25-2.811-19.273-6.424h0A6.443,6.443,0,0,1,180.424,746h84.32c3.533,0,8.432,6.424,8.432,6.424C273.177,755.958,268.278,758.849,264.745,758.849Z" transform="translate(-173.197 -745.197)" fill="#ededed" />
                                    <path id="Path_89" data-name="Path 89" d="M263.548,758.455H192.076c-3.539,0-13.364-2.746-19.686-6.539a.8.8,0,0,1-.39-.689A7.236,7.236,0,0,1,179.227,744h84.32c3.821,0,8.544,6.051,9.071,6.74a.806.806,0,0,1,.164.487C272.783,755.42,267.267,758.455,263.548,758.455Zm-89.924-7.676c6.018,3.48,15.244,6.07,18.453,6.07h71.472c3.231,0,7.372-2.565,7.618-5.361-1.447-1.833-5.157-5.882-7.618-5.882h-84.32A5.629,5.629,0,0,0,173.624,750.779Z" transform="translate(-172 -744)" fill="#3c464c" />
                                  </g>
                                  <g id="Group_98" data-name="Group 98" transform="translate(0 15.66)">
                                    <path id="Path_90" data-name="Path 90" d="M179.659,752.654,170.023,750H164l4.818,3.056Z" transform="translate(-163.197 -749.197)" fill="#19a5ff" />
                                    <path id="Path_91" data-name="Path 91" d="M167.621,752.662a.8.8,0,0,1-.43-.124l-4.818-3.056A.8.8,0,0,1,162.8,748h6.023a.8.8,0,0,1,.213.029l9.637,2.654a.8.8,0,0,1-.184,1.576l-10.841.4Zm-2.053-3.056,2.272,1.441,5.384-.2-4.508-1.242Z" transform="translate(-162 -748)" fill="#3c464c" />
                                  </g>
                                  <g id="Group_100" data-name="Group 100" transform="translate(8.031 4.381)">
                                    <g id="Group_99" data-name="Group 99">
                                      <path id="Path_92" data-name="Path 92" d="M186.809,721.517H182.8a.8.8,0,1,1,0-1.606h4.006a.8.8,0,1,1,0,1.606Z" transform="translate(-182 -719.911)" fill="#3c464c" />
                                    </g>
                                  </g>
                                  <g id="Group_102" data-name="Group 102" transform="translate(10.841 8.395)">
                                    <g id="Group_101" data-name="Group 101">
                                      <path id="Path_93" data-name="Path 93" d="M194.668,731.514H189.8a.8.8,0,1,1,0-1.606h4.865a.8.8,0,1,1,0,1.606Z" transform="translate(-189 -729.908)" fill="#3c464c" />
                                    </g>
                                  </g>
                                  <g id="Group_104" data-name="Group 104" transform="translate(90.343 16.463)">
                                    <g id="Group_103" data-name="Group 103">
                                      <path id="Path_94" data-name="Path 94" d="M396.637,751.606H387.8a.8.8,0,0,1,0-1.606h8.834a.8.8,0,0,1,0,1.606Z" transform="translate(-387 -750)" fill="#3c464c" />
                                    </g>
                                  </g>
                                  <g id="Group_106" data-name="Group 106" transform="translate(23.69 17.667)">
                                    <g id="Group_105" data-name="Group 105">
                                      <path id="Path_95" data-name="Path 95" d="M223.008,754.606h-1.2a.8.8,0,1,1,0-1.606h1.2a.8.8,0,1,1,0,1.606Z" transform="translate(-221 -753)" fill="#3c464c" />
                                    </g>
                                  </g>
                                  <g id="Group_108" data-name="Group 108" transform="translate(30.115 17.667)">
                                    <g id="Group_107" data-name="Group 107">
                                      <path id="Path_96" data-name="Path 96" d="M239.008,754.606h-1.2a.8.8,0,1,1,0-1.606h1.2a.8.8,0,1,1,0,1.606Z" transform="translate(-237 -753)" fill="#3c464c" />
                                    </g>
                                  </g>
                                  <g id="Group_110" data-name="Group 110" transform="translate(36.539 17.667)">
                                    <g id="Group_109" data-name="Group 109">
                                      <path id="Path_97" data-name="Path 97" d="M255.008,754.606h-1.2a.8.8,0,1,1,0-1.606h1.2a.8.8,0,1,1,0,1.606Z" transform="translate(-253 -753)" fill="#3c464c" />
                                    </g>
                                  </g>
                                  <g id="Group_112" data-name="Group 112" transform="translate(42.963 17.667)">
                                    <g id="Group_111" data-name="Group 111">
                                      <path id="Path_98" data-name="Path 98" d="M271.008,754.606h-1.2a.8.8,0,1,1,0-1.606h1.2a.8.8,0,1,1,0,1.606Z" transform="translate(-269 -753)" fill="#3c464c" />
                                    </g>
                                  </g>
                                  <g id="Group_114" data-name="Group 114" transform="translate(49.388 17.667)">
                                    <g id="Group_113" data-name="Group 113">
                                      <path id="Path_99" data-name="Path 99" d="M287.008,754.606h-1.2a.8.8,0,1,1,0-1.606h1.2a.8.8,0,1,1,0,1.606Z" transform="translate(-285 -753)" fill="#3c464c" />
                                    </g>
                                  </g>
                                  <g id="Group_116" data-name="Group 116" transform="translate(55.812 17.667)">
                                    <g id="Group_115" data-name="Group 115">
                                      <path id="Path_100" data-name="Path 100" d="M303.008,754.606h-1.2a.8.8,0,1,1,0-1.606h1.2a.8.8,0,1,1,0,1.606Z" transform="translate(-301 -753)" fill="#3c464c" />
                                    </g>
                                  </g>
                                  <g id="Group_118" data-name="Group 118" transform="translate(62.237 17.667)">
                                    <g id="Group_117" data-name="Group 117">
                                      <path id="Path_101" data-name="Path 101" d="M319.008,754.606h-1.2a.8.8,0,1,1,0-1.606h1.2a.8.8,0,1,1,0,1.606Z" transform="translate(-317 -753)" fill="#3c464c" />
                                    </g>
                                  </g>
                                  <g id="Group_120" data-name="Group 120" transform="translate(68.661 17.667)">
                                    <g id="Group_119" data-name="Group 119">
                                      <path id="Path_102" data-name="Path 102" d="M335.008,754.606h-1.2a.8.8,0,1,1,0-1.606h1.2a.8.8,0,1,1,0,1.606Z" transform="translate(-333 -753)" fill="#3c464c" />
                                    </g>
                                  </g>
                                  <g id="Group_122" data-name="Group 122" transform="translate(75.086 17.667)">
                                    <g id="Group_121" data-name="Group 121">
                                      <path id="Path_103" data-name="Path 103" d="M351.008,754.606h-1.2a.8.8,0,1,1,0-1.606h1.2a.8.8,0,1,1,0,1.606Z" transform="translate(-349 -753)" fill="#3c464c" />
                                    </g>
                                  </g>
                                  <g id="Group_124" data-name="Group 124" transform="translate(81.51 17.667)">
                                    <g id="Group_123" data-name="Group 123">
                                      <path id="Path_104" data-name="Path 104" d="M367.008,754.606h-1.2a.8.8,0,1,1,0-1.606h1.2a.8.8,0,1,1,0,1.606Z" transform="translate(-365 -753)" fill="#3c464c" />
                                    </g>
                                  </g>
                                  <g id="Group_126" data-name="Group 126" transform="translate(28.508 20.076)">
                                    <g id="Group_125" data-name="Group 125">
                                      <path id="Path_105" data-name="Path 105" d="M247.054,763.818a.793.793,0,0,1-.19-.023l-13.25-3.212A.8.8,0,0,1,233.8,759h10.44a.857.857,0,0,1,.1.006l26.9,3.212a.8.8,0,0,1-.19,1.595l-26.855-3.207h-3.671l6.718,1.629a.8.8,0,0,1-.189,1.583Z" transform="translate(-233 -759)" fill="#3c464c" />
                                    </g>
                                  </g>
                                  <g id="Group_129" data-name="Group 129" transform="translate(38.948 22.887)">
                                    <g id="Group_127" data-name="Group 127" transform="translate(0 1.205)">
                                      <rect id="Rectangle_36" data-name="Rectangle 36" width="5.701" height="5.701" transform="translate(1.432 0.155)" fill="#b8b8b8" />
                                      <path id="Path_106" data-name="Path 106" d="M266.227,776.227H259.8a.8.8,0,0,1-.8-.8V769.8a.8.8,0,0,1,.8-.8h6.424a.8.8,0,0,1,.8.8v5.621A.8.8,0,0,1,266.227,776.227Zm-5.621-1.606h4.818v-4.015h-4.818Z" transform="translate(-259 -769)" fill="#3c464c" />
                                    </g>
                                    <g id="Group_128" data-name="Group 128" transform="translate(3.212)">
                                      <path id="Path_107" data-name="Path 107" d="M282.652,776.03h-9.637A4.027,4.027,0,0,1,269,772.015h0A4.027,4.027,0,0,1,273.015,768h9.637C284.86,768,284.86,776.03,282.652,776.03Z" transform="translate(-268.197 -767.197)" fill="#b8b8b8" />
                                      <path id="Path_108" data-name="Path 108" d="M281.455,775.636h-9.637a4.818,4.818,0,1,1,0-9.636h9.637c1.815,0,2.459,2.6,2.459,4.818S283.27,775.636,281.455,775.636Zm-9.637-8.03a3.212,3.212,0,1,0,0,6.424h9.637c.072,0,.287-.178.488-.728a7.64,7.64,0,0,0,.365-2.484c0-2.086-.605-3.212-.853-3.212Z" transform="translate(-267 -766)" fill="#3c464c" />
                                    </g>
                                  </g>
                                  <g id="Group_131" data-name="Group 131" transform="translate(90.343 26.902)">
                                    <g id="Group_130" data-name="Group 130">
                                      <path id="Path_109" data-name="Path 109" d="M387.8,779.614a.8.8,0,0,1-.8-.8V776.8a.8.8,0,0,1,1.606,0v2.008A.8.8,0,0,1,387.8,779.614Z" transform="translate(-387 -776)" fill="#3c464c" />
                                    </g>
                                  </g>
                                  <g id="Group_133" data-name="Group 133" transform="translate(32.925 26.902)">
                                    <g id="Group_132" data-name="Group 132">
                                      <path id="Path_110" data-name="Path 110" d="M244.8,779.614a.8.8,0,0,1-.8-.8V776.8a.8.8,0,0,1,1.606,0v2.008A.8.8,0,0,1,244.8,779.614Z" transform="translate(-244 -776)" fill="#3c464c" />
                                    </g>
                                  </g>
                                  <g id="Group_134" data-name="Group 134" transform="translate(88.336 28.91)">
                                    <circle id="Ellipse_11" data-name="Ellipse 11" cx="2.138" cy="2.138" r="2.138" transform="translate(0.502 1.037)" fill="#b8b8b8" />
                                    <path id="Path_111" data-name="Path 111" d="M384.811,786.621a2.811,2.811,0,1,1,2.811-2.811A2.814,2.814,0,0,1,384.811,786.621Zm0-4.015a1.2,1.2,0,1,0,1.2,1.2A1.206,1.206,0,0,0,384.811,782.606Z" transform="translate(-382 -781)" fill="#3c464c" />
                                  </g>
                                  <g id="Group_135" data-name="Group 135" transform="translate(30.918 28.91)">
                                    <circle id="Ellipse_12" data-name="Ellipse 12" cx="2.138" cy="2.138" r="2.138" transform="translate(0.911 1.037)" fill="#b8b8b8" />
                                    <path id="Path_112" data-name="Path 112" d="M241.811,786.621a2.811,2.811,0,1,1,2.811-2.811A2.814,2.814,0,0,1,241.811,786.621Zm0-4.015a1.2,1.2,0,1,0,1.2,1.2A1.206,1.206,0,0,0,241.811,782.606Z" transform="translate(-239 -781)" fill="#3c464c" />
                                  </g>
                                  <g id="Group_137" data-name="Group 137" transform="translate(26.501 26.902)">
                                    <g id="Group_136" data-name="Group 136">
                                      <path id="Path_113" data-name="Path 113" d="M228.8,779.614a.8.8,0,0,1-.8-.8V776.8a.8.8,0,0,1,1.606,0v2.008A.8.8,0,0,1,228.8,779.614Z" transform="translate(-228 -776)" fill="#3c464c" />
                                    </g>
                                  </g>
                                  <g id="Group_138" data-name="Group 138" transform="translate(24.493 28.91)">
                                    <circle id="Ellipse_13" data-name="Ellipse 13" cx="2.138" cy="2.138" r="2.138" transform="translate(0.209 1.037)" fill="#b8b8b8" />
                                    <path id="Path_114" data-name="Path 114" d="M225.811,786.621a2.811,2.811,0,1,1,2.811-2.811A2.814,2.814,0,0,1,225.811,786.621Zm0-4.015a1.2,1.2,0,1,0,1.2,1.2A1.206,1.206,0,0,0,225.811,782.606Z" transform="translate(-223 -781)" fill="#3c464c" />
                                  </g>
                                </g>
                                <g id="Group_141" data-name="Group 141" transform="translate(87.934 32.122)">
                                  <g id="Group_140" data-name="Group 140" transform="translate(0 0)">
                                    <path id="Path_115" data-name="Path 115" d="M303.632,641.061a.8.8,0,0,1-.769-.574,4.837,4.837,0,0,0-4.269-3.423.8.8,0,0,1-.709-.56,7.828,7.828,0,0,0-13.043-3.148.8.8,0,0,1-1.347-.356,8.633,8.633,0,0,0-16.74.259.8.8,0,0,1-.881.613A4.33,4.33,0,0,0,262.332,635a.806.806,0,0,1-.759.183,3.954,3.954,0,0,0-3.451.637.8.8,0,0,1-1.221-.343,5.218,5.218,0,0,0-10.053,1.966,5.132,5.132,0,0,0,.607,2.434.8.8,0,0,1-.709,1.18H234.8a.8.8,0,1,1,0-1.606h10.744a6.824,6.824,0,0,1,12.431-5.422,5.539,5.539,0,0,1,3.6-.494,5.929,5.929,0,0,1,3.794-1.311,10.24,10.24,0,0,1,19.274-.84,9.436,9.436,0,0,1,14.6,4.136,6.455,6.455,0,0,1,5.157,4.5.8.8,0,0,1-.54,1A.786.786,0,0,1,303.632,641.061Z" transform="translate(-234 -625)" fill="#c5e2f7" />
                                  </g>
                                </g>
                                <g id="Group_146" data-name="Group 146" transform="translate(135.314)">
                                  <g id="Group_143" data-name="Group 143" transform="translate(16.061 0)">
                                    <g id="Group_142" data-name="Group 142">
                                      <path id="Path_116" data-name="Path 116" d="M453.649,559.455a.8.8,0,0,1-.8-.726,5.4,5.4,0,0,0-5.4-4.895,5.5,5.5,0,0,0-1.192.134.8.8,0,0,1-.95-.571,9.238,9.238,0,0,0-17.537-.851.8.8,0,0,1-1.285.312,5.6,5.6,0,0,0-8.243.835.8.8,0,0,1-1,.24,4.759,4.759,0,0,0-2.127-.5,4.824,4.824,0,0,0-4.818,4.818c0,.1.008.2.016.3l0,.041a.8.8,0,0,1-.8.86H392.8a.8.8,0,1,1,0-1.606h15.9a6.432,6.432,0,0,1,6.412-6.023,6.326,6.326,0,0,1,2.245.409A7.2,7.2,0,0,1,426.694,551a10.844,10.844,0,0,1,19.943,1.274,6.885,6.885,0,0,1,.809-.048,7,7,0,0,1,7,6.348.8.8,0,0,1-.723.876C453.7,559.454,453.674,559.455,453.649,559.455Z" transform="translate(-392 -545)" fill="#c5e2f7" />
                                    </g>
                                  </g>
                                  <g id="Group_145" data-name="Group 145" transform="translate(0 12.849)">
                                    <g id="Group_144" data-name="Group 144">
                                      <path id="Path_117" data-name="Path 117" d="M362.44,578.606H352.8a.8.8,0,1,1,0-1.606h9.637a.8.8,0,1,1,0,1.606Z" transform="translate(-352 -577)" fill="#c5e2f7" />
                                    </g>
                                  </g>
                                </g>
                                <g id="Group_151" data-name="Group 151" transform="translate(0 8.834)">
                                  <g id="Group_148" data-name="Group 148" transform="translate(0 0)">
                                    <g id="Group_147" data-name="Group 147">
                                      <path id="Path_118" data-name="Path 118" d="M24.235,576.637H15.8a.8.8,0,0,1,0-1.606h7.71a4.024,4.024,0,0,1,3.588-3.2,5.622,5.622,0,0,1,11.13-.015h4.474a.8.8,0,1,1,0,1.606h-5.22a.8.8,0,0,1-.8-.8,4.015,4.015,0,0,0-8.031-.018c0,.016,0,.034,0,.046a.8.8,0,0,1-.9.8,2.39,2.39,0,0,0-2.712,2.387A.8.8,0,0,1,24.235,576.637Z" transform="translate(-15 -567)" fill="#c5e2f7" />
                                    </g>
                                  </g>
                                  <g id="Group_150" data-name="Group 150" transform="translate(30.114 4.818)">
                                    <g id="Group_149" data-name="Group 149">
                                      <path id="Path_119" data-name="Path 119" d="M95.22,580.606H90.8a.8.8,0,1,1,0-1.606H95.22a.8.8,0,1,1,0,1.606Z" transform="translate(-90 -579)" fill="#c5e2f7" />
                                    </g>
                                  </g>
                                </g>
                                <g id="Group_156" data-name="Group 156" transform="translate(147.36 62.036)">
                                  <g id="Group_153" data-name="Group 153" transform="translate(0 0)">
                                    <g id="Group_152" data-name="Group 152">
                                      <path id="Path_120" data-name="Path 120" d="M420.145,708.936H404.485a.8.8,0,0,1-.8-.8,3.417,3.417,0,0,0-3.413-3.413c-.076,0-.151.006-.225.012a.838.838,0,0,1-.869-.628,3.813,3.813,0,0,0-7.539.817.8.8,0,0,1-.8.8H382.8a.8.8,0,1,1,0-1.606h7.286a5.42,5.42,0,0,1,10.473-.995,5.028,5.028,0,0,1,4.662,4.207h14.921a.8.8,0,1,1,0,1.606Z" transform="translate(-382 -699.5)" fill="#c5e2f7" />
                                    </g>
                                  </g>
                                  <g id="Group_155" data-name="Group 155" transform="translate(40.554 7.83)">
                                    <g id="Group_154" data-name="Group 154">
                                      <path id="Path_121" data-name="Path 121" d="M488.22,720.606H483.8a.8.8,0,1,1,0-1.606h4.417a.8.8,0,1,1,0,1.606Z" transform="translate(-483 -719)" fill="#c5e2f7" />
                                    </g>
                                  </g>
                                </g>
                                <g id="Group_158" data-name="Group 158" transform="translate(96.175 5.004)">
                                  <g id="Group_157" data-name="Group 157" transform="translate(0 0)">
                                    <path id="Path_122" data-name="Path 122" d="M256.992,560.86a.8.8,0,0,1-.5-.177l-1.665-1.335a.8.8,0,0,1,1.005-1.253l1.38,1.107,9.723-1.728a.8.8,0,0,1,.281,1.581l-10.081,1.792A.834.834,0,0,1,256.992,560.86Z" transform="translate(-254.524 -557.462)" fill="#c5e2f7" />
                                  </g>
                                </g>
                                <g id="Group_160" data-name="Group 160" transform="translate(101.481 5.73)">
                                  <g id="Group_159" data-name="Group 159" transform="translate(0 0)">
                                    <path id="Path_123" data-name="Path 123" d="M268.542,562.926a.8.8,0,0,1-.528-1.409l2.355-2.05a.8.8,0,1,1,1.055,1.211l-2.354,2.05A.8.8,0,0,1,268.542,562.926Z" transform="translate(-267.738 -559.27)" fill="#c5e2f7" />
                                  </g>
                                </g>
                              </g>
                            </g>
                            <g id="Group_164" data-name="Group 164" transform="translate(1.763 1.763)">
                              <circle id="Ellipse_14" data-name="Ellipse 14" cx="8.5" cy="8.5" r="8.5" transform="translate(691.237 359.237)" fill="#dde8eb" />
                              <g id="Group_163" data-name="Group 163" transform="translate(695.813 363.813)">
                                <rect id="Rectangle_39" data-name="Rectangle 39" width="1.531" height="9.568" rx="0.766" transform="translate(7.848 6.766) rotate(135)" fill="#19a5ff" />
                                <rect id="Rectangle_40" data-name="Rectangle 40" width="1.531" height="9.568" rx="0.766" transform="translate(6.766 0) rotate(45)" fill="#19a5ff" />
                              </g>
                            </g>
                          </g>
                        </svg>