<svg width="373" height="398" viewBox="0 0 373 398" fill="none" xmlns="http://www.w3.org/2000/svg">
<path d="M289.234 51.5831L289.186 327.475H75.1954C72.8158 327.472 70.5346 326.525 68.8529 324.842C67.1712 323.158 66.2266 320.876 66.2266 318.496V42.6047C66.2253 43.7838 66.4563 44.9515 66.9064 46.0413C67.3564 47.1311 68.0167 48.1216 68.8495 48.9562C69.6824 49.7907 70.6714 50.4531 71.7603 50.9055C72.8491 51.3578 74.0163 51.5913 75.1954 51.5925L289.234 51.5831Z" fill="#A9AFC4"/>
<path d="M289.224 51.5831C289.224 279.208 289.224 225.025 289.224 327.475H75.2325C72.8521 327.47 70.5709 326.521 68.8894 324.836C67.208 323.151 66.2637 320.867 66.2637 318.487L66.3111 42.5953C66.3086 43.7747 66.5387 44.943 66.9883 46.0333C67.4379 47.1237 68.0982 48.1146 68.9313 48.9495C69.7644 49.7843 70.7539 50.4467 71.8433 50.8986C72.9327 51.3505 74.1005 51.5831 75.2799 51.5831H289.224Z" fill="#F5F5F5"/>
<path d="M74.986 33.6075H289.252V51.5642H74.986C72.6727 51.5642 70.4541 50.6452 68.8184 49.0094C67.1826 47.3737 66.2637 45.1551 66.2637 42.8418V42.3298C66.2637 40.0165 67.1826 37.798 68.8184 36.1622C70.4541 34.5265 72.6727 33.6075 74.986 33.6075Z" fill="#F5F5F5"/>
<path d="M292.077 54.4273H74.967C71.8992 54.4222 68.9587 53.2007 66.7904 51.0306C64.622 48.8605 63.4029 45.919 63.4004 42.8512V42.3487C63.4054 39.2826 64.6256 36.3435 66.7937 34.1754C68.9618 32.0074 71.9009 30.7871 74.967 30.7821H292.077V54.4273ZM74.967 36.4137C73.4088 36.4162 71.9151 37.0363 70.8133 38.1382C69.7115 39.24 69.0914 40.7336 69.0889 42.2918V42.7943C69.0889 44.3542 69.7079 45.8502 70.81 46.9541C71.912 48.058 73.4071 48.6794 74.967 48.6819H286.389V36.4706L74.967 36.4137Z" fill="#6A7780"/>
<path d="M177.73 213.515C213.582 213.515 242.645 184.452 242.645 148.6C242.645 112.749 213.582 83.6851 177.73 83.6851C141.879 83.6851 112.815 112.749 112.815 148.6C112.815 184.452 141.879 213.515 177.73 213.515Z" fill="#F5F5F5"/>
<path d="M177.73 216.36C161.404 216.36 148.615 186.59 148.624 148.591C148.624 130.89 151.468 114.213 156.531 101.623C167.747 73.9199 187.694 73.7777 198.967 101.623C204.058 114.213 206.865 130.89 206.865 148.591C206.865 166.291 204.02 182.968 198.948 195.559C193.516 208.974 185.978 216.36 177.73 216.36ZM177.73 86.5199C172.042 86.5199 166.22 92.8056 161.793 103.756C156.958 115.683 154.294 131.611 154.294 148.591C154.294 185.727 166.401 210.671 177.711 210.671C185.191 210.671 190.852 200.365 193.658 193.435C203.66 168.785 203.66 128.453 193.658 103.765C190.88 96.835 185.22 86.5293 177.74 86.5293L177.73 86.5199Z" fill="#6A7780"/>
<path d="M123.263 113.644L120.552 112.128L122.353 109.577C144.311 78.4516 179.627 80.8408 177.74 80.8408C188.596 80.8493 199.291 83.4616 208.928 88.4585C218.566 93.4553 226.864 100.691 233.127 109.558L234.928 112.109L232.217 113.663C205.424 129.022 149.885 128.918 123.263 113.644ZM128.952 110.222C154.171 122.547 201.508 122.5 226.547 110.222C220.733 102.84 213.32 96.8739 204.866 92.7719C196.413 88.6699 187.139 86.5391 177.742 86.5401C168.346 86.541 159.072 88.6735 150.62 92.7772C142.167 96.8808 134.755 102.849 128.942 110.231L128.952 110.222Z" fill="#6A7780"/>
<path d="M122.342 187.633L120.541 185.082L123.253 183.528C150.045 168.169 205.584 168.273 232.206 183.528L234.917 185.13L233.107 187.68C206.115 225.897 149.353 225.897 122.342 187.633ZM128.979 186.96C134.791 194.342 142.203 200.309 150.655 204.411C159.108 208.514 168.381 210.646 177.777 210.646C187.172 210.646 196.445 208.514 204.898 204.411C213.35 200.309 220.762 194.342 226.574 186.96C201.261 174.578 153.904 174.701 128.932 186.96H128.979Z" fill="#6A7780"/>
<path d="M242.627 145.756H112.815V151.444H242.627V145.756Z" fill="#6A7780"/>
<path d="M240.796 244.688H114.645V258.322H240.796V244.688Z" fill="#DEE1EC"/>
<path d="M219.739 276.487H135.691V290.12H219.739V276.487Z" fill="#DEE1EC"/>
<path d="M177.73 216.36C165.314 216.358 153.138 212.946 142.529 206.495C131.921 200.045 123.288 190.804 117.574 179.781C111.86 168.759 109.283 156.378 110.126 143.991C110.969 131.604 115.198 119.686 122.353 109.539C144.31 78.4517 179.617 80.8409 177.739 80.8409C186.638 80.8409 195.449 82.5935 203.67 85.9988C211.891 89.404 219.361 94.3951 225.653 100.687C231.945 106.979 236.936 114.449 240.341 122.67C243.746 130.891 245.499 139.702 245.499 148.6C245.499 157.499 243.746 166.31 240.341 174.531C236.936 182.752 231.945 190.221 225.653 196.513C219.361 202.805 211.891 207.797 203.67 211.202C195.449 214.607 186.638 216.36 177.739 216.36H177.73ZM177.73 86.5294C165.454 86.5313 153.455 90.173 143.249 96.9942C133.043 103.815 125.089 113.51 120.392 124.851C115.695 136.193 114.467 148.672 116.862 160.712C119.257 172.752 125.169 183.811 133.849 192.491C142.529 201.171 153.588 207.083 165.628 209.478C177.667 211.873 190.147 210.645 201.489 205.948C212.83 201.251 222.524 193.297 229.346 183.091C236.167 172.885 239.808 160.885 239.81 148.61C239.808 132.146 233.266 116.357 221.625 104.715C209.983 93.0733 194.194 86.5319 177.73 86.5294Z" fill="#6A7780"/>
<path d="M309.533 12.565L297.419 24.6791L301.441 28.7014L313.555 16.5874L309.533 12.565Z" fill="#6A7780"/>
<path d="M288.144 0.585754H282.455V17.7176H288.144V0.585754Z" fill="#6A7780"/>
<path d="M326 36.9446H308.868V42.6331H326V36.9446Z" fill="#6A7780"/>
<path d="M181.578 356.998C181.503 355.032 181.913 353.077 182.773 351.308C183.633 349.538 184.917 348.008 186.51 346.852C188.103 345.697 189.956 344.953 191.905 344.685C193.854 344.417 195.84 344.634 197.685 345.317C199.531 345.999 201.179 347.126 202.485 348.598C203.791 350.07 204.713 351.842 205.171 353.755C205.628 355.669 205.607 357.666 205.108 359.57C204.61 361.473 203.65 363.224 202.313 364.668C200.711 366.418 198.624 367.651 196.318 368.209C194.012 368.768 191.592 368.626 189.367 367.803C187.142 366.98 185.213 365.513 183.825 363.588C182.438 361.664 181.656 359.369 181.578 356.998ZM193.533 350.276C192.49 350.274 191.462 350.532 190.543 351.027C189.624 351.523 188.843 352.239 188.271 353.112C187.699 353.985 187.353 354.987 187.266 356.028C187.179 357.068 187.352 358.113 187.771 359.07C188.19 360.026 188.84 360.863 189.664 361.504C190.487 362.145 191.458 362.571 192.488 362.743C193.517 362.915 194.573 362.827 195.561 362.488C196.548 362.148 197.435 361.568 198.141 360.8C198.974 359.906 199.527 358.789 199.732 357.584C199.937 356.38 199.786 355.143 199.296 354.024C198.806 352.905 197.999 351.954 196.975 351.288C195.951 350.622 194.755 350.27 193.533 350.276Z" fill="#6A7780"/>
<path d="M243.1 397.5C240.994 397.499 238.953 396.773 237.32 395.444C235.686 394.116 234.56 392.265 234.13 390.204C233.7 388.142 233.993 385.996 234.959 384.125C235.925 382.254 237.506 380.773 239.436 379.93C241.366 379.087 243.527 378.935 245.556 379.498C247.585 380.061 249.358 381.305 250.578 383.022C251.798 384.739 252.389 386.823 252.253 388.924C252.117 391.025 251.262 393.016 249.831 394.561C248.972 395.488 247.93 396.227 246.772 396.732C245.614 397.238 244.364 397.499 243.1 397.5ZM239.621 388.455C239.646 389.146 239.875 389.813 240.279 390.373C240.684 390.932 241.245 391.36 241.893 391.6C242.54 391.84 243.244 391.883 243.916 391.723C244.588 391.563 245.197 391.207 245.667 390.7C246.136 390.194 246.444 389.559 246.553 388.877C246.661 388.195 246.565 387.496 246.276 386.869C245.987 386.242 245.518 385.714 244.929 385.354C244.34 384.993 243.657 384.815 242.967 384.843C242.045 384.88 241.175 385.281 240.548 385.958C239.921 386.635 239.587 387.533 239.621 388.455Z" fill="#6A7780"/>
<path style="mix-blend-mode:multiply" d="M240.361 33.6264L285.148 310.703L181.684 327.418H75.1671C72.7875 327.415 70.5063 326.468 68.8246 324.785C67.1429 323.101 66.1982 320.819 66.1982 318.44V42.5479C66.1976 40.416 66.9556 38.3535 68.3365 36.7294C69.7175 35.1053 71.6313 34.0255 73.7355 33.6833C74.8921 33.5316 63.1549 33.5885 240.361 33.6264Z" fill="url(#paint0_linear_204_1048)"/>
<path d="M292.03 330.281H75.1949C72.0609 330.274 69.0577 329.024 66.8434 326.806C64.6291 324.588 63.3843 321.583 63.3818 318.449C63.4292 34.3849 63.4292 42.8512 63.3818 42.6047C63.3843 39.47 64.6307 36.4643 66.8473 34.2477C69.064 32.0311 72.0696 30.7847 75.2044 30.7822H292.04L292.03 330.281ZM69.1082 42.4815C69.1082 42.7185 69.1082 35.1434 69.1082 318.43C69.1107 320.055 69.7565 321.612 70.9043 322.761C72.052 323.911 73.6084 324.559 75.2328 324.564H286.389V36.4422H75.2423C73.6317 36.442 72.0857 37.0753 70.938 38.2052C69.7904 39.3351 69.1331 40.8711 69.1082 42.4815ZM75.2423 54.3989C73.7408 54.401 72.2531 54.1112 70.8622 53.5456L72.9764 48.2648C73.6979 48.5514 74.466 48.7024 75.2423 48.7104V54.3989Z" fill="#6A7780"/>
<path d="M224.516 26.3925L268.574 298.71L57.3224 332.841C56.1589 333.033 54.9689 332.995 53.8203 332.727C52.6716 332.46 51.587 331.969 50.6282 331.282C49.6694 330.595 48.8553 329.727 48.2324 328.725C47.6095 327.724 47.19 326.609 46.9979 325.446L2.97852 53.0999C3.16526 54.2637 3.57956 55.3793 4.19773 56.3828C4.81591 57.3864 5.62583 58.2583 6.58119 58.9486C7.53654 59.6389 8.61861 60.1342 9.7655 60.406C10.9124 60.6779 12.1016 60.721 13.2652 60.5329L224.516 26.3925Z" fill="#F5F5F5"/>
<path d="M55.8441 335.818C53.0389 335.813 50.3267 334.811 48.1922 332.991C46.0576 331.171 44.6399 328.651 44.1922 325.882C5.95614 89.4589 0.172852 53.6499 0.172852 53.5551L5.78548 52.607C5.9123 53.4023 6.19475 54.1648 6.61663 54.8509C7.03851 55.5369 7.59156 56.133 8.24411 56.605C8.89666 57.077 9.63589 57.4157 10.4195 57.6017C11.2031 57.7876 12.0157 57.8172 12.8108 57.6887L226.859 23.1312L271.798 301.071C42.2202 338.179 57.3136 335.818 55.8441 335.818ZM7.39722 62.6377L49.8048 324.972C50.0633 326.577 50.9485 328.014 52.2658 328.967C53.5831 329.919 55.2247 330.31 56.8301 330.053L265.275 296.359L222.166 29.6445L13.7209 63.3488C11.5877 63.6981 9.39954 63.452 7.39722 62.6377Z" fill="#6A7780"/>
<path d="M10.1507 42.8538L221.672 8.67043L224.537 26.3971L13.0154 60.5804C11.8846 60.7632 10.729 60.7214 9.61433 60.4575C8.49971 60.1936 7.44799 59.7127 6.5192 59.0424C5.59041 58.372 4.80276 57.5253 4.20121 56.5506C3.59966 55.5758 3.19599 54.4921 3.01325 53.3613L2.93157 52.8559C2.56251 50.5722 3.11576 48.2355 4.4696 46.3597C5.82344 44.4839 7.86698 43.2228 10.1507 42.8538Z" fill="#F5F5F5"/>
<path d="M11.6443 63.5384C8.90275 63.5284 6.25392 62.5448 4.17017 60.7632C2.08643 58.9816 0.703254 56.5178 0.267321 53.8111L0.181997 53.3086C-0.299277 50.2857 0.43732 47.1953 2.2304 44.7145C4.02349 42.2337 6.72683 40.5647 9.74812 40.0734L224.014 5.40208L227.806 28.7438C-2.02703 65.8897 13.0569 63.5384 11.6443 63.5384ZM219.274 11.9249L10.6109 45.6576C9.0715 45.9068 7.69384 46.7565 6.78023 48.0202C5.86663 49.284 5.4917 50.8586 5.73774 52.3985L5.82307 52.901C5.94503 53.6663 6.21737 54.3998 6.62434 55.0593C7.03132 55.7188 7.56488 56.2912 8.19424 56.7434C8.8236 57.1955 9.53628 57.5186 10.2912 57.6939C11.046 57.8692 11.8281 57.8932 12.5924 57.7646L221.255 24.0319L219.274 11.9249Z" fill="#6A7780"/>
<path d="M175.85 185.878C201.201 160.527 201.201 119.425 175.85 94.0738C150.499 68.7229 109.397 68.7229 84.0464 94.0738C58.6955 119.425 58.6955 160.527 84.0464 185.878C109.397 211.229 150.499 211.229 175.85 185.878Z" fill="#F5F5F5"/>
<path d="M116.503 189.718C101.931 165.685 95.2564 124.386 101.514 96.9772C108.15 68.0133 127.757 64.4106 143.4 90.2079C157.962 114.242 164.637 155.54 158.389 182.949C151.724 212.141 132.051 215.364 116.503 189.718ZM121.31 78.5844C113.222 78.5844 108.861 90.3501 107.088 98.2476C101.163 124.216 107.591 163.997 121.395 186.77C127.52 196.877 134.26 202.148 139.882 201.247C145.505 200.346 150.236 193.207 152.871 181.688C158.797 155.72 152.359 115.939 138.555 93.1564C132.857 83.7989 126.666 78.5844 121.31 78.5844Z" fill="#6A7780"/>
<path d="M70.5966 114.166L67.667 113.076L69.0417 110.231C89.5866 68.1839 145.637 59.1203 178.393 92.5591L180.574 94.7966L178.147 96.7591C153.857 116.47 98.9347 124.851 70.5966 114.166ZM75.6498 109.881C102.452 118.034 149.154 110.468 171.994 94.3036C165.078 87.944 156.809 83.2364 147.81 80.5353C138.811 77.8342 129.316 77.2099 120.041 78.7096C110.766 80.2092 101.952 83.7936 94.2629 89.1928C86.5736 94.5921 80.2095 101.666 75.6498 109.881Z" fill="#6A7780"/>
<path d="M81.4999 187.348L79.3193 185.12L81.7464 183.148C105.685 163.76 160.437 154.895 189.297 165.77L192.226 166.87L190.851 169.714C170.354 211.676 114.332 220.872 81.4999 187.348ZM87.8994 185.632C94.8148 191.994 103.084 196.703 112.083 199.405C121.082 202.107 130.577 202.732 139.853 201.232C149.129 199.732 157.943 196.147 165.632 190.747C173.321 185.347 179.685 178.272 184.243 170.055C157.422 161.892 110.729 169.467 87.8994 185.632Z" fill="#6A7780"/>
<path d="M193.567 126.801L65.4189 147.511L66.3265 153.127L194.475 132.417L193.567 126.801Z" fill="#6A7780"/>
<path d="M207.541 224.771L83.0049 244.897L85.1799 258.355L209.716 238.229L207.541 224.771Z" fill="#071C2C"/>
<path d="M191.838 259.522L108.867 272.93L111.042 286.389L194.013 272.981L191.838 259.522Z" fill="#071C2C"/>
<path d="M129.985 207.732C117.042 207.739 104.368 204.04 93.4622 197.071C82.5561 190.102 73.8739 180.156 68.4426 168.408C63.0113 156.66 61.0581 143.603 62.814 130.78C64.5699 117.957 69.9615 105.905 78.3509 96.0501C86.7404 86.195 97.7769 78.9487 110.155 75.1683C122.533 71.3879 135.735 71.2316 148.199 74.7179C160.663 78.2041 171.868 85.1871 180.488 94.8409C189.109 104.495 194.784 116.415 196.843 129.193C198.397 138.874 197.832 148.777 195.188 158.219C192.543 167.66 187.883 176.416 181.527 183.882C175.171 191.348 167.272 197.347 158.373 201.464C149.475 205.582 139.789 207.72 129.985 207.732ZM74.1521 112.753C68.5299 124.26 66.6053 137.225 68.6421 149.869C70.679 162.513 76.5777 174.217 85.5291 183.376C115.536 214.018 166.874 205.722 185.703 167.183C191.324 155.675 193.248 142.711 191.211 130.068C189.174 117.424 183.276 105.72 174.326 96.56C144.177 65.7664 92.8862 74.4034 74.1521 112.753Z" fill="#6A7780"/>
<path style="mix-blend-mode:multiply" d="M289.196 242.356V327.437H216.033C209.254 282.63 244.124 242.375 289.196 242.356Z" fill="url(#paint1_linear_204_1048)"/>
<path d="M292.03 330.281L204.011 330.272V324.583L286.351 324.593L286.361 230.581H292.049L292.03 330.281Z" fill="#6A7780"/>
<path d="M289.233 374.793C321.492 374.793 347.644 348.642 347.644 316.382C347.644 284.122 321.492 257.971 289.233 257.971C256.973 257.971 230.821 284.122 230.821 316.382C230.821 348.642 256.973 374.793 289.233 374.793Z" fill="#F5F5F5"/>
<path d="M366.408 311.955C366.303 310.134 366.133 308.295 365.905 306.494L371.546 305.773C371.793 307.669 371.973 309.679 372.087 311.632L366.408 311.955ZM364.218 297.515C363.772 295.752 363.269 293.979 362.691 292.244L368.095 290.471C368.702 292.367 369.252 294.263 369.726 296.16L364.218 297.515ZM359.325 283.73C358.558 282.081 357.723 280.44 356.832 278.848L361.8 276.079C362.748 277.786 363.696 279.559 364.483 281.322L359.325 283.73ZM351.93 271.13C350.859 269.661 349.731 268.201 348.555 266.798L352.926 263.157C354.177 264.655 355.391 266.219 356.538 267.802L351.93 271.13ZM342.288 260.142C340.971 258.891 339.586 257.677 338.174 256.52L341.777 252.121C343.293 253.354 344.772 254.662 346.204 256.008L342.288 260.142ZM330.779 251.164C329.243 250.216 327.65 249.267 326.038 248.376L328.75 243.37C330.466 244.318 332.172 245.314 333.822 246.366L330.779 251.164ZM317.79 244.527C316.093 243.854 314.358 243.238 312.623 242.688L314.339 237.265C316.235 237.853 318.075 238.526 319.885 239.246L317.79 244.527Z" fill="#A9AFC4"/>
<path d="M289.233 377.638C277.116 377.64 265.269 374.048 255.193 367.317C245.116 360.585 237.263 351.017 232.624 339.822C227.986 328.627 226.772 316.308 229.136 304.423C231.499 292.538 237.334 281.62 245.903 273.052C254.472 264.483 265.389 258.648 277.274 256.284C289.159 253.921 301.478 255.135 312.673 259.773C323.868 264.411 333.437 272.265 340.168 282.342C346.899 292.418 350.491 304.264 350.489 316.382C350.469 332.622 344.009 348.191 332.525 359.674C321.042 371.157 305.473 377.618 289.233 377.638ZM289.233 260.806C278.241 260.804 267.495 264.062 258.354 270.167C249.213 276.273 242.089 284.952 237.881 295.107C233.673 305.262 232.571 316.437 234.714 327.219C236.858 338 242.15 347.904 249.922 355.677C257.694 363.451 267.597 368.745 278.378 370.89C289.159 373.035 300.334 371.935 310.49 367.729C320.646 363.523 329.326 356.4 335.433 347.26C341.541 338.12 344.8 327.375 344.8 316.382C344.783 301.649 338.923 287.525 328.506 277.106C318.09 266.688 303.966 260.826 289.233 260.806Z" fill="#6A7780"/>
<path d="M289.233 280.886C270.271 280.886 259.33 301.858 269.323 317.349C269.228 317.349 268.678 316.249 289.233 351.859C311.911 312.561 310.906 314.799 311.986 311.092C312.992 307.568 313.167 303.859 312.497 300.256C311.827 296.653 310.331 293.254 308.126 290.327C305.921 287.4 303.067 285.024 299.789 283.386C296.511 281.748 292.897 280.892 289.233 280.886ZM289.233 313.728C287.311 313.733 285.431 313.168 283.83 312.105C282.23 311.041 280.981 309.526 280.242 307.752C279.503 305.978 279.307 304.025 279.68 302.139C280.052 300.254 280.975 298.521 282.333 297.161C283.69 295.801 285.421 294.874 287.305 294.498C289.19 294.123 291.144 294.314 292.919 295.05C294.695 295.785 296.212 297.031 297.279 298.629C298.346 300.228 298.914 302.107 298.912 304.029C298.91 306.598 297.89 309.061 296.076 310.881C294.262 312.7 291.802 313.727 289.233 313.737V313.728Z" fill="#071C2C"/>
<defs>
<linearGradient id="paint0_linear_204_1048" x1="322.481" y1="323.96" x2="39.0249" y2="79.3818" gradientUnits="userSpaceOnUse">
<stop stop-color="#CACFDD"/>
<stop offset="1" stop-color="#EEF0F1"/>
</linearGradient>
<linearGradient id="paint1_linear_204_1048" x1="215.189" y1="284.896" x2="289.196" y2="284.896" gradientUnits="userSpaceOnUse">
<stop stop-color="#CACFDD"/>
<stop offset="1" stop-color="#EEF0F1"/>
</linearGradient>
</defs>
</svg>
