<?xml version="1.0" encoding="utf-8"?>
<!-- Generator: Adobe Illustrator 28.2.0, SVG Export Plug-In . SVG Version: 6.00 Build 0)  -->
<svg version="1.1" id="Layer_1" xmlns="http://www.w3.org/2000/svg" xmlns:xlink="http://www.w3.org/1999/xlink" x="0px" y="0px"
	 viewBox="0 0 200 64.3" style="enable-background:new 0 0 200 64.3;" xml:space="preserve">
<style type="text/css">
	.st0{opacity:1;fill:#FFF;}
	.st1{fill:#4f46e5;}
</style>
<polygon class="st0" points="201.1,60.9 195.5,36.7 101.4,0 100.8,45.5 "/>
<path class="st0" d="M0.9,61.8l5.8-24.2L101.4,0c0,0-0.2,41.6,0.3,45.9C100.1,45.6,0.9,61.8,0.9,61.8z"/>
<path class="st1" d="M101.4,25.4c0,0,87.7,23.1,90.6,25.2c1.6,1.1,1.1,9.3,1.1,9.3l-91.4-14.1L101.4,25.4z"/>
<path class="st1" d="M102.3,45.8L10.8,60.6c0,0-0.4-8.3,1.1-9.3c3.5-2.4,89.5-25.9,89.5-25.9L102.3,45.8z"/>
</svg>
