<?xml version="1.0" encoding="utf-8"?>
<!-- Generator: Adobe Illustrator 28.2.0, SVG Export Plug-In . SVG Version: 6.00 Build 0)  -->
<svg version="1.1" id="Layer_1" xmlns="http://www.w3.org/2000/svg" xmlns:xlink="http://www.w3.org/1999/xlink" x="0px" y="0px"
	 viewBox="0 0 151.1 171.6" style="enable-background:new 0 0 151.1 171.6;" xml:space="preserve">
<style type="text/css">
	.st0{fill:#FFF;}
	<!-- .st1{fill:#d90429;} -->
	.st1{fill:#FFF;}
</style>
<path class="st0" d="M0,0c0,0,17.4,93.4,33.2,132.3c21.6,52.9,60.5,43.2,78.4,2.4C126.1,102.1,153.8-0.1,151.1,0C148.5,0.1,0,0,0,0z
	"/>
<path class="st1" d="M151.1-0.2c-3.5,0.2-21.7,0-31.7,0.1c-9.4,0.1-18.4,0.1-27.3,0.1c1.1,17.7,1.7,35.3,2,54.2
	c0.2,13.7,0.2,27,0,40.1c9.2-5.9,29-20.3,42-46.9C145.7,32.2,148.9,7.9,151.1-0.2z"/>
<path class="st1" d="M0-0.4c0,0,52.9,0.2,57.7,0.5c-0.1,1.6-2.2,37.9-2.6,56.8c-0.3,13.7-0.4,27-0.3,40.1
	c-9.1-5.9-28.9-20.5-41.7-47.2C3.3,29.2,0-0.4,0-0.4z"/>
</svg>
